  0
SECTION
  2
HEADER
  9
$ACADVER
  1
AC1032
  9
$ACADMAINTVER
 90
4
  9
$DWGCODEPAGE
  3
ANSI_1252
  9
$LASTSAVEDBY
  1
ezdxf
  9
$REQUIREDVERSIONS
160
0
  9
$INSBASE
 10
0.0
 20
0.0
 30
0.0
  9
$EXTMIN
 10
1e+20
 20
1e+20
 30
1e+20
  9
$EXTMAX
 10
-1e+20
 20
-1e+20
 30
-1e+20
  9
$LIMMIN
 10
0.0
 20
0.0
  9
$LIMMAX
 10
420.0
 20
297.0
  9
$ORTHOMODE
 70
0
  9
$REGENMODE
 70
1
  9
$FILLMODE
 70
1
  9
$QTEXTMODE
 70
0
  9
$MIRRTEXT
 70
1
  9
$LTSCALE
 40
1.0
  9
$ATTMODE
 70
1
  9
$TEXTSIZE
 40
2.5
  9
$TRACEWID
 40
1.0
  9
$TEXTSTYLE
  7
Standard
  9
$CLAYER
  8
0
  9
$CELTYPE
  6
ByLayer
  9
$CECOLOR
 62
256
  9
$CELTSCALE
 40
1.0
  9
$DISPSILH
 70
0
  9
$DIMSCALE
 40
1.0
  9
$DIMASZ
 40
2.5
  9
$DIMEXO
 40
0.625
  9
$DIMDLI
 40
3.75
  9
$DIMRND
 40
0.0
  9
$DIMDLE
 40
0.0
  9
$DIMEXE
 40
1.25
  9
$DIMTP
 40
0.0
  9
$DIMTM
 40
0.0
  9
$DIMTXT
 40
2.5
  9
$DIMCEN
 40
2.5
  9
$DIMTSZ
 40
0.0
  9
$DIMTOL
 70
0
  9
$DIMLIM
 70
0
  9
$DIMTIH
 70
0
  9
$DIMTOH
 70
0
  9
$DIMSE1
 70
0
  9
$DIMSE2
 70
0
  9
$DIMTAD
 70
1
  9
$DIMZIN
 70
8
  9
$DIMBLK
  1

  9
$DIMASO
 70
1
  9
$DIMSHO
 70
1
  9
$DIMPOST
  1

  9
$DIMAPOST
  1

  9
$DIMALT
 70
0
  9
$DIMALTD
 70
3
  9
$DIMALTF
 40
0.03937007874
  9
$DIMLFAC
 40
1.0
  9
$DIMTOFL
 70
1
  9
$DIMTVP
 40
0.0
  9
$DIMTIX
 70
0
  9
$DIMSOXD
 70
0
  9
$DIMSAH
 70
0
  9
$DIMBLK1
  1

  9
$DIMBLK2
  1

  9
$DIMSTYLE
  2
ISO-25
  9
$DIMCLRD
 70
0
  9
$DIMCLRE
 70
0
  9
$DIMCLRT
 70
0
  9
$DIMTFAC
 40
1.0
  9
$DIMGAP
 40
0.625
  9
$DIMJUST
 70
0
  9
$DIMSD1
 70
0
  9
$DIMSD2
 70
0
  9
$DIMTOLJ
 70
0
  9
$DIMTZIN
 70
8
  9
$DIMALTZ
 70
0
  9
$DIMALTTZ
 70
0
  9
$DIMUPT
 70
0
  9
$DIMDEC
 70
2
  9
$DIMTDEC
 70
2
  9
$DIMALTU
 70
2
  9
$DIMALTTD
 70
3
  9
$DIMTXSTY
  7
Standard
  9
$DIMAUNIT
 70
0
  9
$DIMADEC
 70
0
  9
$DIMALTRND
 40
0.0
  9
$DIMAZIN
 70
0
  9
$DIMDSEP
 70
44
  9
$DIMATFIT
 70
3
  9
$DIMFRAC
 70
0
  9
$DIMLDRBLK
  1

  9
$DIMLUNIT
 70
2
  9
$DIMLWD
 70
-2
  9
$DIMLWE
 70
-2
  9
$DIMTMOVE
 70
0
  9
$DIMFXL
 40
1.0
  9
$DIMFXLON
 70
0
  9
$DIMJOGANG
 40
0.785398163397
  9
$DIMTFILL
 70
0
  9
$DIMTFILLCLR
 70
0
  9
$DIMARCSYM
 70
0
  9
$DIMLTYPE
  6

  9
$DIMLTEX1
  6

  9
$DIMLTEX2
  6

  9
$DIMTXTDIRECTION
 70
0
  9
$LUNITS
 70
2
  9
$LUPREC
 70
4
  9
$SKETCHINC
 40
1.0
  9
$FILLETRAD
 40
10.0
  9
$AUNITS
 70
0
  9
$AUPREC
 70
2
  9
$MENU
  1
.
  9
$ELEVATION
 40
0.0
  9
$PELEVATION
 40
0.0
  9
$THICKNESS
 40
0.0
  9
$LIMCHECK
 70
0
  9
$CHAMFERA
 40
0.0
  9
$CHAMFERB
 40
0.0
  9
$CHAMFERC
 40
0.0
  9
$CHAMFERD
 40
0.0
  9
$SKPOLY
 70
0
  9
$TDCREATE
 40
2461273.9861689815
  9
$TDUCREATE
 40
2458532.153996898
  9
$TDUPDATE
 40
2461273.9861805555
  9
$TDUUPDATE
 40
2458532.1544311
  9
$TDINDWG
 40
0.0
  9
$TDUSRTIMER
 40
0.0
  9
$USRTIMER
 70
1
  9
$ANGBASE
 50
0.0
  9
$ANGDIR
 70
0
  9
$PDMODE
 70
0
  9
$PDSIZE
 40
0.0
  9
$PLINEWID
 40
0.0
  9
$SPLFRAME
 70
0
  9
$SPLINETYPE
 70
6
  9
$SPLINESEGS
 70
8
  9
$HANDSEED
  5
9A
  9
$SURFTAB1
 70
6
  9
$SURFTAB2
 70
6
  9
$SURFTYPE
 70
6
  9
$SURFU
 70
6
  9
$SURFV
 70
6
  9
$UCSBASE
  2

  9
$UCSNAME
  2

  9
$UCSORG
 10
0.0
 20
0.0
 30
0.0
  9
$UCSXDIR
 10
1.0
 20
0.0
 30
0.0
  9
$UCSYDIR
 10
0.0
 20
1.0
 30
0.0
  9
$UCSORTHOREF
  2

  9
$UCSORTHOVIEW
 70
0
  9
$UCSORGTOP
 10
0.0
 20
0.0
 30
0.0
  9
$UCSORGBOTTOM
 10
0.0
 20
0.0
 30
0.0
  9
$UCSORGLEFT
 10
0.0
 20
0.0
 30
0.0
  9
$UCSORGRIGHT
 10
0.0
 20
0.0
 30
0.0
  9
$UCSORGFRONT
 10
0.0
 20
0.0
 30
0.0
  9
$UCSORGBACK
 10
0.0
 20
0.0
 30
0.0
  9
$PUCSBASE
  2

  9
$PUCSNAME
  2

  9
$PUCSORG
 10
0.0
 20
0.0
 30
0.0
  9
$PUCSXDIR
 10
1.0
 20
0.0
 30
0.0
  9
$PUCSYDIR
 10
0.0
 20
1.0
 30
0.0
  9
$PUCSORTHOREF
  2

  9
$PUCSORTHOVIEW
 70
0
  9
$PUCSORGTOP
 10
0.0
 20
0.0
 30
0.0
  9
$PUCSORGBOTTOM
 10
0.0
 20
0.0
 30
0.0
  9
$PUCSORGLEFT
 10
0.0
 20
0.0
 30
0.0
  9
$PUCSORGRIGHT
 10
0.0
 20
0.0
 30
0.0
  9
$PUCSORGFRONT
 10
0.0
 20
0.0
 30
0.0
  9
$PUCSORGBACK
 10
0.0
 20
0.0
 30
0.0
  9
$USERI1
 70
0
  9
$USERI2
 70
0
  9
$USERI3
 70
0
  9
$USERI4
 70
0
  9
$USERI5
 70
0
  9
$USERR1
 40
0.0
  9
$USERR2
 40
0.0
  9
$USERR3
 40
0.0
  9
$USERR4
 40
0.0
  9
$USERR5
 40
0.0
  9
$WORLDVIEW
 70
1
  9
$SHADEDGE
 70
3
  9
$SHADEDIF
 70
70
  9
$TILEMODE
 70
1
  9
$MAXACTVP
 70
64
  9
$PINSBASE
 10
0.0
 20
0.0
 30
0.0
  9
$PLIMCHECK
 70
0
  9
$PEXTMIN
 10
1e+20
 20
1e+20
 30
1e+20
  9
$PEXTMAX
 10
-1e+20
 20
-1e+20
 30
-1e+20
  9
$PLIMMIN
 10
0.0
 20
0.0
  9
$PLIMMAX
 10
420.0
 20
297.0
  9
$UNITMODE
 70
0
  9
$VISRETAIN
 70
1
  9
$PLINEGEN
 70
0
  9
$PSLTSCALE
 70
1
  9
$TREEDEPTH
 70
3020
  9
$CMLSTYLE
  2
Standard
  9
$CMLJUST
 70
0
  9
$CMLSCALE
 40
20.0
  9
$PROXYGRAPHICS
 70
1
  9
$MEASUREMENT
 70
1
  9
$CELWEIGHT
370
-1
  9
$ENDCAPS
280
0
  9
$JOINSTYLE
280
0
  9
$LWDISPLAY
290
0
  9
$INSUNITS
 70
4
  9
$HYPERLINKBASE
  1

  9
$STYLESHEET
  1

  9
$XEDIT
290
1
  9
$CEPSNTYPE
380
0
  9
$PSTYLEMODE
290
1
  9
$FINGERPRINTGUID
  2
{7F0B7FF2-FBF1-47BC-9362-E24C87E25FA9}
  9
$VERSIONGUID
  2
{40912D76-F182-43E6-8EF4-45FF9006DF36}
  9
$EXTNAMES
290
1
  9
$PSVPSCALE
 40
0.0
  9
$OLESTARTUP
290
0
  9
$SORTENTS
280
127
  9
$INDEXCTL
280
0
  9
$HIDETEXT
280
1
  9
$XCLIPFRAME
280
1
  9
$HALOGAP
280
0
  9
$OBSCOLOR
 70
257
  9
$OBSLTYPE
280
0
  9
$INTERSECTIONDISPLAY
280
0
  9
$INTERSECTIONCOLOR
 70
257
  9
$DIMASSOC
280
2
  9
$PROJECTNAME
  1

  9
$CAMERADISPLAY
290
0
  9
$LENSLENGTH
 40
50.0
  9
$CAMERAHEIGHT
 40
0.0
  9
$STEPSPERSEC
 40
24.0
  9
$STEPSIZE
 40
100.0
  9
$3DDWFPREC
 40
2.0
  9
$PSOLWIDTH
 40
0.005
  9
$PSOLHEIGHT
 40
0.08
  9
$LOFTANG1
 40
1.570796326795
  9
$LOFTANG2
 40
1.570796326795
  9
$LOFTMAG1
 40
0.0
  9
$LOFTMAG2
 40
0.0
  9
$LOFTPARAM
 70
7
  9
$LOFTNORMALS
280
1
  9
$LATITUDE
 40
37.795
  9
$LONGITUDE
 40
-122.394
  9
$NORTHDIRECTION
 40
0.0
  9
$TIMEZONE
 70
-8000
  9
$LIGHTGLYPHDISPLAY
280
1
  9
$TILEMODELIGHTSYNCH
280
1
  9
$CMATERIAL
347
20
  9
$SOLIDHIST
280
0
  9
$SHOWHIST
280
1
  9
$DWFFRAME
280
2
  9
$DGNFRAME
280
2
  9
$REALWORLDSCALE
290
1
  9
$INTERFERECOLOR
 62
256
  9
$CSHADOW
280
0
  9
$SHADOWPLANELOCATION
 40
0.0
  0
ENDSEC
  0
SECTION
  2
CLASSES
  0
CLASS
  1
ACDBDICTIONARYWDFLT
  2
AcDbDictionaryWithDefault
  3
ObjectDBX Classes
 90
0
 91
0
280
0
281
0
  0
CLASS
  1
SUN
  2
AcDbSun
  3
SCENEOE
 90
1153
 91
0
280
0
281
0
  0
CLASS
  1
VISUALSTYLE
  2
AcDbVisualStyle
  3
ObjectDBX Classes
 90
4095
 91
0
280
0
281
0
  0
CLASS
  1
MATERIAL
  2
AcDbMaterial
  3
ObjectDBX Classes
 90
1153
 91
0
280
0
281
0
  0
CLASS
  1
SCALE
  2
AcDbScale
  3
ObjectDBX Classes
 90
1153
 91
0
280
0
281
0
  0
CLASS
  1
TABLESTYLE
  2
AcDbTableStyle
  3
ObjectDBX Classes
 90
4095
 91
0
280
0
281
0
  0
CLASS
  1
MLEADERSTYLE
  2
AcDbMLeaderStyle
  3
ACDB_MLEADERSTYLE_CLASS
 90
4095
 91
0
280
0
281
0
  0
CLASS
  1
DICTIONARYVAR
  2
AcDbDictionaryVar
  3
ObjectDBX Classes
 90
0
 91
0
280
0
281
0
  0
CLASS
  1
CELLSTYLEMAP
  2
AcDbCellStyleMap
  3
ObjectDBX Classes
 90
1152
 91
0
280
0
281
0
  0
CLASS
  1
MENTALRAYRENDERSETTINGS
  2
AcDbMentalRayRenderSettings
  3
SCENEOE
 90
1024
 91
0
280
0
281
0
  0
CLASS
  1
ACDBDETAILVIEWSTYLE
  2
AcDbDetailViewStyle
  3
ObjectDBX Classes
 90
1025
 91
0
280
0
281
0
  0
CLASS
  1
ACDBSECTIONVIEWSTYLE
  2
AcDbSectionViewStyle
  3
ObjectDBX Classes
 90
1025
 91
0
280
0
281
0
  0
CLASS
  1
RASTERVARIABLES
  2
AcDbRasterVariables
  3
ISM
 90
0
 91
0
280
0
281
0
  0
CLASS
  1
LAYOUT
  2
AcDbLayout
  3
ObjectDBX Classes
 90
0
 91
0
280
0
281
0
  0
CLASS
  1
ACDBPLACEHOLDER
  2
AcDbPlaceHolder
  3
ObjectDBX Classes
 90
0
 91
0
280
0
281
0
  0
ENDSEC
  0
SECTION
  2
TABLES
  0
TABLE
  2
VPORT
  5
8
330
0
100
AcDbSymbolTable
 70
1
  0
VPORT
  5
23
330
8
100
AcDbSymbolTableRecord
100
AcDbViewportTableRecord
  2
*Active
 70
0
 10
0.0
 20
0.0
 11
1.0
 21
1.0
 12
0.0
 22
0.0
 13
0.0
 23
0.0
 14
0.5
 24
0.5
 15
0.5
 25
0.5
 16
0.0
 26
0.0
 36
1.0
 17
0.0
 27
0.0
 37
0.0
 40
1000.0
 41
1.34
 42
50.0
 43
0.0
 44
0.0
 50
0.0
 51
0.0
 71
0
 72
1000
 73
1
 74
3
 75
0
 76
0
 77
0
 78
0
281
0
 65
0
146
0.0
  0
ENDTAB
  0
TABLE
  2
LTYPE
  5
2
330
0
100
AcDbSymbolTable
 70
3
  0
LTYPE
  5
24
330
2
100
AcDbSymbolTableRecord
100
AcDbLinetypeTableRecord
  2
ByBlock
 70
0
  3

 72
65
 73
0
 40
0.0
  0
LTYPE
  5
25
330
2
100
AcDbSymbolTableRecord
100
AcDbLinetypeTableRecord
  2
ByLayer
 70
0
  3

 72
65
 73
0
 40
0.0
  0
LTYPE
  5
26
330
2
100
AcDbSymbolTableRecord
100
AcDbLinetypeTableRecord
  2
Continuous
 70
0
  3

 72
65
 73
0
 40
0.0
  0
ENDTAB
  0
TABLE
  2
LAYER
  5
1
330
0
100
AcDbSymbolTable
 70
12
  0
LAYER
  5
27
330
1
100
AcDbSymbolTableRecord
100
AcDbLayerTableRecord
  2
0
 70
0
 62
7
  6
Continuous
370
-3
390
13
347
21
  0
LAYER
  5
28
330
1
100
AcDbSymbolTableRecord
100
AcDbLayerTableRecord
  2
Defpoints
 70
0
 62
7
  6
Continuous
290
0
370
-3
390
13
347
21
  0
LAYER
  5
2F
330
1
100
AcDbSymbolTableRecord
100
AcDbLayerTableRecord
  2
PRSNAMES
 70
0
 62
7
  6
Continuous
370
-3
390
13
347
21
  0
LAYER
  5
32
330
1
100
AcDbSymbolTableRecord
100
AcDbLayerTableRecord
  2
FALARM
 70
0
 62
7
  6
Continuous
370
-3
390
13
347
21
  0
LAYER
  5
3C
330
1
100
AcDbSymbolTableRecord
100
AcDbLayerTableRecord
  2
GIA
 70
0
 62
7
  6
Continuous
370
-3
390
13
347
21
  0
LAYER
  5
3F
330
1
100
AcDbSymbolTableRecord
100
AcDbLayerTableRecord
  2
WASTE & RECYCLING STATIONS
 70
0
 62
7
  6
Continuous
370
-3
390
13
347
21
  0
LAYER
  5
45
330
1
100
AcDbSymbolTableRecord
100
AcDbLayerTableRecord
  2
A-AREA-IDEN
 70
0
 62
7
  6
Continuous
370
-3
390
13
347
21
  0
LAYER
  5
6E
330
1
100
AcDbSymbolTableRecord
100
AcDbLayerTableRecord
  2
CSM-STL-XX-ZZ-M3-A-XXXX-00001_detached _19_04_21__rvt-1-Level 0$0$A-FLOR-LEVL-TEXT
 70
0
 62
7
  6
Continuous
370
-3
390
13
347
21
  0
LAYER
  5
70
330
1
100
AcDbSymbolTableRecord
100
AcDbLayerTableRecord
  2
A-ANNO-DIMS
 70
0
 62
7
  6
Continuous
370
-3
390
13
347
21
  0
LAYER
  5
73
330
1
100
AcDbSymbolTableRecord
100
AcDbLayerTableRecord
  2
BUILDING_ACCESS
 70
0
 62
7
  6
Continuous
370
-3
390
13
347
21
  0
LAYER
  5
7E
330
1
100
AcDbSymbolTableRecord
100
AcDbLayerTableRecord
  2
ROOM ASSIGNMENT
 70
0
 62
7
  6
Continuous
370
-3
390
13
347
21
  0
LAYER
  5
81
330
1
100
AcDbSymbolTableRecord
100
AcDbLayerTableRecord
  2
A-AREA-ROOM
 70
0
 62
7
  6
Continuous
370
-3
390
13
347
21
  0
ENDTAB
  0
TABLE
  2
STYLE
  5
5
330
0
100
AcDbSymbolTable
 70
1
  0
STYLE
  5
29
330
5
100
AcDbSymbolTableRecord
100
AcDbTextStyleTableRecord
  2
Standard
 70
0
 40
0.0
 41
1.0
 50
0.0
 71
0
 42
2.5
  3
txt
  4

  0
ENDTAB
  0
TABLE
  2
VIEW
  5
7
330
0
100
AcDbSymbolTable
 70
0
  0
ENDTAB
  0
TABLE
  2
UCS
  5
6
330
0
100
AcDbSymbolTable
 70
0
  0
ENDTAB
  0
TABLE
  2
APPID
  5
3
330
0
100
AcDbSymbolTable
 70
3
  0
APPID
  5
2A
330
3
100
AcDbSymbolTableRecord
100
AcDbRegAppTableRecord
  2
ACAD
 70
0
  0
APPID
  5
97
330
3
100
AcDbSymbolTableRecord
100
AcDbRegAppTableRecord
  2
HATCHBACKGROUNDCOLOR
 70
0
  0
APPID
  5
98
330
3
100
AcDbSymbolTableRecord
100
AcDbRegAppTableRecord
  2
EZDXF
 70
0
  0
ENDTAB
  0
TABLE
  2
DIMSTYLE
  5
4
330
0
100
AcDbSymbolTable
 70
1
100
AcDbDimStyleTable
  0
DIMSTYLE
105
2B
330
4
100
AcDbSymbolTableRecord
100
AcDbDimStyleTableRecord
  2
Standard
 70
0
 40
1.0
 41
2.5
 42
0.625
 43
3.75
 44
1.25
 45
0.0
 46
0.0
 47
0.0
 48
0.0
 49
2.5
140
2.5
141
2.5
142
0.0
143
0.03937007874
144
1.0
145
0.0
146
1.0
147
0.625
148
0.0
 69
0
 70
0
 71
0
 72
0
 73
0
 74
0
 75
0
 76
0
 77
1
 78
8
 79
3
170
0
171
3
172
1
173
0
174
0
175
0
176
0
177
0
178
0
179
2
271
2
272
2
273
2
274
3
275
0
276
0
277
2
278
44
279
0
280
0
281
0
282
0
283
0
284
8
285
0
286
0
288
0
289
3
290
0
371
-2
372
-2
  0
ENDTAB
  0
TABLE
  2
BLOCK_RECORD
  5
9
330
0
100
AcDbSymbolTable
 70
2
  0
BLOCK_RECORD
  5
17
330
9
100
AcDbSymbolTableRecord
100
AcDbBlockTableRecord
  2
*Model_Space
340
1A
 70
0
280
1
281
0
  0
BLOCK_RECORD
  5
1B
330
9
100
AcDbSymbolTableRecord
100
AcDbBlockTableRecord
  2
*Paper_Space
340
1E
 70
0
280
1
281
0
  0
ENDTAB
  0
ENDSEC
  0
SECTION
  2
BLOCKS
  0
BLOCK
  5
18
330
17
100
AcDbEntity
  8
0
100
AcDbBlockBegin
  2
*Model_Space
 70
0
 10
0.0
 20
0.0
 30
0.0
  3
*Model_Space
  1

  0
ENDBLK
  5
19
330
17
100
AcDbEntity
  8
0
100
AcDbBlockEnd
  0
BLOCK
  5
1C
330
1B
100
AcDbEntity
  8
0
100
AcDbBlockBegin
  2
*Paper_Space
 70
0
 10
0.0
 20
0.0
 30
0.0
  3
*Paper_Space
  1

  0
ENDBLK
  5
1D
330
1B
100
AcDbEntity
  8
0
100
AcDbBlockEnd
  0
ENDSEC
  0
SECTION
  2
ENTITIES
  0
TEXT
  5
30
330
17
100
AcDbEntity
  8
PRSNAMES
100
AcDbText
 10
94261.31966166136
 20
24293.40091087214
 30
0.0
 40
250.0
  1
\pxqc;{\fArial|b0|i0|c0|p34;\H1.6x;Z01}
100
AcDbText
  0
TEXT
  5
31
330
17
100
AcDbEntity
  8
PRSNAMES
100
AcDbText
 10
89862.67811854661
 20
20982.48865184173
 30
0.0
 40
250.0
  1
\pxqc;{\fArial|b0|i0|c0|p34;\H1.6x;Z02}
100
AcDbText
  0
TEXT
  5
33
330
17
100
AcDbEntity
  8
FALARM
100
AcDbText
 10
282153.5570322825
 20
41406.07163135697
 30
0.0
 40
112.5
  1
HEAT DETECTOR AND SOUNDER BASE
100
AcDbText
  0
TEXT
  5
34
330
17
100
AcDbEntity
  8
FALARM
100
AcDbText
 10
282153.5570322825
 20
40906.07163135697
 30
0.0
 40
112.5
  1
FIRE ALARM PANEL
100
AcDbText
  0
TEXT
  5
35
330
17
100
AcDbEntity
  8
FALARM
100
AcDbText
 10
282153.5570322825
 20
39906.07163135697
 30
0.0
 40
112.5
  1
INTERFACE UNIT
100
AcDbText
  0
TEXT
  5
36
330
17
100
AcDbEntity
  8
FALARM
100
AcDbText
 10
282153.5570322825
 20
42906.07163135695
 30
0.0
 40
112.5
  1
MANUAL CALL POINT
100
AcDbText
  0
TEXT
  5
37
330
17
100
AcDbEntity
  8
FALARM
100
AcDbText
 10
281340.1621373595
 20
43336.08103975214
 30
0.0
 40
200.0
  1
FIRE  ALARM  &  EMERGENCY  LIGHTING  LEGEND
100
AcDbText
  0
TEXT
  5
38
330
17
100
AcDbEntity
  8
FALARM
100
AcDbText
 10
282153.5363618459
 20
40612.32846454363
 30
0.0
 40
112.5
  1
SYMBOL TAG WHERE "X" DENOTES ZONE NUMBER AND\P"Y" DENOTES POSITION OF DEVICE
100
AcDbText
  0
TEXT
  5
39
330
17
100
AcDbEntity
  8
FALARM
100
AcDbText
 10
281417.6551767234
 20
40406.04957605472
 30
0.0
 40
112.5
  1
X/Y
100
AcDbText
  0
TEXT
  5
3A
330
17
100
AcDbEntity
  8
FALARM
100
AcDbText
 10
282153.536361846
 20
42112.32846454364
 30
0.0
 40
112.5
  1
COMBINED SMOKE/HEAT DETECTOR AND SOUNDER BASE
100
AcDbText
  0
TEXT
  5
3B
330
17
100
AcDbEntity
  8
FALARM
100
AcDbText
 10
282153.55703226
 20
42406.0716314182
 30
0.0
 40
112.4999999775
  1
SMOKE DETECTOR (LOCATED IN CEILING VOID)
100
AcDbText
  0
TEXT
  5
3D
330
17
100
AcDbEntity
  8
GIA
100
AcDbText
 10
329624.1425605196
 20
51928.39313949532
 30
0.0
 40
401.0720291742854
  1
\pxqc;GIA
100
AcDbText
  0
TEXT
  5
3E
330
17
100
AcDbEntity
  8
GIA
100
AcDbText
 10
332747.5693771986
 20
51928.39313949542
 30
0.0
 40
401.0920837784742
  1
\A1;1622.88 m{\H0.7x;\S2^ ;}
100
AcDbText
  0
TEXT
  5
40
330
17
100
AcDbEntity
  8
WASTE & RECYCLING STATIONS
100
AcDbText
 10
281230.0534566887
 20
43510.59110965364
 30
0.0
 40
257.2562063916069
  1
{\fArial|b0|i0|c0|p34;Waste & Recycling Station Legend}
100
AcDbText
  0
TEXT
  5
41
330
17
100
AcDbEntity
  8
WASTE & RECYCLING STATIONS
100
AcDbText
 10
283611.3380095923
 20
42748.1534374717
 30
0.0
 40
245.0059108491495
  1
{\fArial|b0|i0|c0|p34;Waste & Recycling Station (Six Units):\PEssential Location}
100
AcDbText
  0
TEXT
  5
42
330
17
100
AcDbEntity
  8
WASTE & RECYCLING STATIONS
100
AcDbText
 10
283611.3380095923
 20
41250.40075650125
 30
0.0
 40
245.0059108491495
  1
{\fArial|b0|i0|c0|p34;Waste & Recycling Station (Six Units):\PPreferable Location}
100
AcDbText
  0
TEXT
  5
43
330
17
100
AcDbEntity
  8
WASTE & RECYCLING STATIONS
100
AcDbText
 10
283611.3380095923
 20
39752.6480755308
 30
0.0
 40
245.0059108491495
  1
{\fArial|b0|i0|c0|p34;Food Waste Caddy:\PCounter Top Type,\PSmall, 5L}
100
AcDbText
  0
TEXT
  5
44
330
17
100
AcDbEntity
  8
WASTE & RECYCLING STATIONS
100
AcDbText
 10
283611.3380095923
 20
38254.89539456033
 30
0.0
 40
245.0059108491495
  1
{\fArial|b0|i0|c0|p34;Food Waste Caddy:\PFloor Standing Type,\PLarge, 15L}
100
AcDbText
  0
TEXT
  5
46
330
17
100
AcDbEntity
  8
A-AREA-IDEN
100
AcDbText
 10
180084.2701832146
 20
16291.04148629007
 30
0.0
 40
199.9999999999998
  1
96P Lecture
100
AcDbText
  0
TEXT
  5
47
330
17
100
AcDbEntity
  8
A-AREA-IDEN
100
AcDbText
 10
180614.5288507877
 20
16580.03386399353
 30
0.0
 40
199.9999999999998
  1
0.34
100
AcDbText
  0
TEXT
  5
48
330
17
100
AcDbEntity
  8
A-AREA-IDEN
100
AcDbText
 10
163513.0699133538
 20
21997.83361772454
 30
0.0
 40
199.9999999999998
  1
4 P Prof Serv
100
AcDbText
  0
TEXT
  5
49
330
17
100
AcDbEntity
  8
A-AREA-IDEN
100
AcDbText
 10
164073.3024082553
 20
22286.825995428
 30
0.0
 40
199.9999999999998
  1
0.32
100
AcDbText
  0
TEXT
  5
4A
330
17
100
AcDbEntity
  8
A-AREA-IDEN
100
AcDbText
 10
163510.3506747406
 20
16551.87921599794
 30
0.0
 40
199.9999999999998
  1
3 P Prof Serv
100
AcDbText
  0
TEXT
  5
4B
330
17
100
AcDbEntity
  8
A-AREA-IDEN
100
AcDbText
 10
164073.3024082553
 20
16840.8715937014
 30
0.0
 40
199.9999999999998
  1
0.33
100
AcDbText
  0
TEXT
  5
4C
330
17
100
AcDbEntity
  8
A-AREA-IDEN
100
AcDbText
 10
164747.1138529949
 20
24496.58236936279
 30
0.0
 40
199.9999999999998
  1
Records Storage
100
AcDbText
  0
TEXT
  5
4D
330
17
100
AcDbEntity
  8
A-AREA-IDEN
100
AcDbText
 10
165623.7012085354
 20
24785.57474706625
 30
0.0
 40
199.9999999999998
  1
0.31
100
AcDbText
  0
TEXT
  5
4E
330
17
100
AcDbEntity
  8
A-AREA-IDEN
100
AcDbText
 10
158121.9368152225
 20
26822.44629738102
 30
0.0
 40
199.9999999999998
  1
41P Collab S
100
AcDbText
  0
TEXT
  5
4F
330
17
100
AcDbEntity
  8
A-AREA-IDEN
100
AcDbText
 10
158662.669310124
 20
27111.43867508448
 30
0.0
 40
199.9999999999998
  1
0Z21
100
AcDbText
  0
TEXT
  5
50
330
17
100
AcDbEntity
  8
A-AREA-IDEN
100
AcDbText
 10
157604.3252366056
 20
19137.90516868325
 30
0.0
 40
199.9999999999998
  1
41P Collab S
100
AcDbText
  0
TEXT
  5
51
330
17
100
AcDbEntity
  8
A-AREA-IDEN
100
AcDbText
 10
158145.057731507
 20
19426.89754638672
 30
0.0
 40
199.9999999999998
  1
0Z21
100
AcDbText
  0
TEXT
  5
52
330
17
100
AcDbEntity
  8
A-AREA-IDEN
100
AcDbText
 10
193097.5585113495
 20
26544.28580700941
 30
0.0
 40
199.9999999999998
  1
Collab Sp Soft Seat
100
AcDbText
  0
TEXT
  5
53
330
17
100
AcDbEntity
  8
A-AREA-IDEN
100
AcDbText
 10
194099.3127601598
 20
26833.27818471288
 30
0.0
 40
199.9999999999998
  1
0Z23
100
AcDbText
  0
TEXT
  5
54
330
17
100
AcDbEntity
  8
A-AREA-IDEN
100
AcDbText
 10
165953.8881843941
 20
32038.37835882865
 30
0.0
 40
199.9999999999998
  1
Refuse Store
100
AcDbText
  0
TEXT
  5
55
330
17
100
AcDbEntity
  8
A-AREA-IDEN
100
AcDbText
 10
166539.4755399345
 20
32327.37073653211
 30
0.0
 40
199.9999999999998
  1
0.29
100
AcDbText
  0
TEXT
  5
56
330
17
100
AcDbEntity
  8
A-AREA-IDEN
100
AcDbText
 10
182509.3445185427
 20
30187.74831963918
 30
0.0
 40
199.9999999999998
  1
2 Person Prof Serv
100
AcDbText
  0
TEXT
  5
57
330
17
100
AcDbEntity
  8
A-AREA-IDEN
100
AcDbText
 10
183441.3006708201
 20
30476.74069734264
 30
0.0
 40
199.9999999999998
  1
0.20
100
AcDbText
  0
TEXT
  5
58
330
17
100
AcDbEntity
  8
A-AREA-IDEN
100
AcDbText
 10
186739.8684458791
 20
30604.90676309413
 30
0.0
 40
199.9999999999998
  1
3 Person Prof Serv & Post
100
AcDbText
  0
TEXT
  5
59
330
17
100
AcDbEntity
  8
A-AREA-IDEN
100
AcDbText
 10
188139.8201793938
 20
30893.89914079759
 30
0.0
 40
199.9999999999998
  1
0.19
100
AcDbText
  0
TEXT
  5
5A
330
17
100
AcDbEntity
  8
A-AREA-IDEN
100
AcDbText
 10
199486.3264459369
 20
29206.82513846844
 30
0.0
 40
199.9999999999998
  1
9 Person Prof Serv
100
AcDbText
  0
TEXT
  5
5B
330
17
100
AcDbEntity
  8
A-AREA-IDEN
100
AcDbText
 10
200423.58511351
 20
29495.8175161719
 30
0.0
 40
199.9999999999998
  1
0.18
100
AcDbText
  0
TEXT
  5
5C
330
17
100
AcDbEntity
  8
A-AREA-IDEN
100
AcDbText
 10
227092.8736705801
 20
32275.43876328031
 30
0.0
 40
199.9999999999998
  1
Main UPS & Batt
100
AcDbText
  0
TEXT
  5
5D
330
17
100
AcDbEntity
  8
A-AREA-IDEN
100
AcDbText
 10
227916.2638813211
 20
32564.43114098378
 30
0.0
 40
199.9999999999998
  1
0.07
100
AcDbText
  0
TEXT
  5
5E
330
17
100
AcDbEntity
  8
A-AREA-IDEN
100
AcDbText
 10
222860.4157411637
 20
32275.43876328031
 30
0.0
 40
199.9999999999998
  1
Switch Room
100
AcDbText
  0
TEXT
  5
5F
330
17
100
AcDbEntity
  8
A-AREA-IDEN
100
AcDbText
 10
223476.7491877987
 20
32564.43114098378
 30
0.0
 40
199.9999999999998
  1
0.08
100
AcDbText
  0
TEXT
  5
60
330
17
100
AcDbEntity
  8
A-AREA-IDEN
100
AcDbText
 10
218591.8137676924
 20
29282.39965261405
 30
0.0
 40
199.9999999999998
  1
Gas Meter & Tank
100
AcDbText
  0
TEXT
  5
61
330
17
100
AcDbEntity
  8
A-AREA-IDEN
100
AcDbText
 10
219551.3837880866
 20
29571.39203031751
 30
0.0
 40
199.9999999999998
  1
0.10
100
AcDbText
  0
TEXT
  5
62
330
17
100
AcDbEntity
  8
A-AREA-IDEN
100
AcDbText
 10
227398.0230032845
 20
25827.03941542524
 30
0.0
 40
199.9999999999998
  1
Records Storage
100
AcDbText
  0
TEXT
  5
63
330
17
100
AcDbEntity
  8
A-AREA-IDEN
100
AcDbText
 10
228274.6103588249
 20
26116.03179312871
 30
0.0
 40
199.9999999999998
  1
0.05
100
AcDbText
  0
TEXT
  5
64
330
17
100
AcDbEntity
  8
A-AREA-IDEN
100
AcDbText
 10
229014.4304346861
 20
29429.67742921765
 30
0.0
 40
199.9999999999998
  1
Store
100
AcDbText
  0
TEXT
  5
65
330
17
100
AcDbEntity
  8
A-AREA-IDEN
100
AcDbText
 10
229078.7638813211
 20
29718.66980692111
 30
0.0
 40
199.9999999999998
  1
0.06
100
AcDbText
  0
TEXT
  5
66
330
17
100
AcDbEntity
  8
A-AREA-IDEN
100
AcDbText
 10
224889.3121478064
 20
20254.82912665553
 30
0.0
 40
199.9999999999998
  1
30 P Seminar
100
AcDbText
  0
TEXT
  5
67
330
17
100
AcDbEntity
  8
A-AREA-IDEN
100
AcDbText
 10
225488.763881321
 20
20543.82150435899
 30
0.0
 40
199.9999999999998
  1
0.04
100
AcDbText
  0
TEXT
  5
68
330
17
100
AcDbEntity
  8
A-AREA-IDEN
100
AcDbText
 10
209312.0683175803
 20
16590.58217448561
 30
0.0
 40
199.9999999999998
  1
120 Person Lecture Theatre
100
AcDbText
  0
TEXT
  5
69
330
17
100
AcDbEntity
  8
A-AREA-IDEN
100
AcDbText
 10
210913.7957139093
 20
16879.57455218907
 30
0.0
 40
199.9999999999998
  1
0.01
100
AcDbText
  0
TEXT
  5
6A
330
17
100
AcDbEntity
  8
A-AREA-IDEN
100
AcDbText
 10
165293.6430127097
 20
26043.88102548623
 30
0.0
 40
199.9999999999998
  1
Vending
100
AcDbText
  0
TEXT
  5
6B
330
17
100
AcDbEntity
  8
A-AREA-IDEN
100
AcDbText
 10
165568.414936571
 20
26332.87340318969
 30
0.0
 40
199.9999999999998
  1
0Z19
100
AcDbText
  0
TEXT
  5
6C
330
17
100
AcDbEntity
  8
A-AREA-IDEN
100
AcDbText
 10
200400.9109415253
 20
26033.45690742497
 30
0.0
 40
199.9999999999998
  1
Meeting Room
100
AcDbText
  0
TEXT
  5
6D
330
17
100
AcDbEntity
  8
A-AREA-IDEN
100
AcDbText
 10
201157.8011522663
 20
26322.44928512843
 30
0.0
 40
199.9999999999998
  1
0.17
100
AcDbText
  0
TEXT
  5
6F
330
17
100
AcDbEntity
  8
CSM-STL-XX-ZZ-M3-A-XXXX-00001_detached _19_04_21__rvt-1-Level 0$0$A-FLOR-LEVL-TEXT
100
AcDbText
 10
193446.1093333647
 20
31189.45915484011
 30
0.0
 40
250.0
  1
UP
100
AcDbText
  0
TEXT
  5
71
330
17
100
AcDbEntity
  8
A-ANNO-DIMS
100
AcDbText
 10
197172.8346803538
 20
33276.00657868533
 30
0.0
 40
250.0
  1
1650
100
AcDbText
  0
TEXT
  5
72
330
17
100
AcDbEntity
  8
A-ANNO-DIMS
100
AcDbText
 10
200422.8346803534
 20
33276.00657868533
 30
0.0
 40
250.0
  1
1650
100
AcDbText
  0
TEXT
  5
74
330
17
100
AcDbEntity
  8
BUILDING_ACCESS
100
AcDbText
 10
330365.37434819
 20
52332.83520709773
 30
0.0
 40
367.3936753771544
  1
{\fArial|b0|i0|c0|p0;Legend}
100
AcDbText
  0
TEXT
  5
75
330
17
100
AcDbEntity
  8
BUILDING_ACCESS
100
AcDbText
 10
330769.3566618298
 20
46336.2122859125
 30
0.0
 40
244.9291169181029
  1
{\fArial|b0|i0|c0|p0;Access Route}
100
AcDbText
  0
TEXT
  5
76
330
17
100
AcDbEntity
  8
BUILDING_ACCESS
100
AcDbText
 10
330769.3566618298
 20
42662.27553214172
 30
0.0
 40
244.9291169181029
  1
{\fArial|b0|i0|c0|p0;Exit Route}
100
AcDbText
  0
TEXT
  5
77
330
17
100
AcDbEntity
  8
BUILDING_ACCESS
100
AcDbText
 10
330769.3566618297
 20
50010.14903968378
 30
0.0
 40
244.9291169181029
  1
{\fArial|b0|i0|c0|p0;Unisex Toilet}
100
AcDbText
  0
TEXT
  5
78
330
17
100
AcDbEntity
  8
BUILDING_ACCESS
100
AcDbText
 10
330769.3566618297
 20
51417.74791847197
 30
0.0
 40
244.9291169181029
  1
{\fArial|b0|i0|c0|p0;Hand Sanitizer Dispenser}
100
AcDbText
  0
TEXT
  5
79
330
17
100
AcDbEntity
  8
BUILDING_ACCESS
100
AcDbText
 10
330769.3566618297
 20
47560.85787050291
 30
0.0
 40
244.9291169181029
  1
{\fArial|b0|i0|c0|p0;'Up' Only Stairs}
100
AcDbText
  0
TEXT
  5
7A
330
17
100
AcDbEntity
  8
BUILDING_ACCESS
100
AcDbText
 10
330769.3566618297
 20
43886.92111673169
 30
0.0
 40
244.9291169181029
  1
{\fArial|b0|i0|c0|p0;'Down' Only Stairs}
100
AcDbText
  0
TEXT
  5
7B
330
17
100
AcDbEntity
  8
BUILDING_ACCESS
100
AcDbText
 10
330769.3566618297
 20
48785.50345509335
 30
0.0
 40
244.9291169181029
  1
{\fArial|b0|i0|c0|p0;Building Entrance}
100
AcDbText
  0
TEXT
  5
7C
330
17
100
AcDbEntity
  8
BUILDING_ACCESS
100
AcDbText
 10
330769.3566618297
 20
45111.56670132207
 30
0.0
 40
244.9291169181029
  1
{\fArial|b0|i0|c0|p0;Building Exit}
100
AcDbText
  0
TEXT
  5
7D
330
17
100
AcDbEntity
  8
BUILDING_ACCESS
100
AcDbText
 10
330769.3566618298
 20
41437.62994755129
 30
0.0
 40
244.9291169181029
  1
{\fArial|b0|i0|c0|p34;Two Way Route}
100
AcDbText
  0
TEXT
  5
7F
330
17
100
AcDbEntity
  8
ROOM ASSIGNMENT
100
AcDbText
 10
183606.9343942538
 20
29836.64319341918
 30
0.0
 40
199.9999999999998
  1
?
100
AcDbText
  0
TEXT
  5
80
330
17
100
AcDbEntity
  8
ROOM ASSIGNMENT
100
AcDbText
 10
187165.3051165634
 20
30426.30681294084
 30
0.0
 40
199.9999999999998
  1
STUDENT SERVICES
100
AcDbText
  0
LWPOLYLINE
  5
82
330
17
100
AcDbEntity
  8
A-AREA-ROOM
100
AcDbPolyline
 90
4
 70
1
 10
163028.331882105
 20
26995.23303098941
 10
168258.831882105
 20
26995.23303098941
 10
168258.831882105
 20
25665.23303098914
 10
163028.331882105
 20
25665.23303098914
  0
LWPOLYLINE
  5
83
330
17
100
AcDbEntity
  8
A-AREA-ROOM
100
AcDbPolyline
 90
4
 70
1
 10
168258.831882105
 20
23976.23303098919
 10
163186.331882105
 20
23976.23303098919
 10
163186.331882105
 20
25563.2330309892
 10
168258.831882105
 20
25563.2330309892
  0
LWPOLYLINE
  5
84
330
17
100
AcDbEntity
  8
A-AREA-ROOM
100
AcDbPolyline
 90
4
 70
1
 10
163202.3318821049
 20
23819.73303098924
 10
168258.831882105
 20
23819.73303098924
 10
168258.831882105
 20
18930.24860881991
 10
163202.3318821049
 20
18930.24860881991
  0
LWPOLYLINE
  5
85
330
17
100
AcDbEntity
  8
A-AREA-ROOM
100
AcDbPolyline
 90
4
 70
1
 10
163116.3318821049
 20
15450.43303092361
 10
168258.831882105
 20
15450.43303092361
 10
168258.831882105
 20
18776.22227311707
 10
163116.3318821049
 20
18776.22227311707
  0
LWPOLYLINE
  5
86
330
17
100
AcDbEntity
  8
A-AREA-ROOM
100
AcDbPolyline
 90
4
 70
1
 10
164851.5772535401
 20
34262.23303098876
 10
168399.5772535401
 20
34262.23303098876
 10
168399.5772535401
 20
28643.23303099022
 10
164851.5772535401
 20
28643.23303099022
  0
LWPOLYLINE
  5
87
330
17
100
AcDbEntity
  8
A-AREA-ROOM
100
AcDbPolyline
 90
4
 70
1
 10
185211.1408703137
 20
34240.73303098918
 10
182330.831882105
 20
34240.73303098918
 10
182330.831882105
 20
28565.23303098922
 10
185211.1408703137
 20
28565.23303098922
  0
LWPOLYLINE
  5
88
330
17
100
AcDbEntity
  8
A-AREA-ROOM
100
AcDbPolyline
 90
4
 70
1
 10
185313.1408703137
 20
34240.73303098918
 10
191602.831882105
 20
34240.73303098918
 10
191602.831882105
 20
28563.23303098918
 10
185313.1408703137
 20
28563.23303098918
  0
LWPOLYLINE
  5
89
330
17
100
AcDbEntity
  8
A-AREA-ROOM
100
AcDbPolyline
 90
4
 70
1
 10
177796.9818821471
 20
34255.09100121429
 10
182254.831882105
 20
34255.09100121429
 10
182254.831882105
 20
28463.23303098922
 10
177796.9818821471
 20
28463.23303098922
  0
LWPOLYLINE
  5
8A
330
17
100
AcDbEntity
  8
A-AREA-ROOM
100
AcDbPolyline
 90
4
 70
1
 10
205340.4589343691
 20
34182.73303098918
 10
195988.0818821052
 20
34182.73303098918
 10
195988.0818821052
 20
28563.23303098917
 10
205340.4589343691
 20
28563.23303098917
  0
LWPOLYLINE
  5
8B
330
17
100
AcDbEntity
  8
A-AREA-ROOM
100
AcDbPolyline
 90
4
 70
1
 10
221886.331882105
 20
34262.23303098858
 10
209906.6818821475
 20
34262.23303098858
 10
209906.6818821475
 20
28585.23303098915
 10
221886.331882105
 20
28585.23303098915
  0
LWPOLYLINE
  5
8C
330
17
100
AcDbEntity
  8
A-AREA-ROOM
100
AcDbPolyline
 90
4
 70
1
 10
230703.3064058399
 20
25447.23303098929
 10
223988.7317495577
 20
25447.23303098929
 10
223988.7317495577
 20
26963.2330309891
 10
230703.3064058399
 20
26963.2330309891
  0
LWPOLYLINE
  5
8D
330
17
100
AcDbEntity
  8
A-AREA-ROOM
100
AcDbPolyline
 90
4
 70
1
 10
223886.7317495577
 20
25361.23303098928
 10
230734.331882105
 20
25361.23303098928
 10
230734.331882105
 20
15233.2330309894
 10
223886.7317495577
 20
15233.2330309894
  0
TEXT
  5
8E
330
17
100
AcDbEntity
  8
A-AREA-ROOM
100
AcDbText
 10
171269.9190781883
 20
23991.51811907018
 30
0.0
 40
766.066714784771
  1
-LAYER\PM\PA-AREA-ROOM\PC\P3\P\P
100
AcDbText
  0
LWPOLYLINE
  5
8F
330
17
100
AcDbEntity
  8
A-AREA-ROOM
100
AcDbPolyline
 90
4
 70
1
 10
156827.4788086248
 20
34235.53398681435
 10
161575.8318821054
 20
34235.53398681435
 10
161575.8318821054
 20
12708.14164052598
 10
156827.4788086248
 20
12708.14164052598
  0
LWPOLYLINE
  5
90
330
17
100
AcDbEntity
  8
A-AREA-ROOM
100
AcDbPolyline
 90
4
 70
1
 10
168371.2850359289
 20
26363.92667023756
 10
187375.4818821472
 20
26363.92667023756
 10
187375.4818821472
 20
16103.23303098945
 10
168371.2850359289
 20
16103.23303098945
  0
LWPOLYLINE
  5
91
330
17
100
AcDbEntity
  8
A-AREA-ROOM
100
AcDbPolyline
 90
4
 70
1
 10
209810.7089342648
 20
34301.23303062618
 10
205967.5228938964
 20
34301.23303062618
 10
205967.5228938964
 20
28565.23303098917
 10
209810.7089342648
 20
28565.23303098917
  0
LWPOLYLINE
  5
92
330
17
100
AcDbEntity
  8
A-AREA-ROOM
100
AcDbPolyline
 90
4
 70
1
 10
227800.8318821051
 20
30663.23303098906
 10
230714.831882105
 20
30663.23303098906
 10
230714.831882105
 20
28543.23303098902
 10
227800.8318821051
 20
28543.23303098902
  0
LWPOLYLINE
  5
93
330
17
100
AcDbEntity
  8
A-AREA-ROOM
100
AcDbPolyline
 90
4
 70
1
 10
221966.331882105
 20
34316.23303098819
 10
225660.8318821051
 20
34316.23303098819
 10
225660.8318821051
 20
28603.23303098907
 10
221966.331882105
 20
28603.23303098907
  0
LWPOLYLINE
  5
94
330
17
100
AcDbEntity
  8
A-AREA-ROOM
100
AcDbPolyline
 90
4
 70
1
 10
225800.8318821051
 20
34296.2330309882
 10
230717.331882105
 20
34296.2330309882
 10
230717.331882105
 20
30803.23303098905
 10
225800.8318821051
 20
30803.23303098905
  0
LWPOLYLINE
  5
95
330
17
100
AcDbEntity
  8
A-AREA-ROOM
100
AcDbPolyline
 90
11
 70
0
 10
200120.0830815475
 20
23671.98169889304
 10
205442.2401345565
 20
26315.35902721476
 10
216664.3795946718
 20
26340.43303092349
 10
221688.8335388244
 20
23851.21329270252
 10
221743.0318820374
 20
22397.67127021389
 10
219365.3830061144
 20
18258.59810480757
 10
219365.3830061144
 20
16273.73303105532
 10
202564.3318820375
 20
16273.73303105532
 10
202564.3318820375
 20
18209.31597404187
 10
200096.3318820375
 20
22441.00586139985
 10
200121.3318820375
 20
23672.60194569707
  0
LWPOLYLINE
  5
96
330
17
100
AcDbEntity
  8
A-AREA-ROOM
100
AcDbPolyline
 90
5
 70
0
 10
200081.3318820375
 20
26856.2330309891
 10
205203.0318820373
 20
26841.2330309891
 10
205218.0318820372
 20
26387.73763283113
 10
200066.3318820375
 20
23848.5784971355
 10
200096.3318820375
 20
26856.18910026297
  0
ENDSEC
  0
SECTION
  2
OBJECTS
  0
DICTIONARY
  5
A
330
0
100
AcDbDictionary
281
1
  3
ACAD_COLOR
350
B
  3
ACAD_GROUP
350
C
  3
ACAD_LAYOUT
350
D
  3
ACAD_MATERIAL
350
E
  3
ACAD_MLEADERSTYLE
350
F
  3
ACAD_MLINESTYLE
350
10
  3
ACAD_PLOTSETTINGS
350
11
  3
ACAD_PLOTSTYLENAME
350
12
  3
ACAD_SCALELIST
350
14
  3
ACAD_TABLESTYLE
350
15
  3
ACAD_VISUALSTYLE
350
16
  3
EZDXF_META
350
2D
  0
DICTIONARY
  5
B
330
A
100
AcDbDictionary
281
1
  0
DICTIONARY
  5
C
330
A
100
AcDbDictionary
281
1
  0
DICTIONARY
  5
D
330
A
100
AcDbDictionary
281
1
  3
Model
350
1A
  3
Layout1
350
1E
  0
DICTIONARY
  5
E
330
A
100
AcDbDictionary
281
1
  3
ByBlock
350
1F
  3
ByLayer
350
20
  3
Global
350
21
  0
DICTIONARY
  5
F
330
A
100
AcDbDictionary
281
1
  3
Standard
350
2C
  0
DICTIONARY
  5
10
330
A
100
AcDbDictionary
281
1
  3
Standard
350
22
  0
DICTIONARY
  5
11
330
A
100
AcDbDictionary
281
1
  0
ACDBDICTIONARYWDFLT
  5
12
330
A
100
AcDbDictionary
281
1
  3
Normal
350
13
100
AcDbDictionaryWithDefault
340
13
  0
ACDBPLACEHOLDER
  5
13
330
12
  0
DICTIONARY
  5
14
330
A
100
AcDbDictionary
281
1
  0
DICTIONARY
  5
15
330
A
100
AcDbDictionary
281
1
  0
DICTIONARY
  5
16
330
A
100
AcDbDictionary
281
1
  0
LAYOUT
  5
1A
330
D
100
AcDbPlotSettings
  1

  4
A3
  6

 40
7.5
 41
20.0
 42
7.5
 43
20.0
 44
420.0
 45
297.0
 46
0.0
 47
0.0
 48
0.0
 49
0.0
140
0.0
141
0.0
142
1.0
143
1.0
 70
1024
 72
1
 73
0
 74
5
  7

 75
16
 76
0
 77
2
 78
300
147
1.0
148
0.0
149
0.0
100
AcDbLayout
  1
Model
 70
1
 71
0
 10
0.0
 20
0.0
 11
420.0
 21
297.0
 12
0.0
 22
0.0
 32
0.0
 14
1e+20
 24
1e+20
 34
1e+20
 15
-1e+20
 25
-1e+20
 35
-1e+20
146
0.0
 13
0.0
 23
0.0
 33
0.0
 16
1.0
 26
0.0
 36
0.0
 17
0.0
 27
1.0
 37
0.0
 76
1
330
17
  0
LAYOUT
  5
1E
330
D
100
AcDbPlotSettings
  1

  4
A3
  6

 40
7.5
 41
20.0
 42
7.5
 43
20.0
 44
420.0
 45
297.0
 46
0.0
 47
0.0
 48
0.0
 49
0.0
140
0.0
141
0.0
142
1.0
143
1.0
 70
0
 72
1
 73
0
 74
5
  7

 75
16
 76
0
 77
2
 78
300
147
1.0
148
0.0
149
0.0
100
AcDbLayout
  1
Layout1
 70
1
 71
1
 10
0.0
 20
0.0
 11
420.0
 21
297.0
 12
0.0
 22
0.0
 32
0.0
 14
1e+20
 24
1e+20
 34
1e+20
 15
-1e+20
 25
-1e+20
 35
-1e+20
146
0.0
 13
0.0
 23
0.0
 33
0.0
 16
1.0
 26
0.0
 36
0.0
 17
0.0
 27
1.0
 37
0.0
 76
1
330
1B
  0
MATERIAL
  5
1F
102
{ACAD_REACTORS
330
E
102
}
330
E
100
AcDbMaterial
  1
ByBlock
  2

 70
0
 40
1.0
 71
1
 41
1.0
 91
-1023410177
 42
1.0
 72
1
  3

 73
1
 74
1
 75
1
 44
0.5
 73
0
 45
1.0
 46
1.0
 77
1
  4

 78
1
 79
1
170
1
 48
1.0
171
1
  6

172
1
173
1
174
1
140
1.0
141
1.0
175
1
  7

176
1
177
1
178
1
143
1.0
179
1
  8

270
1
271
1
272
1
145
1.0
146
1.0
273
1
  9

274
1
275
1
276
1
 42
1.0
 72
1
  3

 73
1
 74
1
 75
1
 94
63
  0
MATERIAL
  5
20
102
{ACAD_REACTORS
330
E
102
}
330
E
100
AcDbMaterial
  1
ByLayer
  2

 70
0
 40
1.0
 71
1
 41
1.0
 91
-1023410177
 42
1.0
 72
1
  3

 73
1
 74
1
 75
1
 44
0.5
 73
0
 45
1.0
 46
1.0
 77
1
  4

 78
1
 79
1
170
1
 48
1.0
171
1
  6

172
1
173
1
174
1
140
1.0
141
1.0
175
1
  7

176
1
177
1
178
1
143
1.0
179
1
  8

270
1
271
1
272
1
145
1.0
146
1.0
273
1
  9

274
1
275
1
276
1
 42
1.0
 72
1
  3

 73
1
 74
1
 75
1
 94
63
  0
MATERIAL
  5
21
102
{ACAD_REACTORS
330
E
102
}
330
E
100
AcDbMaterial
  1
Global
  2

 70
0
 40
1.0
 71
1
 41
1.0
 91
-1023410177
 42
1.0
 72
1
  3

 73
1
 74
1
 75
1
 44
0.5
 73
0
 45
1.0
 46
1.0
 77
1
  4

 78
1
 79
1
170
1
 48
1.0
171
1
  6

172
1
173
1
174
1
140
1.0
141
1.0
175
1
  7

176
1
177
1
178
1
143
1.0
179
1
  8

270
1
271
1
272
1
145
1.0
146
1.0
273
1
  9

274
1
275
1
276
1
 42
1.0
 72
1
  3

 73
1
 74
1
 75
1
 94
63
  0
MLINESTYLE
  5
22
102
{ACAD_REACTORS
330
10
102
}
330
10
100
AcDbMlineStyle
  2
Standard
 70
0
  3

 62
256
 51
90.0
 52
90.0
 71
2
 49
0.5
 62
256
  6
BYLAYER
 49
-0.5
 62
256
  6
BYLAYER
  0
MLEADERSTYLE
  5
2C
102
{ACAD_REACTORS
330
F
102
}
330
F
100
AcDbMLeaderStyle
179
2
170
2
171
1
172
0
 90
2
 40
0.0
 41
0.0
173
1
 91
-1056964608
 92
-2
290
1
 42
2.0
291
1
 43
8.0
  3
Standard
 44
4.0
300

342
29
174
1
175
1
176
0
178
1
 93
-1056964608
 45
4.0
292
0
297
0
 46
4.0
 94
-1056964608
 47
1.0
 49
1.0
140
1.0
294
1
141
0.0
177
0
142
1.0
295
0
296
0
143
3.75
271
0
272
9
273
9
  0
DICTIONARY
  5
2D
330
A
100
AcDbDictionary
280
1
281
1
  3
CREATED_BY_EZDXF
350
2E
  3
WRITTEN_BY_EZDXF
350
99
  0
DICTIONARYVAR
  5
2E
330
2D
100
DictionaryVariables
280
0
  1
1.4.3 @ 2026-08-20T22:40:05.980273+00:00
  0
DICTIONARYVAR
  5
99
330
2D
100
DictionaryVariables
280
0
  1
1.4.3 @ 2026-08-20T22:40:06.069703+00:00
  0
ENDSEC
  0
EOF
