  0
SECTION
  2
HEADER
  9
$ACADVER
  1
AC1032
  9
$ACADMAINTVER
 90
4
  9
$DWGCODEPAGE
  3
ANSI_1252
  9
$LASTSAVEDBY
  1
ezdxf
  9
$REQUIREDVERSIONS
160
0
  9
$INSBASE
 10
0.0
 20
0.0
 30
0.0
  9
$EXTMIN
 10
1e+20
 20
1e+20
 30
1e+20
  9
$EXTMAX
 10
-1e+20
 20
-1e+20
 30
-1e+20
  9
$LIMMIN
 10
0.0
 20
0.0
  9
$LIMMAX
 10
420.0
 20
297.0
  9
$ORTHOMODE
 70
0
  9
$REGENMODE
 70
1
  9
$FILLMODE
 70
1
  9
$QTEXTMODE
 70
0
  9
$MIRRTEXT
 70
1
  9
$LTSCALE
 40
1.0
  9
$ATTMODE
 70
1
  9
$TEXTSIZE
 40
2.5
  9
$TRACEWID
 40
1.0
  9
$TEXTSTYLE
  7
Standard
  9
$CLAYER
  8
0
  9
$CELTYPE
  6
ByLayer
  9
$CECOLOR
 62
256
  9
$CELTSCALE
 40
1.0
  9
$DISPSILH
 70
0
  9
$DIMSCALE
 40
1.0
  9
$DIMASZ
 40
2.5
  9
$DIMEXO
 40
0.625
  9
$DIMDLI
 40
3.75
  9
$DIMRND
 40
0.0
  9
$DIMDLE
 40
0.0
  9
$DIMEXE
 40
1.25
  9
$DIMTP
 40
0.0
  9
$DIMTM
 40
0.0
  9
$DIMTXT
 40
2.5
  9
$DIMCEN
 40
2.5
  9
$DIMTSZ
 40
0.0
  9
$DIMTOL
 70
0
  9
$DIMLIM
 70
0
  9
$DIMTIH
 70
0
  9
$DIMTOH
 70
0
  9
$DIMSE1
 70
0
  9
$DIMSE2
 70
0
  9
$DIMTAD
 70
1
  9
$DIMZIN
 70
8
  9
$DIMBLK
  1

  9
$DIMASO
 70
1
  9
$DIMSHO
 70
1
  9
$DIMPOST
  1

  9
$DIMAPOST
  1

  9
$DIMALT
 70
0
  9
$DIMALTD
 70
3
  9
$DIMALTF
 40
0.03937007874
  9
$DIMLFAC
 40
1.0
  9
$DIMTOFL
 70
1
  9
$DIMTVP
 40
0.0
  9
$DIMTIX
 70
0
  9
$DIMSOXD
 70
0
  9
$DIMSAH
 70
0
  9
$DIMBLK1
  1

  9
$DIMBLK2
  1

  9
$DIMSTYLE
  2
ISO-25
  9
$DIMCLRD
 70
0
  9
$DIMCLRE
 70
0
  9
$DIMCLRT
 70
0
  9
$DIMTFAC
 40
1.0
  9
$DIMGAP
 40
0.625
  9
$DIMJUST
 70
0
  9
$DIMSD1
 70
0
  9
$DIMSD2
 70
0
  9
$DIMTOLJ
 70
0
  9
$DIMTZIN
 70
8
  9
$DIMALTZ
 70
0
  9
$DIMALTTZ
 70
0
  9
$DIMUPT
 70
0
  9
$DIMDEC
 70
2
  9
$DIMTDEC
 70
2
  9
$DIMALTU
 70
2
  9
$DIMALTTD
 70
3
  9
$DIMTXSTY
  7
Standard
  9
$DIMAUNIT
 70
0
  9
$DIMADEC
 70
0
  9
$DIMALTRND
 40
0.0
  9
$DIMAZIN
 70
0
  9
$DIMDSEP
 70
44
  9
$DIMATFIT
 70
3
  9
$DIMFRAC
 70
0
  9
$DIMLDRBLK
  1

  9
$DIMLUNIT
 70
2
  9
$DIMLWD
 70
-2
  9
$DIMLWE
 70
-2
  9
$DIMTMOVE
 70
0
  9
$DIMFXL
 40
1.0
  9
$DIMFXLON
 70
0
  9
$DIMJOGANG
 40
0.785398163397
  9
$DIMTFILL
 70
0
  9
$DIMTFILLCLR
 70
0
  9
$DIMARCSYM
 70
0
  9
$DIMLTYPE
  6

  9
$DIMLTEX1
  6

  9
$DIMLTEX2
  6

  9
$DIMTXTDIRECTION
 70
0
  9
$LUNITS
 70
2
  9
$LUPREC
 70
4
  9
$SKETCHINC
 40
1.0
  9
$FILLETRAD
 40
10.0
  9
$AUNITS
 70
0
  9
$AUPREC
 70
2
  9
$MENU
  1
.
  9
$ELEVATION
 40
0.0
  9
$PELEVATION
 40
0.0
  9
$THICKNESS
 40
0.0
  9
$LIMCHECK
 70
0
  9
$CHAMFERA
 40
0.0
  9
$CHAMFERB
 40
0.0
  9
$CHAMFERC
 40
0.0
  9
$CHAMFERD
 40
0.0
  9
$SKPOLY
 70
0
  9
$TDCREATE
 40
2461273.986296296
  9
$TDUCREATE
 40
2458532.153996898
  9
$TDUPDATE
 40
2461273.986296296
  9
$TDUUPDATE
 40
2458532.1544311
  9
$TDINDWG
 40
0.0
  9
$TDUSRTIMER
 40
0.0
  9
$USRTIMER
 70
1
  9
$ANGBASE
 50
0.0
  9
$ANGDIR
 70
0
  9
$PDMODE
 70
0
  9
$PDSIZE
 40
0.0
  9
$PLINEWID
 40
0.0
  9
$SPLFRAME
 70
0
  9
$SPLINETYPE
 70
6
  9
$SPLINESEGS
 70
8
  9
$HANDSEED
  5
8B
  9
$SURFTAB1
 70
6
  9
$SURFTAB2
 70
6
  9
$SURFTYPE
 70
6
  9
$SURFU
 70
6
  9
$SURFV
 70
6
  9
$UCSBASE
  2

  9
$UCSNAME
  2

  9
$UCSORG
 10
0.0
 20
0.0
 30
0.0
  9
$UCSXDIR
 10
1.0
 20
0.0
 30
0.0
  9
$UCSYDIR
 10
0.0
 20
1.0
 30
0.0
  9
$UCSORTHOREF
  2

  9
$UCSORTHOVIEW
 70
0
  9
$UCSORGTOP
 10
0.0
 20
0.0
 30
0.0
  9
$UCSORGBOTTOM
 10
0.0
 20
0.0
 30
0.0
  9
$UCSORGLEFT
 10
0.0
 20
0.0
 30
0.0
  9
$UCSORGRIGHT
 10
0.0
 20
0.0
 30
0.0
  9
$UCSORGFRONT
 10
0.0
 20
0.0
 30
0.0
  9
$UCSORGBACK
 10
0.0
 20
0.0
 30
0.0
  9
$PUCSBASE
  2

  9
$PUCSNAME
  2

  9
$PUCSORG
 10
0.0
 20
0.0
 30
0.0
  9
$PUCSXDIR
 10
1.0
 20
0.0
 30
0.0
  9
$PUCSYDIR
 10
0.0
 20
1.0
 30
0.0
  9
$PUCSORTHOREF
  2

  9
$PUCSORTHOVIEW
 70
0
  9
$PUCSORGTOP
 10
0.0
 20
0.0
 30
0.0
  9
$PUCSORGBOTTOM
 10
0.0
 20
0.0
 30
0.0
  9
$PUCSORGLEFT
 10
0.0
 20
0.0
 30
0.0
  9
$PUCSORGRIGHT
 10
0.0
 20
0.0
 30
0.0
  9
$PUCSORGFRONT
 10
0.0
 20
0.0
 30
0.0
  9
$PUCSORGBACK
 10
0.0
 20
0.0
 30
0.0
  9
$USERI1
 70
0
  9
$USERI2
 70
0
  9
$USERI3
 70
0
  9
$USERI4
 70
0
  9
$USERI5
 70
0
  9
$USERR1
 40
0.0
  9
$USERR2
 40
0.0
  9
$USERR3
 40
0.0
  9
$USERR4
 40
0.0
  9
$USERR5
 40
0.0
  9
$WORLDVIEW
 70
1
  9
$SHADEDGE
 70
3
  9
$SHADEDIF
 70
70
  9
$TILEMODE
 70
1
  9
$MAXACTVP
 70
64
  9
$PINSBASE
 10
0.0
 20
0.0
 30
0.0
  9
$PLIMCHECK
 70
0
  9
$PEXTMIN
 10
1e+20
 20
1e+20
 30
1e+20
  9
$PEXTMAX
 10
-1e+20
 20
-1e+20
 30
-1e+20
  9
$PLIMMIN
 10
0.0
 20
0.0
  9
$PLIMMAX
 10
420.0
 20
297.0
  9
$UNITMODE
 70
0
  9
$VISRETAIN
 70
1
  9
$PLINEGEN
 70
0
  9
$PSLTSCALE
 70
1
  9
$TREEDEPTH
 70
3020
  9
$CMLSTYLE
  2
Standard
  9
$CMLJUST
 70
0
  9
$CMLSCALE
 40
20.0
  9
$PROXYGRAPHICS
 70
1
  9
$MEASUREMENT
 70
1
  9
$CELWEIGHT
370
-1
  9
$ENDCAPS
280
0
  9
$JOINSTYLE
280
0
  9
$LWDISPLAY
290
0
  9
$INSUNITS
 70
4
  9
$HYPERLINKBASE
  1

  9
$STYLESHEET
  1

  9
$XEDIT
290
1
  9
$CEPSNTYPE
380
0
  9
$PSTYLEMODE
290
1
  9
$FINGERPRINTGUID
  2
{390E61E1-A48B-417F-A30A-29A8A437CE84}
  9
$VERSIONGUID
  2
{38D550F4-9A0F-4FA9-832D-C65D1BB6AF17}
  9
$EXTNAMES
290
1
  9
$PSVPSCALE
 40
0.0
  9
$OLESTARTUP
290
0
  9
$SORTENTS
280
127
  9
$INDEXCTL
280
0
  9
$HIDETEXT
280
1
  9
$XCLIPFRAME
280
1
  9
$HALOGAP
280
0
  9
$OBSCOLOR
 70
257
  9
$OBSLTYPE
280
0
  9
$INTERSECTIONDISPLAY
280
0
  9
$INTERSECTIONCOLOR
 70
257
  9
$DIMASSOC
280
2
  9
$PROJECTNAME
  1

  9
$CAMERADISPLAY
290
0
  9
$LENSLENGTH
 40
50.0
  9
$CAMERAHEIGHT
 40
0.0
  9
$STEPSPERSEC
 40
24.0
  9
$STEPSIZE
 40
100.0
  9
$3DDWFPREC
 40
2.0
  9
$PSOLWIDTH
 40
0.005
  9
$PSOLHEIGHT
 40
0.08
  9
$LOFTANG1
 40
1.570796326795
  9
$LOFTANG2
 40
1.570796326795
  9
$LOFTMAG1
 40
0.0
  9
$LOFTMAG2
 40
0.0
  9
$LOFTPARAM
 70
7
  9
$LOFTNORMALS
280
1
  9
$LATITUDE
 40
37.795
  9
$LONGITUDE
 40
-122.394
  9
$NORTHDIRECTION
 40
0.0
  9
$TIMEZONE
 70
-8000
  9
$LIGHTGLYPHDISPLAY
280
1
  9
$TILEMODELIGHTSYNCH
280
1
  9
$CMATERIAL
347
20
  9
$SOLIDHIST
280
0
  9
$SHOWHIST
280
1
  9
$DWFFRAME
280
2
  9
$DGNFRAME
280
2
  9
$REALWORLDSCALE
290
1
  9
$INTERFERECOLOR
 62
256
  9
$CSHADOW
280
0
  9
$SHADOWPLANELOCATION
 40
0.0
  0
ENDSEC
  0
SECTION
  2
CLASSES
  0
CLASS
  1
ACDBDICTIONARYWDFLT
  2
AcDbDictionaryWithDefault
  3
ObjectDBX Classes
 90
0
 91
0
280
0
281
0
  0
CLASS
  1
SUN
  2
AcDbSun
  3
SCENEOE
 90
1153
 91
0
280
0
281
0
  0
CLASS
  1
VISUALSTYLE
  2
AcDbVisualStyle
  3
ObjectDBX Classes
 90
4095
 91
0
280
0
281
0
  0
CLASS
  1
MATERIAL
  2
AcDbMaterial
  3
ObjectDBX Classes
 90
1153
 91
0
280
0
281
0
  0
CLASS
  1
SCALE
  2
AcDbScale
  3
ObjectDBX Classes
 90
1153
 91
0
280
0
281
0
  0
CLASS
  1
TABLESTYLE
  2
AcDbTableStyle
  3
ObjectDBX Classes
 90
4095
 91
0
280
0
281
0
  0
CLASS
  1
MLEADERSTYLE
  2
AcDbMLeaderStyle
  3
ACDB_MLEADERSTYLE_CLASS
 90
4095
 91
0
280
0
281
0
  0
CLASS
  1
DICTIONARYVAR
  2
AcDbDictionaryVar
  3
ObjectDBX Classes
 90
0
 91
0
280
0
281
0
  0
CLASS
  1
CELLSTYLEMAP
  2
AcDbCellStyleMap
  3
ObjectDBX Classes
 90
1152
 91
0
280
0
281
0
  0
CLASS
  1
MENTALRAYRENDERSETTINGS
  2
AcDbMentalRayRenderSettings
  3
SCENEOE
 90
1024
 91
0
280
0
281
0
  0
CLASS
  1
ACDBDETAILVIEWSTYLE
  2
AcDbDetailViewStyle
  3
ObjectDBX Classes
 90
1025
 91
0
280
0
281
0
  0
CLASS
  1
ACDBSECTIONVIEWSTYLE
  2
AcDbSectionViewStyle
  3
ObjectDBX Classes
 90
1025
 91
0
280
0
281
0
  0
CLASS
  1
RASTERVARIABLES
  2
AcDbRasterVariables
  3
ISM
 90
0
 91
0
280
0
281
0
  0
CLASS
  1
LAYOUT
  2
AcDbLayout
  3
ObjectDBX Classes
 90
0
 91
0
280
0
281
0
  0
CLASS
  1
ACDBPLACEHOLDER
  2
AcDbPlaceHolder
  3
ObjectDBX Classes
 90
0
 91
0
280
0
281
0
  0
ENDSEC
  0
SECTION
  2
TABLES
  0
TABLE
  2
VPORT
  5
8
330
0
100
AcDbSymbolTable
 70
1
  0
VPORT
  5
23
330
8
100
AcDbSymbolTableRecord
100
AcDbViewportTableRecord
  2
*Active
 70
0
 10
0.0
 20
0.0
 11
1.0
 21
1.0
 12
0.0
 22
0.0
 13
0.0
 23
0.0
 14
0.5
 24
0.5
 15
0.5
 25
0.5
 16
0.0
 26
0.0
 36
1.0
 17
0.0
 27
0.0
 37
0.0
 40
1000.0
 41
1.34
 42
50.0
 43
0.0
 44
0.0
 50
0.0
 51
0.0
 71
0
 72
1000
 73
1
 74
3
 75
0
 76
0
 77
0
 78
0
281
0
 65
0
146
0.0
  0
ENDTAB
  0
TABLE
  2
LTYPE
  5
2
330
0
100
AcDbSymbolTable
 70
3
  0
LTYPE
  5
24
330
2
100
AcDbSymbolTableRecord
100
AcDbLinetypeTableRecord
  2
ByBlock
 70
0
  3

 72
65
 73
0
 40
0.0
  0
LTYPE
  5
25
330
2
100
AcDbSymbolTableRecord
100
AcDbLinetypeTableRecord
  2
ByLayer
 70
0
  3

 72
65
 73
0
 40
0.0
  0
LTYPE
  5
26
330
2
100
AcDbSymbolTableRecord
100
AcDbLinetypeTableRecord
  2
Continuous
 70
0
  3

 72
65
 73
0
 40
0.0
  0
ENDTAB
  0
TABLE
  2
LAYER
  5
1
330
0
100
AcDbSymbolTable
 70
10
  0
LAYER
  5
27
330
1
100
AcDbSymbolTableRecord
100
AcDbLayerTableRecord
  2
0
 70
0
 62
7
  6
Continuous
370
-3
390
13
347
21
  0
LAYER
  5
28
330
1
100
AcDbSymbolTableRecord
100
AcDbLayerTableRecord
  2
Defpoints
 70
0
 62
7
  6
Continuous
290
0
370
-3
390
13
347
21
  0
LAYER
  5
2F
330
1
100
AcDbSymbolTableRecord
100
AcDbLayerTableRecord
  2
PRSNAMES
 70
0
 62
7
  6
Continuous
370
-3
390
13
347
21
  0
LAYER
  5
32
330
1
100
AcDbSymbolTableRecord
100
AcDbLayerTableRecord
  2
FALARM
 70
0
 62
7
  6
Continuous
370
-3
390
13
347
21
  0
LAYER
  5
3C
330
1
100
AcDbSymbolTableRecord
100
AcDbLayerTableRecord
  2
GIA
 70
0
 62
7
  6
Continuous
370
-3
390
13
347
21
  0
LAYER
  5
3F
330
1
100
AcDbSymbolTableRecord
100
AcDbLayerTableRecord
  2
WASTE & RECYCLING STATIONS
 70
0
 62
7
  6
Continuous
370
-3
390
13
347
21
  0
LAYER
  5
45
330
1
100
AcDbSymbolTableRecord
100
AcDbLayerTableRecord
  2
A-ANNO-DIMS
 70
0
 62
7
  6
Continuous
370
-3
390
13
347
21
  0
LAYER
  5
48
330
1
100
AcDbSymbolTableRecord
100
AcDbLayerTableRecord
  2
BUILDING_ACCESS
 70
0
 62
7
  6
Continuous
370
-3
390
13
347
21
  0
LAYER
  5
53
330
1
100
AcDbSymbolTableRecord
100
AcDbLayerTableRecord
  2
A-AREA-IDEN
 70
0
 62
7
  6
Continuous
370
-3
390
13
347
21
  0
LAYER
  5
77
330
1
100
AcDbSymbolTableRecord
100
AcDbLayerTableRecord
  2
A-AREA-ROOM
 70
0
 62
7
  6
Continuous
370
-3
390
13
347
21
  0
ENDTAB
  0
TABLE
  2
STYLE
  5
5
330
0
100
AcDbSymbolTable
 70
1
  0
STYLE
  5
29
330
5
100
AcDbSymbolTableRecord
100
AcDbTextStyleTableRecord
  2
Standard
 70
0
 40
0.0
 41
1.0
 50
0.0
 71
0
 42
2.5
  3
txt
  4

  0
ENDTAB
  0
TABLE
  2
VIEW
  5
7
330
0
100
AcDbSymbolTable
 70
0
  0
ENDTAB
  0
TABLE
  2
UCS
  5
6
330
0
100
AcDbSymbolTable
 70
0
  0
ENDTAB
  0
TABLE
  2
APPID
  5
3
330
0
100
AcDbSymbolTable
 70
3
  0
APPID
  5
2A
330
3
100
AcDbSymbolTableRecord
100
AcDbRegAppTableRecord
  2
ACAD
 70
0
  0
APPID
  5
88
330
3
100
AcDbSymbolTableRecord
100
AcDbRegAppTableRecord
  2
HATCHBACKGROUNDCOLOR
 70
0
  0
APPID
  5
89
330
3
100
AcDbSymbolTableRecord
100
AcDbRegAppTableRecord
  2
EZDXF
 70
0
  0
ENDTAB
  0
TABLE
  2
DIMSTYLE
  5
4
330
0
100
AcDbSymbolTable
 70
1
100
AcDbDimStyleTable
  0
DIMSTYLE
105
2B
330
4
100
AcDbSymbolTableRecord
100
AcDbDimStyleTableRecord
  2
Standard
 70
0
 40
1.0
 41
2.5
 42
0.625
 43
3.75
 44
1.25
 45
0.0
 46
0.0
 47
0.0
 48
0.0
 49
2.5
140
2.5
141
2.5
142
0.0
143
0.03937007874
144
1.0
145
0.0
146
1.0
147
0.625
148
0.0
 69
0
 70
0
 71
0
 72
0
 73
0
 74
0
 75
0
 76
0
 77
1
 78
8
 79
3
170
0
171
3
172
1
173
0
174
0
175
0
176
0
177
0
178
0
179
2
271
2
272
2
273
2
274
3
275
0
276
0
277
2
278
44
279
0
280
0
281
0
282
0
283
0
284
8
285
0
286
0
288
0
289
3
290
0
371
-2
372
-2
  0
ENDTAB
  0
TABLE
  2
BLOCK_RECORD
  5
9
330
0
100
AcDbSymbolTable
 70
2
  0
BLOCK_RECORD
  5
17
330
9
100
AcDbSymbolTableRecord
100
AcDbBlockTableRecord
  2
*Model_Space
340
1A
 70
0
280
1
281
0
  0
BLOCK_RECORD
  5
1B
330
9
100
AcDbSymbolTableRecord
100
AcDbBlockTableRecord
  2
*Paper_Space
340
1E
 70
0
280
1
281
0
  0
ENDTAB
  0
ENDSEC
  0
SECTION
  2
BLOCKS
  0
BLOCK
  5
18
330
17
100
AcDbEntity
  8
0
100
AcDbBlockBegin
  2
*Model_Space
 70
0
 10
0.0
 20
0.0
 30
0.0
  3
*Model_Space
  1

  0
ENDBLK
  5
19
330
17
100
AcDbEntity
  8
0
100
AcDbBlockEnd
  0
BLOCK
  5
1C
330
1B
100
AcDbEntity
  8
0
100
AcDbBlockBegin
  2
*Paper_Space
 70
0
 10
0.0
 20
0.0
 30
0.0
  3
*Paper_Space
  1

  0
ENDBLK
  5
1D
330
1B
100
AcDbEntity
  8
0
100
AcDbBlockEnd
  0
ENDSEC
  0
SECTION
  2
ENTITIES
  0
TEXT
  5
30
330
17
100
AcDbEntity
  8
PRSNAMES
100
AcDbText
 10
94261.31966166136
 20
24293.40091087214
 30
0.0
 40
250.0
  1
\pxqc;{\fArial|b0|i0|c0|p34;\H1.6x;Z01}
100
AcDbText
  0
TEXT
  5
31
330
17
100
AcDbEntity
  8
PRSNAMES
100
AcDbText
 10
89862.67811854661
 20
20982.48865184173
 30
0.0
 40
250.0
  1
\pxqc;{\fArial|b0|i0|c0|p34;\H1.6x;Z02}
100
AcDbText
  0
TEXT
  5
33
330
17
100
AcDbEntity
  8
FALARM
100
AcDbText
 10
282153.5570322825
 20
41406.07163135697
 30
0.0
 40
112.5
  1
HEAT DETECTOR AND SOUNDER BASE
100
AcDbText
  0
TEXT
  5
34
330
17
100
AcDbEntity
  8
FALARM
100
AcDbText
 10
282153.5570322825
 20
40906.07163135697
 30
0.0
 40
112.5
  1
FIRE ALARM PANEL
100
AcDbText
  0
TEXT
  5
35
330
17
100
AcDbEntity
  8
FALARM
100
AcDbText
 10
282153.5570322825
 20
39906.07163135697
 30
0.0
 40
112.5
  1
INTERFACE UNIT
100
AcDbText
  0
TEXT
  5
36
330
17
100
AcDbEntity
  8
FALARM
100
AcDbText
 10
282153.5570322825
 20
42906.07163135695
 30
0.0
 40
112.5
  1
MANUAL CALL POINT
100
AcDbText
  0
TEXT
  5
37
330
17
100
AcDbEntity
  8
FALARM
100
AcDbText
 10
281340.1621373595
 20
43336.08103975214
 30
0.0
 40
200.0
  1
FIRE  ALARM  &  EMERGENCY  LIGHTING  LEGEND
100
AcDbText
  0
TEXT
  5
38
330
17
100
AcDbEntity
  8
FALARM
100
AcDbText
 10
282153.5363618459
 20
40612.32846454363
 30
0.0
 40
112.5
  1
SYMBOL TAG WHERE "X" DENOTES ZONE NUMBER AND\P"Y" DENOTES POSITION OF DEVICE
100
AcDbText
  0
TEXT
  5
39
330
17
100
AcDbEntity
  8
FALARM
100
AcDbText
 10
281417.6551767234
 20
40406.04957605472
 30
0.0
 40
112.5
  1
X/Y
100
AcDbText
  0
TEXT
  5
3A
330
17
100
AcDbEntity
  8
FALARM
100
AcDbText
 10
282153.536361846
 20
42112.32846454364
 30
0.0
 40
112.5
  1
COMBINED SMOKE/HEAT DETECTOR AND SOUNDER BASE
100
AcDbText
  0
TEXT
  5
3B
330
17
100
AcDbEntity
  8
FALARM
100
AcDbText
 10
282153.55703226
 20
42406.0716314182
 30
0.0
 40
112.4999999775
  1
SMOKE DETECTOR (LOCATED IN CEILING VOID)
100
AcDbText
  0
TEXT
  5
3D
330
17
100
AcDbEntity
  8
GIA
100
AcDbText
 10
329624.1425605195
 20
51928.39313949532
 30
0.0
 40
401.0720291742854
  1
\pxqc;GIA
100
AcDbText
  0
TEXT
  5
3E
330
17
100
AcDbEntity
  8
GIA
100
AcDbText
 10
332747.5693771985
 20
51928.39313949542
 30
0.0
 40
401.0920837784742
  1
\A1;1233.56 m{\H0.7x;\S2^ ;}
100
AcDbText
  0
TEXT
  5
40
330
17
100
AcDbEntity
  8
WASTE & RECYCLING STATIONS
100
AcDbText
 10
281230.0534566887
 20
43510.59110965364
 30
0.0
 40
257.2562063916069
  1
{\fArial|b0|i0|c0|p34;Waste & Recycling Station Legend}
100
AcDbText
  0
TEXT
  5
41
330
17
100
AcDbEntity
  8
WASTE & RECYCLING STATIONS
100
AcDbText
 10
283611.3380095923
 20
42748.1534374717
 30
0.0
 40
245.0059108491495
  1
{\fArial|b0|i0|c0|p34;Waste & Recycling Station (Six Units):\PEssential Location}
100
AcDbText
  0
TEXT
  5
42
330
17
100
AcDbEntity
  8
WASTE & RECYCLING STATIONS
100
AcDbText
 10
283611.3380095923
 20
41250.40075650125
 30
0.0
 40
245.0059108491495
  1
{\fArial|b0|i0|c0|p34;Waste & Recycling Station (Six Units):\PPreferable Location}
100
AcDbText
  0
TEXT
  5
43
330
17
100
AcDbEntity
  8
WASTE & RECYCLING STATIONS
100
AcDbText
 10
283611.3380095923
 20
39752.6480755308
 30
0.0
 40
245.0059108491495
  1
{\fArial|b0|i0|c0|p34;Food Waste Caddy:\PCounter Top Type,\PSmall, 5L}
100
AcDbText
  0
TEXT
  5
44
330
17
100
AcDbEntity
  8
WASTE & RECYCLING STATIONS
100
AcDbText
 10
283611.3380095923
 20
38254.89539456033
 30
0.0
 40
245.0059108491495
  1
{\fArial|b0|i0|c0|p34;Food Waste Caddy:\PFloor Standing Type,\PLarge, 15L}
100
AcDbText
  0
TEXT
  5
46
330
17
100
AcDbEntity
  8
A-ANNO-DIMS
100
AcDbText
 10
197172.8346803538
 20
33276.00657868533
 30
0.0
 40
250.0
  1
1650
100
AcDbText
  0
TEXT
  5
47
330
17
100
AcDbEntity
  8
A-ANNO-DIMS
100
AcDbText
 10
200422.8346803534
 20
33276.00657868533
 30
0.0
 40
250.0
  1
1650
100
AcDbText
  0
TEXT
  5
49
330
17
100
AcDbEntity
  8
BUILDING_ACCESS
100
AcDbText
 10
330365.37434819
 20
52332.83520709773
 30
0.0
 40
367.3936753771544
  1
{\fArial|b0|i0|c0|p0;Legend}
100
AcDbText
  0
TEXT
  5
4A
330
17
100
AcDbEntity
  8
BUILDING_ACCESS
100
AcDbText
 10
330769.3566618298
 20
46336.2122859125
 30
0.0
 40
244.9291169181029
  1
{\fArial|b0|i0|c0|p0;Access Route}
100
AcDbText
  0
TEXT
  5
4B
330
17
100
AcDbEntity
  8
BUILDING_ACCESS
100
AcDbText
 10
330769.3566618298
 20
42662.27553214172
 30
0.0
 40
244.9291169181029
  1
{\fArial|b0|i0|c0|p0;Exit Route}
100
AcDbText
  0
TEXT
  5
4C
330
17
100
AcDbEntity
  8
BUILDING_ACCESS
100
AcDbText
 10
330769.3566618297
 20
50010.14903968378
 30
0.0
 40
244.9291169181029
  1
{\fArial|b0|i0|c0|p0;Unisex Toilet}
100
AcDbText
  0
TEXT
  5
4D
330
17
100
AcDbEntity
  8
BUILDING_ACCESS
100
AcDbText
 10
330769.3566618297
 20
51417.74791847197
 30
0.0
 40
244.9291169181029
  1
{\fArial|b0|i0|c0|p0;Hand Sanitizer Dispenser}
100
AcDbText
  0
TEXT
  5
4E
330
17
100
AcDbEntity
  8
BUILDING_ACCESS
100
AcDbText
 10
330769.3566618297
 20
47560.85787050291
 30
0.0
 40
244.9291169181029
  1
{\fArial|b0|i0|c0|p0;'Up' Only Stairs}
100
AcDbText
  0
TEXT
  5
4F
330
17
100
AcDbEntity
  8
BUILDING_ACCESS
100
AcDbText
 10
330769.3566618297
 20
43886.92111673169
 30
0.0
 40
244.9291169181029
  1
{\fArial|b0|i0|c0|p0;'Down' Only Stairs}
100
AcDbText
  0
TEXT
  5
50
330
17
100
AcDbEntity
  8
BUILDING_ACCESS
100
AcDbText
 10
330769.3566618297
 20
48785.50345509335
 30
0.0
 40
244.9291169181029
  1
{\fArial|b0|i0|c0|p0;Building Entrance}
100
AcDbText
  0
TEXT
  5
51
330
17
100
AcDbEntity
  8
BUILDING_ACCESS
100
AcDbText
 10
330769.3566618297
 20
45111.56670132207
 30
0.0
 40
244.9291169181029
  1
{\fArial|b0|i0|c0|p0;Building Exit}
100
AcDbText
  0
TEXT
  5
52
330
17
100
AcDbEntity
  8
BUILDING_ACCESS
100
AcDbText
 10
330769.3566618298
 20
41437.62994755129
 30
0.0
 40
244.9291169181029
  1
{\fArial|b0|i0|c0|p34;Two Way Route}
100
AcDbText
  0
TEXT
  5
54
330
17
100
AcDbEntity
  8
A-AREA-IDEN
100
AcDbText
 10
157915.2045616889
 20
29125.27525808114
 30
0.0
 40
199.9999999999998
  1
5P Research Office (root 2)
100
AcDbText
  0
TEXT
  5
55
330
17
100
AcDbEntity
  8
A-AREA-IDEN
100
AcDbText
 10
159464.4244801117
 20
29414.2676357846
 30
0.0
 40
199.9999999999998
  1
1.41
100
AcDbText
  0
TEXT
  5
56
330
17
100
AcDbEntity
  8
A-AREA-IDEN
100
AcDbText
 10
157740.1821887982
 20
26033.72205074032
 30
0.0
 40
199.9999999999998
  1
8-12P Meet Rm
100
AcDbText
  0
TEXT
  5
57
330
17
100
AcDbEntity
  8
A-AREA-IDEN
100
AcDbText
 10
158470.4986401918
 20
26322.71442844378
 30
0.0
 40
199.9999999999998
  1
1.40
100
AcDbText
  0
TEXT
  5
58
330
17
100
AcDbEntity
  8
A-AREA-IDEN
100
AcDbText
 10
167161.7733340392
 20
16307.56643543453
 30
0.0
 40
199.9999999999998
  1
42P Computer Room
100
AcDbText
  0
TEXT
  5
59
330
17
100
AcDbEntity
  8
A-AREA-IDEN
100
AcDbText
 10
167129.2784326116
 20
15974.2331021012
 30
0.0
 40
199.9999999999998
  1
14SD cap.
100
AcDbText
  0
TEXT
  5
5A
330
17
100
AcDbEntity
  8
A-AREA-IDEN
100
AcDbText
 10
168071.7784326115
 20
16596.558813138
 30
0.0
 40
199.9999999999998
  1
1.39
100
AcDbText
  0
TEXT
  5
5B
330
17
100
AcDbEntity
  8
A-AREA-IDEN
100
AcDbText
 10
185045.2320520831
 20
22624.0539623194
 30
0.0
 40
199.9999999999998
  1
60P Computer Room
100
AcDbText
  0
TEXT
  5
5C
330
17
100
AcDbEntity
  8
A-AREA-IDEN
100
AcDbText
 10
185024.4298766921
 20
22290.72062898606
 30
0.0
 40
199.9999999999998
  1
16 SD Cap.
100
AcDbText
  0
TEXT
  5
5D
330
17
100
AcDbEntity
  8
A-AREA-IDEN
100
AcDbText
 10
185966.9298766921
 20
22913.04634002286
 30
0.0
 40
199.9999999999998
  1
1.34
100
AcDbText
  0
TEXT
  5
5E
330
17
100
AcDbEntity
  8
A-AREA-IDEN
100
AcDbText
 10
162948.9026631552
 20
31394.54862848578
 30
0.0
 40
199.9999999999998
  1
IT Hub
100
AcDbText
  0
TEXT
  5
5F
330
17
100
AcDbEntity
  8
A-AREA-IDEN
100
AcDbText
 10
163069.8197263775
 20
31683.54100618924
 30
0.0
 40
199.9999999999998
  1
1.38
100
AcDbText
  0
TEXT
  5
60
330
17
100
AcDbEntity
  8
A-AREA-IDEN
100
AcDbText
 10
165444.0061688454
 20
31394.54862848578
 30
0.0
 40
199.9999999999998
  1
DB Room
100
AcDbText
  0
TEXT
  5
61
330
17
100
AcDbEntity
  8
A-AREA-IDEN
100
AcDbText
 10
165789.2784326116
 20
31683.54100618924
 30
0.0
 40
199.9999999999998
  1
1.37
100
AcDbText
  0
TEXT
  5
62
330
17
100
AcDbEntity
  8
A-AREA-IDEN
100
AcDbText
 10
185226.7414581833
 20
29120.18022681411
 30
0.0
 40
199.9999999999998
  1
6P Research Office
100
AcDbText
  0
TEXT
  5
63
330
17
100
AcDbEntity
  8
A-AREA-IDEN
100
AcDbText
 10
186247.4392827924
 20
29409.17260451758
 30
0.0
 40
199.9999999999998
  1
1.26
100
AcDbText
  0
TEXT
  5
64
330
17
100
AcDbEntity
  8
A-AREA-IDEN
100
AcDbText
 10
192435.9719675738
 20
29358.67708651589
 30
0.0
 40
199.9999999999998
  1
8P Research Office
100
AcDbText
  0
TEXT
  5
65
330
17
100
AcDbEntity
  8
A-AREA-IDEN
100
AcDbText
 10
193447.2884189674
 20
29647.66946421935
 30
0.0
 40
199.9999999999998
  1
1.25
100
AcDbText
  0
TEXT
  5
66
330
17
100
AcDbEntity
  8
A-AREA-IDEN
100
AcDbText
 10
194509.7825715857
 20
25192.784124477
 30
0.0
 40
199.9999999999998
  1
16P Collab Sp
100
AcDbText
  0
TEXT
  5
67
330
17
100
AcDbEntity
  8
A-AREA-IDEN
100
AcDbText
 10
195148.2825715857
 20
25481.77650218047
 30
0.0
 40
199.9999999999998
  1
1Z01
100
AcDbText
  0
TEXT
  5
68
330
17
100
AcDbEntity
  8
A-AREA-IDEN
100
AcDbText
 10
222420.3798725645
 20
26506.32627788682
 30
0.0
 40
199.9999999999998
  1
4P Collab Space
100
AcDbText
  0
TEXT
  5
69
330
17
100
AcDbEntity
  8
A-AREA-IDEN
100
AcDbText
 10
223227.8849711369
 20
26795.31865559028
 30
0.0
 40
199.9999999999998
  1
1Z02
100
AcDbText
  0
TEXT
  5
6A
330
17
100
AcDbEntity
  8
A-AREA-IDEN
100
AcDbText
 10
224577.9859327855
 20
21141.63470213246
 30
0.0
 40
199.9999999999998
  1
30P Seminar
100
AcDbText
  0
TEXT
  5
6B
330
17
100
AcDbEntity
  8
A-AREA-IDEN
100
AcDbText
 10
224562.3503107597
 20
20808.30136879913
 30
0.0
 40
199.9999999999998
  1
Room
100
AcDbText
  0
TEXT
  5
6C
330
17
100
AcDbEntity
  8
A-AREA-IDEN
100
AcDbText
 10
225107.2102699711
 20
21430.62707983593
 30
0.0
 40
199.9999999999998
  1
1.04
100
AcDbText
  0
TEXT
  5
6D
330
17
100
AcDbEntity
  8
A-AREA-IDEN
100
AcDbText
 10
226824.9235601174
 20
28632.6106126625
 30
0.0
 40
199.9999999999998
  1
3P Collab Space
100
AcDbText
  0
TEXT
  5
6E
330
17
100
AcDbEntity
  8
A-AREA-IDEN
100
AcDbText
 10
227635.1478973031
 20
28921.60299036597
 30
0.0
 40
199.9999999999998
  1
1Z03
100
AcDbText
  0
TEXT
  5
6F
330
17
100
AcDbEntity
  8
A-AREA-IDEN
100
AcDbText
 10
228497.6632502674
 20
31554.64383546208
 30
0.0
 40
199.9999999999998
  1
Office
100
AcDbText
  0
TEXT
  5
70
330
17
100
AcDbEntity
  8
A-AREA-IDEN
100
AcDbText
 10
228629.0979885407
 20
31843.63621316554
 30
0.0
 40
199.9999999999998
  1
1.06
100
AcDbText
  0
TEXT
  5
71
330
17
100
AcDbEntity
  8
A-AREA-IDEN
100
AcDbText
 10
225618.9275212878
 20
31422.99028654851
 30
0.0
 40
199.9999999999998
  1
Office
100
AcDbText
  0
TEXT
  5
72
330
17
100
AcDbEntity
  8
A-AREA-IDEN
100
AcDbText
 10
225750.362259561
 20
31711.98266425198
 30
0.0
 40
199.9999999999998
  1
1.07
100
AcDbText
  0
TEXT
  5
73
330
17
100
AcDbEntity
  8
A-AREA-IDEN
100
AcDbText
 10
221197.9502328636
 20
30518.50745893871
 30
0.0
 40
199.9999999999998
  1
Office
100
AcDbText
  0
TEXT
  5
74
330
17
100
AcDbEntity
  8
A-AREA-IDEN
100
AcDbText
 10
221329.3849711369
 20
30807.49983664217
 30
0.0
 40
199.9999999999998
  1
1.09
100
AcDbText
  0
TEXT
  5
75
330
17
100
AcDbEntity
  8
A-AREA-IDEN
100
AcDbText
 10
222914.2652718461
 20
31554.64383546208
 30
0.0
 40
199.9999999999998
  1
Office
100
AcDbText
  0
TEXT
  5
76
330
17
100
AcDbEntity
  8
A-AREA-IDEN
100
AcDbText
 10
223045.7000101194
 20
31843.63621316554
 30
0.0
 40
199.9999999999998
  1
1.08
100
AcDbText
  0
LWPOLYLINE
  5
78
330
17
100
AcDbEntity
  8
A-AREA-ROOM
100
AcDbPolyline
 90
4
 70
1
 10
156862.8318821053
 20
34245.32665969804
 10
162042.4498585225
 20
34245.32665969804
 10
162042.4498585225
 20
28509.32665969891
 10
156862.8318821053
 20
28509.32665969891
  0
LWPOLYLINE
  5
79
330
17
100
AcDbEntity
  8
A-AREA-ROOM
100
AcDbPolyline
 90
4
 70
1
 10
164671.7885431484
 20
34245.32665969802
 10
162164.4498585225
 20
34245.32665969802
 10
162164.4498585225
 20
28423.3266596989
 10
164671.7885431484
 20
28423.3266596989
  0
LWPOLYLINE
  5
7A
330
17
100
AcDbEntity
  8
A-AREA-ROOM
100
AcDbPolyline
 90
4
 70
1
 10
164814.4498585225
 20
34229.32665969803
 10
167484.4498584124
 20
34229.32665969803
 10
167484.4498584124
 20
28443.32665969889
 10
164814.4498585225
 20
28443.32665969889
  0
LWPOLYLINE
  5
7B
330
17
100
AcDbEntity
  8
A-AREA-ROOM
100
AcDbPolyline
 90
4
 70
1
 10
189398.831882105
 20
34245.32665969794
 10
183482.831882105
 20
34245.32665969794
 10
183482.831882105
 20
28508.32665969883
 10
189398.831882105
 20
28508.32665969883
  0
LWPOLYLINE
  5
7C
330
17
100
AcDbEntity
  8
A-AREA-ROOM
100
AcDbPolyline
 90
4
 70
1
 10
199443.5228938972
 20
34245.32665969791
 10
189550.831882105
 20
34245.32665969791
 10
189550.831882105
 20
28507.32665969881
 10
199443.5228938972
 20
28507.32665969881
  0
LWPOLYLINE
  5
7D
330
17
100
AcDbEntity
  8
A-AREA-ROOM
100
AcDbPolyline
 90
4
 70
1
 10
220099.2139055775
 20
34245.32665969784
 10
222605.9693168964
 20
34245.32665969784
 10
222605.9693168964
 20
29907.32665969882
 10
220099.2139055775
 20
29907.32665969882
  0
LWPOLYLINE
  5
7E
330
17
100
AcDbEntity
  8
A-AREA-ROOM
100
AcDbPolyline
 90
4
 70
1
 10
222707.9693168964
 20
34245.32665969763
 10
225229.8796455653
 20
34245.32665969763
 10
225229.8796455653
 20
29907.32665969881
 10
222707.9693168964
 20
29907.32665969881
  0
LWPOLYLINE
  5
7F
330
17
100
AcDbEntity
  8
A-AREA-ROOM
100
AcDbPolyline
 90
4
 70
1
 10
227884.9273880007
 20
34245.32665969781
 10
225331.8796455653
 20
34245.32665969781
 10
225331.8796455653
 20
29974.10924643937
 10
227884.9273880007
 20
29974.10924643937
  0
LWPOLYLINE
  5
80
330
17
100
AcDbEntity
  8
A-AREA-ROOM
100
AcDbPolyline
 90
4
 70
1
 10
227986.9273880006
 20
34245.32665969781
 10
230738.831882105
 20
34245.32665969781
 10
230738.831882105
 20
29907.32665969879
 10
227986.9273880006
 20
29907.32665969879
  0
LWPOLYLINE
  5
81
330
17
100
AcDbEntity
  8
A-AREA-ROOM
100
AcDbPolyline
 90
4
 70
1
 10
226904.8581068952
 20
26837.32665969868
 10
230738.831882105
 20
26837.32665969868
 10
230738.831882105
 20
29805.32665969879
 10
226904.8581068952
 20
29805.32665969879
  0
LWPOLYLINE
  5
82
330
17
100
AcDbEntity
  8
A-AREA-ROOM
100
AcDbPolyline
 90
4
 70
1
 10
222173.6318820374
 20
26907.32665969872
 10
224850.8318821051
 20
26907.32665969872
 10
224850.8318821051
 20
23007.3266592556
 10
222173.6318820374
 20
23007.3266592556
  0
LWPOLYLINE
  5
83
330
17
100
AcDbEntity
  8
A-AREA-ROOM
100
AcDbPolyline
 90
7
 70
0
 10
224950.8318821051
 20
26755.12665963303
 10
230738.831882105
 20
26755.12665963303
 10
230738.831882105
 20
15177.32665969903
 10
223989.831882105
 20
15177.32665969903
 10
224073.331882105
 20
22905.3266592556
 10
224972.8318821051
 20
22905.3266592556
 10
224972.8318821051
 20
26755.12665963303
  0
LWPOLYLINE
  5
84
330
17
100
AcDbEntity
  8
A-AREA-ROOM
100
AcDbPolyline
 90
4
 70
1
 10
199439.3318820375
 20
23574.8266596331
 10
188161.1818821472
 20
23574.8266596331
 10
188161.1818821472
 20
26907.32665969882
 10
199439.3318820375
 20
26907.32665969882
  0
LWPOLYLINE
  5
85
330
17
100
AcDbEntity
  8
A-AREA-ROOM
100
AcDbPolyline
 90
4
 70
1
 10
188035.6818821473
 20
15189.02665963316
 10
173325.0520470043
 20
15189.02665963316
 10
173325.0520470043
 20
26465.55413034356
 10
188035.6818821473
 20
26465.55413034356
  0
LWPOLYLINE
  5
86
330
17
100
AcDbEntity
  8
A-AREA-ROOM
100
AcDbPolyline
 90
4
 70
1
 10
163232.3318821049
 20
15242.52665963322
 10
173223.0520470043
 20
15242.52665963322
 10
173223.0520470043
 20
26805.32665969888
 10
163232.3318821049
 20
26805.32665969888
  0
LWPOLYLINE
  5
87
330
17
100
AcDbEntity
  8
A-AREA-ROOM
100
AcDbPolyline
 90
4
 70
1
 10
156862.8318821052
 20
26837.32665969892
 10
163073.8830196422
 20
26837.32665969892
 10
163073.8830196422
 20
23222.25078169961
 10
156862.8318821052
 20
23222.25078169961
  0
ENDSEC
  0
SECTION
  2
OBJECTS
  0
DICTIONARY
  5
A
330
0
100
AcDbDictionary
281
1
  3
ACAD_COLOR
350
B
  3
ACAD_GROUP
350
C
  3
ACAD_LAYOUT
350
D
  3
ACAD_MATERIAL
350
E
  3
ACAD_MLEADERSTYLE
350
F
  3
ACAD_MLINESTYLE
350
10
  3
ACAD_PLOTSETTINGS
350
11
  3
ACAD_PLOTSTYLENAME
350
12
  3
ACAD_SCALELIST
350
14
  3
ACAD_TABLESTYLE
350
15
  3
ACAD_VISUALSTYLE
350
16
  3
EZDXF_META
350
2D
  0
DICTIONARY
  5
B
330
A
100
AcDbDictionary
281
1
  0
DICTIONARY
  5
C
330
A
100
AcDbDictionary
281
1
  0
DICTIONARY
  5
D
330
A
100
AcDbDictionary
281
1
  3
Model
350
1A
  3
Layout1
350
1E
  0
DICTIONARY
  5
E
330
A
100
AcDbDictionary
281
1
  3
ByBlock
350
1F
  3
ByLayer
350
20
  3
Global
350
21
  0
DICTIONARY
  5
F
330
A
100
AcDbDictionary
281
1
  3
Standard
350
2C
  0
DICTIONARY
  5
10
330
A
100
AcDbDictionary
281
1
  3
Standard
350
22
  0
DICTIONARY
  5
11
330
A
100
AcDbDictionary
281
1
  0
ACDBDICTIONARYWDFLT
  5
12
330
A
100
AcDbDictionary
281
1
  3
Normal
350
13
100
AcDbDictionaryWithDefault
340
13
  0
ACDBPLACEHOLDER
  5
13
330
12
  0
DICTIONARY
  5
14
330
A
100
AcDbDictionary
281
1
  0
DICTIONARY
  5
15
330
A
100
AcDbDictionary
281
1
  0
DICTIONARY
  5
16
330
A
100
AcDbDictionary
281
1
  0
LAYOUT
  5
1A
330
D
100
AcDbPlotSettings
  1

  4
A3
  6

 40
7.5
 41
20.0
 42
7.5
 43
20.0
 44
420.0
 45
297.0
 46
0.0
 47
0.0
 48
0.0
 49
0.0
140
0.0
141
0.0
142
1.0
143
1.0
 70
1024
 72
1
 73
0
 74
5
  7

 75
16
 76
0
 77
2
 78
300
147
1.0
148
0.0
149
0.0
100
AcDbLayout
  1
Model
 70
1
 71
0
 10
0.0
 20
0.0
 11
420.0
 21
297.0
 12
0.0
 22
0.0
 32
0.0
 14
1e+20
 24
1e+20
 34
1e+20
 15
-1e+20
 25
-1e+20
 35
-1e+20
146
0.0
 13
0.0
 23
0.0
 33
0.0
 16
1.0
 26
0.0
 36
0.0
 17
0.0
 27
1.0
 37
0.0
 76
1
330
17
  0
LAYOUT
  5
1E
330
D
100
AcDbPlotSettings
  1

  4
A3
  6

 40
7.5
 41
20.0
 42
7.5
 43
20.0
 44
420.0
 45
297.0
 46
0.0
 47
0.0
 48
0.0
 49
0.0
140
0.0
141
0.0
142
1.0
143
1.0
 70
0
 72
1
 73
0
 74
5
  7

 75
16
 76
0
 77
2
 78
300
147
1.0
148
0.0
149
0.0
100
AcDbLayout
  1
Layout1
 70
1
 71
1
 10
0.0
 20
0.0
 11
420.0
 21
297.0
 12
0.0
 22
0.0
 32
0.0
 14
1e+20
 24
1e+20
 34
1e+20
 15
-1e+20
 25
-1e+20
 35
-1e+20
146
0.0
 13
0.0
 23
0.0
 33
0.0
 16
1.0
 26
0.0
 36
0.0
 17
0.0
 27
1.0
 37
0.0
 76
1
330
1B
  0
MATERIAL
  5
1F
102
{ACAD_REACTORS
330
E
102
}
330
E
100
AcDbMaterial
  1
ByBlock
  2

 70
0
 40
1.0
 71
1
 41
1.0
 91
-1023410177
 42
1.0
 72
1
  3

 73
1
 74
1
 75
1
 44
0.5
 73
0
 45
1.0
 46
1.0
 77
1
  4

 78
1
 79
1
170
1
 48
1.0
171
1
  6

172
1
173
1
174
1
140
1.0
141
1.0
175
1
  7

176
1
177
1
178
1
143
1.0
179
1
  8

270
1
271
1
272
1
145
1.0
146
1.0
273
1
  9

274
1
275
1
276
1
 42
1.0
 72
1
  3

 73
1
 74
1
 75
1
 94
63
  0
MATERIAL
  5
20
102
{ACAD_REACTORS
330
E
102
}
330
E
100
AcDbMaterial
  1
ByLayer
  2

 70
0
 40
1.0
 71
1
 41
1.0
 91
-1023410177
 42
1.0
 72
1
  3

 73
1
 74
1
 75
1
 44
0.5
 73
0
 45
1.0
 46
1.0
 77
1
  4

 78
1
 79
1
170
1
 48
1.0
171
1
  6

172
1
173
1
174
1
140
1.0
141
1.0
175
1
  7

176
1
177
1
178
1
143
1.0
179
1
  8

270
1
271
1
272
1
145
1.0
146
1.0
273
1
  9

274
1
275
1
276
1
 42
1.0
 72
1
  3

 73
1
 74
1
 75
1
 94
63
  0
MATERIAL
  5
21
102
{ACAD_REACTORS
330
E
102
}
330
E
100
AcDbMaterial
  1
Global
  2

 70
0
 40
1.0
 71
1
 41
1.0
 91
-1023410177
 42
1.0
 72
1
  3

 73
1
 74
1
 75
1
 44
0.5
 73
0
 45
1.0
 46
1.0
 77
1
  4

 78
1
 79
1
170
1
 48
1.0
171
1
  6

172
1
173
1
174
1
140
1.0
141
1.0
175
1
  7

176
1
177
1
178
1
143
1.0
179
1
  8

270
1
271
1
272
1
145
1.0
146
1.0
273
1
  9

274
1
275
1
276
1
 42
1.0
 72
1
  3

 73
1
 74
1
 75
1
 94
63
  0
MLINESTYLE
  5
22
102
{ACAD_REACTORS
330
10
102
}
330
10
100
AcDbMlineStyle
  2
Standard
 70
0
  3

 62
256
 51
90.0
 52
90.0
 71
2
 49
0.5
 62
256
  6
BYLAYER
 49
-0.5
 62
256
  6
BYLAYER
  0
MLEADERSTYLE
  5
2C
102
{ACAD_REACTORS
330
F
102
}
330
F
100
AcDbMLeaderStyle
179
2
170
2
171
1
172
0
 90
2
 40
0.0
 41
0.0
173
1
 91
-1056964608
 92
-2
290
1
 42
2.0
291
1
 43
8.0
  3
Standard
 44
4.0
300

342
29
174
1
175
1
176
0
178
1
 93
-1056964608
 45
4.0
292
0
297
0
 46
4.0
 94
-1056964608
 47
1.0
 49
1.0
140
1.0
294
1
141
0.0
177
0
142
1.0
295
0
296
0
143
3.75
271
0
272
9
273
9
  0
DICTIONARY
  5
2D
330
A
100
AcDbDictionary
280
1
281
1
  3
CREATED_BY_EZDXF
350
2E
  3
WRITTEN_BY_EZDXF
350
8A
  0
DICTIONARYVAR
  5
2E
330
2D
100
DictionaryVariables
280
0
  1
1.4.3 @ 2026-08-20T22:40:16.100309+00:00
  0
DICTIONARYVAR
  5
8A
330
2D
100
DictionaryVariables
280
0
  1
1.4.3 @ 2026-08-20T22:40:16.603747+00:00
  0
ENDSEC
  0
EOF
