  0
SECTION
  2
HEADER
  9
$ACADVER
  1
AC1032
  9
$ACADMAINTVER
 90
4
  9
$DWGCODEPAGE
  3
ANSI_1252
  9
$LASTSAVEDBY
  1
ezdxf
  9
$REQUIREDVERSIONS
160
0
  9
$INSBASE
 10
0.0
 20
0.0
 30
0.0
  9
$EXTMIN
 10
1e+20
 20
1e+20
 30
1e+20
  9
$EXTMAX
 10
-1e+20
 20
-1e+20
 30
-1e+20
  9
$LIMMIN
 10
0.0
 20
0.0
  9
$LIMMAX
 10
420.0
 20
297.0
  9
$ORTHOMODE
 70
0
  9
$REGENMODE
 70
1
  9
$FILLMODE
 70
1
  9
$QTEXTMODE
 70
0
  9
$MIRRTEXT
 70
1
  9
$LTSCALE
 40
1.0
  9
$ATTMODE
 70
1
  9
$TEXTSIZE
 40
2.5
  9
$TRACEWID
 40
1.0
  9
$TEXTSTYLE
  7
Standard
  9
$CLAYER
  8
0
  9
$CELTYPE
  6
ByLayer
  9
$CECOLOR
 62
256
  9
$CELTSCALE
 40
1.0
  9
$DISPSILH
 70
0
  9
$DIMSCALE
 40
1.0
  9
$DIMASZ
 40
2.5
  9
$DIMEXO
 40
0.625
  9
$DIMDLI
 40
3.75
  9
$DIMRND
 40
0.0
  9
$DIMDLE
 40
0.0
  9
$DIMEXE
 40
1.25
  9
$DIMTP
 40
0.0
  9
$DIMTM
 40
0.0
  9
$DIMTXT
 40
2.5
  9
$DIMCEN
 40
2.5
  9
$DIMTSZ
 40
0.0
  9
$DIMTOL
 70
0
  9
$DIMLIM
 70
0
  9
$DIMTIH
 70
0
  9
$DIMTOH
 70
0
  9
$DIMSE1
 70
0
  9
$DIMSE2
 70
0
  9
$DIMTAD
 70
1
  9
$DIMZIN
 70
8
  9
$DIMBLK
  1

  9
$DIMASO
 70
1
  9
$DIMSHO
 70
1
  9
$DIMPOST
  1

  9
$DIMAPOST
  1

  9
$DIMALT
 70
0
  9
$DIMALTD
 70
3
  9
$DIMALTF
 40
0.03937007874
  9
$DIMLFAC
 40
1.0
  9
$DIMTOFL
 70
1
  9
$DIMTVP
 40
0.0
  9
$DIMTIX
 70
0
  9
$DIMSOXD
 70
0
  9
$DIMSAH
 70
0
  9
$DIMBLK1
  1

  9
$DIMBLK2
  1

  9
$DIMSTYLE
  2
ISO-25
  9
$DIMCLRD
 70
0
  9
$DIMCLRE
 70
0
  9
$DIMCLRT
 70
0
  9
$DIMTFAC
 40
1.0
  9
$DIMGAP
 40
0.625
  9
$DIMJUST
 70
0
  9
$DIMSD1
 70
0
  9
$DIMSD2
 70
0
  9
$DIMTOLJ
 70
0
  9
$DIMTZIN
 70
8
  9
$DIMALTZ
 70
0
  9
$DIMALTTZ
 70
0
  9
$DIMUPT
 70
0
  9
$DIMDEC
 70
2
  9
$DIMTDEC
 70
2
  9
$DIMALTU
 70
2
  9
$DIMALTTD
 70
3
  9
$DIMTXSTY
  7
Standard
  9
$DIMAUNIT
 70
0
  9
$DIMADEC
 70
0
  9
$DIMALTRND
 40
0.0
  9
$DIMAZIN
 70
0
  9
$DIMDSEP
 70
44
  9
$DIMATFIT
 70
3
  9
$DIMFRAC
 70
0
  9
$DIMLDRBLK
  1

  9
$DIMLUNIT
 70
2
  9
$DIMLWD
 70
-2
  9
$DIMLWE
 70
-2
  9
$DIMTMOVE
 70
0
  9
$DIMFXL
 40
1.0
  9
$DIMFXLON
 70
0
  9
$DIMJOGANG
 40
0.785398163397
  9
$DIMTFILL
 70
0
  9
$DIMTFILLCLR
 70
0
  9
$DIMARCSYM
 70
0
  9
$DIMLTYPE
  6

  9
$DIMLTEX1
  6

  9
$DIMLTEX2
  6

  9
$DIMTXTDIRECTION
 70
0
  9
$LUNITS
 70
2
  9
$LUPREC
 70
4
  9
$SKETCHINC
 40
1.0
  9
$FILLETRAD
 40
10.0
  9
$AUNITS
 70
0
  9
$AUPREC
 70
2
  9
$MENU
  1
.
  9
$ELEVATION
 40
0.0
  9
$PELEVATION
 40
0.0
  9
$THICKNESS
 40
0.0
  9
$LIMCHECK
 70
0
  9
$CHAMFERA
 40
0.0
  9
$CHAMFERB
 40
0.0
  9
$CHAMFERC
 40
0.0
  9
$CHAMFERD
 40
0.0
  9
$SKPOLY
 70
0
  9
$TDCREATE
 40
2461273.9865509258
  9
$TDUCREATE
 40
2458532.153996898
  9
$TDUPDATE
 40
2461273.9865509258
  9
$TDUUPDATE
 40
2458532.1544311
  9
$TDINDWG
 40
0.0
  9
$TDUSRTIMER
 40
0.0
  9
$USRTIMER
 70
1
  9
$ANGBASE
 50
0.0
  9
$ANGDIR
 70
0
  9
$PDMODE
 70
0
  9
$PDSIZE
 40
0.0
  9
$PLINEWID
 40
0.0
  9
$SPLFRAME
 70
0
  9
$SPLINETYPE
 70
6
  9
$SPLINESEGS
 70
8
  9
$HANDSEED
  5
108
  9
$SURFTAB1
 70
6
  9
$SURFTAB2
 70
6
  9
$SURFTYPE
 70
6
  9
$SURFU
 70
6
  9
$SURFV
 70
6
  9
$UCSBASE
  2

  9
$UCSNAME
  2

  9
$UCSORG
 10
0.0
 20
0.0
 30
0.0
  9
$UCSXDIR
 10
1.0
 20
0.0
 30
0.0
  9
$UCSYDIR
 10
0.0
 20
1.0
 30
0.0
  9
$UCSORTHOREF
  2

  9
$UCSORTHOVIEW
 70
0
  9
$UCSORGTOP
 10
0.0
 20
0.0
 30
0.0
  9
$UCSORGBOTTOM
 10
0.0
 20
0.0
 30
0.0
  9
$UCSORGLEFT
 10
0.0
 20
0.0
 30
0.0
  9
$UCSORGRIGHT
 10
0.0
 20
0.0
 30
0.0
  9
$UCSORGFRONT
 10
0.0
 20
0.0
 30
0.0
  9
$UCSORGBACK
 10
0.0
 20
0.0
 30
0.0
  9
$PUCSBASE
  2

  9
$PUCSNAME
  2

  9
$PUCSORG
 10
0.0
 20
0.0
 30
0.0
  9
$PUCSXDIR
 10
1.0
 20
0.0
 30
0.0
  9
$PUCSYDIR
 10
0.0
 20
1.0
 30
0.0
  9
$PUCSORTHOREF
  2

  9
$PUCSORTHOVIEW
 70
0
  9
$PUCSORGTOP
 10
0.0
 20
0.0
 30
0.0
  9
$PUCSORGBOTTOM
 10
0.0
 20
0.0
 30
0.0
  9
$PUCSORGLEFT
 10
0.0
 20
0.0
 30
0.0
  9
$PUCSORGRIGHT
 10
0.0
 20
0.0
 30
0.0
  9
$PUCSORGFRONT
 10
0.0
 20
0.0
 30
0.0
  9
$PUCSORGBACK
 10
0.0
 20
0.0
 30
0.0
  9
$USERI1
 70
0
  9
$USERI2
 70
0
  9
$USERI3
 70
0
  9
$USERI4
 70
0
  9
$USERI5
 70
0
  9
$USERR1
 40
0.0
  9
$USERR2
 40
0.0
  9
$USERR3
 40
0.0
  9
$USERR4
 40
0.0
  9
$USERR5
 40
0.0
  9
$WORLDVIEW
 70
1
  9
$SHADEDGE
 70
3
  9
$SHADEDIF
 70
70
  9
$TILEMODE
 70
1
  9
$MAXACTVP
 70
64
  9
$PINSBASE
 10
0.0
 20
0.0
 30
0.0
  9
$PLIMCHECK
 70
0
  9
$PEXTMIN
 10
1e+20
 20
1e+20
 30
1e+20
  9
$PEXTMAX
 10
-1e+20
 20
-1e+20
 30
-1e+20
  9
$PLIMMIN
 10
0.0
 20
0.0
  9
$PLIMMAX
 10
420.0
 20
297.0
  9
$UNITMODE
 70
0
  9
$VISRETAIN
 70
1
  9
$PLINEGEN
 70
0
  9
$PSLTSCALE
 70
1
  9
$TREEDEPTH
 70
3020
  9
$CMLSTYLE
  2
Standard
  9
$CMLJUST
 70
0
  9
$CMLSCALE
 40
20.0
  9
$PROXYGRAPHICS
 70
1
  9
$MEASUREMENT
 70
1
  9
$CELWEIGHT
370
-1
  9
$ENDCAPS
280
0
  9
$JOINSTYLE
280
0
  9
$LWDISPLAY
290
0
  9
$INSUNITS
 70
4
  9
$HYPERLINKBASE
  1

  9
$STYLESHEET
  1

  9
$XEDIT
290
1
  9
$CEPSNTYPE
380
0
  9
$PSTYLEMODE
290
1
  9
$FINGERPRINTGUID
  2
{E612686B-D59E-426E-8995-DF861C4F62C1}
  9
$VERSIONGUID
  2
{EC4775AB-2BA1-4D55-A5D0-E8CCAE361FFA}
  9
$EXTNAMES
290
1
  9
$PSVPSCALE
 40
0.0
  9
$OLESTARTUP
290
0
  9
$SORTENTS
280
127
  9
$INDEXCTL
280
0
  9
$HIDETEXT
280
1
  9
$XCLIPFRAME
280
1
  9
$HALOGAP
280
0
  9
$OBSCOLOR
 70
257
  9
$OBSLTYPE
280
0
  9
$INTERSECTIONDISPLAY
280
0
  9
$INTERSECTIONCOLOR
 70
257
  9
$DIMASSOC
280
2
  9
$PROJECTNAME
  1

  9
$CAMERADISPLAY
290
0
  9
$LENSLENGTH
 40
50.0
  9
$CAMERAHEIGHT
 40
0.0
  9
$STEPSPERSEC
 40
24.0
  9
$STEPSIZE
 40
100.0
  9
$3DDWFPREC
 40
2.0
  9
$PSOLWIDTH
 40
0.005
  9
$PSOLHEIGHT
 40
0.08
  9
$LOFTANG1
 40
1.570796326795
  9
$LOFTANG2
 40
1.570796326795
  9
$LOFTMAG1
 40
0.0
  9
$LOFTMAG2
 40
0.0
  9
$LOFTPARAM
 70
7
  9
$LOFTNORMALS
280
1
  9
$LATITUDE
 40
37.795
  9
$LONGITUDE
 40
-122.394
  9
$NORTHDIRECTION
 40
0.0
  9
$TIMEZONE
 70
-8000
  9
$LIGHTGLYPHDISPLAY
280
1
  9
$TILEMODELIGHTSYNCH
280
1
  9
$CMATERIAL
347
20
  9
$SOLIDHIST
280
0
  9
$SHOWHIST
280
1
  9
$DWFFRAME
280
2
  9
$DGNFRAME
280
2
  9
$REALWORLDSCALE
290
1
  9
$INTERFERECOLOR
 62
256
  9
$CSHADOW
280
0
  9
$SHADOWPLANELOCATION
 40
0.0
  0
ENDSEC
  0
SECTION
  2
CLASSES
  0
CLASS
  1
ACDBDICTIONARYWDFLT
  2
AcDbDictionaryWithDefault
  3
ObjectDBX Classes
 90
0
 91
0
280
0
281
0
  0
CLASS
  1
SUN
  2
AcDbSun
  3
SCENEOE
 90
1153
 91
0
280
0
281
0
  0
CLASS
  1
VISUALSTYLE
  2
AcDbVisualStyle
  3
ObjectDBX Classes
 90
4095
 91
0
280
0
281
0
  0
CLASS
  1
MATERIAL
  2
AcDbMaterial
  3
ObjectDBX Classes
 90
1153
 91
0
280
0
281
0
  0
CLASS
  1
SCALE
  2
AcDbScale
  3
ObjectDBX Classes
 90
1153
 91
0
280
0
281
0
  0
CLASS
  1
TABLESTYLE
  2
AcDbTableStyle
  3
ObjectDBX Classes
 90
4095
 91
0
280
0
281
0
  0
CLASS
  1
MLEADERSTYLE
  2
AcDbMLeaderStyle
  3
ACDB_MLEADERSTYLE_CLASS
 90
4095
 91
0
280
0
281
0
  0
CLASS
  1
DICTIONARYVAR
  2
AcDbDictionaryVar
  3
ObjectDBX Classes
 90
0
 91
0
280
0
281
0
  0
CLASS
  1
CELLSTYLEMAP
  2
AcDbCellStyleMap
  3
ObjectDBX Classes
 90
1152
 91
0
280
0
281
0
  0
CLASS
  1
MENTALRAYRENDERSETTINGS
  2
AcDbMentalRayRenderSettings
  3
SCENEOE
 90
1024
 91
0
280
0
281
0
  0
CLASS
  1
ACDBDETAILVIEWSTYLE
  2
AcDbDetailViewStyle
  3
ObjectDBX Classes
 90
1025
 91
0
280
0
281
0
  0
CLASS
  1
ACDBSECTIONVIEWSTYLE
  2
AcDbSectionViewStyle
  3
ObjectDBX Classes
 90
1025
 91
0
280
0
281
0
  0
CLASS
  1
RASTERVARIABLES
  2
AcDbRasterVariables
  3
ISM
 90
0
 91
0
280
0
281
0
  0
CLASS
  1
LAYOUT
  2
AcDbLayout
  3
ObjectDBX Classes
 90
0
 91
0
280
0
281
0
  0
CLASS
  1
ACDBPLACEHOLDER
  2
AcDbPlaceHolder
  3
ObjectDBX Classes
 90
0
 91
0
280
0
281
0
  0
ENDSEC
  0
SECTION
  2
TABLES
  0
TABLE
  2
VPORT
  5
8
330
0
100
AcDbSymbolTable
 70
1
  0
VPORT
  5
23
330
8
100
AcDbSymbolTableRecord
100
AcDbViewportTableRecord
  2
*Active
 70
0
 10
0.0
 20
0.0
 11
1.0
 21
1.0
 12
0.0
 22
0.0
 13
0.0
 23
0.0
 14
0.5
 24
0.5
 15
0.5
 25
0.5
 16
0.0
 26
0.0
 36
1.0
 17
0.0
 27
0.0
 37
0.0
 40
1000.0
 41
1.34
 42
50.0
 43
0.0
 44
0.0
 50
0.0
 51
0.0
 71
0
 72
1000
 73
1
 74
3
 75
0
 76
0
 77
0
 78
0
281
0
 65
0
146
0.0
  0
ENDTAB
  0
TABLE
  2
LTYPE
  5
2
330
0
100
AcDbSymbolTable
 70
3
  0
LTYPE
  5
24
330
2
100
AcDbSymbolTableRecord
100
AcDbLinetypeTableRecord
  2
ByBlock
 70
0
  3

 72
65
 73
0
 40
0.0
  0
LTYPE
  5
25
330
2
100
AcDbSymbolTableRecord
100
AcDbLinetypeTableRecord
  2
ByLayer
 70
0
  3

 72
65
 73
0
 40
0.0
  0
LTYPE
  5
26
330
2
100
AcDbSymbolTableRecord
100
AcDbLinetypeTableRecord
  2
Continuous
 70
0
  3

 72
65
 73
0
 40
0.0
  0
ENDTAB
  0
TABLE
  2
LAYER
  5
1
330
0
100
AcDbSymbolTable
 70
10
  0
LAYER
  5
27
330
1
100
AcDbSymbolTableRecord
100
AcDbLayerTableRecord
  2
0
 70
0
 62
7
  6
Continuous
370
-3
390
13
347
21
  0
LAYER
  5
28
330
1
100
AcDbSymbolTableRecord
100
AcDbLayerTableRecord
  2
Defpoints
 70
0
 62
7
  6
Continuous
290
0
370
-3
390
13
347
21
  0
LAYER
  5
2F
330
1
100
AcDbSymbolTableRecord
100
AcDbLayerTableRecord
  2
PRSNAMES
 70
0
 62
7
  6
Continuous
370
-3
390
13
347
21
  0
LAYER
  5
32
330
1
100
AcDbSymbolTableRecord
100
AcDbLayerTableRecord
  2
FALARM
 70
0
 62
7
  6
Continuous
370
-3
390
13
347
21
  0
LAYER
  5
3C
330
1
100
AcDbSymbolTableRecord
100
AcDbLayerTableRecord
  2
GIA
 70
0
 62
7
  6
Continuous
370
-3
390
13
347
21
  0
LAYER
  5
3F
330
1
100
AcDbSymbolTableRecord
100
AcDbLayerTableRecord
  2
WASTE & RECYCLING STATIONS
 70
0
 62
7
  6
Continuous
370
-3
390
13
347
21
  0
LAYER
  5
45
330
1
100
AcDbSymbolTableRecord
100
AcDbLayerTableRecord
  2
A-ANNO-DIMS
 70
0
 62
7
  6
Continuous
370
-3
390
13
347
21
  0
LAYER
  5
48
330
1
100
AcDbSymbolTableRecord
100
AcDbLayerTableRecord
  2
BUILDING_ACCESS
 70
0
 62
7
  6
Continuous
370
-3
390
13
347
21
  0
LAYER
  5
53
330
1
100
AcDbSymbolTableRecord
100
AcDbLayerTableRecord
  2
A-AREA-IDEN
 70
0
 62
7
  6
Continuous
370
-3
390
13
347
21
  0
LAYER
  5
CB
330
1
100
AcDbSymbolTableRecord
100
AcDbLayerTableRecord
  2
A-AREA-ROOM
 70
0
 62
7
  6
Continuous
370
-3
390
13
347
21
  0
ENDTAB
  0
TABLE
  2
STYLE
  5
5
330
0
100
AcDbSymbolTable
 70
1
  0
STYLE
  5
29
330
5
100
AcDbSymbolTableRecord
100
AcDbTextStyleTableRecord
  2
Standard
 70
0
 40
0.0
 41
1.0
 50
0.0
 71
0
 42
2.5
  3
txt
  4

  0
ENDTAB
  0
TABLE
  2
VIEW
  5
7
330
0
100
AcDbSymbolTable
 70
0
  0
ENDTAB
  0
TABLE
  2
UCS
  5
6
330
0
100
AcDbSymbolTable
 70
0
  0
ENDTAB
  0
TABLE
  2
APPID
  5
3
330
0
100
AcDbSymbolTable
 70
3
  0
APPID
  5
2A
330
3
100
AcDbSymbolTableRecord
100
AcDbRegAppTableRecord
  2
ACAD
 70
0
  0
APPID
  5
105
330
3
100
AcDbSymbolTableRecord
100
AcDbRegAppTableRecord
  2
HATCHBACKGROUNDCOLOR
 70
0
  0
APPID
  5
106
330
3
100
AcDbSymbolTableRecord
100
AcDbRegAppTableRecord
  2
EZDXF
 70
0
  0
ENDTAB
  0
TABLE
  2
DIMSTYLE
  5
4
330
0
100
AcDbSymbolTable
 70
1
100
AcDbDimStyleTable
  0
DIMSTYLE
105
2B
330
4
100
AcDbSymbolTableRecord
100
AcDbDimStyleTableRecord
  2
Standard
 70
0
 40
1.0
 41
2.5
 42
0.625
 43
3.75
 44
1.25
 45
0.0
 46
0.0
 47
0.0
 48
0.0
 49
2.5
140
2.5
141
2.5
142
0.0
143
0.03937007874
144
1.0
145
0.0
146
1.0
147
0.625
148
0.0
 69
0
 70
0
 71
0
 72
0
 73
0
 74
0
 75
0
 76
0
 77
1
 78
8
 79
3
170
0
171
3
172
1
173
0
174
0
175
0
176
0
177
0
178
0
179
2
271
2
272
2
273
2
274
3
275
0
276
0
277
2
278
44
279
0
280
0
281
0
282
0
283
0
284
8
285
0
286
0
288
0
289
3
290
0
371
-2
372
-2
  0
ENDTAB
  0
TABLE
  2
BLOCK_RECORD
  5
9
330
0
100
AcDbSymbolTable
 70
2
  0
BLOCK_RECORD
  5
17
330
9
100
AcDbSymbolTableRecord
100
AcDbBlockTableRecord
  2
*Model_Space
340
1A
 70
0
280
1
281
0
  0
BLOCK_RECORD
  5
1B
330
9
100
AcDbSymbolTableRecord
100
AcDbBlockTableRecord
  2
*Paper_Space
340
1E
 70
0
280
1
281
0
  0
ENDTAB
  0
ENDSEC
  0
SECTION
  2
BLOCKS
  0
BLOCK
  5
18
330
17
100
AcDbEntity
  8
0
100
AcDbBlockBegin
  2
*Model_Space
 70
0
 10
0.0
 20
0.0
 30
0.0
  3
*Model_Space
  1

  0
ENDBLK
  5
19
330
17
100
AcDbEntity
  8
0
100
AcDbBlockEnd
  0
BLOCK
  5
1C
330
1B
100
AcDbEntity
  8
0
100
AcDbBlockBegin
  2
*Paper_Space
 70
0
 10
0.0
 20
0.0
 30
0.0
  3
*Paper_Space
  1

  0
ENDBLK
  5
1D
330
1B
100
AcDbEntity
  8
0
100
AcDbBlockEnd
  0
ENDSEC
  0
SECTION
  2
ENTITIES
  0
TEXT
  5
30
330
17
100
AcDbEntity
  8
PRSNAMES
100
AcDbText
 10
94261.31966166137
 20
24293.40091087214
 30
0.0
 40
250.0
  1
\pxqc;{\fArial|b0|i0|c0|p34;\H1.6x;Z01}
100
AcDbText
  0
TEXT
  5
31
330
17
100
AcDbEntity
  8
PRSNAMES
100
AcDbText
 10
89862.67811854662
 20
20982.48865184173
 30
0.0
 40
250.0
  1
\pxqc;{\fArial|b0|i0|c0|p34;\H1.6x;Z02}
100
AcDbText
  0
TEXT
  5
33
330
17
100
AcDbEntity
  8
FALARM
100
AcDbText
 10
282153.5570322826
 20
41406.07163135697
 30
0.0
 40
112.5
  1
HEAT DETECTOR AND SOUNDER BASE
100
AcDbText
  0
TEXT
  5
34
330
17
100
AcDbEntity
  8
FALARM
100
AcDbText
 10
282153.5570322826
 20
40906.07163135696
 30
0.0
 40
112.5
  1
FIRE ALARM PANEL
100
AcDbText
  0
TEXT
  5
35
330
17
100
AcDbEntity
  8
FALARM
100
AcDbText
 10
282153.5570322826
 20
39906.07163135697
 30
0.0
 40
112.5
  1
INTERFACE UNIT
100
AcDbText
  0
TEXT
  5
36
330
17
100
AcDbEntity
  8
FALARM
100
AcDbText
 10
282153.5570322826
 20
42906.07163135694
 30
0.0
 40
112.5
  1
MANUAL CALL POINT
100
AcDbText
  0
TEXT
  5
37
330
17
100
AcDbEntity
  8
FALARM
100
AcDbText
 10
281340.1621373595
 20
43336.08103975214
 30
0.0
 40
200.0
  1
FIRE  ALARM  &  EMERGENCY  LIGHTING  LEGEND
100
AcDbText
  0
TEXT
  5
38
330
17
100
AcDbEntity
  8
FALARM
100
AcDbText
 10
282153.5363618459
 20
40612.32846454363
 30
0.0
 40
112.5
  1
SYMBOL TAG WHERE "X" DENOTES ZONE NUMBER AND\P"Y" DENOTES POSITION OF DEVICE
100
AcDbText
  0
TEXT
  5
39
330
17
100
AcDbEntity
  8
FALARM
100
AcDbText
 10
281417.6551767234
 20
40406.04957605472
 30
0.0
 40
112.5
  1
X/Y
100
AcDbText
  0
TEXT
  5
3A
330
17
100
AcDbEntity
  8
FALARM
100
AcDbText
 10
282153.536361846
 20
42112.32846454364
 30
0.0
 40
112.5
  1
COMBINED SMOKE/HEAT DETECTOR AND SOUNDER BASE
100
AcDbText
  0
TEXT
  5
3B
330
17
100
AcDbEntity
  8
FALARM
100
AcDbText
 10
282153.55703226
 20
42406.07163141819
 30
0.0
 40
112.4999999775
  1
SMOKE DETECTOR (LOCATED IN CEILING VOID)
100
AcDbText
  0
TEXT
  5
3D
330
17
100
AcDbEntity
  8
GIA
100
AcDbText
 10
329624.1425605197
 20
51928.39313949532
 30
0.0
 40
401.0720291742853
  1
\pxqc;GIA
100
AcDbText
  0
TEXT
  5
3E
330
17
100
AcDbEntity
  8
GIA
100
AcDbText
 10
332747.5693771986
 20
51928.39313949542
 30
0.0
 40
401.0920837784742
  1
\A1;1842.76 m{\H0.7x;\S2^ ;}
100
AcDbText
  0
TEXT
  5
40
330
17
100
AcDbEntity
  8
WASTE & RECYCLING STATIONS
100
AcDbText
 10
281230.0534566887
 20
43510.59110965364
 30
0.0
 40
257.2562063916069
  1
{\fArial|b0|i0|c0|p34;Waste & Recycling Station Legend}
100
AcDbText
  0
TEXT
  5
41
330
17
100
AcDbEntity
  8
WASTE & RECYCLING STATIONS
100
AcDbText
 10
283611.3380095924
 20
42748.1534374717
 30
0.0
 40
245.0059108491495
  1
{\fArial|b0|i0|c0|p34;Waste & Recycling Station (Six Units):\PEssential Location}
100
AcDbText
  0
TEXT
  5
42
330
17
100
AcDbEntity
  8
WASTE & RECYCLING STATIONS
100
AcDbText
 10
283611.3380095924
 20
41250.40075650125
 30
0.0
 40
245.0059108491495
  1
{\fArial|b0|i0|c0|p34;Waste & Recycling Station (Six Units):\PPreferable Location}
100
AcDbText
  0
TEXT
  5
43
330
17
100
AcDbEntity
  8
WASTE & RECYCLING STATIONS
100
AcDbText
 10
283611.3380095924
 20
39752.6480755308
 30
0.0
 40
245.0059108491495
  1
{\fArial|b0|i0|c0|p34;Food Waste Caddy:\PCounter Top Type,\PSmall, 5L}
100
AcDbText
  0
TEXT
  5
44
330
17
100
AcDbEntity
  8
WASTE & RECYCLING STATIONS
100
AcDbText
 10
283611.3380095924
 20
38254.89539456034
 30
0.0
 40
245.0059108491495
  1
{\fArial|b0|i0|c0|p34;Food Waste Caddy:\PFloor Standing Type,\PLarge, 15L}
100
AcDbText
  0
TEXT
  5
46
330
17
100
AcDbEntity
  8
A-ANNO-DIMS
100
AcDbText
 10
197172.8346803538
 20
33276.00657868533
 30
0.0
 40
250.0
  1
1650
100
AcDbText
  0
TEXT
  5
47
330
17
100
AcDbEntity
  8
A-ANNO-DIMS
100
AcDbText
 10
200422.8346803534
 20
33276.00657868533
 30
0.0
 40
250.0
  1
1650
100
AcDbText
  0
TEXT
  5
49
330
17
100
AcDbEntity
  8
BUILDING_ACCESS
100
AcDbText
 10
330365.37434819
 20
52332.83520709774
 30
0.0
 40
367.3936753771544
  1
{\fArial|b0|i0|c0|p0;Legend}
100
AcDbText
  0
TEXT
  5
4A
330
17
100
AcDbEntity
  8
BUILDING_ACCESS
100
AcDbText
 10
330769.3566618298
 20
46336.2122859125
 30
0.0
 40
244.9291169181029
  1
{\fArial|b0|i0|c0|p0;Access Route}
100
AcDbText
  0
TEXT
  5
4B
330
17
100
AcDbEntity
  8
BUILDING_ACCESS
100
AcDbText
 10
330769.3566618298
 20
42662.27553214172
 30
0.0
 40
244.9291169181029
  1
{\fArial|b0|i0|c0|p0;Exit Route}
100
AcDbText
  0
TEXT
  5
4C
330
17
100
AcDbEntity
  8
BUILDING_ACCESS
100
AcDbText
 10
330769.3566618297
 20
50010.14903968378
 30
0.0
 40
244.9291169181029
  1
{\fArial|b0|i0|c0|p0;Unisex Toilet}
100
AcDbText
  0
TEXT
  5
4D
330
17
100
AcDbEntity
  8
BUILDING_ACCESS
100
AcDbText
 10
330769.3566618297
 20
51417.74791847197
 30
0.0
 40
244.9291169181029
  1
{\fArial|b0|i0|c0|p0;Hand Sanitizer Dispenser}
100
AcDbText
  0
TEXT
  5
4E
330
17
100
AcDbEntity
  8
BUILDING_ACCESS
100
AcDbText
 10
330769.3566618297
 20
47560.85787050291
 30
0.0
 40
244.9291169181029
  1
{\fArial|b0|i0|c0|p0;'Up' Only Stairs}
100
AcDbText
  0
TEXT
  5
4F
330
17
100
AcDbEntity
  8
BUILDING_ACCESS
100
AcDbText
 10
330769.3566618297
 20
43886.92111673169
 30
0.0
 40
244.9291169181029
  1
{\fArial|b0|i0|c0|p0;'Down' Only Stairs}
100
AcDbText
  0
TEXT
  5
50
330
17
100
AcDbEntity
  8
BUILDING_ACCESS
100
AcDbText
 10
330769.3566618297
 20
48785.50345509335
 30
0.0
 40
244.9291169181029
  1
{\fArial|b0|i0|c0|p0;Building Entrance}
100
AcDbText
  0
TEXT
  5
51
330
17
100
AcDbEntity
  8
BUILDING_ACCESS
100
AcDbText
 10
330769.3566618297
 20
45111.56670132207
 30
0.0
 40
244.9291169181029
  1
{\fArial|b0|i0|c0|p0;Building Exit}
100
AcDbText
  0
TEXT
  5
52
330
17
100
AcDbEntity
  8
BUILDING_ACCESS
100
AcDbText
 10
330769.3566618298
 20
41437.62994755128
 30
0.0
 40
244.9291169181029
  1
{\fArial|b0|i0|c0|p34;Two Way Route}
100
AcDbText
  0
TEXT
  5
54
330
17
100
AcDbEntity
  8
A-AREA-IDEN
100
AcDbText
 10
167409.956608383
 20
21119.96533444576
 30
0.0
 40
199.9999999999998
  1
Research Lab
100
AcDbText
  0
TEXT
  5
55
330
17
100
AcDbEntity
  8
A-AREA-IDEN
100
AcDbText
 10
168095.087811646
 20
21408.95771214923
 30
0.0
 40
199.9999999999998
  1
2.53
100
AcDbText
  0
TEXT
  5
56
330
17
100
AcDbEntity
  8
A-AREA-IDEN
100
AcDbText
 10
174242.96757835
 20
21929.50048300363
 30
0.0
 40
199.9999999999998
  1
48P Computer
100
AcDbText
  0
TEXT
  5
57
330
17
100
AcDbEntity
  8
A-AREA-IDEN
100
AcDbText
 10
174224.612717711
 20
21596.1671496703
 30
0.0
 40
199.9999999999998
  1
Room
100
AcDbText
  0
TEXT
  5
58
330
17
100
AcDbEntity
  8
A-AREA-IDEN
100
AcDbText
 10
174210.4726769224
 20
21262.83381633697
 30
0.0
 40
199.9999999999998
  1
14 SD Cap.
100
AcDbText
  0
TEXT
  5
59
330
17
100
AcDbEntity
  8
A-AREA-IDEN
100
AcDbText
 10
174886.7439209741
 20
22218.4928607071
 30
0.0
 40
199.9999999999998
  1
2.35
100
AcDbText
  0
TEXT
  5
5A
330
17
100
AcDbEntity
  8
A-AREA-IDEN
100
AcDbText
 10
194208.7548124296
 20
25004.52086978785
 30
0.0
 40
199.9999999999998
  1
10P Collab Sp
100
AcDbText
  0
TEXT
  5
5B
330
17
100
AcDbEntity
  8
A-AREA-IDEN
100
AcDbText
 10
194878.5260564813
 20
25293.5132474913
 30
0.0
 40
199.9999999999998
  1
2Z01
100
AcDbText
  0
TEXT
  5
5C
330
17
100
AcDbEntity
  8
A-AREA-IDEN
100
AcDbText
 10
185732.4791802861
 20
28905.72238814929
 30
0.0
 40
199.9999999999998
  1
8P PHD Students
100
AcDbText
  0
TEXT
  5
5D
330
17
100
AcDbEntity
  8
A-AREA-IDEN
100
AcDbText
 10
186563.5668757314
 20
29194.71476585277
 30
0.0
 40
199.9999999999998
  1
2.36
100
AcDbText
  0
TEXT
  5
5E
330
17
100
AcDbEntity
  8
A-AREA-IDEN
100
AcDbText
 10
195204.3892144351
 20
29027.70272478639
 30
0.0
 40
199.9999999999998
  1
Waiting Area
100
AcDbText
  0
TEXT
  5
5F
330
17
100
AcDbEntity
  8
A-AREA-IDEN
100
AcDbText
 10
195787.6478820082
 20
29316.69510248985
 30
0.0
 40
199.9999999999998
  1
2Z19
100
AcDbText
  0
TEXT
  5
60
330
17
100
AcDbEntity
  8
A-AREA-IDEN
100
AcDbText
 10
199461.5040325587
 20
28885.72238814928
 30
0.0
 40
199.9999999999998
  1
8P PHD Students
100
AcDbText
  0
TEXT
  5
61
330
17
100
AcDbEntity
  8
A-AREA-IDEN
100
AcDbText
 10
200292.591728004
 20
29174.71476585275
 30
0.0
 40
199.9999999999998
  1
2.34
100
AcDbText
  0
TEXT
  5
62
330
17
100
AcDbEntity
  8
A-AREA-IDEN
100
AcDbText
 10
207364.8139037008
 20
25169.1359202073
 30
0.0
 40
199.9999999999998
  1
120S Lecture Theatre - Group Bench seating style
100
AcDbText
  0
TEXT
  5
63
330
17
100
AcDbEntity
  8
A-AREA-IDEN
100
AcDbText
 10
209720.5100569385
 20
25458.12829791077
 30
0.0
 40
199.9999999999998
  1
2.26
100
AcDbText
  0
TEXT
  5
64
330
17
100
AcDbEntity
  8
A-AREA-IDEN
100
AcDbText
 10
219078.8108823916
 20
22114.71389645784
 30
0.0
 40
199.9999999999998
  1
ICT LAN
100
AcDbText
  0
TEXT
  5
65
330
17
100
AcDbEntity
  8
A-AREA-IDEN
100
AcDbText
 10
219336.4991896656
 20
22403.7062741613
 30
0.0
 40
199.9999999999998
  1
2.24
100
AcDbText
  0
TEXT
  5
66
330
17
100
AcDbEntity
  8
A-AREA-IDEN
100
AcDbText
 10
222221.1768012964
 20
21683.6329438871
 30
0.0
 40
199.9999999999998
  1
DB Room
100
AcDbText
  0
TEXT
  5
67
330
17
100
AcDbEntity
  8
A-AREA-IDEN
100
AcDbText
 10
222597.7203091142
 20
21972.62532159055
 30
0.0
 40
199.9999999999998
  1
2.15
100
AcDbText
  0
TEXT
  5
68
330
17
100
AcDbEntity
  8
A-AREA-IDEN
100
AcDbText
 10
222836.8701098716
 20
19909.23626044737
 30
0.0
 40
199.9999999999998
  1
Project Rm - 1
100
AcDbText
  0
TEXT
  5
69
330
17
100
AcDbEntity
  8
A-AREA-IDEN
100
AcDbText
 10
223524.2776557587
 20
20198.22863815083
 30
0.0
 40
199.9999999999998
  1
2.14
100
AcDbText
  0
TEXT
  5
6A
330
17
100
AcDbEntity
  8
A-AREA-IDEN
100
AcDbText
 10
222364.9397998396
 20
17067.88507389137
 30
0.0
 40
199.9999999999998
  1
5P Tut Niche
100
AcDbText
  0
TEXT
  5
6B
330
17
100
AcDbEntity
  8
A-AREA-IDEN
100
AcDbText
 10
222900.4309623141
 20
17356.87745159482
 30
0.0
 40
199.9999999999998
  1
2Z07
100
AcDbText
  0
TEXT
  5
6C
330
17
100
AcDbEntity
  8
A-AREA-IDEN
100
AcDbText
 10
227430.8269918003
 20
16882.11587459207
 30
0.0
 40
199.9999999999998
  1
Office
100
AcDbText
  0
TEXT
  5
6D
330
17
100
AcDbEntity
  8
A-AREA-IDEN
100
AcDbText
 10
227593.5329741253
 20
17171.10825229553
 30
0.0
 40
199.9999999999998
  1
2.12
100
AcDbText
  0
TEXT
  5
6E
330
17
100
AcDbEntity
  8
A-AREA-IDEN
100
AcDbText
 10
227602.3017320091
 20
19739.72264398846
 30
0.0
 40
199.9999999999998
  1
Office
100
AcDbText
  0
TEXT
  5
6F
330
17
100
AcDbEntity
  8
A-AREA-IDEN
100
AcDbText
 10
227765.0077143341
 20
20028.71502169193
 30
0.0
 40
199.9999999999998
  1
2.13
100
AcDbText
  0
TEXT
  5
70
330
17
100
AcDbEntity
  8
A-AREA-IDEN
100
AcDbText
 10
227435.1925679839
 20
22477.5598767639
 30
0.0
 40
199.9999999999998
  1
Office
100
AcDbText
  0
TEXT
  5
71
330
17
100
AcDbEntity
  8
A-AREA-IDEN
100
AcDbText
 10
227597.8985503089
 20
22766.55225446737
 30
0.0
 40
199.9999999999998
  1
2.17
100
AcDbText
  0
TEXT
  5
72
330
17
100
AcDbEntity
  8
A-AREA-IDEN
100
AcDbText
 10
227373.7726264656
 20
25217.81822572894
 30
0.0
 40
199.9999999999998
  1
Office
100
AcDbText
  0
TEXT
  5
73
330
17
100
AcDbEntity
  8
A-AREA-IDEN
100
AcDbText
 10
227536.4786087905
 20
25506.81060343241
 30
0.0
 40
199.9999999999998
  1
2.18
100
AcDbText
  0
TEXT
  5
74
330
17
100
AcDbEntity
  8
A-AREA-IDEN
100
AcDbText
 10
226779.390793279
 20
29166.07442822858
 30
0.0
 40
199.9999999999998
  1
3P Tut Niche
100
AcDbText
  0
TEXT
  5
75
330
17
100
AcDbEntity
  8
A-AREA-IDEN
100
AcDbText
 10
227313.3863745163
 20
29455.06680593204
 30
0.0
 40
199.9999999999998
  1
2Z11
100
AcDbText
  0
TEXT
  5
76
330
17
100
AcDbEntity
  8
A-AREA-IDEN
100
AcDbText
 10
222062.7805108495
 20
26848.02420541966
 30
0.0
 40
199.9999999999998
  1
8P Collab Sp
100
AcDbText
  0
TEXT
  5
77
330
17
100
AcDbEntity
  8
A-AREA-IDEN
100
AcDbText
 10
222622.8682062948
 20
27137.01658312312
 30
0.0
 40
199.9999999999998
  1
2Z10
100
AcDbText
  0
TEXT
  5
78
330
17
100
AcDbEntity
  8
A-AREA-IDEN
100
AcDbText
 10
221489.4498583724
 20
31027.35457357247
 30
0.0
 40
199.9999999999998
  1
Office
100
AcDbText
  0
TEXT
  5
79
330
17
100
AcDbEntity
  8
A-AREA-IDEN
100
AcDbText
 10
221652.1558406974
 20
31316.34695127593
 30
0.0
 40
199.9999999999998
  1
2.22
100
AcDbText
  0
TEXT
  5
7A
330
17
100
AcDbEntity
  8
A-AREA-IDEN
100
AcDbText
 10
222929.6622239699
 20
31027.35457357247
 30
0.0
 40
199.9999999999998
  1
Office
100
AcDbText
  0
TEXT
  5
7B
330
17
100
AcDbEntity
  8
A-AREA-IDEN
100
AcDbText
 10
223092.3682062948
 20
31316.34695127593
 30
0.0
 40
199.9999999999998
  1
2.21
100
AcDbText
  0
TEXT
  5
7C
330
17
100
AcDbEntity
  8
A-AREA-IDEN
100
AcDbText
 10
225538.3025351193
 20
31027.35457357247
 30
0.0
 40
199.9999999999998
  1
Office
100
AcDbText
  0
TEXT
  5
7D
330
17
100
AcDbEntity
  8
A-AREA-IDEN
100
AcDbText
 10
225701.0085174442
 20
31316.34695127593
 30
0.0
 40
199.9999999999998
  1
2.20
100
AcDbText
  0
TEXT
  5
7E
330
17
100
AcDbEntity
  8
A-AREA-IDEN
100
AcDbText
 10
228469.3017320091
 20
11822.22167168151
 30
0.0
 40
199.9999999999998
  1
Office
100
AcDbText
  0
TEXT
  5
7F
330
17
100
AcDbEntity
  8
A-AREA-IDEN
100
AcDbText
 10
228632.0077143341
 20
12111.21404938496
 30
0.0
 40
199.9999999999998
  1
2.11
100
AcDbText
  0
TEXT
  5
80
330
17
100
AcDbEntity
  8
A-AREA-IDEN
100
AcDbText
 10
225978.3664380076
 20
13449.43594183372
 30
0.0
 40
199.9999999999998
  1
4P Tut Niche
100
AcDbText
  0
TEXT
  5
81
330
17
100
AcDbEntity
  8
A-AREA-IDEN
100
AcDbText
 10
226509.6427806318
 20
13738.42831953719
 30
0.0
 40
199.9999999999998
  1
2Z08
100
AcDbText
  0
TEXT
  5
82
330
17
100
AcDbEntity
  8
A-AREA-IDEN
100
AcDbText
 10
223011.2059413986
 20
11822.22167168151
 30
0.0
 40
199.9999999999998
  1
Office
100
AcDbText
  0
TEXT
  5
83
330
17
100
AcDbEntity
  8
A-AREA-IDEN
100
AcDbText
 10
223173.9119237236
 20
12111.21404938496
 30
0.0
 40
199.9999999999998
  1
2.10
100
AcDbText
  0
TEXT
  5
84
330
17
100
AcDbEntity
  8
A-AREA-IDEN
100
AcDbText
 10
220337.7416139922
 20
11822.22167168151
 30
0.0
 40
199.9999999999998
  1
Office
100
AcDbText
  0
TEXT
  5
85
330
17
100
AcDbEntity
  8
A-AREA-IDEN
100
AcDbText
 10
220500.4475963171
 20
12111.21404938496
 30
0.0
 40
199.9999999999998
  1
2.09
100
AcDbText
  0
TEXT
  5
86
330
17
100
AcDbEntity
  8
A-AREA-IDEN
100
AcDbText
 10
217730.7274724299
 20
11822.22167168151
 30
0.0
 40
199.9999999999998
  1
Office
100
AcDbText
  0
TEXT
  5
87
330
17
100
AcDbEntity
  8
A-AREA-IDEN
100
AcDbText
 10
217893.4334547549
 20
12111.21404938498
 30
0.0
 40
199.9999999999998
  1
2.08
100
AcDbText
  0
TEXT
  5
88
330
17
100
AcDbEntity
  8
A-AREA-IDEN
100
AcDbText
 10
214979.7253153393
 20
11822.22167168151
 30
0.0
 40
199.9999999999998
  1
Office
100
AcDbText
  0
TEXT
  5
89
330
17
100
AcDbEntity
  8
A-AREA-IDEN
100
AcDbText
 10
215142.4312976643
 20
12111.21404938498
 30
0.0
 40
199.9999999999998
  1
2.07
100
AcDbText
  0
TEXT
  5
8A
330
17
100
AcDbEntity
  8
A-AREA-IDEN
100
AcDbText
 10
212261.4439155254
 20
11822.22167168151
 30
0.0
 40
199.9999999999998
  1
Office
100
AcDbText
  0
TEXT
  5
8B
330
17
100
AcDbEntity
  8
A-AREA-IDEN
100
AcDbText
 10
212424.1498978504
 20
12111.21404938498
 30
0.0
 40
199.9999999999998
  1
2.06
100
AcDbText
  0
TEXT
  5
8C
330
17
100
AcDbEntity
  8
A-AREA-IDEN
100
AcDbText
 10
209571.6515324254
 20
11822.22167168151
 30
0.0
 40
199.9999999999998
  1
Office
100
AcDbText
  0
TEXT
  5
8D
330
17
100
AcDbEntity
  8
A-AREA-IDEN
100
AcDbText
 10
209734.3575147504
 20
12111.21404938498
 30
0.0
 40
199.9999999999998
  1
2.05
100
AcDbText
  0
TEXT
  5
8E
330
17
100
AcDbEntity
  8
A-AREA-IDEN
100
AcDbText
 10
206820.7174137553
 20
11822.22167168151
 30
0.0
 40
199.9999999999998
  1
Office
100
AcDbText
  0
TEXT
  5
8F
330
17
100
AcDbEntity
  8
A-AREA-IDEN
100
AcDbText
 10
206983.4233960802
 20
12111.21404938498
 30
0.0
 40
199.9999999999998
  1
2.04
100
AcDbText
  0
TEXT
  5
90
330
17
100
AcDbEntity
  8
A-AREA-IDEN
100
AcDbText
 10
204221.2793257928
 20
11822.22167168151
 30
0.0
 40
199.9999999999998
  1
Office
100
AcDbText
  0
TEXT
  5
91
330
17
100
AcDbEntity
  8
A-AREA-IDEN
100
AcDbText
 10
204383.9853081178
 20
12111.21404938498
 30
0.0
 40
199.9999999999998
  1
2.03
100
AcDbText
  0
TEXT
  5
92
330
17
100
AcDbEntity
  8
A-AREA-IDEN
100
AcDbText
 10
200819.0008073325
 20
9744.363206845293
 30
0.0
 40
199.9999999999998
  1
4P Research
100
AcDbText
  0
TEXT
  5
93
330
17
100
AcDbEntity
  8
A-AREA-IDEN
100
AcDbText
 10
201389.7771499565
 20
10033.35558454875
 30
0.0
 40
199.9999999999998
  1
2.02
100
AcDbText
  0
TEXT
  5
94
330
17
100
AcDbEntity
  8
A-AREA-IDEN
100
AcDbText
 10
195358.7469478913
 20
10005.45726310836
 30
0.0
 40
199.9999999999998
  1
8P PHD Students
100
AcDbText
  0
TEXT
  5
95
330
17
100
AcDbEntity
  8
A-AREA-IDEN
100
AcDbText
 10
196189.8346433366
 20
10294.44964081183
 30
0.0
 40
199.9999999999998
  1
2.01
100
AcDbText
  0
TEXT
  5
96
330
17
100
AcDbEntity
  8
A-AREA-IDEN
100
AcDbText
 10
185624.1543499198
 20
9737.705793987458
 30
0.0
 40
199.9999999999998
  1
5P PHD Students
100
AcDbText
  0
TEXT
  5
97
330
17
100
AcDbEntity
  8
A-AREA-IDEN
100
AcDbText
 10
186457.1455123943
 20
10026.69817169093
 30
0.0
 40
199.9999999999998
  1
2.67
100
AcDbText
  0
TEXT
  5
98
330
17
100
AcDbEntity
  8
A-AREA-IDEN
100
AcDbText
 10
181356.4469928253
 20
11715.13119353959
 30
0.0
 40
199.9999999999998
  1
Office
100
AcDbText
  0
TEXT
  5
99
330
17
100
AcDbEntity
  8
A-AREA-IDEN
100
AcDbText
 10
181519.1529751503
 20
12004.12357124305
 30
0.0
 40
199.9999999999998
  1
2.66
100
AcDbText
  0
TEXT
  5
9A
330
17
100
AcDbEntity
  8
A-AREA-IDEN
100
AcDbText
 10
178608.0137556608
 20
11715.13119353959
 30
0.0
 40
199.9999999999998
  1
Office
100
AcDbText
  0
TEXT
  5
9B
330
17
100
AcDbEntity
  8
A-AREA-IDEN
100
AcDbText
 10
178770.7197379858
 20
12004.12357124305
 30
0.0
 40
199.9999999999998
  1
2.65
100
AcDbText
  0
TEXT
  5
9C
330
17
100
AcDbEntity
  8
A-AREA-IDEN
100
AcDbText
 10
175938.0199727895
 20
11715.13119353959
 30
0.0
 40
199.9999999999998
  1
Office
100
AcDbText
  0
TEXT
  5
9D
330
17
100
AcDbEntity
  8
A-AREA-IDEN
100
AcDbText
 10
176100.7259551145
 20
12004.12357124305
 30
0.0
 40
199.9999999999998
  1
2.64
100
AcDbText
  0
TEXT
  5
9E
330
17
100
AcDbEntity
  8
A-AREA-IDEN
100
AcDbText
 10
173188.0411238109
 20
11715.13119353959
 30
0.0
 40
199.9999999999998
  1
Office
100
AcDbText
  0
TEXT
  5
9F
330
17
100
AcDbEntity
  8
A-AREA-IDEN
100
AcDbText
 10
173350.7471061359
 20
12004.12357124305
 30
0.0
 40
199.9999999999998
  1
2.63
100
AcDbText
  0
TEXT
  5
A0
330
17
100
AcDbEntity
  8
A-AREA-IDEN
100
AcDbText
 10
170509.3470611511
 20
11715.13119353959
 30
0.0
 40
199.9999999999998
  1
Office
100
AcDbText
  0
TEXT
  5
A1
330
17
100
AcDbEntity
  8
A-AREA-IDEN
100
AcDbText
 10
170672.0530434761
 20
12004.12357124305
 30
0.0
 40
199.9999999999998
  1
2.61
100
AcDbText
  0
TEXT
  5
A2
330
17
100
AcDbEntity
  8
A-AREA-IDEN
100
AcDbText
 10
167813.4781195639
 20
11715.13119353959
 30
0.0
 40
199.9999999999998
  1
Office
100
AcDbText
  0
TEXT
  5
A3
330
17
100
AcDbEntity
  8
A-AREA-IDEN
100
AcDbText
 10
167976.1841018888
 20
12004.12357124305
 30
0.0
 40
199.9999999999998
  1
2.60
100
AcDbText
  0
TEXT
  5
A4
330
17
100
AcDbEntity
  8
A-AREA-IDEN
100
AcDbText
 10
165094.3591076395
 20
11715.13119353959
 30
0.0
 40
199.9999999999998
  1
Office
100
AcDbText
  0
TEXT
  5
A5
330
17
100
AcDbEntity
  8
A-AREA-IDEN
100
AcDbText
 10
165257.0650899645
 20
12004.12357124305
 30
0.0
 40
199.9999999999998
  1
2.59
100
AcDbText
  0
TEXT
  5
A6
330
17
100
AcDbEntity
  8
A-AREA-IDEN
100
AcDbText
 10
162400.4657321725
 20
11715.13119353959
 30
0.0
 40
199.9999999999998
  1
Office
100
AcDbText
  0
TEXT
  5
A7
330
17
100
AcDbEntity
  8
A-AREA-IDEN
100
AcDbText
 10
162563.1717144975
 20
12004.12357124305
 30
0.0
 40
199.9999999999998
  1
2.58
100
AcDbText
  0
TEXT
  5
A8
330
17
100
AcDbEntity
  8
A-AREA-IDEN
100
AcDbText
 10
160018.9703509963
 20
12830.36480565696
 30
0.0
 40
199.9999999999998
  1
4P Tut Niche
100
AcDbText
  0
TEXT
  5
A9
330
17
100
AcDbEntity
  8
A-AREA-IDEN
100
AcDbText
 10
160550.2466936203
 20
13119.35718336041
 30
0.0
 40
199.9999999999998
  1
2Z32
100
AcDbText
  0
TEXT
  5
AA
330
17
100
AcDbEntity
  8
A-AREA-IDEN
100
AcDbText
 10
159245.2217047753
 20
15579.38371210328
 30
0.0
 40
199.9999999999998
  1
Office
100
AcDbText
  0
TEXT
  5
AB
330
17
100
AcDbEntity
  8
A-AREA-IDEN
100
AcDbText
 10
159407.9276871003
 20
15868.37608980674
 30
0.0
 40
199.9999999999998
  1
2.56
100
AcDbText
  0
TEXT
  5
AC
330
17
100
AcDbEntity
  8
A-AREA-IDEN
100
AcDbText
 10
159133.2006083571
 20
18361.15447455027
 30
0.0
 40
199.9999999999998
  1
Office
100
AcDbText
  0
TEXT
  5
AD
330
17
100
AcDbEntity
  8
A-AREA-IDEN
100
AcDbText
 10
159295.9065906821
 20
18650.14685225374
 30
0.0
 40
199.9999999999998
  1
2.55
100
AcDbText
  0
TEXT
  5
AE
330
17
100
AcDbEntity
  8
A-AREA-IDEN
100
AcDbText
 10
159296.3913754664
 20
21119.96533444576
 30
0.0
 40
199.9999999999998
  1
Office
100
AcDbText
  0
TEXT
  5
AF
330
17
100
AcDbEntity
  8
A-AREA-IDEN
100
AcDbText
 10
159459.0973577914
 20
21408.95771214923
 30
0.0
 40
199.9999999999998
  1
2.54
100
AcDbText
  0
TEXT
  5
B0
330
17
100
AcDbEntity
  8
A-AREA-IDEN
100
AcDbText
 10
159217.0593040948
 20
23886.57641310269
 30
0.0
 40
199.9999999999998
  1
Office
100
AcDbText
  0
TEXT
  5
B1
330
17
100
AcDbEntity
  8
A-AREA-IDEN
100
AcDbText
 10
159379.7652864197
 20
24175.56879080615
 30
0.0
 40
199.9999999999998
  1
2.52
100
AcDbText
  0
TEXT
  5
B2
330
17
100
AcDbEntity
  8
A-AREA-IDEN
100
AcDbText
 10
158932.6183277216
 20
28990.56789872918
 30
0.0
 40
199.9999999999998
  1
4P Tut Niche
100
AcDbText
  0
TEXT
  5
B3
330
17
100
AcDbEntity
  8
A-AREA-IDEN
100
AcDbText
 10
159463.8946703457
 20
29279.56027643264
 30
0.0
 40
199.9999999999998
  1
2Z29
100
AcDbText
  0
TEXT
  5
B4
330
17
100
AcDbEntity
  8
A-AREA-IDEN
100
AcDbText
 10
162933.4709945911
 20
25494.29991424049
 30
0.0
 40
199.9999999999998
  1
8P Tut Niche
100
AcDbText
  0
TEXT
  5
B5
330
17
100
AcDbEntity
  8
A-AREA-IDEN
100
AcDbText
 10
163467.0586900364
 20
25783.29229194395
 30
0.0
 40
199.9999999999998
  1
2Z28
100
AcDbText
  0
TEXT
  5
B6
330
17
100
AcDbEntity
  8
A-AREA-IDEN
100
AcDbText
 10
158378.0498644607
 20
31023.75435774094
 30
0.0
 40
199.9999999999998
  1
Office
100
AcDbText
  0
TEXT
  5
B7
330
17
100
AcDbEntity
  8
A-AREA-IDEN
100
AcDbText
 10
158540.7558467857
 20
31312.74673544439
 30
0.0
 40
199.9999999999998
  1
2.50
100
AcDbText
  0
TEXT
  5
B8
330
17
100
AcDbEntity
  8
A-AREA-IDEN
100
AcDbText
 10
161190.0825629337
 20
31023.75435774094
 30
0.0
 40
199.9999999999998
  1
Office
100
AcDbText
  0
TEXT
  5
B9
330
17
100
AcDbEntity
  8
A-AREA-IDEN
100
AcDbText
 10
161352.7885452587
 20
31312.74673544439
 30
0.0
 40
199.9999999999998
  1
2.49
100
AcDbText
  0
TEXT
  5
BA
330
17
100
AcDbEntity
  8
A-AREA-IDEN
100
AcDbText
 10
163811.7691125618
 20
31023.75435774094
 30
0.0
 40
199.9999999999998
  1
Office
100
AcDbText
  0
TEXT
  5
BB
330
17
100
AcDbEntity
  8
A-AREA-IDEN
100
AcDbText
 10
163974.4750948868
 20
31312.74673544439
 30
0.0
 40
199.9999999999998
  1
2.48
100
AcDbText
  0
TEXT
  5
BC
330
17
100
AcDbEntity
  8
A-AREA-IDEN
100
AcDbText
 10
165311.2165606045
 20
31023.75435774094
 30
0.0
 40
199.9999999999998
  1
Office
100
AcDbText
  0
TEXT
  5
BD
330
17
100
AcDbEntity
  8
A-AREA-IDEN
100
AcDbText
 10
165473.9225429294
 20
31312.74673544439
 30
0.0
 40
199.9999999999998
  1
2.47
100
AcDbText
  0
TEXT
  5
BE
330
17
100
AcDbEntity
  8
A-AREA-IDEN
100
AcDbText
 10
228281.1202799698
 20
31027.35457357247
 30
0.0
 40
199.9999999999998
  1
Office
100
AcDbText
  0
TEXT
  5
BF
330
17
100
AcDbEntity
  8
A-AREA-IDEN
100
AcDbText
 10
228443.8262622948
 20
31316.34695127593
 30
0.0
 40
199.9999999999998
  1
2.19
100
AcDbText
  0
TEXT
  5
C0
330
17
100
AcDbEntity
  8
A-AREA-IDEN
100
AcDbText
 10
185942.4945597449
 20
23276.75326592784
 30
0.0
 40
199.9999999999998
  1
11P Collab Sp
100
AcDbText
  0
TEXT
  5
C1
330
17
100
AcDbEntity
  8
A-AREA-IDEN
100
AcDbText
 10
186612.2658037966
 20
23565.7456436313
 30
0.0
 40
199.9999999999998
  1
2Z21
100
AcDbText
  0
TEXT
  5
C2
330
17
100
AcDbEntity
  8
A-AREA-IDEN
100
AcDbText
 10
199717.1842694955
 20
23276.75326592784
 30
0.0
 40
199.9999999999998
  1
11P Collab Sp
100
AcDbText
  0
TEXT
  5
C3
330
17
100
AcDbEntity
  8
A-AREA-IDEN
100
AcDbText
 10
200386.9555135472
 20
23565.7456436313
 30
0.0
 40
199.9999999999998
  1
2Z03
100
AcDbText
  0
TEXT
  5
C4
330
17
100
AcDbEntity
  8
A-AREA-IDEN
100
AcDbText
 10
170589.5086475099
 20
23254.55253843711
 30
0.0
 40
199.9999999999998
  1
5P PHD Research
100
AcDbText
  0
TEXT
  5
C5
330
17
100
AcDbEntity
  8
A-AREA-IDEN
100
AcDbText
 10
171488.4998099845
 20
23543.54491614056
 30
0.0
 40
199.9999999999998
  1
2.44
100
AcDbText
  0
TEXT
  5
C6
330
17
100
AcDbEntity
  8
A-AREA-IDEN
100
AcDbText
 10
170589.5086475099
 20
18204.10660154265
 30
0.0
 40
199.9999999999998
  1
5P PHD Research
100
AcDbText
  0
TEXT
  5
C7
330
17
100
AcDbEntity
  8
A-AREA-IDEN
100
AcDbText
 10
171488.4998099845
 20
18493.09897924612
 30
0.0
 40
199.9999999999998
  1
2.62
100
AcDbText
  0
TEXT
  5
C8
330
17
100
AcDbEntity
  8
A-AREA-IDEN
100
AcDbText
 10
158266.2006083571
 20
11715.13119353959
 30
0.0
 40
199.9999999999998
  1
Office
100
AcDbText
  0
TEXT
  5
C9
330
17
100
AcDbEntity
  8
A-AREA-IDEN
100
AcDbText
 10
158428.9065906821
 20
12004.12357124305
 30
0.0
 40
199.9999999999998
  1
2.57
100
AcDbText
  0
TEXT
  5
CA
330
17
100
AcDbEntity
  8
A-AREA-IDEN
100
AcDbText
 10
207394.5895665152
 20
24836.76025682619
 30
0.0
 40
199.9999999999998
  1
30SD Cap.
100
AcDbText
  0
LWPOLYLINE
  5
CC
330
17
100
AcDbEntity
  8
A-AREA-ROOM
100
AcDbPolyline
 90
4
 70
1
 10
156862.8318821052
 20
13505.6117618281
 10
159445.8318821056
 20
13505.6117618281
 10
159445.8318821056
 20
9382.709528152327
 10
156862.8318821052
 20
9382.709528152327
  0
LWPOLYLINE
  5
CD
330
17
100
AcDbEntity
  8
A-AREA-ROOM
100
AcDbPolyline
 90
4
 70
1
 10
159572.8318821049
 20
13607.6117618281
 10
162035.831882105
 20
13607.6117618281
 10
162035.831882105
 20
9865.111761833383
 10
159572.8318821049
 20
9865.111761833383
  0
LWPOLYLINE
  5
CE
330
17
100
AcDbEntity
  8
A-AREA-ROOM
100
AcDbPolyline
 90
4
 70
1
 10
162152.831882105
 20
13505.6117618281
 10
164750.8318821049
 20
13505.6117618281
 10
164750.8318821049
 20
9369.611761827638
 10
162152.831882105
 20
9369.611761827638
  0
LWPOLYLINE
  5
CF
330
17
100
AcDbEntity
  8
A-AREA-ROOM
100
AcDbPolyline
 90
4
 70
1
 10
164852.831882105
 20
13505.6117618281
 10
167498.831882105
 20
13505.6117618281
 10
167498.831882105
 20
9369.611761827626
 10
164852.831882105
 20
9369.611761827626
  0
LWPOLYLINE
  5
D0
330
17
100
AcDbEntity
  8
A-AREA-ROOM
100
AcDbPolyline
 90
4
 70
1
 10
170150.831882105
 20
13505.6117618281
 10
167568.831882105
 20
13505.6117618281
 10
167568.831882105
 20
9369.611761827631
 10
170150.831882105
 20
9369.611761827631
  0
LWPOLYLINE
  5
D1
330
17
100
AcDbEntity
  8
A-AREA-ROOM
100
AcDbPolyline
 90
4
 70
1
 10
170252.831882105
 20
13505.61176182811
 10
172850.831882105
 20
13505.61176182811
 10
172850.831882105
 20
9369.61176182762
 10
170252.831882105
 20
9369.61176182762
  0
LWPOLYLINE
  5
D2
330
17
100
AcDbEntity
  8
A-AREA-ROOM
100
AcDbPolyline
 90
4
 70
1
 10
172952.8318821049
 20
13505.6117618281
 10
175550.831882105
 20
13505.6117618281
 10
175550.831882105
 20
9369.611761827604
 10
172952.8318821049
 20
9369.611761827604
  0
LWPOLYLINE
  5
D3
330
17
100
AcDbEntity
  8
A-AREA-ROOM
100
AcDbPolyline
 90
4
 70
1
 10
175652.831882105
 20
13505.61176182809
 10
178298.831882105
 20
13505.61176182809
 10
178298.831882105
 20
9369.611761827597
 10
175652.831882105
 20
9369.611761827597
  0
LWPOLYLINE
  5
D4
330
17
100
AcDbEntity
  8
A-AREA-ROOM
100
AcDbPolyline
 90
4
 70
1
 10
178400.831882105
 20
13505.61176182809
 10
180938.8318821052
 20
13505.61176182809
 10
180938.8318821052
 20
9382.70952815236
 10
178400.831882105
 20
9382.70952815236
  0
LWPOLYLINE
  5
D5
330
17
100
AcDbEntity
  8
A-AREA-ROOM
100
AcDbPolyline
 90
4
 70
1
 10
181100.831882105
 20
13505.61176182808
 10
183607.4717854408
 20
13505.61176182808
 10
183607.4717854408
 20
9369.611761827524
 10
181100.831882105
 20
9369.611761827524
  0
LWPOLYLINE
  5
D6
330
17
100
AcDbEntity
  8
A-AREA-ROOM
100
AcDbPolyline
 90
4
 70
1
 10
183763.831882105
 20
13505.61176182807
 10
189298.8318821049
 20
13505.61176182807
 10
189298.8318821049
 20
9369.61176182756
 10
183763.831882105
 20
9369.61176182756
  0
LWPOLYLINE
  5
D7
330
17
100
AcDbEntity
  8
A-AREA-ROOM
100
AcDbPolyline
 90
4
 70
1
 10
197989.8318821049
 20
9369.611761827538
 10
189410.8318821049
 20
9369.611761827538
 10
189410.8318821049
 20
13495.11024504061
 10
197989.8318821049
 20
13495.11024504061
  0
LWPOLYLINE
  5
D8
330
17
100
AcDbEntity
  8
A-AREA-ROOM
100
AcDbPolyline
 90
4
 70
1
 10
198302.8318820196
 20
13507.61176182802
 10
203790.831882105
 20
13507.61176182802
 10
203790.831882105
 20
9377.70952815249
 10
198302.8318820196
 20
9377.70952815249
  0
LWPOLYLINE
  5
D9
330
17
100
AcDbEntity
  8
A-AREA-ROOM
100
AcDbPolyline
 90
4
 70
1
 10
203912.831882105
 20
13505.61176182799
 10
206487.4717854409
 20
13505.61176182799
 10
206487.4717854409
 20
9415.686473321328
 10
203912.831882105
 20
9415.686473321328
  0
LWPOLYLINE
  5
DA
330
17
100
AcDbEntity
  8
A-AREA-ROOM
100
AcDbPolyline
 90
4
 70
1
 10
206626.831882105
 20
13505.61176182798
 10
209280.831882105
 20
13505.61176182798
 10
209280.831882105
 20
9369.611761827497
 10
206626.831882105
 20
9369.611761827497
  0
LWPOLYLINE
  5
DB
330
17
100
AcDbEntity
  8
A-AREA-ROOM
100
AcDbPolyline
 90
4
 70
1
 10
209350.831882105
 20
13505.61176182797
 10
211911.4717854409
 20
13505.61176182797
 10
211911.4717854409
 20
9415.686473321308
 10
209350.831882105
 20
9415.686473321308
  0
LWPOLYLINE
  5
DC
330
17
100
AcDbEntity
  8
A-AREA-ROOM
100
AcDbPolyline
 90
4
 70
1
 10
212050.831882105
 20
13505.61176182797
 10
214613.471785441
 20
13505.61176182797
 10
214613.471785441
 20
9415.686473321308
 10
212050.831882105
 20
9415.686473321308
  0
LWPOLYLINE
  5
DD
330
17
100
AcDbEntity
  8
A-AREA-ROOM
100
AcDbPolyline
 90
4
 70
1
 10
214752.831882105
 20
13505.61176182796
 10
217313.4717854409
 20
13505.61176182796
 10
217313.4717854409
 20
9415.686473321293
 10
214752.831882105
 20
9415.686473321293
  0
LWPOLYLINE
  5
DE
330
17
100
AcDbEntity
  8
A-AREA-ROOM
100
AcDbPolyline
 90
4
 70
1
 10
217450.831882105
 20
13505.61176182795
 10
220080.831882105
 20
13505.61176182795
 10
220080.831882105
 20
9369.611761827464
 10
217450.831882105
 20
9369.611761827464
  0
LWPOLYLINE
  5
DF
330
17
100
AcDbEntity
  8
A-AREA-ROOM
100
AcDbPolyline
 90
4
 70
1
 10
220150.831882105
 20
13505.61176182794
 10
222689.471785441
 20
13505.61176182794
 10
222689.471785441
 20
9415.686473321279
 10
220150.831882105
 20
9415.686473321279
  0
LWPOLYLINE
  5
E0
330
17
100
AcDbEntity
  8
A-AREA-ROOM
100
AcDbPolyline
 90
4
 70
1
 10
222944.3318821051
 20
13505.61176182794
 10
225413.4717854409
 20
13505.61176182794
 10
225413.4717854409
 20
9415.686473321262
 10
222944.3318821051
 20
9415.686473321262
  0
LWPOLYLINE
  5
E1
330
17
100
AcDbEntity
  8
A-AREA-ROOM
100
AcDbPolyline
 90
4
 70
1
 10
228004.831882105
 20
9850.111761827437
 10
225413.4717854411
 20
9850.111761827437
 10
225413.4717854411
 20
13607.61176182795
 10
228004.831882105
 20
13607.61176182795
  0
LWPOLYLINE
  5
E2
330
17
100
AcDbEntity
  8
A-AREA-ROOM
100
AcDbPolyline
 90
4
 70
1
 10
228106.831882105
 20
13505.61176182793
 10
230738.8318821051
 20
13505.61176182793
 10
230738.8318821051
 20
9369.61176182743
 10
228106.831882105
 20
9369.61176182743
  0
LWPOLYLINE
  5
E3
330
17
100
AcDbEntity
  8
A-AREA-ROOM
100
AcDbPolyline
 90
4
 70
1
 10
230738.8318821051
 20
15177.6117618279
 10
226452.8318821051
 20
15177.6117618279
 10
226452.8318821051
 20
17905.61176182794
 10
230738.8318821051
 20
17905.61176182794
  0
LWPOLYLINE
  5
E4
330
17
100
AcDbEntity
  8
A-AREA-ROOM
100
AcDbPolyline
 90
4
 70
1
 10
218120.8318821049
 20
20663.6117618276
 10
224707.831882105
 20
20663.6117618276
 10
224707.831882105
 20
17857.61176182758
 10
218120.8318821049
 20
17857.61176182758
  0
LWPOLYLINE
  5
E5
330
17
100
AcDbEntity
  8
A-AREA-ROOM
100
AcDbPolyline
 90
4
 70
1
 10
218135.8318821049
 20
17720.61176182761
 10
224937.6155631761
 20
17720.61176182761
 10
224937.6155631761
 20
15107.6117618279
 10
218135.8318821049
 20
15107.6117618279
  0
LWPOLYLINE
  5
E6
330
17
100
AcDbEntity
  8
A-AREA-ROOM
100
AcDbPolyline
 90
4
 70
1
 10
226452.8318821051
 20
20655.61176182795
 10
230729.9667543837
 20
20655.61176182795
 10
230729.9667543837
 20
18034.55722600026
 10
226452.8318821051
 20
18034.55722600026
  0
LWPOLYLINE
  5
E7
330
17
100
AcDbEntity
  8
A-AREA-ROOM
100
AcDbPolyline
 90
4
 70
1
 10
230635.9823201722
 20
23332.89763671469
 10
226452.8318821051
 20
23332.89763671469
 10
226452.8318821051
 20
20757.61176182794
 10
230635.9823201722
 20
20757.61176182794
  0
LWPOLYLINE
  5
E8
330
17
100
AcDbEntity
  8
A-AREA-ROOM
100
AcDbPolyline
 90
4
 70
1
 10
230738.8318821051
 20
26155.61176182798
 10
226452.8318821051
 20
26155.61176182798
 10
226452.8318821051
 20
23507.61176182795
 10
230738.8318821051
 20
23507.61176182795
  0
LWPOLYLINE
  5
E9
330
17
100
AcDbEntity
  8
A-AREA-ROOM
100
AcDbPolyline
 90
4
 70
1
 10
230723.8318821051
 20
29805.61176182765
 10
226350.831882105
 20
29805.61176182765
 10
226350.831882105
 20
26257.61176182796
 10
230723.8318821051
 20
26257.61176182796
  0
LWPOLYLINE
  5
EA
330
17
100
AcDbEntity
  8
A-AREA-ROOM
100
AcDbPolyline
 90
4
 70
1
 10
228047.7821847644
 20
34226.56579556398
 10
230738.8318821051
 20
34226.56579556398
 10
230738.8318821051
 20
29907.61176182767
 10
228047.7821847644
 20
29907.61176182767
  0
LWPOLYLINE
  5
EB
330
17
100
AcDbEntity
  8
A-AREA-ROOM
100
AcDbPolyline
 90
4
 70
1
 10
225299.8796455653
 20
34245.6117620163
 10
227884.9273880007
 20
34245.6117620163
 10
227884.9273880007
 20
29907.61176182767
 10
225299.8796455653
 20
29907.61176182767
  0
LWPOLYLINE
  5
EC
330
17
100
AcDbEntity
  8
A-AREA-ROOM
100
AcDbPolyline
 90
4
 70
1
 10
222768.8241136601
 20
34166.56579556399
 10
225229.8796455654
 20
34166.56579556399
 10
225229.8796455654
 20
29907.61176182767
 10
222768.8241136601
 20
29907.61176182767
  0
LWPOLYLINE
  5
ED
330
17
100
AcDbEntity
  8
A-AREA-ROOM
100
AcDbPolyline
 90
4
 70
1
 10
220099.2139055775
 20
34245.61176201632
 10
222605.9693168964
 20
34245.61176201632
 10
222605.9693168964
 20
29907.61176182768
 10
220099.2139055775
 20
29907.61176182768
  0
LWPOLYLINE
  5
EE
330
17
100
AcDbEntity
  8
A-AREA-ROOM
100
AcDbPolyline
 90
4
 70
1
 10
224844.831882105
 20
24384.6117613841
 10
218130.1836974807
 20
24384.6117613841
 10
218130.1836974807
 20
27617.03090698179
 10
224844.831882105
 20
27617.03090698179
  0
LWPOLYLINE
  5
EF
330
17
100
AcDbEntity
  8
A-AREA-ROOM
100
AcDbPolyline
 90
4
 70
1
 10
203978.831882105
 20
26908.61176182784
 10
216493.7821960708
 20
26908.61176182784
 10
216493.7821960708
 20
24715.68691746053
 10
203978.831882105
 20
24715.68691746053
  0
LWPOLYLINE
  5
F0
330
17
100
AcDbEntity
  8
A-AREA-ROOM
100
AcDbPolyline
 90
4
 70
1
 10
197954.4089315128
 20
34245.6117620164
 10
204072.4318820374
 20
34245.6117620164
 10
204072.4318820374
 20
28507.61176182741
 10
197954.4089315128
 20
28507.61176182741
  0
LWPOLYLINE
  5
F1
330
17
100
AcDbEntity
  8
A-AREA-ROOM
100
AcDbPolyline
 90
4
 70
1
 10
188031.082016992
 20
26907.61176182767
 10
199495.3318820375
 20
26907.61176182767
 10
199495.3318820375
 20
23575.11176176197
 10
188031.082016992
 20
23575.11176176197
  0
LWPOLYLINE
  5
F2
330
17
100
AcDbEntity
  8
A-AREA-ROOM
100
AcDbPolyline
 90
4
 70
1
 10
183482.831882106
 20
34095.61176201644
 10
189723.831882105
 20
34095.61176201644
 10
189723.831882105
 20
28507.61176182746
 10
183482.831882106
 20
28507.61176182746
  0
LWPOLYLINE
  5
F3
330
17
100
AcDbEntity
  8
A-AREA-ROOM
100
AcDbPolyline
 90
4
 70
1
 10
190024.4089316469
 20
34245.61176201644
 10
197725.831882105
 20
34245.61176201644
 10
197725.831882105
 20
28407.61176182743
 10
190024.4089316469
 20
28407.61176182743
  0
LWPOLYLINE
  5
F4
330
17
100
AcDbEntity
  8
A-AREA-ROOM
100
AcDbPolyline
 90
4
 70
1
 10
185812.831882105
 20
26891.61176182767
 10
187640.582016992
 20
26891.61176182767
 10
187640.582016992
 20
15632.41487229985
 10
185812.831882105
 20
15632.41487229985
  0
LWPOLYLINE
  5
F5
330
17
100
AcDbEntity
  8
A-AREA-ROOM
100
AcDbPolyline
 90
4
 70
1
 10
173848.8318821049
 20
26309.81176189388
 10
185650.831882105
 20
26309.81176189388
 10
185650.831882105
 20
15707.61176182791
 10
173848.8318821049
 20
15707.61176182791
  0
LWPOLYLINE
  5
F6
330
17
100
AcDbEntity
  8
A-AREA-ROOM
100
AcDbPolyline
 90
4
 70
1
 10
169622.831882105
 20
26309.81176176208
 10
173726.8318821049
 20
26309.81176176208
 10
173726.8318821049
 20
21130.71176186091
 10
169622.831882105
 20
21130.71176186091
  0
LWPOLYLINE
  5
F7
330
17
100
AcDbEntity
  8
A-AREA-ROOM
100
AcDbPolyline
 90
4
 70
1
 10
169622.831882105
 20
21008.71176186094
 10
173631.831882105
 20
21008.71176186094
 10
173631.831882105
 20
15707.61176182796
 10
169622.831882105
 20
15707.61176182796
  0
LWPOLYLINE
  5
F8
330
17
100
AcDbEntity
  8
A-AREA-ROOM
100
AcDbPolyline
 90
4
 70
1
 10
169445.7172156468
 20
24176.88314592698
 10
162852.831882105
 20
24176.88314592698
 10
162852.831882105
 20
15209.61176182795
 10
169445.7172156468
 20
15209.61176182795
  0
LWPOLYLINE
  5
F9
330
17
100
AcDbEntity
  8
A-AREA-ROOM
100
AcDbPolyline
 90
4
 70
1
 10
165026.5184848555
 20
34161.19197969541
 10
167487.975621789
 20
34161.19197969541
 10
167487.975621789
 20
29925.23593576329
 10
165026.5184848555
 20
29925.23593576329
  0
LWPOLYLINE
  5
FA
330
17
100
AcDbEntity
  8
A-AREA-ROOM
100
AcDbPolyline
 90
4
 70
1
 10
162398.1496452913
 20
34229.3209705421
 10
164893.6944473137
 20
34229.3209705421
 10
164893.6944473137
 20
29907.61176182784
 10
162398.1496452913
 20
29907.61176182784
  0
LWPOLYLINE
  5
FB
330
17
100
AcDbEntity
  8
A-AREA-ROOM
100
AcDbPolyline
 90
4
 70
1
 10
159787.5604137513
 20
34161.19197969541
 10
162269.7841186448
 20
34161.19197969541
 10
162269.7841186448
 20
29907.61176182786
 10
159787.5604137513
 20
29907.61176182786
  0
LWPOLYLINE
  5
FC
330
17
100
AcDbEntity
  8
A-AREA-ROOM
100
AcDbPolyline
 90
4
 70
1
 10
156862.8318821052
 20
34245.61176201653
 10
159614.7363762094
 20
34245.61176201653
 10
159614.7363762094
 20
29907.61176182788
 10
156862.8318821052
 20
29907.61176182788
  0
LWPOLYLINE
  5
FD
330
17
100
AcDbEntity
  8
A-AREA-ROOM
100
AcDbPolyline
 90
4
 70
1
 10
156862.8318821052
 20
29805.61176182787
 10
161250.831882105
 20
29805.61176182787
 10
161250.831882105
 20
26025.61176182822
 10
156862.8318821052
 20
26025.61176182822
  0
LWPOLYLINE
  5
FE
330
17
100
AcDbEntity
  8
A-AREA-ROOM
100
AcDbPolyline
 90
4
 70
1
 10
156879.4091245961
 20
25942.12355435413
 10
161148.831882105
 20
25942.12355435413
 10
161148.831882105
 20
23357.6117618282
 10
156879.4091245961
 20
23357.6117618282
  0
LWPOLYLINE
  5
FF
330
17
100
AcDbEntity
  8
A-AREA-ROOM
100
AcDbPolyline
 90
4
 70
1
 10
169485.831882105
 20
26309.81176176208
 10
163796.831882105
 20
26309.81176176208
 10
163796.831882105
 20
24349.61176182764
 10
169485.831882105
 20
24349.61176182764
  0
LWPOLYLINE
  5
100
330
17
100
AcDbEntity
  8
A-AREA-ROOM
100
AcDbPolyline
 90
4
 70
1
 10
156879.4091245961
 20
23242.12355435413
 10
161148.831882105
 20
23242.12355435413
 10
161148.831882105
 20
20657.61176182818
 10
156879.4091245961
 20
20657.61176182818
  0
LWPOLYLINE
  5
101
330
17
100
AcDbEntity
  8
A-AREA-ROOM
100
AcDbPolyline
 90
4
 70
1
 10
156862.8318821052
 20
20555.61176182819
 10
161148.831882105
 20
20555.61176182819
 10
161148.831882105
 20
17957.61176182818
 10
156862.8318821052
 20
17957.61176182818
  0
LWPOLYLINE
  5
102
330
17
100
AcDbEntity
  8
A-AREA-ROOM
100
AcDbPolyline
 90
4
 70
1
 10
156879.4091245961
 20
17842.12355435412
 10
161148.831882105
 20
17842.12355435412
 10
161148.831882105
 20
15209.61176167284
 10
156879.4091245961
 20
15209.61176167284
  0
LWPOLYLINE
  5
103
330
17
100
AcDbEntity
  8
A-AREA-ROOM
100
AcDbPolyline
 90
4
 70
1
 10
218139.8200626947
 20
24169.61863244826
 10
221383.831882105
 20
24169.61863244826
 10
221383.831882105
 20
20785.61176182758
 10
218139.8200626947
 20
20785.61176182758
  0
LWPOLYLINE
  5
104
330
17
100
AcDbEntity
  8
A-AREA-ROOM
100
AcDbPolyline
 90
4
 70
1
 10
221485.8318821049
 20
23215.56176138411
 10
224707.831882105
 20
23215.56176138411
 10
224707.831882105
 20
20785.61176182757
 10
221485.8318821049
 20
20785.61176182757
  0
ENDSEC
  0
SECTION
  2
OBJECTS
  0
DICTIONARY
  5
A
330
0
100
AcDbDictionary
281
1
  3
ACAD_COLOR
350
B
  3
ACAD_GROUP
350
C
  3
ACAD_LAYOUT
350
D
  3
ACAD_MATERIAL
350
E
  3
ACAD_MLEADERSTYLE
350
F
  3
ACAD_MLINESTYLE
350
10
  3
ACAD_PLOTSETTINGS
350
11
  3
ACAD_PLOTSTYLENAME
350
12
  3
ACAD_SCALELIST
350
14
  3
ACAD_TABLESTYLE
350
15
  3
ACAD_VISUALSTYLE
350
16
  3
EZDXF_META
350
2D
  0
DICTIONARY
  5
B
330
A
100
AcDbDictionary
281
1
  0
DICTIONARY
  5
C
330
A
100
AcDbDictionary
281
1
  0
DICTIONARY
  5
D
330
A
100
AcDbDictionary
281
1
  3
Model
350
1A
  3
Layout1
350
1E
  0
DICTIONARY
  5
E
330
A
100
AcDbDictionary
281
1
  3
ByBlock
350
1F
  3
ByLayer
350
20
  3
Global
350
21
  0
DICTIONARY
  5
F
330
A
100
AcDbDictionary
281
1
  3
Standard
350
2C
  0
DICTIONARY
  5
10
330
A
100
AcDbDictionary
281
1
  3
Standard
350
22
  0
DICTIONARY
  5
11
330
A
100
AcDbDictionary
281
1
  0
ACDBDICTIONARYWDFLT
  5
12
330
A
100
AcDbDictionary
281
1
  3
Normal
350
13
100
AcDbDictionaryWithDefault
340
13
  0
ACDBPLACEHOLDER
  5
13
330
12
  0
DICTIONARY
  5
14
330
A
100
AcDbDictionary
281
1
  0
DICTIONARY
  5
15
330
A
100
AcDbDictionary
281
1
  0
DICTIONARY
  5
16
330
A
100
AcDbDictionary
281
1
  0
LAYOUT
  5
1A
330
D
100
AcDbPlotSettings
  1

  4
A3
  6

 40
7.5
 41
20.0
 42
7.5
 43
20.0
 44
420.0
 45
297.0
 46
0.0
 47
0.0
 48
0.0
 49
0.0
140
0.0
141
0.0
142
1.0
143
1.0
 70
1024
 72
1
 73
0
 74
5
  7

 75
16
 76
0
 77
2
 78
300
147
1.0
148
0.0
149
0.0
100
AcDbLayout
  1
Model
 70
1
 71
0
 10
0.0
 20
0.0
 11
420.0
 21
297.0
 12
0.0
 22
0.0
 32
0.0
 14
1e+20
 24
1e+20
 34
1e+20
 15
-1e+20
 25
-1e+20
 35
-1e+20
146
0.0
 13
0.0
 23
0.0
 33
0.0
 16
1.0
 26
0.0
 36
0.0
 17
0.0
 27
1.0
 37
0.0
 76
1
330
17
  0
LAYOUT
  5
1E
330
D
100
AcDbPlotSettings
  1

  4
A3
  6

 40
7.5
 41
20.0
 42
7.5
 43
20.0
 44
420.0
 45
297.0
 46
0.0
 47
0.0
 48
0.0
 49
0.0
140
0.0
141
0.0
142
1.0
143
1.0
 70
0
 72
1
 73
0
 74
5
  7

 75
16
 76
0
 77
2
 78
300
147
1.0
148
0.0
149
0.0
100
AcDbLayout
  1
Layout1
 70
1
 71
1
 10
0.0
 20
0.0
 11
420.0
 21
297.0
 12
0.0
 22
0.0
 32
0.0
 14
1e+20
 24
1e+20
 34
1e+20
 15
-1e+20
 25
-1e+20
 35
-1e+20
146
0.0
 13
0.0
 23
0.0
 33
0.0
 16
1.0
 26
0.0
 36
0.0
 17
0.0
 27
1.0
 37
0.0
 76
1
330
1B
  0
MATERIAL
  5
1F
102
{ACAD_REACTORS
330
E
102
}
330
E
100
AcDbMaterial
  1
ByBlock
  2

 70
0
 40
1.0
 71
1
 41
1.0
 91
-1023410177
 42
1.0
 72
1
  3

 73
1
 74
1
 75
1
 44
0.5
 73
0
 45
1.0
 46
1.0
 77
1
  4

 78
1
 79
1
170
1
 48
1.0
171
1
  6

172
1
173
1
174
1
140
1.0
141
1.0
175
1
  7

176
1
177
1
178
1
143
1.0
179
1
  8

270
1
271
1
272
1
145
1.0
146
1.0
273
1
  9

274
1
275
1
276
1
 42
1.0
 72
1
  3

 73
1
 74
1
 75
1
 94
63
  0
MATERIAL
  5
20
102
{ACAD_REACTORS
330
E
102
}
330
E
100
AcDbMaterial
  1
ByLayer
  2

 70
0
 40
1.0
 71
1
 41
1.0
 91
-1023410177
 42
1.0
 72
1
  3

 73
1
 74
1
 75
1
 44
0.5
 73
0
 45
1.0
 46
1.0
 77
1
  4

 78
1
 79
1
170
1
 48
1.0
171
1
  6

172
1
173
1
174
1
140
1.0
141
1.0
175
1
  7

176
1
177
1
178
1
143
1.0
179
1
  8

270
1
271
1
272
1
145
1.0
146
1.0
273
1
  9

274
1
275
1
276
1
 42
1.0
 72
1
  3

 73
1
 74
1
 75
1
 94
63
  0
MATERIAL
  5
21
102
{ACAD_REACTORS
330
E
102
}
330
E
100
AcDbMaterial
  1
Global
  2

 70
0
 40
1.0
 71
1
 41
1.0
 91
-1023410177
 42
1.0
 72
1
  3

 73
1
 74
1
 75
1
 44
0.5
 73
0
 45
1.0
 46
1.0
 77
1
  4

 78
1
 79
1
170
1
 48
1.0
171
1
  6

172
1
173
1
174
1
140
1.0
141
1.0
175
1
  7

176
1
177
1
178
1
143
1.0
179
1
  8

270
1
271
1
272
1
145
1.0
146
1.0
273
1
  9

274
1
275
1
276
1
 42
1.0
 72
1
  3

 73
1
 74
1
 75
1
 94
63
  0
MLINESTYLE
  5
22
102
{ACAD_REACTORS
330
10
102
}
330
10
100
AcDbMlineStyle
  2
Standard
 70
0
  3

 62
256
 51
90.0
 52
90.0
 71
2
 49
0.5
 62
256
  6
BYLAYER
 49
-0.5
 62
256
  6
BYLAYER
  0
MLEADERSTYLE
  5
2C
102
{ACAD_REACTORS
330
F
102
}
330
F
100
AcDbMLeaderStyle
179
2
170
2
171
1
172
0
 90
2
 40
0.0
 41
0.0
173
1
 91
-1056964608
 92
-2
290
1
 42
2.0
291
1
 43
8.0
  3
Standard
 44
4.0
300

342
29
174
1
175
1
176
0
178
1
 93
-1056964608
 45
4.0
292
0
297
0
 46
4.0
 94
-1056964608
 47
1.0
 49
1.0
140
1.0
294
1
141
0.0
177
0
142
1.0
295
0
296
0
143
3.75
271
0
272
9
273
9
  0
DICTIONARY
  5
2D
330
A
100
AcDbDictionary
280
1
281
1
  3
CREATED_BY_EZDXF
350
2E
  3
WRITTEN_BY_EZDXF
350
107
  0
DICTIONARYVAR
  5
2E
330
2D
100
DictionaryVariables
280
0
  1
1.4.3 @ 2026-08-20T22:40:38.061565+00:00
  0
DICTIONARYVAR
  5
107
330
2D
100
DictionaryVariables
280
0
  1
1.4.3 @ 2026-08-20T22:40:38.330619+00:00
  0
ENDSEC
  0
EOF
