  0
SECTION
  2
HEADER
  9
$ACADVER
  1
AC1032
  9
$ACADMAINTVER
 90
4
  9
$DWGCODEPAGE
  3
ANSI_1252
  9
$LASTSAVEDBY
  1
ezdxf
  9
$REQUIREDVERSIONS
160
0
  9
$INSBASE
 10
0.0
 20
0.0
 30
0.0
  9
$EXTMIN
 10
1e+20
 20
1e+20
 30
1e+20
  9
$EXTMAX
 10
-1e+20
 20
-1e+20
 30
-1e+20
  9
$LIMMIN
 10
0.0
 20
0.0
  9
$LIMMAX
 10
420.0
 20
297.0
  9
$ORTHOMODE
 70
0
  9
$REGENMODE
 70
1
  9
$FILLMODE
 70
1
  9
$QTEXTMODE
 70
0
  9
$MIRRTEXT
 70
1
  9
$LTSCALE
 40
1.0
  9
$ATTMODE
 70
1
  9
$TEXTSIZE
 40
2.5
  9
$TRACEWID
 40
1.0
  9
$TEXTSTYLE
  7
Standard
  9
$CLAYER
  8
0
  9
$CELTYPE
  6
ByLayer
  9
$CECOLOR
 62
256
  9
$CELTSCALE
 40
1.0
  9
$DISPSILH
 70
0
  9
$DIMSCALE
 40
1.0
  9
$DIMASZ
 40
2.5
  9
$DIMEXO
 40
0.625
  9
$DIMDLI
 40
3.75
  9
$DIMRND
 40
0.0
  9
$DIMDLE
 40
0.0
  9
$DIMEXE
 40
1.25
  9
$DIMTP
 40
0.0
  9
$DIMTM
 40
0.0
  9
$DIMTXT
 40
2.5
  9
$DIMCEN
 40
2.5
  9
$DIMTSZ
 40
0.0
  9
$DIMTOL
 70
0
  9
$DIMLIM
 70
0
  9
$DIMTIH
 70
0
  9
$DIMTOH
 70
0
  9
$DIMSE1
 70
0
  9
$DIMSE2
 70
0
  9
$DIMTAD
 70
1
  9
$DIMZIN
 70
8
  9
$DIMBLK
  1

  9
$DIMASO
 70
1
  9
$DIMSHO
 70
1
  9
$DIMPOST
  1

  9
$DIMAPOST
  1

  9
$DIMALT
 70
0
  9
$DIMALTD
 70
3
  9
$DIMALTF
 40
0.03937007874
  9
$DIMLFAC
 40
1.0
  9
$DIMTOFL
 70
1
  9
$DIMTVP
 40
0.0
  9
$DIMTIX
 70
0
  9
$DIMSOXD
 70
0
  9
$DIMSAH
 70
0
  9
$DIMBLK1
  1

  9
$DIMBLK2
  1

  9
$DIMSTYLE
  2
ISO-25
  9
$DIMCLRD
 70
0
  9
$DIMCLRE
 70
0
  9
$DIMCLRT
 70
0
  9
$DIMTFAC
 40
1.0
  9
$DIMGAP
 40
0.625
  9
$DIMJUST
 70
0
  9
$DIMSD1
 70
0
  9
$DIMSD2
 70
0
  9
$DIMTOLJ
 70
0
  9
$DIMTZIN
 70
8
  9
$DIMALTZ
 70
0
  9
$DIMALTTZ
 70
0
  9
$DIMUPT
 70
0
  9
$DIMDEC
 70
2
  9
$DIMTDEC
 70
2
  9
$DIMALTU
 70
2
  9
$DIMALTTD
 70
3
  9
$DIMTXSTY
  7
Standard
  9
$DIMAUNIT
 70
0
  9
$DIMADEC
 70
0
  9
$DIMALTRND
 40
0.0
  9
$DIMAZIN
 70
0
  9
$DIMDSEP
 70
44
  9
$DIMATFIT
 70
3
  9
$DIMFRAC
 70
0
  9
$DIMLDRBLK
  1

  9
$DIMLUNIT
 70
2
  9
$DIMLWD
 70
-2
  9
$DIMLWE
 70
-2
  9
$DIMTMOVE
 70
0
  9
$DIMFXL
 40
1.0
  9
$DIMFXLON
 70
0
  9
$DIMJOGANG
 40
0.785398163397
  9
$DIMTFILL
 70
0
  9
$DIMTFILLCLR
 70
0
  9
$DIMARCSYM
 70
0
  9
$DIMLTYPE
  6

  9
$DIMLTEX1
  6

  9
$DIMLTEX2
  6

  9
$DIMTXTDIRECTION
 70
0
  9
$LUNITS
 70
2
  9
$LUPREC
 70
4
  9
$SKETCHINC
 40
1.0
  9
$FILLETRAD
 40
10.0
  9
$AUNITS
 70
0
  9
$AUPREC
 70
2
  9
$MENU
  1
.
  9
$ELEVATION
 40
0.0
  9
$PELEVATION
 40
0.0
  9
$THICKNESS
 40
0.0
  9
$LIMCHECK
 70
0
  9
$CHAMFERA
 40
0.0
  9
$CHAMFERB
 40
0.0
  9
$CHAMFERC
 40
0.0
  9
$CHAMFERD
 40
0.0
  9
$SKPOLY
 70
0
  9
$TDCREATE
 40
2461273.9874189813
  9
$TDUCREATE
 40
2458532.153996898
  9
$TDUPDATE
 40
2461273.9874189813
  9
$TDUUPDATE
 40
2458532.1544311
  9
$TDINDWG
 40
0.0
  9
$TDUSRTIMER
 40
0.0
  9
$USRTIMER
 70
1
  9
$ANGBASE
 50
0.0
  9
$ANGDIR
 70
0
  9
$PDMODE
 70
0
  9
$PDSIZE
 40
0.0
  9
$PLINEWID
 40
0.0
  9
$SPLFRAME
 70
0
  9
$SPLINETYPE
 70
6
  9
$SPLINESEGS
 70
8
  9
$HANDSEED
  5
10F
  9
$SURFTAB1
 70
6
  9
$SURFTAB2
 70
6
  9
$SURFTYPE
 70
6
  9
$SURFU
 70
6
  9
$SURFV
 70
6
  9
$UCSBASE
  2

  9
$UCSNAME
  2

  9
$UCSORG
 10
0.0
 20
0.0
 30
0.0
  9
$UCSXDIR
 10
1.0
 20
0.0
 30
0.0
  9
$UCSYDIR
 10
0.0
 20
1.0
 30
0.0
  9
$UCSORTHOREF
  2

  9
$UCSORTHOVIEW
 70
0
  9
$UCSORGTOP
 10
0.0
 20
0.0
 30
0.0
  9
$UCSORGBOTTOM
 10
0.0
 20
0.0
 30
0.0
  9
$UCSORGLEFT
 10
0.0
 20
0.0
 30
0.0
  9
$UCSORGRIGHT
 10
0.0
 20
0.0
 30
0.0
  9
$UCSORGFRONT
 10
0.0
 20
0.0
 30
0.0
  9
$UCSORGBACK
 10
0.0
 20
0.0
 30
0.0
  9
$PUCSBASE
  2

  9
$PUCSNAME
  2

  9
$PUCSORG
 10
0.0
 20
0.0
 30
0.0
  9
$PUCSXDIR
 10
1.0
 20
0.0
 30
0.0
  9
$PUCSYDIR
 10
0.0
 20
1.0
 30
0.0
  9
$PUCSORTHOREF
  2

  9
$PUCSORTHOVIEW
 70
0
  9
$PUCSORGTOP
 10
0.0
 20
0.0
 30
0.0
  9
$PUCSORGBOTTOM
 10
0.0
 20
0.0
 30
0.0
  9
$PUCSORGLEFT
 10
0.0
 20
0.0
 30
0.0
  9
$PUCSORGRIGHT
 10
0.0
 20
0.0
 30
0.0
  9
$PUCSORGFRONT
 10
0.0
 20
0.0
 30
0.0
  9
$PUCSORGBACK
 10
0.0
 20
0.0
 30
0.0
  9
$USERI1
 70
0
  9
$USERI2
 70
0
  9
$USERI3
 70
0
  9
$USERI4
 70
0
  9
$USERI5
 70
0
  9
$USERR1
 40
0.0
  9
$USERR2
 40
0.0
  9
$USERR3
 40
0.0
  9
$USERR4
 40
0.0
  9
$USERR5
 40
0.0
  9
$WORLDVIEW
 70
1
  9
$SHADEDGE
 70
3
  9
$SHADEDIF
 70
70
  9
$TILEMODE
 70
1
  9
$MAXACTVP
 70
64
  9
$PINSBASE
 10
0.0
 20
0.0
 30
0.0
  9
$PLIMCHECK
 70
0
  9
$PEXTMIN
 10
1e+20
 20
1e+20
 30
1e+20
  9
$PEXTMAX
 10
-1e+20
 20
-1e+20
 30
-1e+20
  9
$PLIMMIN
 10
0.0
 20
0.0
  9
$PLIMMAX
 10
420.0
 20
297.0
  9
$UNITMODE
 70
0
  9
$VISRETAIN
 70
1
  9
$PLINEGEN
 70
0
  9
$PSLTSCALE
 70
1
  9
$TREEDEPTH
 70
3020
  9
$CMLSTYLE
  2
Standard
  9
$CMLJUST
 70
0
  9
$CMLSCALE
 40
20.0
  9
$PROXYGRAPHICS
 70
1
  9
$MEASUREMENT
 70
1
  9
$CELWEIGHT
370
-1
  9
$ENDCAPS
280
0
  9
$JOINSTYLE
280
0
  9
$LWDISPLAY
290
0
  9
$INSUNITS
 70
4
  9
$HYPERLINKBASE
  1

  9
$STYLESHEET
  1

  9
$XEDIT
290
1
  9
$CEPSNTYPE
380
0
  9
$PSTYLEMODE
290
1
  9
$FINGERPRINTGUID
  2
{1D30FC32-CCC8-4D03-A334-394EC6339AC2}
  9
$VERSIONGUID
  2
{716D113A-F8BF-4E18-BAD1-A7AB649E2AE6}
  9
$EXTNAMES
290
1
  9
$PSVPSCALE
 40
0.0
  9
$OLESTARTUP
290
0
  9
$SORTENTS
280
127
  9
$INDEXCTL
280
0
  9
$HIDETEXT
280
1
  9
$XCLIPFRAME
280
1
  9
$HALOGAP
280
0
  9
$OBSCOLOR
 70
257
  9
$OBSLTYPE
280
0
  9
$INTERSECTIONDISPLAY
280
0
  9
$INTERSECTIONCOLOR
 70
257
  9
$DIMASSOC
280
2
  9
$PROJECTNAME
  1

  9
$CAMERADISPLAY
290
0
  9
$LENSLENGTH
 40
50.0
  9
$CAMERAHEIGHT
 40
0.0
  9
$STEPSPERSEC
 40
24.0
  9
$STEPSIZE
 40
100.0
  9
$3DDWFPREC
 40
2.0
  9
$PSOLWIDTH
 40
0.005
  9
$PSOLHEIGHT
 40
0.08
  9
$LOFTANG1
 40
1.570796326795
  9
$LOFTANG2
 40
1.570796326795
  9
$LOFTMAG1
 40
0.0
  9
$LOFTMAG2
 40
0.0
  9
$LOFTPARAM
 70
7
  9
$LOFTNORMALS
280
1
  9
$LATITUDE
 40
37.795
  9
$LONGITUDE
 40
-122.394
  9
$NORTHDIRECTION
 40
0.0
  9
$TIMEZONE
 70
-8000
  9
$LIGHTGLYPHDISPLAY
280
1
  9
$TILEMODELIGHTSYNCH
280
1
  9
$CMATERIAL
347
20
  9
$SOLIDHIST
280
0
  9
$SHOWHIST
280
1
  9
$DWFFRAME
280
2
  9
$DGNFRAME
280
2
  9
$REALWORLDSCALE
290
1
  9
$INTERFERECOLOR
 62
256
  9
$CSHADOW
280
0
  9
$SHADOWPLANELOCATION
 40
0.0
  0
ENDSEC
  0
SECTION
  2
CLASSES
  0
CLASS
  1
ACDBDICTIONARYWDFLT
  2
AcDbDictionaryWithDefault
  3
ObjectDBX Classes
 90
0
 91
0
280
0
281
0
  0
CLASS
  1
SUN
  2
AcDbSun
  3
SCENEOE
 90
1153
 91
0
280
0
281
0
  0
CLASS
  1
VISUALSTYLE
  2
AcDbVisualStyle
  3
ObjectDBX Classes
 90
4095
 91
0
280
0
281
0
  0
CLASS
  1
MATERIAL
  2
AcDbMaterial
  3
ObjectDBX Classes
 90
1153
 91
0
280
0
281
0
  0
CLASS
  1
SCALE
  2
AcDbScale
  3
ObjectDBX Classes
 90
1153
 91
0
280
0
281
0
  0
CLASS
  1
TABLESTYLE
  2
AcDbTableStyle
  3
ObjectDBX Classes
 90
4095
 91
0
280
0
281
0
  0
CLASS
  1
MLEADERSTYLE
  2
AcDbMLeaderStyle
  3
ACDB_MLEADERSTYLE_CLASS
 90
4095
 91
0
280
0
281
0
  0
CLASS
  1
DICTIONARYVAR
  2
AcDbDictionaryVar
  3
ObjectDBX Classes
 90
0
 91
0
280
0
281
0
  0
CLASS
  1
CELLSTYLEMAP
  2
AcDbCellStyleMap
  3
ObjectDBX Classes
 90
1152
 91
0
280
0
281
0
  0
CLASS
  1
MENTALRAYRENDERSETTINGS
  2
AcDbMentalRayRenderSettings
  3
SCENEOE
 90
1024
 91
0
280
0
281
0
  0
CLASS
  1
ACDBDETAILVIEWSTYLE
  2
AcDbDetailViewStyle
  3
ObjectDBX Classes
 90
1025
 91
0
280
0
281
0
  0
CLASS
  1
ACDBSECTIONVIEWSTYLE
  2
AcDbSectionViewStyle
  3
ObjectDBX Classes
 90
1025
 91
0
280
0
281
0
  0
CLASS
  1
RASTERVARIABLES
  2
AcDbRasterVariables
  3
ISM
 90
0
 91
0
280
0
281
0
  0
CLASS
  1
LAYOUT
  2
AcDbLayout
  3
ObjectDBX Classes
 90
0
 91
0
280
0
281
0
  0
CLASS
  1
ACDBPLACEHOLDER
  2
AcDbPlaceHolder
  3
ObjectDBX Classes
 90
0
 91
0
280
0
281
0
  0
ENDSEC
  0
SECTION
  2
TABLES
  0
TABLE
  2
VPORT
  5
8
330
0
100
AcDbSymbolTable
 70
1
  0
VPORT
  5
23
330
8
100
AcDbSymbolTableRecord
100
AcDbViewportTableRecord
  2
*Active
 70
0
 10
0.0
 20
0.0
 11
1.0
 21
1.0
 12
0.0
 22
0.0
 13
0.0
 23
0.0
 14
0.5
 24
0.5
 15
0.5
 25
0.5
 16
0.0
 26
0.0
 36
1.0
 17
0.0
 27
0.0
 37
0.0
 40
1000.0
 41
1.34
 42
50.0
 43
0.0
 44
0.0
 50
0.0
 51
0.0
 71
0
 72
1000
 73
1
 74
3
 75
0
 76
0
 77
0
 78
0
281
0
 65
0
146
0.0
  0
ENDTAB
  0
TABLE
  2
LTYPE
  5
2
330
0
100
AcDbSymbolTable
 70
3
  0
LTYPE
  5
24
330
2
100
AcDbSymbolTableRecord
100
AcDbLinetypeTableRecord
  2
ByBlock
 70
0
  3

 72
65
 73
0
 40
0.0
  0
LTYPE
  5
25
330
2
100
AcDbSymbolTableRecord
100
AcDbLinetypeTableRecord
  2
ByLayer
 70
0
  3

 72
65
 73
0
 40
0.0
  0
LTYPE
  5
26
330
2
100
AcDbSymbolTableRecord
100
AcDbLinetypeTableRecord
  2
Continuous
 70
0
  3

 72
65
 73
0
 40
0.0
  0
ENDTAB
  0
TABLE
  2
LAYER
  5
1
330
0
100
AcDbSymbolTable
 70
10
  0
LAYER
  5
27
330
1
100
AcDbSymbolTableRecord
100
AcDbLayerTableRecord
  2
0
 70
0
 62
7
  6
Continuous
370
-3
390
13
347
21
  0
LAYER
  5
28
330
1
100
AcDbSymbolTableRecord
100
AcDbLayerTableRecord
  2
Defpoints
 70
0
 62
7
  6
Continuous
290
0
370
-3
390
13
347
21
  0
LAYER
  5
2F
330
1
100
AcDbSymbolTableRecord
100
AcDbLayerTableRecord
  2
PRSNAMES
 70
0
 62
7
  6
Continuous
370
-3
390
13
347
21
  0
LAYER
  5
32
330
1
100
AcDbSymbolTableRecord
100
AcDbLayerTableRecord
  2
FALARM
 70
0
 62
7
  6
Continuous
370
-3
390
13
347
21
  0
LAYER
  5
3C
330
1
100
AcDbSymbolTableRecord
100
AcDbLayerTableRecord
  2
WASTE & RECYCLING STATIONS
 70
0
 62
7
  6
Continuous
370
-3
390
13
347
21
  0
LAYER
  5
42
330
1
100
AcDbSymbolTableRecord
100
AcDbLayerTableRecord
  2
A-ANNO-DIMS
 70
0
 62
7
  6
Continuous
370
-3
390
13
347
21
  0
LAYER
  5
45
330
1
100
AcDbSymbolTableRecord
100
AcDbLayerTableRecord
  2
BUILDING_ACCESS
 70
0
 62
7
  6
Continuous
370
-3
390
13
347
21
  0
LAYER
  5
59
330
1
100
AcDbSymbolTableRecord
100
AcDbLayerTableRecord
  2
A-AREA-IDEN
 70
0
 62
7
  6
Continuous
370
-3
390
13
347
21
  0
LAYER
  5
CE
330
1
100
AcDbSymbolTableRecord
100
AcDbLayerTableRecord
  2
GIA
 70
0
 62
7
  6
Continuous
370
-3
390
13
347
21
  0
LAYER
  5
D1
330
1
100
AcDbSymbolTableRecord
100
AcDbLayerTableRecord
  2
A-AREA-ROOM
 70
0
 62
7
  6
Continuous
370
-3
390
13
347
21
  0
ENDTAB
  0
TABLE
  2
STYLE
  5
5
330
0
100
AcDbSymbolTable
 70
1
  0
STYLE
  5
29
330
5
100
AcDbSymbolTableRecord
100
AcDbTextStyleTableRecord
  2
Standard
 70
0
 40
0.0
 41
1.0
 50
0.0
 71
0
 42
2.5
  3
txt
  4

  0
ENDTAB
  0
TABLE
  2
VIEW
  5
7
330
0
100
AcDbSymbolTable
 70
0
  0
ENDTAB
  0
TABLE
  2
UCS
  5
6
330
0
100
AcDbSymbolTable
 70
0
  0
ENDTAB
  0
TABLE
  2
APPID
  5
3
330
0
100
AcDbSymbolTable
 70
3
  0
APPID
  5
2A
330
3
100
AcDbSymbolTableRecord
100
AcDbRegAppTableRecord
  2
ACAD
 70
0
  0
APPID
  5
10C
330
3
100
AcDbSymbolTableRecord
100
AcDbRegAppTableRecord
  2
HATCHBACKGROUNDCOLOR
 70
0
  0
APPID
  5
10D
330
3
100
AcDbSymbolTableRecord
100
AcDbRegAppTableRecord
  2
EZDXF
 70
0
  0
ENDTAB
  0
TABLE
  2
DIMSTYLE
  5
4
330
0
100
AcDbSymbolTable
 70
1
100
AcDbDimStyleTable
  0
DIMSTYLE
105
2B
330
4
100
AcDbSymbolTableRecord
100
AcDbDimStyleTableRecord
  2
Standard
 70
0
 40
1.0
 41
2.5
 42
0.625
 43
3.75
 44
1.25
 45
0.0
 46
0.0
 47
0.0
 48
0.0
 49
2.5
140
2.5
141
2.5
142
0.0
143
0.03937007874
144
1.0
145
0.0
146
1.0
147
0.625
148
0.0
 69
0
 70
0
 71
0
 72
0
 73
0
 74
0
 75
0
 76
0
 77
1
 78
8
 79
3
170
0
171
3
172
1
173
0
174
0
175
0
176
0
177
0
178
0
179
2
271
2
272
2
273
2
274
3
275
0
276
0
277
2
278
44
279
0
280
0
281
0
282
0
283
0
284
8
285
0
286
0
288
0
289
3
290
0
371
-2
372
-2
  0
ENDTAB
  0
TABLE
  2
BLOCK_RECORD
  5
9
330
0
100
AcDbSymbolTable
 70
2
  0
BLOCK_RECORD
  5
17
330
9
100
AcDbSymbolTableRecord
100
AcDbBlockTableRecord
  2
*Model_Space
340
1A
 70
0
280
1
281
0
  0
BLOCK_RECORD
  5
1B
330
9
100
AcDbSymbolTableRecord
100
AcDbBlockTableRecord
  2
*Paper_Space
340
1E
 70
0
280
1
281
0
  0
ENDTAB
  0
ENDSEC
  0
SECTION
  2
BLOCKS
  0
BLOCK
  5
18
330
17
100
AcDbEntity
  8
0
100
AcDbBlockBegin
  2
*Model_Space
 70
0
 10
0.0
 20
0.0
 30
0.0
  3
*Model_Space
  1

  0
ENDBLK
  5
19
330
17
100
AcDbEntity
  8
0
100
AcDbBlockEnd
  0
BLOCK
  5
1C
330
1B
100
AcDbEntity
  8
0
100
AcDbBlockBegin
  2
*Paper_Space
 70
0
 10
0.0
 20
0.0
 30
0.0
  3
*Paper_Space
  1

  0
ENDBLK
  5
1D
330
1B
100
AcDbEntity
  8
0
100
AcDbBlockEnd
  0
ENDSEC
  0
SECTION
  2
ENTITIES
  0
TEXT
  5
30
330
17
100
AcDbEntity
  8
PRSNAMES
100
AcDbText
 10
94261.31966166136
 20
24293.40091087214
 30
0.0
 40
250.0
  1
\pxqc;{\fArial|b0|i0|c0|p34;\H1.6x;Z01}
100
AcDbText
  0
TEXT
  5
31
330
17
100
AcDbEntity
  8
PRSNAMES
100
AcDbText
 10
89862.67811854661
 20
20982.48865184173
 30
0.0
 40
250.0
  1
\pxqc;{\fArial|b0|i0|c0|p34;\H1.6x;Z02}
100
AcDbText
  0
TEXT
  5
33
330
17
100
AcDbEntity
  8
FALARM
100
AcDbText
 10
282153.5570322825
 20
41406.07163135697
 30
0.0
 40
112.5
  1
HEAT DETECTOR AND SOUNDER BASE
100
AcDbText
  0
TEXT
  5
34
330
17
100
AcDbEntity
  8
FALARM
100
AcDbText
 10
282153.5570322825
 20
40906.07163135697
 30
0.0
 40
112.5
  1
FIRE ALARM PANEL
100
AcDbText
  0
TEXT
  5
35
330
17
100
AcDbEntity
  8
FALARM
100
AcDbText
 10
282153.5570322825
 20
39906.07163135697
 30
0.0
 40
112.5
  1
INTERFACE UNIT
100
AcDbText
  0
TEXT
  5
36
330
17
100
AcDbEntity
  8
FALARM
100
AcDbText
 10
282153.5570322825
 20
42906.07163135695
 30
0.0
 40
112.5
  1
MANUAL CALL POINT
100
AcDbText
  0
TEXT
  5
37
330
17
100
AcDbEntity
  8
FALARM
100
AcDbText
 10
281340.1621373595
 20
43336.08103975214
 30
0.0
 40
200.0
  1
FIRE  ALARM  &  EMERGENCY  LIGHTING  LEGEND
100
AcDbText
  0
TEXT
  5
38
330
17
100
AcDbEntity
  8
FALARM
100
AcDbText
 10
282153.5363618459
 20
40612.32846454363
 30
0.0
 40
112.5
  1
SYMBOL TAG WHERE "X" DENOTES ZONE NUMBER AND\P"Y" DENOTES POSITION OF DEVICE
100
AcDbText
  0
TEXT
  5
39
330
17
100
AcDbEntity
  8
FALARM
100
AcDbText
 10
281417.6551767234
 20
40406.04957605472
 30
0.0
 40
112.5
  1
X/Y
100
AcDbText
  0
TEXT
  5
3A
330
17
100
AcDbEntity
  8
FALARM
100
AcDbText
 10
282153.536361846
 20
42112.32846454364
 30
0.0
 40
112.5
  1
COMBINED SMOKE/HEAT DETECTOR AND SOUNDER BASE
100
AcDbText
  0
TEXT
  5
3B
330
17
100
AcDbEntity
  8
FALARM
100
AcDbText
 10
282153.55703226
 20
42406.0716314182
 30
0.0
 40
112.4999999775
  1
SMOKE DETECTOR (LOCATED IN CEILING VOID)
100
AcDbText
  0
TEXT
  5
3D
330
17
100
AcDbEntity
  8
WASTE & RECYCLING STATIONS
100
AcDbText
 10
281230.0534566887
 20
43510.59110965364
 30
0.0
 40
257.2562063916069
  1
{\fArial|b0|i0|c0|p34;Waste & Recycling Station Legend}
100
AcDbText
  0
TEXT
  5
3E
330
17
100
AcDbEntity
  8
WASTE & RECYCLING STATIONS
100
AcDbText
 10
283611.3380095923
 20
42748.1534374717
 30
0.0
 40
245.0059108491495
  1
{\fArial|b0|i0|c0|p34;Waste & Recycling Station (Six Units):\PEssential Location}
100
AcDbText
  0
TEXT
  5
3F
330
17
100
AcDbEntity
  8
WASTE & RECYCLING STATIONS
100
AcDbText
 10
283611.3380095923
 20
41250.40075650125
 30
0.0
 40
245.0059108491495
  1
{\fArial|b0|i0|c0|p34;Waste & Recycling Station (Six Units):\PPreferable Location}
100
AcDbText
  0
TEXT
  5
40
330
17
100
AcDbEntity
  8
WASTE & RECYCLING STATIONS
100
AcDbText
 10
283611.3380095923
 20
39752.6480755308
 30
0.0
 40
245.0059108491495
  1
{\fArial|b0|i0|c0|p34;Food Waste Caddy:\PCounter Top Type,\PSmall, 5L}
100
AcDbText
  0
TEXT
  5
41
330
17
100
AcDbEntity
  8
WASTE & RECYCLING STATIONS
100
AcDbText
 10
283611.3380095923
 20
38254.89539456033
 30
0.0
 40
245.0059108491495
  1
{\fArial|b0|i0|c0|p34;Food Waste Caddy:\PFloor Standing Type,\PLarge, 15L}
100
AcDbText
  0
TEXT
  5
43
330
17
100
AcDbEntity
  8
A-ANNO-DIMS
100
AcDbText
 10
197172.8346803538
 20
33276.00657868533
 30
0.0
 40
250.0
  1
1650
100
AcDbText
  0
TEXT
  5
44
330
17
100
AcDbEntity
  8
A-ANNO-DIMS
100
AcDbText
 10
200422.8346803534
 20
33276.00657868533
 30
0.0
 40
250.0
  1
1650
100
AcDbText
  0
TEXT
  5
46
330
17
100
AcDbEntity
  8
BUILDING_ACCESS
100
AcDbText
 10
330365.37434819
 20
52332.83520709773
 30
0.0
 40
367.3936753771544
  1
{\fArial|b0|i0|c0|p0;Legend}
100
AcDbText
  0
TEXT
  5
47
330
17
100
AcDbEntity
  8
BUILDING_ACCESS
100
AcDbText
 10
330769.3566618298
 20
46336.2122859125
 30
0.0
 40
244.9291169181029
  1
{\fArial|b0|i0|c0|p0;Access Route}
100
AcDbText
  0
TEXT
  5
48
330
17
100
AcDbEntity
  8
BUILDING_ACCESS
100
AcDbText
 10
330769.3566618298
 20
42662.27553214172
 30
0.0
 40
244.9291169181029
  1
{\fArial|b0|i0|c0|p0;Exit Route}
100
AcDbText
  0
TEXT
  5
49
330
17
100
AcDbEntity
  8
BUILDING_ACCESS
100
AcDbText
 10
330769.3566618297
 20
50010.14903968378
 30
0.0
 40
244.9291169181029
  1
{\fArial|b0|i0|c0|p0;Unisex Toilet}
100
AcDbText
  0
TEXT
  5
4A
330
17
100
AcDbEntity
  8
BUILDING_ACCESS
100
AcDbText
 10
330769.3566618297
 20
51417.74791847197
 30
0.0
 40
244.9291169181029
  1
{\fArial|b0|i0|c0|p0;Hand Sanitizer Dispenser}
100
AcDbText
  0
TEXT
  5
4B
330
17
100
AcDbEntity
  8
BUILDING_ACCESS
100
AcDbText
 10
330769.3566618297
 20
47560.85787050291
 30
0.0
 40
244.9291169181029
  1
{\fArial|b0|i0|c0|p0;'Up' Only Stairs}
100
AcDbText
  0
TEXT
  5
4C
330
17
100
AcDbEntity
  8
BUILDING_ACCESS
100
AcDbText
 10
330769.3566618297
 20
43886.92111673169
 30
0.0
 40
244.9291169181029
  1
{\fArial|b0|i0|c0|p0;'Down' Only Stairs}
100
AcDbText
  0
TEXT
  5
4D
330
17
100
AcDbEntity
  8
BUILDING_ACCESS
100
AcDbText
 10
330769.3566618297
 20
48785.50345509335
 30
0.0
 40
244.9291169181029
  1
{\fArial|b0|i0|c0|p0;Building Entrance}
100
AcDbText
  0
TEXT
  5
4E
330
17
100
AcDbEntity
  8
BUILDING_ACCESS
100
AcDbText
 10
330769.3566618297
 20
45111.56670132207
 30
0.0
 40
244.9291169181029
  1
{\fArial|b0|i0|c0|p0;Building Exit}
100
AcDbText
  0
TEXT
  5
4F
330
17
100
AcDbEntity
  8
BUILDING_ACCESS
100
AcDbText
 10
330769.3566618298
 20
41437.62994755129
 30
0.0
 40
244.9291169181029
  1
{\fArial|b0|i0|c0|p34;Two Way Route}
100
AcDbText
  0
TEXT
  5
50
330
17
100
AcDbEntity
  8
A-ANNO-DIMS
100
AcDbText
 10
291162.3522954417
 20
-5780.578228639729
 30
0.0
 40
250.0
  1
1600
100
AcDbText
  0
TEXT
  5
51
330
17
100
AcDbEntity
  8
A-ANNO-DIMS
100
AcDbText
 10
294062.3731830685
 20
-5780.578228639729
 30
0.0
 40
250.0
  1
1000
100
AcDbText
  0
TEXT
  5
52
330
17
100
AcDbEntity
  8
A-ANNO-DIMS
100
AcDbText
 10
288527.2000506788
 20
-5780.578228639729
 30
0.0
 40
250.0
  1
706
100
AcDbText
  0
TEXT
  5
53
330
17
100
AcDbEntity
  8
A-ANNO-DIMS
100
AcDbText
 10
275666.2973960939
 20
6242.501807696619
 30
0.0
 40
250.0
  1
1300
100
AcDbText
  0
TEXT
  5
54
330
17
100
AcDbEntity
  8
A-ANNO-DIMS
100
AcDbText
 10
281917.1429019895
 20
6379.160034050616
 30
0.0
 40
250.0
  1
1600
100
AcDbText
  0
TEXT
  5
55
330
17
100
AcDbEntity
  8
A-ANNO-DIMS
100
AcDbText
 10
281395.752106451
 20
3104.776855811844
 30
0.0
 40
250.0
  1
1000
100
AcDbText
  0
TEXT
  5
56
330
17
100
AcDbEntity
  8
A-ANNO-DIMS
100
AcDbText
 10
277836.206049693
 20
2103.274390356415
 30
0.0
 40
250.0
  1
800
100
AcDbText
  0
TEXT
  5
57
330
17
100
AcDbEntity
  8
A-ANNO-DIMS
100
AcDbText
 10
279236.2060496929
 20
2103.274390356415
 30
0.0
 40
250.0
  1
800
100
AcDbText
  0
TEXT
  5
58
330
17
100
AcDbEntity
  8
A-ANNO-DIMS
100
AcDbText
 10
280636.206049693
 20
2103.274390356415
 30
0.0
 40
250.0
  1
800
100
AcDbText
  0
TEXT
  5
5A
330
17
100
AcDbEntity
  8
A-AREA-IDEN
100
AcDbText
 10
161012.994113192
 20
31212.17657739263
 30
0.0
 40
199.9999999999998
  1
Office
100
AcDbText
  0
TEXT
  5
5B
330
17
100
AcDbEntity
  8
A-AREA-IDEN
100
AcDbText
 10
161172.7089330424
 20
31501.16895509609
 30
0.0
 40
199.9999999999998
  1
5.52
100
AcDbText
  0
TEXT
  5
5C
330
17
100
AcDbEntity
  8
A-AREA-IDEN
100
AcDbText
 10
163379.5279587313
 20
30831.14577708672
 30
0.0
 40
199.9999999999998
  1
Office
100
AcDbText
  0
TEXT
  5
5D
330
17
100
AcDbEntity
  8
A-AREA-IDEN
100
AcDbText
 10
163539.2427785818
 20
31120.13815479018
 30
0.0
 40
199.9999999999998
  1
5.51
100
AcDbText
  0
TEXT
  5
5E
330
17
100
AcDbEntity
  8
A-AREA-IDEN
100
AcDbText
 10
165504.2096666277
 20
30831.14577708671
 30
0.0
 40
199.9999999999998
  1
Office
100
AcDbText
  0
TEXT
  5
5F
330
17
100
AcDbEntity
  8
A-AREA-IDEN
100
AcDbText
 10
165663.9244864782
 20
31120.13815479017
 30
0.0
 40
199.9999999999998
  1
5.50
100
AcDbText
  0
TEXT
  5
60
330
17
100
AcDbEntity
  8
A-AREA-IDEN
100
AcDbText
 10
158251.7224054468
 20
28369.44275041111
 30
0.0
 40
199.9999999999998
  1
4P Tut Niche
100
AcDbText
  0
TEXT
  5
61
330
17
100
AcDbEntity
  8
A-AREA-IDEN
100
AcDbText
 10
158780.0075855964
 20
28658.43512811458
 30
0.0
 40
199.9999999999998
  1
5Z26
100
AcDbText
  0
TEXT
  5
62
330
17
100
AcDbEntity
  8
A-AREA-IDEN
100
AcDbText
 10
164532.6053551245
 20
27949.53830552058
 30
0.0
 40
199.9999999999998
  1
2P Soft Seating
100
AcDbText
  0
TEXT
  5
63
330
17
100
AcDbEntity
  8
A-AREA-IDEN
100
AcDbText
 10
165234.11419265
 20
28238.53068322404
 30
0.0
 40
199.9999999999998
  1
5Z25
100
AcDbText
  0
TEXT
  5
64
330
17
100
AcDbEntity
  8
A-AREA-IDEN
100
AcDbText
 10
169938.8843592323
 20
25665.20122159889
 30
0.0
 40
199.9999999999998
  1
Project Rm - 3
100
AcDbText
  0
TEXT
  5
65
330
17
100
AcDbEntity
  8
A-AREA-IDEN
100
AcDbText
 10
170623.3007426449
 20
25954.19359930235
 30
0.0
 40
199.9999999999998
  1
5.45
100
AcDbText
  0
TEXT
  5
66
330
17
100
AcDbEntity
  8
A-AREA-IDEN
100
AcDbText
 10
166604.998751994
 20
24639.24198417404
 30
0.0
 40
199.9999999999998
  1
4P PHD Research
100
AcDbText
  0
TEXT
  5
67
330
17
100
AcDbEntity
  8
A-AREA-IDEN
100
AcDbText
 10
167496.7839321436
 20
24928.23436187751
 30
0.0
 40
199.9999999999998
  1
5.48
100
AcDbText
  0
TEXT
  5
68
330
17
100
AcDbEntity
  8
A-AREA-IDEN
100
AcDbText
 10
163900.0164972034
 20
25469.59945695351
 30
0.0
 40
199.9999999999998
  1
DB Room
100
AcDbText
  0
TEXT
  5
69
330
17
100
AcDbEntity
  8
A-AREA-IDEN
100
AcDbText
 10
164273.5688425467
 20
25758.59183465697
 30
0.0
 40
199.9999999999998
  1
5.49
100
AcDbText
  0
TEXT
  5
6A
330
17
100
AcDbEntity
  8
A-AREA-IDEN
100
AcDbText
 10
164279.7067647397
 20
22353.86738996162
 30
0.0
 40
199.9999999999998
  1
ICT LAN
100
AcDbText
  0
TEXT
  5
6B
330
17
100
AcDbEntity
  8
A-AREA-IDEN
100
AcDbText
 10
164534.4039095392
 20
22642.85976766509
 30
0.0
 40
199.9999999999998
  1
5.57
100
AcDbText
  0
TEXT
  5
6C
330
17
100
AcDbEntity
  8
A-AREA-IDEN
100
AcDbText
 10
169372.0093800296
 20
16075.95515346505
 30
0.0
 40
199.9999999999998
  1
7P PHD Research
100
AcDbText
  0
TEXT
  5
6D
330
17
100
AcDbEntity
  8
A-AREA-IDEN
100
AcDbText
 10
170276.7109435918
 20
16364.94753116851
 30
0.0
 40
199.9999999999998
  1
5.65
100
AcDbText
  0
TEXT
  5
6E
330
17
100
AcDbEntity
  8
A-AREA-IDEN
100
AcDbText
 10
159436.4633412288
 20
23830.40001625137
 30
0.0
 40
199.9999999999998
  1
Office
100
AcDbText
  0
TEXT
  5
6F
330
17
100
AcDbEntity
  8
A-AREA-IDEN
100
AcDbText
 10
159596.1781610793
 20
24119.39239395483
 30
0.0
 40
199.9999999999998
  1
5.54
100
AcDbText
  0
TEXT
  5
70
330
17
100
AcDbEntity
  8
A-AREA-IDEN
100
AcDbText
 10
159436.4633412288
 20
21117.52173390339
 30
0.0
 40
199.9999999999998
  1
Office
100
AcDbText
  0
TEXT
  5
71
330
17
100
AcDbEntity
  8
A-AREA-IDEN
100
AcDbText
 10
159596.1781610793
 20
21406.51411160685
 30
0.0
 40
199.9999999999998
  1
5.56
100
AcDbText
  0
TEXT
  5
72
330
17
100
AcDbEntity
  8
A-AREA-IDEN
100
AcDbText
 10
159209.6769424915
 20
18318.80924640751
 30
0.0
 40
199.9999999999998
  1
Office
100
AcDbText
  0
TEXT
  5
73
330
17
100
AcDbEntity
  8
A-AREA-IDEN
100
AcDbText
 10
159369.3917623419
 20
18607.80162411098
 30
0.0
 40
199.9999999999998
  1
5.58
100
AcDbText
  0
TEXT
  5
74
330
17
100
AcDbEntity
  8
A-AREA-IDEN
100
AcDbText
 10
159576.1840830992
 20
15685.51740161314
 30
0.0
 40
199.9999999999998
  1
Office
100
AcDbText
  0
TEXT
  5
75
330
17
100
AcDbEntity
  8
A-AREA-IDEN
100
AcDbText
 10
159735.8989029496
 20
15974.50977931661
 30
0.0
 40
199.9999999999998
  1
5.59
100
AcDbText
  0
TEXT
  5
76
330
17
100
AcDbEntity
  8
A-AREA-IDEN
100
AcDbText
 10
158266.6551805081
 20
11752.18346973135
 30
0.0
 40
199.9999999999998
  1
Office
100
AcDbText
  0
TEXT
  5
77
330
17
100
AcDbEntity
  8
A-AREA-IDEN
100
AcDbText
 10
158426.3700003585
 20
12041.17584743482
 30
0.0
 40
199.9999999999998
  1
5.60
100
AcDbText
  0
TEXT
  5
78
330
17
100
AcDbEntity
  8
A-AREA-IDEN
100
AcDbText
 10
160912.5596507854
 20
11752.18346973135
 30
0.0
 40
199.9999999999998
  1
Office
100
AcDbText
  0
TEXT
  5
79
330
17
100
AcDbEntity
  8
A-AREA-IDEN
100
AcDbText
 10
161072.2744706358
 20
12041.17584743482
 30
0.0
 40
199.9999999999998
  1
5.61
100
AcDbText
  0
TEXT
  5
7A
330
17
100
AcDbEntity
  8
A-AREA-IDEN
100
AcDbText
 10
165204.329075178
 20
11752.18346973135
 30
0.0
 40
199.9999999999998
  1
Office
100
AcDbText
  0
TEXT
  5
7B
330
17
100
AcDbEntity
  8
A-AREA-IDEN
100
AcDbText
 10
165364.0438950284
 20
12041.17584743482
 30
0.0
 40
199.9999999999998
  1
5.62
100
AcDbText
  0
TEXT
  5
7C
330
17
100
AcDbEntity
  8
A-AREA-IDEN
100
AcDbText
 10
167900.592261714
 20
11580.87458007351
 30
0.0
 40
199.9999999999998
  1
Office
100
AcDbText
  0
TEXT
  5
7D
330
17
100
AcDbEntity
  8
A-AREA-IDEN
100
AcDbText
 10
168060.3070815645
 20
11869.86695777697
 30
0.0
 40
199.9999999999998
  1
5.64
100
AcDbText
  0
TEXT
  5
7E
330
17
100
AcDbEntity
  8
A-AREA-IDEN
100
AcDbText
 10
171760.1670123286
 20
11752.18346973135
 30
0.0
 40
199.9999999999998
  1
Office
100
AcDbText
  0
TEXT
  5
7F
330
17
100
AcDbEntity
  8
A-AREA-IDEN
100
AcDbText
 10
171919.881832179
 20
12041.17584743482
 30
0.0
 40
199.9999999999998
  1
5.66
100
AcDbText
  0
TEXT
  5
80
330
17
100
AcDbEntity
  8
A-AREA-IDEN
100
AcDbText
 10
174443.6519841388
 20
11752.18346973135
 30
0.0
 40
199.9999999999998
  1
Office
100
AcDbText
  0
TEXT
  5
81
330
17
100
AcDbEntity
  8
A-AREA-IDEN
100
AcDbText
 10
174603.3668039893
 20
12041.17584743482
 30
0.0
 40
199.9999999999998
  1
5.67
100
AcDbText
  0
TEXT
  5
82
330
17
100
AcDbEntity
  8
A-AREA-IDEN
100
AcDbText
 10
177125.3311684037
 20
11752.18346973135
 30
0.0
 40
199.9999999999998
  1
Office
100
AcDbText
  0
TEXT
  5
83
330
17
100
AcDbEntity
  8
A-AREA-IDEN
100
AcDbText
 10
177285.0459882541
 20
12041.17584743482
 30
0.0
 40
199.9999999999998
  1
5.68
100
AcDbText
  0
TEXT
  5
84
330
17
100
AcDbEntity
  8
A-AREA-IDEN
100
AcDbText
 10
179839.4864589755
 20
11752.18346973135
 30
0.0
 40
199.9999999999998
  1
Office
100
AcDbText
  0
TEXT
  5
85
330
17
100
AcDbEntity
  8
A-AREA-IDEN
100
AcDbText
 10
179999.201278826
 20
12041.17584743482
 30
0.0
 40
199.9999999999998
  1
5.69
100
AcDbText
  0
TEXT
  5
86
330
17
100
AcDbEntity
  8
A-AREA-IDEN
100
AcDbText
 10
182515.0506430285
 20
11752.18346973135
 30
0.0
 40
199.9999999999998
  1
Office
100
AcDbText
  0
TEXT
  5
87
330
17
100
AcDbEntity
  8
A-AREA-IDEN
100
AcDbText
 10
182674.765462879
 20
12041.17584743482
 30
0.0
 40
199.9999999999998
  1
5.70
100
AcDbText
  0
TEXT
  5
88
330
17
100
AcDbEntity
  8
A-AREA-IDEN
100
AcDbText
 10
184648.3020431278
 20
9785.124339780645
 30
0.0
 40
199.9999999999998
  1
4P Research
100
AcDbText
  0
TEXT
  5
89
330
17
100
AcDbEntity
  8
A-AREA-IDEN
100
AcDbText
 10
185216.0872232774
 20
10074.1167174841
 30
0.0
 40
199.9999999999998
  1
5.71
100
AcDbText
  0
TEXT
  5
8A
330
17
100
AcDbEntity
  8
A-AREA-IDEN
100
AcDbText
 10
190420.7185660147
 20
9785.124339780645
 30
0.0
 40
199.9999999999998
  1
8P PHD Research
100
AcDbText
  0
TEXT
  5
8B
330
17
100
AcDbEntity
  8
A-AREA-IDEN
100
AcDbText
 10
191314.8150989854
 20
10074.1167174841
 30
0.0
 40
199.9999999999998
  1
5.01
100
AcDbText
  0
TEXT
  5
8C
330
17
100
AcDbEntity
  8
A-AREA-IDEN
100
AcDbText
 10
184825.8562335405
 20
23025.40971559043
 30
0.0
 40
199.9999999999998
  1
60P Teaching
100
AcDbText
  0
TEXT
  5
8D
330
17
100
AcDbEntity
  8
A-AREA-IDEN
100
AcDbText
 10
185478.3341397268
 20
23314.4020932939
 30
0.0
 40
199.9999999999998
  1
5.44
100
AcDbText
  0
TEXT
  5
8E
330
17
100
AcDbEntity
  8
A-AREA-IDEN
100
AcDbText
 10
185691.2622188734
 20
28941.92096474487
 30
0.0
 40
199.9999999999998
  1
6P Research
100
AcDbText
  0
TEXT
  5
8F
330
17
100
AcDbEntity
  8
A-AREA-IDEN
100
AcDbText
 10
186270.7401250597
 20
29230.91334244833
 30
0.0
 40
199.9999999999998
  1
5.36
100
AcDbText
  0
TEXT
  5
90
330
17
100
AcDbEntity
  8
A-AREA-IDEN
100
AcDbText
 10
190192.0776298822
 20
29097.05379732494
 30
0.0
 40
199.9999999999998
  1
10P PHD Students
100
AcDbText
  0
TEXT
  5
91
330
17
100
AcDbEntity
  8
A-AREA-IDEN
100
AcDbText
 10
191129.8577114593
 20
29386.04617502841
 30
0.0
 40
199.9999999999998
  1
5.35
100
AcDbText
  0
TEXT
  5
92
330
17
100
AcDbEntity
  8
A-AREA-IDEN
100
AcDbText
 10
199387.290520744
 20
29056.38922543336
 30
0.0
 40
199.9999999999998
  1
8P PHD Research
100
AcDbText
  0
TEXT
  5
93
330
17
100
AcDbEntity
  8
A-AREA-IDEN
100
AcDbText
 10
200281.3870537148
 20
29345.38160313682
 30
0.0
 40
199.9999999999998
  1
5.34
100
AcDbText
  0
TEXT
  5
94
330
17
100
AcDbEntity
  8
A-AREA-IDEN
100
AcDbText
 10
213678.8485115569
 20
24756.96192497526
 30
0.0
 40
199.9999999999998
  1
90P Lecture
100
AcDbText
  0
TEXT
  5
95
330
17
100
AcDbEntity
  8
A-AREA-IDEN
100
AcDbText
 10
214206.6598643781
 20
25045.95430267872
 30
0.0
 40
199.9999999999998
  1
5.05
100
AcDbText
  0
TEXT
  5
96
330
17
100
AcDbEntity
  8
A-AREA-IDEN
100
AcDbText
 10
217340.9771965508
 20
23341.80176144296
 30
0.0
 40
199.9999999999998
  1
Small Research
100
AcDbText
  0
TEXT
  5
97
330
17
100
AcDbEntity
  8
A-AREA-IDEN
100
AcDbText
 10
218103.8633284339
 20
23630.79413914643
 30
0.0
 40
199.9999999999998
  1
5.08
100
AcDbText
  0
TEXT
  5
98
330
17
100
AcDbEntity
  8
A-AREA-IDEN
100
AcDbText
 10
222079.0221854133
 20
25583.05742227648
 30
0.0
 40
199.9999999999998
  1
5P PHD Research
100
AcDbText
  0
TEXT
  5
99
330
17
100
AcDbEntity
  8
A-AREA-IDEN
100
AcDbText
 10
222975.0221854134
 20
25872.04979997994
 30
0.0
 40
199.9999999999998
  1
5.11
100
AcDbText
  0
TEXT
  5
9A
330
17
100
AcDbEntity
  8
A-AREA-IDEN
100
AcDbText
 10
221524.0437585488
 20
15977.30099420177
 30
0.0
 40
199.9999999999998
  1
5P PHD Research
100
AcDbText
  0
TEXT
  5
9B
330
17
100
AcDbEntity
  8
A-AREA-IDEN
100
AcDbText
 10
222420.0437585488
 20
16266.29337190523
 30
0.0
 40
199.9999999999998
  1
5.18
100
AcDbText
  0
TEXT
  5
9C
330
17
100
AcDbEntity
  8
A-AREA-IDEN
100
AcDbText
 10
217454.7938712311
 20
15977.30099420177
 30
0.0
 40
199.9999999999998
  1
Small Research
100
AcDbText
  0
TEXT
  5
9D
330
17
100
AcDbEntity
  8
A-AREA-IDEN
100
AcDbText
 10
218217.6800031141
 20
16266.29337190523
 30
0.0
 40
199.9999999999998
  1
5.26
100
AcDbText
  0
TEXT
  5
9E
330
17
100
AcDbEntity
  8
A-AREA-IDEN
100
AcDbText
 10
208110.9059866745
 20
11684.06672495043
 30
0.0
 40
199.9999999999998
  1
Office
100
AcDbText
  0
TEXT
  5
9F
330
17
100
AcDbEntity
  8
A-AREA-IDEN
100
AcDbText
 10
208270.620806525
 20
11973.0591026539
 30
0.0
 40
199.9999999999998
  1
5.03
100
AcDbText
  0
TEXT
  5
A0
330
17
100
AcDbEntity
  8
A-AREA-IDEN
100
AcDbText
 10
210826.3267338246
 20
11684.06672495043
 30
0.0
 40
199.9999999999998
  1
Office
100
AcDbText
  0
TEXT
  5
A1
330
17
100
AcDbEntity
  8
A-AREA-IDEN
100
AcDbText
 10
210986.0415536751
 20
11973.0591026539
 30
0.0
 40
199.9999999999998
  1
5.04
100
AcDbText
  0
TEXT
  5
A2
330
17
100
AcDbEntity
  8
A-AREA-IDEN
100
AcDbText
 10
213537.4715429039
 20
11753.59260152939
 30
0.0
 40
199.9999999999998
  1
Office
100
AcDbText
  0
TEXT
  5
A3
330
17
100
AcDbEntity
  8
A-AREA-IDEN
100
AcDbText
 10
213697.1863627543
 20
12042.58497923285
 30
0.0
 40
199.9999999999998
  1
5.06
100
AcDbText
  0
TEXT
  5
A4
330
17
100
AcDbEntity
  8
A-AREA-IDEN
100
AcDbText
 10
216090.1014497401
 20
11684.06672495043
 30
0.0
 40
199.9999999999998
  1
Office
100
AcDbText
  0
TEXT
  5
A5
330
17
100
AcDbEntity
  8
A-AREA-IDEN
100
AcDbText
 10
216249.8162695906
 20
11973.0591026539
 30
0.0
 40
199.9999999999998
  1
5.07
100
AcDbText
  0
TEXT
  5
A6
330
17
100
AcDbEntity
  8
A-AREA-IDEN
100
AcDbText
 10
218895.1150934055
 20
11684.06672495043
 30
0.0
 40
199.9999999999998
  1
Office
100
AcDbText
  0
TEXT
  5
A7
330
17
100
AcDbEntity
  8
A-AREA-IDEN
100
AcDbText
 10
219054.829913256
 20
11973.0591026539
 30
0.0
 40
199.9999999999998
  1
5.09
100
AcDbText
  0
TEXT
  5
A8
330
17
100
AcDbEntity
  8
A-AREA-IDEN
100
AcDbText
 10
221586.5128975037
 20
11711.3699625619
 30
0.0
 40
199.9999999999998
  1
Office
100
AcDbText
  0
TEXT
  5
A9
330
17
100
AcDbEntity
  8
A-AREA-IDEN
100
AcDbText
 10
221746.2277173542
 20
12000.36234026537
 30
0.0
 40
199.9999999999998
  1
5.10
100
AcDbText
  0
TEXT
  5
AA
330
17
100
AcDbEntity
  8
A-AREA-IDEN
100
AcDbText
 10
223325.8656744812
 20
13114.51578270012
 30
0.0
 40
199.9999999999998
  1
4P Tut Niche
100
AcDbText
  0
TEXT
  5
AB
330
17
100
AcDbEntity
  8
A-AREA-IDEN
100
AcDbText
 10
223854.1508546308
 20
13403.50816040358
 30
0.0
 40
199.9999999999998
  1
5Z05
100
AcDbText
  0
TEXT
  5
AC
330
17
100
AcDbEntity
  8
A-AREA-IDEN
100
AcDbText
 10
225752.0299884972
 20
11775.47004008152
 30
0.0
 40
199.9999999999998
  1
Office
100
AcDbText
  0
TEXT
  5
AD
330
17
100
AcDbEntity
  8
A-AREA-IDEN
100
AcDbText
 10
225911.7448083477
 20
12064.46241778498
 30
0.0
 40
199.9999999999998
  1
5.12
100
AcDbText
  0
TEXT
  5
AE
330
17
100
AcDbEntity
  8
A-AREA-IDEN
100
AcDbText
 10
228443.7542788254
 20
11711.3699625619
 30
0.0
 40
199.9999999999998
  1
Office
100
AcDbText
  0
TEXT
  5
AF
330
17
100
AcDbEntity
  8
A-AREA-IDEN
100
AcDbText
 10
228603.4690986759
 20
12000.36234026537
 30
0.0
 40
199.9999999999998
  1
5.13
100
AcDbText
  0
TEXT
  5
B0
330
17
100
AcDbEntity
  8
A-AREA-IDEN
100
AcDbText
 10
227518.4036325834
 20
16881.78382181157
 30
0.0
 40
199.9999999999998
  1
Office
100
AcDbText
  0
TEXT
  5
B1
330
17
100
AcDbEntity
  8
A-AREA-IDEN
100
AcDbText
 10
227678.1184524338
 20
17170.77619951504
 30
0.0
 40
199.9999999999998
  1
5.14
100
AcDbText
  0
TEXT
  5
B2
330
17
100
AcDbEntity
  8
A-AREA-IDEN
100
AcDbText
 10
227591.4445244553
 20
19696.83957814689
 30
0.0
 40
199.9999999999998
  1
Office
100
AcDbText
  0
TEXT
  5
B3
330
17
100
AcDbEntity
  8
A-AREA-IDEN
100
AcDbText
 10
227751.1593443057
 20
19985.83195585036
 30
0.0
 40
199.9999999999998
  1
5.15
100
AcDbText
  0
TEXT
  5
B4
330
17
100
AcDbEntity
  8
A-AREA-IDEN
100
AcDbText
 10
227518.4036325834
 20
22437.31893383316
 30
0.0
 40
199.9999999999998
  1
Office
100
AcDbText
  0
TEXT
  5
B5
330
17
100
AcDbEntity
  8
A-AREA-IDEN
100
AcDbText
 10
227678.1184524338
 20
22726.31131153663
 30
0.0
 40
199.9999999999998
  1
5.16
100
AcDbText
  0
TEXT
  5
B6
330
17
100
AcDbEntity
  8
A-AREA-IDEN
100
AcDbText
 10
227518.4036325834
 20
25033.00228620806
 30
0.0
 40
199.9999999999998
  1
Office
100
AcDbText
  0
TEXT
  5
B7
330
17
100
AcDbEntity
  8
A-AREA-IDEN
100
AcDbText
 10
227678.1184524338
 20
25321.99466391152
 30
0.0
 40
199.9999999999998
  1
5.17
100
AcDbText
  0
TEXT
  5
B8
330
17
100
AcDbEntity
  8
A-AREA-IDEN
100
AcDbText
 10
227526.8332722843
 20
28589.72051579203
 30
0.0
 40
199.9999999999998
  1
4P Tut Niche
100
AcDbText
  0
TEXT
  5
B9
330
17
100
AcDbEntity
  8
A-AREA-IDEN
100
AcDbText
 10
228055.1184524338
 20
28878.71289349549
 30
0.0
 40
199.9999999999998
  1
5Z09
100
AcDbText
  0
TEXT
  5
BA
330
17
100
AcDbEntity
  8
A-AREA-IDEN
100
AcDbText
 10
222161.9291297468
 20
28225.92990173117
 30
0.0
 40
199.9999999999998
  1
2P Soft Seating
100
AcDbText
  0
TEXT
  5
BB
330
17
100
AcDbEntity
  8
A-AREA-IDEN
100
AcDbText
 10
222863.4379672723
 20
28514.92227943463
 30
0.0
 40
199.9999999999998
  1
5Z10
100
AcDbText
  0
TEXT
  5
BC
330
17
100
AcDbEntity
  8
A-AREA-IDEN
100
AcDbText
 10
221228.6333745726
 20
31471.79979357173
 30
0.0
 40
199.9999999999998
  1
Office
100
AcDbText
  0
TEXT
  5
BD
330
17
100
AcDbEntity
  8
A-AREA-IDEN
100
AcDbText
 10
221388.348194423
 20
31760.79217127518
 30
0.0
 40
199.9999999999998
  1
5.23
100
AcDbText
  0
TEXT
  5
BE
330
17
100
AcDbEntity
  8
A-AREA-IDEN
100
AcDbText
 10
223385.812214822
 20
31561.47338322849
 30
0.0
 40
199.9999999999998
  1
Office
100
AcDbText
  0
TEXT
  5
BF
330
17
100
AcDbEntity
  8
A-AREA-IDEN
100
AcDbText
 10
223545.5270346725
 20
31850.46576093195
 30
0.0
 40
199.9999999999998
  1
5.22
100
AcDbText
  0
TEXT
  5
C0
330
17
100
AcDbEntity
  8
A-AREA-IDEN
100
AcDbText
 10
226073.7456712797
 20
31243.55866860364
 30
0.0
 40
199.9999999999998
  1
Office
100
AcDbText
  0
TEXT
  5
C1
330
17
100
AcDbEntity
  8
A-AREA-IDEN
100
AcDbText
 10
226233.4604911302
 20
31532.5510463071
 30
0.0
 40
199.9999999999998
  1
5.21
100
AcDbText
  0
TEXT
  5
C2
330
17
100
AcDbEntity
  8
A-AREA-IDEN
100
AcDbText
 10
228775.3458467652
 20
31561.47338322849
 30
0.0
 40
199.9999999999998
  1
Office
100
AcDbText
  0
TEXT
  5
C3
330
17
100
AcDbEntity
  8
A-AREA-IDEN
100
AcDbText
 10
228935.0606666156
 20
31850.46576093195
 30
0.0
 40
199.9999999999998
  1
5.20
100
AcDbText
  0
TEXT
  5
C4
330
17
100
AcDbEntity
  8
A-AREA-IDEN
100
AcDbText
 10
201145.758257697
 20
9779.671369226387
 30
0.0
 40
199.9999999999998
  1
8P PHD Research
100
AcDbText
  0
TEXT
  5
C5
330
17
100
AcDbEntity
  8
A-AREA-IDEN
100
AcDbText
 10
202039.8547906678
 20
10068.66374692985
 30
0.0
 40
199.9999999999998
  1
5.02
100
AcDbText
  0
TEXT
  5
C6
330
17
100
AcDbEntity
  8
A-AREA-IDEN
100
AcDbText
 10
162783.983850322
 20
12815.07027106563
 30
0.0
 40
199.9999999999998
  1
4P Tut Niche
100
AcDbText
  0
TEXT
  5
C7
330
17
100
AcDbEntity
  8
A-AREA-IDEN
100
AcDbText
 10
163312.2690304715
 20
13104.06264876909
 30
0.0
 40
199.9999999999998
  1
5Z29
100
AcDbText
  0
TEXT
  5
C8
330
17
100
AcDbEntity
  8
A-AREA-IDEN
100
AcDbText
 10
193221.1185487055
 20
24101.76754320025
 30
0.0
 40
199.9999999999998
  1
10P Collab Sp
100
AcDbText
  0
TEXT
  5
C9
330
17
100
AcDbEntity
  8
A-AREA-IDEN
100
AcDbText
 10
193887.8986302827
 20
24390.75992090371
 30
0.0
 40
199.9999999999998
  1
5Z01
100
AcDbText
  0
TEXT
  5
CA
330
17
100
AcDbEntity
  8
A-AREA-IDEN
100
AcDbText
 10
157663.2967987238
 20
30469.19240545685
 30
0.0
 40
199.9999999999998
  1
Office
100
AcDbText
  0
TEXT
  5
CB
330
17
100
AcDbEntity
  8
A-AREA-IDEN
100
AcDbText
 10
157823.0116185742
 20
30758.18478316031
 30
0.0
 40
199.9999999999998
  1
5.53
100
AcDbText
  0
TEXT
  5
CC
330
17
100
AcDbEntity
  8
A-AREA-IDEN
100
AcDbText
 10
163254.0945468427
 20
15598.29155463824
 30
0.0
 40
199.9999999999998
  1
Visiting Staff
100
AcDbText
  0
TEXT
  5
CD
330
17
100
AcDbEntity
  8
A-AREA-IDEN
100
AcDbText
 10
163790.9191559522
 20
15887.2839323417
 30
0.0
 40
199.9999999999998
  1
5.63
100
AcDbText
  0
TEXT
  5
CF
330
17
100
AcDbEntity
  8
GIA
100
AcDbText
 10
329624.1425605196
 20
51928.39313949532
 30
0.0
 40
401.0720291742854
  1
\pxqc;GIA
100
AcDbText
  0
TEXT
  5
D0
330
17
100
AcDbEntity
  8
GIA
100
AcDbText
 10
332747.5693771986
 20
51928.39313949542
 30
0.0
 40
401.0920837784742
  1
\A1;1841.33 m{\H0.7x;\S2^ ;}
100
AcDbText
  0
LWPOLYLINE
  5
D2
330
17
100
AcDbEntity
  8
A-AREA-ROOM
100
AcDbPolyline
 90
4
 70
1
 10
159374.8318821049
 20
13505.61176182813
 10
156862.8318821049
 20
13505.61176182813
 10
156862.8318821049
 20
9369.611761827673
 10
159374.8318821049
 20
9369.611761827673
  0
LWPOLYLINE
  5
D3
330
17
100
AcDbEntity
  8
A-AREA-ROOM
100
AcDbPolyline
 90
4
 70
1
 10
162074.8318821049
 20
13505.61176182813
 10
159497.6822820549
 20
13505.61176182813
 10
159497.6822820549
 20
9385.345905259674
 10
162074.8318821049
 20
9385.345905259674
  0
LWPOLYLINE
  5
D4
330
17
100
AcDbEntity
  8
A-AREA-ROOM
100
AcDbPolyline
 90
4
 70
1
 10
164750.8318821049
 20
13607.6117618281
 10
162176.831882105
 20
13607.6117618281
 10
162176.831882105
 20
9850.111761827655
 10
164750.8318821049
 20
9850.111761827655
  0
LWPOLYLINE
  5
D5
330
17
100
AcDbEntity
  8
A-AREA-ROOM
100
AcDbPolyline
 90
4
 70
1
 10
167498.831882105
 20
13505.6117618281
 10
164852.831882105
 20
13505.6117618281
 10
164852.831882105
 20
9369.611761827658
 10
167498.831882105
 20
9369.611761827658
  0
LWPOLYLINE
  5
D6
330
17
100
AcDbEntity
  8
A-AREA-ROOM
100
AcDbPolyline
 90
4
 70
1
 10
167600.831882105
 20
13505.6117618281
 10
170174.8318821049
 20
13505.6117618281
 10
170174.8318821049
 20
9369.611761827638
 10
167600.831882105
 20
9369.611761827638
  0
LWPOLYLINE
  5
D7
330
17
100
AcDbEntity
  8
A-AREA-ROOM
100
AcDbPolyline
 90
4
 70
1
 10
170276.831882105
 20
13505.6117618281
 10
172898.831882105
 20
13505.6117618281
 10
172898.831882105
 20
9369.61176182763
 10
170276.831882105
 20
9369.61176182763
  0
LWPOLYLINE
  5
D8
330
17
100
AcDbEntity
  8
A-AREA-ROOM
100
AcDbPolyline
 90
4
 70
1
 10
173000.831882105
 20
13505.6117618281
 10
175511.0663087067
 20
13505.6117618281
 10
175511.0663087067
 20
9398.584045471116
 10
173000.831882105
 20
9398.584045471116
  0
LWPOLYLINE
  5
D9
330
17
100
AcDbEntity
  8
A-AREA-ROOM
100
AcDbPolyline
 90
4
 70
1
 10
175676.831882105
 20
13505.6117618281
 10
178211.0663087066
 20
13505.6117618281
 10
178211.0663087066
 20
9405.595883728653
 10
175676.831882105
 20
9405.595883728653
  0
LWPOLYLINE
  5
DA
330
17
100
AcDbEntity
  8
A-AREA-ROOM
100
AcDbPolyline
 90
4
 70
1
 10
178376.8318821049
 20
13505.61176182808
 10
180901.578491457
 20
13505.61176182808
 10
180901.578491457
 20
9392.357743517226
 10
178376.8318821049
 20
9392.357743517226
  0
LWPOLYLINE
  5
DB
330
17
100
AcDbEntity
  8
A-AREA-ROOM
100
AcDbPolyline
 90
4
 70
1
 10
181076.831882105
 20
13505.61176182808
 10
183674.831882105
 20
13505.61176182808
 10
183674.831882105
 20
9369.611761827593
 10
181076.831882105
 20
9369.611761827593
  0
LWPOLYLINE
  5
DC
330
17
100
AcDbEntity
  8
A-AREA-ROOM
100
AcDbPolyline
 90
4
 70
1
 10
183776.831882105
 20
13505.61176182808
 10
189673.5706214648
 20
13505.61176182808
 10
189673.5706214648
 20
9369.611761827557
 10
183776.831882105
 20
9369.611761827557
  0
LWPOLYLINE
  5
DD
330
17
100
AcDbEntity
  8
A-AREA-ROOM
100
AcDbPolyline
 90
4
 70
1
 10
189800.8318821049
 20
13505.61176182798
 10
197770.2339540955
 20
13505.61176182798
 10
197770.2339540955
 20
9369.61176182755
 10
189800.8318821049
 20
9369.61176182755
  0
LWPOLYLINE
  5
DE
330
17
100
AcDbEntity
  8
A-AREA-ROOM
100
AcDbPolyline
 90
4
 70
1
 10
197902.8318821049
 20
13505.61176182796
 10
206548.8318821044
 20
13505.61176182796
 10
206548.8318821044
 20
9369.61176182752
 10
197902.8318821049
 20
9369.61176182752
  0
LWPOLYLINE
  5
DF
330
17
100
AcDbEntity
  8
A-AREA-ROOM
100
AcDbPolyline
 90
4
 70
1
 10
206650.8318821044
 20
13505.61176182794
 10
209280.8318821044
 20
13505.61176182794
 10
209280.8318821044
 20
9369.61176182751
 10
206650.8318821044
 20
9369.61176182751
  0
LWPOLYLINE
  5
E0
330
17
100
AcDbEntity
  8
A-AREA-ROOM
100
AcDbPolyline
 90
4
 70
1
 10
209350.8318821044
 20
13505.61176182794
 10
211907.0663087066
 20
13505.61176182794
 10
211907.0663087066
 20
9435.595883728547
 10
209350.8318821044
 20
9435.595883728547
  0
LWPOLYLINE
  5
E1
330
17
100
AcDbEntity
  8
A-AREA-ROOM
100
AcDbPolyline
 90
4
 70
1
 10
212026.8318821044
 20
13505.61176182794
 10
214567.0663087066
 20
13505.61176182794
 10
214567.0663087066
 20
9375.595883728542
 10
212026.8318821044
 20
9375.595883728542
  0
LWPOLYLINE
  5
E2
330
17
100
AcDbEntity
  8
A-AREA-ROOM
100
AcDbPolyline
 90
4
 70
1
 10
214726.8318821044
 20
13505.61176182794
 10
217283.0663087066
 20
13505.61176182794
 10
217283.0663087066
 20
9435.595883728529
 10
214726.8318821044
 20
9435.595883728529
  0
LWPOLYLINE
  5
E3
330
17
100
AcDbEntity
  8
A-AREA-ROOM
100
AcDbPolyline
 90
4
 70
1
 10
217402.8318821044
 20
13505.61176182794
 10
220056.8318821043
 20
13505.61176182794
 10
220056.8318821043
 20
9369.611761827477
 10
217402.8318821044
 20
9369.611761827477
  0
LWPOLYLINE
  5
E4
330
17
100
AcDbEntity
  8
A-AREA-ROOM
100
AcDbPolyline
 90
4
 70
1
 10
222850.8318821043
 20
13607.61176182794
 10
225424.8318821044
 20
13607.61176182794
 10
225424.8318821044
 20
9850.11176182748
 10
222850.8318821043
 20
9850.11176182748
  0
LWPOLYLINE
  5
E5
330
17
100
AcDbEntity
  8
A-AREA-ROOM
100
AcDbPolyline
 90
4
 70
1
 10
225526.8318821044
 20
13505.61176182793
 10
228108.6587091402
 20
13505.61176182793
 10
228108.6587091402
 20
9398.584045470963
 10
225526.8318821044
 20
9398.584045470963
  0
LWPOLYLINE
  5
E6
330
17
100
AcDbEntity
  8
A-AREA-ROOM
100
AcDbPolyline
 90
4
 70
1
 10
228226.8318821049
 20
13505.61176182793
 10
230738.831882105
 20
13505.61176182793
 10
230738.831882105
 20
9369.611761827462
 10
228226.8318821049
 20
9369.611761827462
  0
LWPOLYLINE
  5
E7
330
17
100
AcDbEntity
  8
A-AREA-ROOM
100
AcDbPolyline
 90
4
 70
1
 10
226452.8318821051
 20
23255.61176182795
 10
230738.831882105
 20
23255.61176182795
 10
230738.831882105
 20
20625.61176182797
 10
226452.8318821051
 20
20625.61176182797
  0
LWPOLYLINE
  5
E8
330
17
100
AcDbEntity
  8
A-AREA-ROOM
100
AcDbPolyline
 90
4
 70
1
 10
226452.8318821051
 20
20555.61176182796
 10
230716.0019015297
 20
20555.61176182796
 10
230716.0019015297
 20
17975.55050819008
 10
226452.8318821051
 20
17975.55050819008
  0
LWPOLYLINE
  5
E9
330
17
100
AcDbEntity
  8
A-AREA-ROOM
100
AcDbPolyline
 90
4
 70
1
 10
226452.8318821051
 20
17855.61176182795
 10
230738.831882105
 20
17855.61176182795
 10
230738.831882105
 20
15188.61176182792
 10
226452.8318821051
 20
15188.61176182792
  0
LWPOLYLINE
  5
EA
330
17
100
AcDbEntity
  8
A-AREA-ROOM
100
AcDbPolyline
 90
4
 70
1
 10
220579.894705394
 20
20876.61176182781
 10
224748.831882105
 20
20876.61176182781
 10
224748.831882105
 20
15209.61176182793
 10
220579.894705394
 20
15209.61176182793
  0
LWPOLYLINE
  5
EB
330
17
100
AcDbEntity
  8
A-AREA-ROOM
100
AcDbPolyline
 90
4
 70
1
 10
216174.831882105
 20
20956.61176182783
 10
220471.3588653451
 20
20956.61176182783
 10
220471.3588653451
 20
15701.32466698519
 10
216174.831882105
 20
15701.32466698519
  0
LWPOLYLINE
  5
EC
330
17
100
AcDbEntity
  8
A-AREA-ROOM
100
AcDbPolyline
 90
4
 70
1
 10
220477.894705394
 20
21058.61176182782
 10
216174.831882105
 20
21058.61176182782
 10
216174.831882105
 20
26805.61176182738
 10
220477.894705394
 20
26805.61176182738
  0
LWPOLYLINE
  5
ED
330
17
100
AcDbEntity
  8
A-AREA-ROOM
100
AcDbPolyline
 90
4
 70
1
 10
220579.894705394
 20
26324.61176189373
 10
224748.8318821051
 20
26324.61176189373
 10
224748.8318821051
 20
20978.6117618278
 10
220579.894705394
 20
20978.6117618278
  0
LWPOLYLINE
  5
EE
330
17
100
AcDbEntity
  8
A-AREA-ROOM
100
AcDbPolyline
 90
4
 70
1
 10
226452.8318821051
 20
25955.61176182796
 10
230716.0019015297
 20
25955.61176182796
 10
230716.0019015297
 20
23375.55050819009
 10
226452.8318821051
 20
23375.55050819009
  0
LWPOLYLINE
  5
EF
330
17
100
AcDbEntity
  8
A-AREA-ROOM
100
AcDbPolyline
 90
4
 70
1
 10
230675.5799968631
 20
29757.61176182759
 10
226420.8318821051
 20
29757.61176182759
 10
226420.8318821051
 20
26057.61176182797
 10
230675.5799968631
 20
26057.61176182797
  0
LWPOLYLINE
  5
F0
330
17
100
AcDbEntity
  8
A-AREA-ROOM
100
AcDbPolyline
 90
4
 70
1
 10
224849.831882105
 20
26427.61176189371
 10
220513.8157624835
 20
26427.61176189371
 10
220513.8157624835
 20
28758.45753348631
 10
224849.831882105
 20
28758.45753348631
  0
LWPOLYLINE
  5
F1
330
17
100
AcDbEntity
  8
A-AREA-ROOM
100
AcDbPolyline
 90
4
 70
1
 10
230738.831882105
 20
34245.61176182757
 10
228183.4273880007
 20
34245.61176182757
 10
228183.4273880007
 20
29859.6117618276
 10
230738.831882105
 20
29859.6117618276
  0
LWPOLYLINE
  5
F2
330
17
100
AcDbEntity
  8
A-AREA-ROOM
100
AcDbPolyline
 90
4
 70
1
 10
228021.4273880007
 20
34171.33174732863
 10
225491.0228938963
 20
34171.33174732863
 10
225491.0228938963
 20
29859.6117618276
 10
228021.4273880007
 20
29859.6117618276
  0
LWPOLYLINE
  5
F3
330
17
100
AcDbEntity
  8
A-AREA-ROOM
100
AcDbPolyline
 90
4
 70
1
 10
222822.6183997919
 20
29859.61176182762
 10
225303.4089308721
 20
29859.61176182762
 10
225303.4089308721
 20
34245.61176198244
 10
222822.6183997919
 20
34245.61176198244
  0
LWPOLYLINE
  5
F4
330
17
100
AcDbEntity
  8
A-AREA-ROOM
100
AcDbPolyline
 90
4
 70
1
 10
222720.6183997919
 20
34245.61176198245
 10
220119.8970061728
 20
34245.61176198245
 10
220119.8970061728
 20
29883.61720332551
 10
222720.6183997919
 20
29883.61720332551
  0
LWPOLYLINE
  5
F5
330
17
100
AcDbEntity
  8
A-AREA-ROOM
100
AcDbPolyline
 90
4
 70
1
 10
216174.831882105
 20
26805.61176182738
 10
200000.831882105
 20
26805.61176182738
 10
200000.831882105
 20
15209.61176182801
 10
216174.831882105
 20
15209.61176182801
  0
LWPOLYLINE
  5
F6
330
17
100
AcDbEntity
  8
A-AREA-ROOM
100
AcDbPolyline
 90
4
 70
1
 10
187570.831882105
 20
26807.61176182766
 10
173056.6919645546
 20
26807.61176182766
 10
173056.6919645546
 20
15209.61176167286
 10
187570.831882105
 20
15209.61176167286
  0
LWPOLYLINE
  5
F7
330
17
100
AcDbEntity
  8
A-AREA-ROOM
100
AcDbPolyline
 90
4
 70
1
 10
204125.4318820374
 20
34245.61176182766
 10
197983.331882105
 20
34245.61176182766
 10
197983.331882105
 20
28809.61176182767
 10
204125.4318820374
 20
28809.61176182767
  0
LWPOLYLINE
  5
F8
330
17
100
AcDbEntity
  8
A-AREA-ROOM
100
AcDbPolyline
 90
4
 70
1
 10
197673.4089315128
 20
34245.61176182768
 10
189500.8318822147
 20
34245.61176182768
 10
189500.8318822147
 20
28507.6117618277
 10
197673.4089315128
 20
28507.6117618277
  0
LWPOLYLINE
  5
F9
330
17
100
AcDbEntity
  8
A-AREA-ROOM
100
AcDbPolyline
 90
4
 70
1
 10
189270.831882105
 20
34245.61176182771
 10
183432.831882105
 20
34245.61176182771
 10
183432.831882105
 20
28509.61176182772
 10
189270.831882105
 20
28509.61176182772
  0
LWPOLYLINE
  5
FA
330
17
100
AcDbEntity
  8
A-AREA-ROOM
100
AcDbPolyline
 90
4
 70
1
 10
222748.8318821043
 20
13505.61176182794
 10
220171.0050550685
 20
13505.61176182794
 10
220171.0050550685
 20
9398.584045470974
 10
222748.8318821043
 20
9398.584045470974
  0
LWPOLYLINE
  5
FB
330
17
100
AcDbEntity
  8
A-AREA-ROOM
100
AcDbPolyline
 90
4
 70
1
 10
167502.4498584124
 20
34245.61176182778
 10
164998.831882105
 20
34245.61176182778
 10
164998.831882105
 20
29859.61176182778
 10
167502.4498584124
 20
29859.61176182778
  0
LWPOLYLINE
  5
FC
330
17
100
AcDbEntity
  8
A-AREA-ROOM
100
AcDbPolyline
 90
4
 70
1
 10
164732.8170242566
 20
34111.19008562112
 10
162164.831882105
 20
34111.19008562112
 10
162164.831882105
 20
29859.6117618278
 10
164732.8170242566
 20
29859.6117618278
  0
LWPOLYLINE
  5
FD
330
17
100
AcDbEntity
  8
A-AREA-ROOM
100
AcDbPolyline
 90
4
 70
1
 10
159617.3548686855
 20
29859.6117618278
 10
161973.4089322429
 20
29859.6117618278
 10
161973.4089322429
 20
34245.61176179075
 10
159617.3548686855
 20
34245.61176179075
  0
LWPOLYLINE
  5
FE
330
17
100
AcDbEntity
  8
A-AREA-ROOM
100
AcDbPolyline
 90
4
 70
1
 10
159390.8318821054
 20
34176.19197969536
 10
156862.831882105
 20
34176.19197969536
 10
156862.831882105
 20
29859.61176182781
 10
159390.8318821054
 20
29859.61176182781
  0
LWPOLYLINE
  5
FF
330
17
100
AcDbEntity
  8
A-AREA-ROOM
100
AcDbPolyline
 90
4
 70
1
 10
161148.831882105
 20
26057.61176182819
 10
156890.5987674552
 20
26057.61176182819
 10
156890.5987674552
 20
29600.32888411755
 10
161148.831882105
 20
29600.32888411755
  0
LWPOLYLINE
  5
100
330
17
100
AcDbEntity
  8
A-AREA-ROOM
100
AcDbPolyline
 90
4
 70
1
 10
162750.831882105
 20
26905.41176176209
 10
166546.2086229533
 20
26905.41176176209
 10
166546.2086229533
 20
28899.54318383854
 10
162750.831882105
 20
28899.54318383854
  0
LWPOLYLINE
  5
101
330
17
100
AcDbEntity
  8
A-AREA-ROOM
100
AcDbPolyline
 90
4
 70
1
 10
156891.2723803581
 20
25942.24068831024
 10
161017.6669815579
 20
25942.24068831024
 10
161017.6669815579
 20
23385.54006427437
 10
156891.2723803581
 20
23385.54006427437
  0
LWPOLYLINE
  5
102
330
17
100
AcDbEntity
  8
A-AREA-ROOM
100
AcDbPolyline
 90
4
 70
1
 10
156891.2723803581
 20
23242.24068831023
 10
161148.831882105
 20
23242.24068831023
 10
161148.831882105
 20
20657.61176182818
 10
156891.2723803581
 20
20657.61176182818
  0
LWPOLYLINE
  5
103
330
17
100
AcDbEntity
  8
A-AREA-ROOM
100
AcDbPolyline
 90
4
 70
1
 10
188291.3957126695
 20
27620.08874737768
 10
195694.3023839688
 20
27620.08874737768
 10
195694.3023839688
 20
23590.79561658815
 10
188291.3957126695
 20
23590.79561658815
  0
LWPOLYLINE
  5
104
330
17
100
AcDbEntity
  8
A-AREA-ROOM
100
AcDbPolyline
 90
4
 70
1
 10
156862.8318821048
 20
20555.6117618282
 10
161148.831882105
 20
20555.6117618282
 10
161148.831882105
 20
18075.11176182817
 10
156862.8318821048
 20
18075.11176182817
  0
LWPOLYLINE
  5
105
330
17
100
AcDbEntity
  8
A-AREA-ROOM
100
AcDbPolyline
 90
4
 70
1
 10
161148.831882105
 20
17855.61176182819
 10
156862.8318821049
 20
17855.61176182819
 10
156862.8318821049
 20
15209.61176167283
 10
161148.831882105
 20
15209.61176167283
  0
LWPOLYLINE
  5
106
330
17
100
AcDbEntity
  8
A-AREA-ROOM
100
AcDbPolyline
 90
4
 70
1
 10
162852.831882105
 20
20657.61176182782
 10
167332.831882105
 20
20657.61176182782
 10
167332.831882105
 20
15209.61176182816
 10
162852.831882105
 20
15209.61176182816
  0
LWPOLYLINE
  5
107
330
17
100
AcDbEntity
  8
A-AREA-ROOM
100
AcDbPolyline
 90
4
 70
1
 10
172817.1919645546
 20
20657.61176182782
 10
167434.8318821049
 20
20657.61176182782
 10
167434.8318821049
 20
16059.61176167287
 10
172817.1919645546
 20
16059.61176167287
  0
LWPOLYLINE
  5
108
330
17
100
AcDbEntity
  8
A-AREA-ROOM
100
AcDbPolyline
 90
4
 70
1
 10
169466.4498585223
 20
26805.41176176205
 10
172817.1919645546
 20
26805.41176176205
 10
172817.1919645546
 20
20759.61176182781
 10
169466.4498585223
 20
20759.61176182781
  0
LWPOLYLINE
  5
109
330
17
100
AcDbEntity
  8
A-AREA-ROOM
100
AcDbPolyline
 90
4
 70
1
 10
169315.4498585223
 20
26804.41176176205
 10
166503.831882105
 20
26804.41176176205
 10
166503.831882105
 20
20840.3888498009
 10
169315.4498585223
 20
20840.3888498009
  0
LWPOLYLINE
  5
10A
330
17
100
AcDbEntity
  8
A-AREA-ROOM
100
AcDbPolyline
 90
4
 70
1
 10
162852.831882105
 20
26803.41176176209
 10
166328.831882105
 20
26803.41176176209
 10
166328.831882105
 20
24257.61176182778
 10
162852.831882105
 20
24257.61176182778
  0
LWPOLYLINE
  5
10B
330
17
100
AcDbEntity
  8
A-AREA-ROOM
100
AcDbPolyline
 90
4
 70
1
 10
166328.831882105
 20
24155.61176182777
 10
162852.831882105
 20
24155.61176182777
 10
162852.831882105
 20
20899.11176182781
 10
166328.831882105
 20
20899.11176182781
  0
ENDSEC
  0
SECTION
  2
OBJECTS
  0
DICTIONARY
  5
A
330
0
100
AcDbDictionary
281
1
  3
ACAD_COLOR
350
B
  3
ACAD_GROUP
350
C
  3
ACAD_LAYOUT
350
D
  3
ACAD_MATERIAL
350
E
  3
ACAD_MLEADERSTYLE
350
F
  3
ACAD_MLINESTYLE
350
10
  3
ACAD_PLOTSETTINGS
350
11
  3
ACAD_PLOTSTYLENAME
350
12
  3
ACAD_SCALELIST
350
14
  3
ACAD_TABLESTYLE
350
15
  3
ACAD_VISUALSTYLE
350
16
  3
EZDXF_META
350
2D
  0
DICTIONARY
  5
B
330
A
100
AcDbDictionary
281
1
  0
DICTIONARY
  5
C
330
A
100
AcDbDictionary
281
1
  0
DICTIONARY
  5
D
330
A
100
AcDbDictionary
281
1
  3
Model
350
1A
  3
Layout1
350
1E
  0
DICTIONARY
  5
E
330
A
100
AcDbDictionary
281
1
  3
ByBlock
350
1F
  3
ByLayer
350
20
  3
Global
350
21
  0
DICTIONARY
  5
F
330
A
100
AcDbDictionary
281
1
  3
Standard
350
2C
  0
DICTIONARY
  5
10
330
A
100
AcDbDictionary
281
1
  3
Standard
350
22
  0
DICTIONARY
  5
11
330
A
100
AcDbDictionary
281
1
  0
ACDBDICTIONARYWDFLT
  5
12
330
A
100
AcDbDictionary
281
1
  3
Normal
350
13
100
AcDbDictionaryWithDefault
340
13
  0
ACDBPLACEHOLDER
  5
13
330
12
  0
DICTIONARY
  5
14
330
A
100
AcDbDictionary
281
1
  0
DICTIONARY
  5
15
330
A
100
AcDbDictionary
281
1
  0
DICTIONARY
  5
16
330
A
100
AcDbDictionary
281
1
  0
LAYOUT
  5
1A
330
D
100
AcDbPlotSettings
  1

  4
A3
  6

 40
7.5
 41
20.0
 42
7.5
 43
20.0
 44
420.0
 45
297.0
 46
0.0
 47
0.0
 48
0.0
 49
0.0
140
0.0
141
0.0
142
1.0
143
1.0
 70
1024
 72
1
 73
0
 74
5
  7

 75
16
 76
0
 77
2
 78
300
147
1.0
148
0.0
149
0.0
100
AcDbLayout
  1
Model
 70
1
 71
0
 10
0.0
 20
0.0
 11
420.0
 21
297.0
 12
0.0
 22
0.0
 32
0.0
 14
1e+20
 24
1e+20
 34
1e+20
 15
-1e+20
 25
-1e+20
 35
-1e+20
146
0.0
 13
0.0
 23
0.0
 33
0.0
 16
1.0
 26
0.0
 36
0.0
 17
0.0
 27
1.0
 37
0.0
 76
1
330
17
  0
LAYOUT
  5
1E
330
D
100
AcDbPlotSettings
  1

  4
A3
  6

 40
7.5
 41
20.0
 42
7.5
 43
20.0
 44
420.0
 45
297.0
 46
0.0
 47
0.0
 48
0.0
 49
0.0
140
0.0
141
0.0
142
1.0
143
1.0
 70
0
 72
1
 73
0
 74
5
  7

 75
16
 76
0
 77
2
 78
300
147
1.0
148
0.0
149
0.0
100
AcDbLayout
  1
Layout1
 70
1
 71
1
 10
0.0
 20
0.0
 11
420.0
 21
297.0
 12
0.0
 22
0.0
 32
0.0
 14
1e+20
 24
1e+20
 34
1e+20
 15
-1e+20
 25
-1e+20
 35
-1e+20
146
0.0
 13
0.0
 23
0.0
 33
0.0
 16
1.0
 26
0.0
 36
0.0
 17
0.0
 27
1.0
 37
0.0
 76
1
330
1B
  0
MATERIAL
  5
1F
102
{ACAD_REACTORS
330
E
102
}
330
E
100
AcDbMaterial
  1
ByBlock
  2

 70
0
 40
1.0
 71
1
 41
1.0
 91
-1023410177
 42
1.0
 72
1
  3

 73
1
 74
1
 75
1
 44
0.5
 73
0
 45
1.0
 46
1.0
 77
1
  4

 78
1
 79
1
170
1
 48
1.0
171
1
  6

172
1
173
1
174
1
140
1.0
141
1.0
175
1
  7

176
1
177
1
178
1
143
1.0
179
1
  8

270
1
271
1
272
1
145
1.0
146
1.0
273
1
  9

274
1
275
1
276
1
 42
1.0
 72
1
  3

 73
1
 74
1
 75
1
 94
63
  0
MATERIAL
  5
20
102
{ACAD_REACTORS
330
E
102
}
330
E
100
AcDbMaterial
  1
ByLayer
  2

 70
0
 40
1.0
 71
1
 41
1.0
 91
-1023410177
 42
1.0
 72
1
  3

 73
1
 74
1
 75
1
 44
0.5
 73
0
 45
1.0
 46
1.0
 77
1
  4

 78
1
 79
1
170
1
 48
1.0
171
1
  6

172
1
173
1
174
1
140
1.0
141
1.0
175
1
  7

176
1
177
1
178
1
143
1.0
179
1
  8

270
1
271
1
272
1
145
1.0
146
1.0
273
1
  9

274
1
275
1
276
1
 42
1.0
 72
1
  3

 73
1
 74
1
 75
1
 94
63
  0
MATERIAL
  5
21
102
{ACAD_REACTORS
330
E
102
}
330
E
100
AcDbMaterial
  1
Global
  2

 70
0
 40
1.0
 71
1
 41
1.0
 91
-1023410177
 42
1.0
 72
1
  3

 73
1
 74
1
 75
1
 44
0.5
 73
0
 45
1.0
 46
1.0
 77
1
  4

 78
1
 79
1
170
1
 48
1.0
171
1
  6

172
1
173
1
174
1
140
1.0
141
1.0
175
1
  7

176
1
177
1
178
1
143
1.0
179
1
  8

270
1
271
1
272
1
145
1.0
146
1.0
273
1
  9

274
1
275
1
276
1
 42
1.0
 72
1
  3

 73
1
 74
1
 75
1
 94
63
  0
MLINESTYLE
  5
22
102
{ACAD_REACTORS
330
10
102
}
330
10
100
AcDbMlineStyle
  2
Standard
 70
0
  3

 62
256
 51
90.0
 52
90.0
 71
2
 49
0.5
 62
256
  6
BYLAYER
 49
-0.5
 62
256
  6
BYLAYER
  0
MLEADERSTYLE
  5
2C
102
{ACAD_REACTORS
330
F
102
}
330
F
100
AcDbMLeaderStyle
179
2
170
2
171
1
172
0
 90
2
 40
0.0
 41
0.0
173
1
 91
-1056964608
 92
-2
290
1
 42
2.0
291
1
 43
8.0
  3
Standard
 44
4.0
300

342
29
174
1
175
1
176
0
178
1
 93
-1056964608
 45
4.0
292
0
297
0
 46
4.0
 94
-1056964608
 47
1.0
 49
1.0
140
1.0
294
1
141
0.0
177
0
142
1.0
295
0
296
0
143
3.75
271
0
272
9
273
9
  0
DICTIONARY
  5
2D
330
A
100
AcDbDictionary
280
1
281
1
  3
CREATED_BY_EZDXF
350
2E
  3
WRITTEN_BY_EZDXF
350
10E
  0
DICTIONARYVAR
  5
2E
330
2D
100
DictionaryVariables
280
0
  1
1.4.3 @ 2026-08-20T22:41:53.219681+00:00
  0
DICTIONARYVAR
  5
10E
330
2D
100
DictionaryVariables
280
0
  1
1.4.3 @ 2026-08-20T22:41:53.643036+00:00
  0
ENDSEC
  0
EOF
