  0
SECTION
  2
HEADER
  9
$ACADVER
  1
AC1032
  9
$ACADMAINTVER
 90
4
  9
$DWGCODEPAGE
  3
ANSI_1252
  9
$LASTSAVEDBY
  1
ezdxf
  9
$REQUIREDVERSIONS
160
0
  9
$INSBASE
 10
0.0
 20
0.0
 30
0.0
  9
$EXTMIN
 10
1e+20
 20
1e+20
 30
1e+20
  9
$EXTMAX
 10
-1e+20
 20
-1e+20
 30
-1e+20
  9
$LIMMIN
 10
0.0
 20
0.0
  9
$LIMMAX
 10
420.0
 20
297.0
  9
$ORTHOMODE
 70
0
  9
$REGENMODE
 70
1
  9
$FILLMODE
 70
1
  9
$QTEXTMODE
 70
0
  9
$MIRRTEXT
 70
1
  9
$LTSCALE
 40
1.0
  9
$ATTMODE
 70
1
  9
$TEXTSIZE
 40
2.5
  9
$TRACEWID
 40
1.0
  9
$TEXTSTYLE
  7
Standard
  9
$CLAYER
  8
0
  9
$CELTYPE
  6
ByLayer
  9
$CECOLOR
 62
256
  9
$CELTSCALE
 40
1.0
  9
$DISPSILH
 70
0
  9
$DIMSCALE
 40
1.0
  9
$DIMASZ
 40
2.5
  9
$DIMEXO
 40
0.625
  9
$DIMDLI
 40
3.75
  9
$DIMRND
 40
0.0
  9
$DIMDLE
 40
0.0
  9
$DIMEXE
 40
1.25
  9
$DIMTP
 40
0.0
  9
$DIMTM
 40
0.0
  9
$DIMTXT
 40
2.5
  9
$DIMCEN
 40
2.5
  9
$DIMTSZ
 40
0.0
  9
$DIMTOL
 70
0
  9
$DIMLIM
 70
0
  9
$DIMTIH
 70
0
  9
$DIMTOH
 70
0
  9
$DIMSE1
 70
0
  9
$DIMSE2
 70
0
  9
$DIMTAD
 70
1
  9
$DIMZIN
 70
8
  9
$DIMBLK
  1

  9
$DIMASO
 70
1
  9
$DIMSHO
 70
1
  9
$DIMPOST
  1

  9
$DIMAPOST
  1

  9
$DIMALT
 70
0
  9
$DIMALTD
 70
3
  9
$DIMALTF
 40
0.03937007874
  9
$DIMLFAC
 40
1.0
  9
$DIMTOFL
 70
1
  9
$DIMTVP
 40
0.0
  9
$DIMTIX
 70
0
  9
$DIMSOXD
 70
0
  9
$DIMSAH
 70
0
  9
$DIMBLK1
  1

  9
$DIMBLK2
  1

  9
$DIMSTYLE
  2
ISO-25
  9
$DIMCLRD
 70
0
  9
$DIMCLRE
 70
0
  9
$DIMCLRT
 70
0
  9
$DIMTFAC
 40
1.0
  9
$DIMGAP
 40
0.625
  9
$DIMJUST
 70
0
  9
$DIMSD1
 70
0
  9
$DIMSD2
 70
0
  9
$DIMTOLJ
 70
0
  9
$DIMTZIN
 70
8
  9
$DIMALTZ
 70
0
  9
$DIMALTTZ
 70
0
  9
$DIMUPT
 70
0
  9
$DIMDEC
 70
2
  9
$DIMTDEC
 70
2
  9
$DIMALTU
 70
2
  9
$DIMALTTD
 70
3
  9
$DIMTXSTY
  7
Standard
  9
$DIMAUNIT
 70
0
  9
$DIMADEC
 70
0
  9
$DIMALTRND
 40
0.0
  9
$DIMAZIN
 70
0
  9
$DIMDSEP
 70
44
  9
$DIMATFIT
 70
3
  9
$DIMFRAC
 70
0
  9
$DIMLDRBLK
  1

  9
$DIMLUNIT
 70
2
  9
$DIMLWD
 70
-2
  9
$DIMLWE
 70
-2
  9
$DIMTMOVE
 70
0
  9
$DIMFXL
 40
1.0
  9
$DIMFXLON
 70
0
  9
$DIMJOGANG
 40
0.785398163397
  9
$DIMTFILL
 70
0
  9
$DIMTFILLCLR
 70
0
  9
$DIMARCSYM
 70
0
  9
$DIMLTYPE
  6

  9
$DIMLTEX1
  6

  9
$DIMLTEX2
  6

  9
$DIMTXTDIRECTION
 70
0
  9
$LUNITS
 70
2
  9
$LUPREC
 70
4
  9
$SKETCHINC
 40
1.0
  9
$FILLETRAD
 40
10.0
  9
$AUNITS
 70
0
  9
$AUPREC
 70
2
  9
$MENU
  1
.
  9
$ELEVATION
 40
0.0
  9
$PELEVATION
 40
0.0
  9
$THICKNESS
 40
0.0
  9
$LIMCHECK
 70
0
  9
$CHAMFERA
 40
0.0
  9
$CHAMFERB
 40
0.0
  9
$CHAMFERC
 40
0.0
  9
$CHAMFERD
 40
0.0
  9
$SKPOLY
 70
0
  9
$TDCREATE
 40
2461273.9870949076
  9
$TDUCREATE
 40
2458532.153996898
  9
$TDUPDATE
 40
2461273.9870949076
  9
$TDUUPDATE
 40
2458532.1544311
  9
$TDINDWG
 40
0.0
  9
$TDUSRTIMER
 40
0.0
  9
$USRTIMER
 70
1
  9
$ANGBASE
 50
0.0
  9
$ANGDIR
 70
0
  9
$PDMODE
 70
0
  9
$PDSIZE
 40
0.0
  9
$PLINEWID
 40
0.0
  9
$SPLFRAME
 70
0
  9
$SPLINETYPE
 70
6
  9
$SPLINESEGS
 70
8
  9
$HANDSEED
  5
12C
  9
$SURFTAB1
 70
6
  9
$SURFTAB2
 70
6
  9
$SURFTYPE
 70
6
  9
$SURFU
 70
6
  9
$SURFV
 70
6
  9
$UCSBASE
  2

  9
$UCSNAME
  2

  9
$UCSORG
 10
0.0
 20
0.0
 30
0.0
  9
$UCSXDIR
 10
1.0
 20
0.0
 30
0.0
  9
$UCSYDIR
 10
0.0
 20
1.0
 30
0.0
  9
$UCSORTHOREF
  2

  9
$UCSORTHOVIEW
 70
0
  9
$UCSORGTOP
 10
0.0
 20
0.0
 30
0.0
  9
$UCSORGBOTTOM
 10
0.0
 20
0.0
 30
0.0
  9
$UCSORGLEFT
 10
0.0
 20
0.0
 30
0.0
  9
$UCSORGRIGHT
 10
0.0
 20
0.0
 30
0.0
  9
$UCSORGFRONT
 10
0.0
 20
0.0
 30
0.0
  9
$UCSORGBACK
 10
0.0
 20
0.0
 30
0.0
  9
$PUCSBASE
  2

  9
$PUCSNAME
  2

  9
$PUCSORG
 10
0.0
 20
0.0
 30
0.0
  9
$PUCSXDIR
 10
1.0
 20
0.0
 30
0.0
  9
$PUCSYDIR
 10
0.0
 20
1.0
 30
0.0
  9
$PUCSORTHOREF
  2

  9
$PUCSORTHOVIEW
 70
0
  9
$PUCSORGTOP
 10
0.0
 20
0.0
 30
0.0
  9
$PUCSORGBOTTOM
 10
0.0
 20
0.0
 30
0.0
  9
$PUCSORGLEFT
 10
0.0
 20
0.0
 30
0.0
  9
$PUCSORGRIGHT
 10
0.0
 20
0.0
 30
0.0
  9
$PUCSORGFRONT
 10
0.0
 20
0.0
 30
0.0
  9
$PUCSORGBACK
 10
0.0
 20
0.0
 30
0.0
  9
$USERI1
 70
0
  9
$USERI2
 70
0
  9
$USERI3
 70
0
  9
$USERI4
 70
0
  9
$USERI5
 70
0
  9
$USERR1
 40
0.0
  9
$USERR2
 40
0.0
  9
$USERR3
 40
0.0
  9
$USERR4
 40
0.0
  9
$USERR5
 40
0.0
  9
$WORLDVIEW
 70
1
  9
$SHADEDGE
 70
3
  9
$SHADEDIF
 70
70
  9
$TILEMODE
 70
1
  9
$MAXACTVP
 70
64
  9
$PINSBASE
 10
0.0
 20
0.0
 30
0.0
  9
$PLIMCHECK
 70
0
  9
$PEXTMIN
 10
1e+20
 20
1e+20
 30
1e+20
  9
$PEXTMAX
 10
-1e+20
 20
-1e+20
 30
-1e+20
  9
$PLIMMIN
 10
0.0
 20
0.0
  9
$PLIMMAX
 10
420.0
 20
297.0
  9
$UNITMODE
 70
0
  9
$VISRETAIN
 70
1
  9
$PLINEGEN
 70
0
  9
$PSLTSCALE
 70
1
  9
$TREEDEPTH
 70
3020
  9
$CMLSTYLE
  2
Standard
  9
$CMLJUST
 70
0
  9
$CMLSCALE
 40
20.0
  9
$PROXYGRAPHICS
 70
1
  9
$MEASUREMENT
 70
1
  9
$CELWEIGHT
370
-1
  9
$ENDCAPS
280
0
  9
$JOINSTYLE
280
0
  9
$LWDISPLAY
290
0
  9
$INSUNITS
 70
4
  9
$HYPERLINKBASE
  1

  9
$STYLESHEET
  1

  9
$XEDIT
290
1
  9
$CEPSNTYPE
380
0
  9
$PSTYLEMODE
290
1
  9
$FINGERPRINTGUID
  2
{5F8901A4-27CD-41FC-AB4A-7D5F046A2E4F}
  9
$VERSIONGUID
  2
{69D0AC58-4111-4153-AD0E-600D0168B5C6}
  9
$EXTNAMES
290
1
  9
$PSVPSCALE
 40
0.0
  9
$OLESTARTUP
290
0
  9
$SORTENTS
280
127
  9
$INDEXCTL
280
0
  9
$HIDETEXT
280
1
  9
$XCLIPFRAME
280
1
  9
$HALOGAP
280
0
  9
$OBSCOLOR
 70
257
  9
$OBSLTYPE
280
0
  9
$INTERSECTIONDISPLAY
280
0
  9
$INTERSECTIONCOLOR
 70
257
  9
$DIMASSOC
280
2
  9
$PROJECTNAME
  1

  9
$CAMERADISPLAY
290
0
  9
$LENSLENGTH
 40
50.0
  9
$CAMERAHEIGHT
 40
0.0
  9
$STEPSPERSEC
 40
24.0
  9
$STEPSIZE
 40
100.0
  9
$3DDWFPREC
 40
2.0
  9
$PSOLWIDTH
 40
0.005
  9
$PSOLHEIGHT
 40
0.08
  9
$LOFTANG1
 40
1.570796326795
  9
$LOFTANG2
 40
1.570796326795
  9
$LOFTMAG1
 40
0.0
  9
$LOFTMAG2
 40
0.0
  9
$LOFTPARAM
 70
7
  9
$LOFTNORMALS
280
1
  9
$LATITUDE
 40
37.795
  9
$LONGITUDE
 40
-122.394
  9
$NORTHDIRECTION
 40
0.0
  9
$TIMEZONE
 70
-8000
  9
$LIGHTGLYPHDISPLAY
280
1
  9
$TILEMODELIGHTSYNCH
280
1
  9
$CMATERIAL
347
20
  9
$SOLIDHIST
280
0
  9
$SHOWHIST
280
1
  9
$DWFFRAME
280
2
  9
$DGNFRAME
280
2
  9
$REALWORLDSCALE
290
1
  9
$INTERFERECOLOR
 62
256
  9
$CSHADOW
280
0
  9
$SHADOWPLANELOCATION
 40
0.0
  0
ENDSEC
  0
SECTION
  2
CLASSES
  0
CLASS
  1
ACDBDICTIONARYWDFLT
  2
AcDbDictionaryWithDefault
  3
ObjectDBX Classes
 90
0
 91
0
280
0
281
0
  0
CLASS
  1
SUN
  2
AcDbSun
  3
SCENEOE
 90
1153
 91
0
280
0
281
0
  0
CLASS
  1
VISUALSTYLE
  2
AcDbVisualStyle
  3
ObjectDBX Classes
 90
4095
 91
0
280
0
281
0
  0
CLASS
  1
MATERIAL
  2
AcDbMaterial
  3
ObjectDBX Classes
 90
1153
 91
0
280
0
281
0
  0
CLASS
  1
SCALE
  2
AcDbScale
  3
ObjectDBX Classes
 90
1153
 91
0
280
0
281
0
  0
CLASS
  1
TABLESTYLE
  2
AcDbTableStyle
  3
ObjectDBX Classes
 90
4095
 91
0
280
0
281
0
  0
CLASS
  1
MLEADERSTYLE
  2
AcDbMLeaderStyle
  3
ACDB_MLEADERSTYLE_CLASS
 90
4095
 91
0
280
0
281
0
  0
CLASS
  1
DICTIONARYVAR
  2
AcDbDictionaryVar
  3
ObjectDBX Classes
 90
0
 91
0
280
0
281
0
  0
CLASS
  1
CELLSTYLEMAP
  2
AcDbCellStyleMap
  3
ObjectDBX Classes
 90
1152
 91
0
280
0
281
0
  0
CLASS
  1
MENTALRAYRENDERSETTINGS
  2
AcDbMentalRayRenderSettings
  3
SCENEOE
 90
1024
 91
0
280
0
281
0
  0
CLASS
  1
ACDBDETAILVIEWSTYLE
  2
AcDbDetailViewStyle
  3
ObjectDBX Classes
 90
1025
 91
0
280
0
281
0
  0
CLASS
  1
ACDBSECTIONVIEWSTYLE
  2
AcDbSectionViewStyle
  3
ObjectDBX Classes
 90
1025
 91
0
280
0
281
0
  0
CLASS
  1
RASTERVARIABLES
  2
AcDbRasterVariables
  3
ISM
 90
0
 91
0
280
0
281
0
  0
CLASS
  1
LAYOUT
  2
AcDbLayout
  3
ObjectDBX Classes
 90
0
 91
0
280
0
281
0
  0
CLASS
  1
ACDBPLACEHOLDER
  2
AcDbPlaceHolder
  3
ObjectDBX Classes
 90
0
 91
0
280
0
281
0
  0
ENDSEC
  0
SECTION
  2
TABLES
  0
TABLE
  2
VPORT
  5
8
330
0
100
AcDbSymbolTable
 70
1
  0
VPORT
  5
23
330
8
100
AcDbSymbolTableRecord
100
AcDbViewportTableRecord
  2
*Active
 70
0
 10
0.0
 20
0.0
 11
1.0
 21
1.0
 12
0.0
 22
0.0
 13
0.0
 23
0.0
 14
0.5
 24
0.5
 15
0.5
 25
0.5
 16
0.0
 26
0.0
 36
1.0
 17
0.0
 27
0.0
 37
0.0
 40
1000.0
 41
1.34
 42
50.0
 43
0.0
 44
0.0
 50
0.0
 51
0.0
 71
0
 72
1000
 73
1
 74
3
 75
0
 76
0
 77
0
 78
0
281
0
 65
0
146
0.0
  0
ENDTAB
  0
TABLE
  2
LTYPE
  5
2
330
0
100
AcDbSymbolTable
 70
3
  0
LTYPE
  5
24
330
2
100
AcDbSymbolTableRecord
100
AcDbLinetypeTableRecord
  2
ByBlock
 70
0
  3

 72
65
 73
0
 40
0.0
  0
LTYPE
  5
25
330
2
100
AcDbSymbolTableRecord
100
AcDbLinetypeTableRecord
  2
ByLayer
 70
0
  3

 72
65
 73
0
 40
0.0
  0
LTYPE
  5
26
330
2
100
AcDbSymbolTableRecord
100
AcDbLinetypeTableRecord
  2
Continuous
 70
0
  3

 72
65
 73
0
 40
0.0
  0
ENDTAB
  0
TABLE
  2
LAYER
  5
1
330
0
100
AcDbSymbolTable
 70
14
  0
LAYER
  5
27
330
1
100
AcDbSymbolTableRecord
100
AcDbLayerTableRecord
  2
0
 70
0
 62
7
  6
Continuous
370
-3
390
13
347
21
  0
LAYER
  5
28
330
1
100
AcDbSymbolTableRecord
100
AcDbLayerTableRecord
  2
Defpoints
 70
0
 62
7
  6
Continuous
290
0
370
-3
390
13
347
21
  0
LAYER
  5
2F
330
1
100
AcDbSymbolTableRecord
100
AcDbLayerTableRecord
  2
ROOM_NAMES
 70
0
 62
7
  6
Continuous
370
-3
390
13
347
21
  0
LAYER
  5
45
330
1
100
AcDbSymbolTableRecord
100
AcDbLayerTableRecord
  2
BENCH
 70
0
 62
7
  6
Continuous
370
-3
390
13
347
21
  0
LAYER
  5
4A
330
1
100
AcDbSymbolTableRecord
100
AcDbLayerTableRecord
  2
PRSNAMES
 70
0
 62
7
  6
Continuous
370
-3
390
13
347
21
  0
LAYER
  5
4E
330
1
100
AcDbSymbolTableRecord
100
AcDbLayerTableRecord
  2
4THFL
 70
0
 62
7
  6
Continuous
370
-3
390
13
347
21
  0
LAYER
  5
50
330
1
100
AcDbSymbolTableRecord
100
AcDbLayerTableRecord
  2
FALARM
 70
0
 62
7
  6
Continuous
370
-3
390
13
347
21
  0
LAYER
  5
5A
330
1
100
AcDbSymbolTableRecord
100
AcDbLayerTableRecord
  2
GIA
 70
0
 62
7
  6
Continuous
370
-3
390
13
347
21
  0
LAYER
  5
5D
330
1
100
AcDbSymbolTableRecord
100
AcDbLayerTableRecord
  2
WASTE & RECYCLING STATIONS
 70
0
 62
7
  6
Continuous
370
-3
390
13
347
21
  0
LAYER
  5
63
330
1
100
AcDbSymbolTableRecord
100
AcDbLayerTableRecord
  2
A-ANNO-DIMS
 70
0
 62
7
  6
Continuous
370
-3
390
13
347
21
  0
LAYER
  5
66
330
1
100
AcDbSymbolTableRecord
100
AcDbLayerTableRecord
  2
BUILDING_ACCESS
 70
0
 62
7
  6
Continuous
370
-3
390
13
347
21
  0
LAYER
  5
71
330
1
100
AcDbSymbolTableRecord
100
AcDbLayerTableRecord
  2
A-AREA-IDEN
 70
0
 62
7
  6
Continuous
370
-3
390
13
347
21
  0
LAYER
  5
ED
330
1
100
AcDbSymbolTableRecord
100
AcDbLayerTableRecord
  2
A-DOOR-IDEN
 70
0
 62
7
  6
Continuous
370
-3
390
13
347
21
  0
LAYER
  5
EF
330
1
100
AcDbSymbolTableRecord
100
AcDbLayerTableRecord
  2
A-AREA-ROOM
 70
0
 62
7
  6
Continuous
370
-3
390
13
347
21
  0
ENDTAB
  0
TABLE
  2
STYLE
  5
5
330
0
100
AcDbSymbolTable
 70
1
  0
STYLE
  5
29
330
5
100
AcDbSymbolTableRecord
100
AcDbTextStyleTableRecord
  2
Standard
 70
0
 40
0.0
 41
1.0
 50
0.0
 71
0
 42
2.5
  3
txt
  4

  0
ENDTAB
  0
TABLE
  2
VIEW
  5
7
330
0
100
AcDbSymbolTable
 70
0
  0
ENDTAB
  0
TABLE
  2
UCS
  5
6
330
0
100
AcDbSymbolTable
 70
0
  0
ENDTAB
  0
TABLE
  2
APPID
  5
3
330
0
100
AcDbSymbolTable
 70
3
  0
APPID
  5
2A
330
3
100
AcDbSymbolTableRecord
100
AcDbRegAppTableRecord
  2
ACAD
 70
0
  0
APPID
  5
129
330
3
100
AcDbSymbolTableRecord
100
AcDbRegAppTableRecord
  2
HATCHBACKGROUNDCOLOR
 70
0
  0
APPID
  5
12A
330
3
100
AcDbSymbolTableRecord
100
AcDbRegAppTableRecord
  2
EZDXF
 70
0
  0
ENDTAB
  0
TABLE
  2
DIMSTYLE
  5
4
330
0
100
AcDbSymbolTable
 70
1
100
AcDbDimStyleTable
  0
DIMSTYLE
105
2B
330
4
100
AcDbSymbolTableRecord
100
AcDbDimStyleTableRecord
  2
Standard
 70
0
 40
1.0
 41
2.5
 42
0.625
 43
3.75
 44
1.25
 45
0.0
 46
0.0
 47
0.0
 48
0.0
 49
2.5
140
2.5
141
2.5
142
0.0
143
0.03937007874
144
1.0
145
0.0
146
1.0
147
0.625
148
0.0
 69
0
 70
0
 71
0
 72
0
 73
0
 74
0
 75
0
 76
0
 77
1
 78
8
 79
3
170
0
171
3
172
1
173
0
174
0
175
0
176
0
177
0
178
0
179
2
271
2
272
2
273
2
274
3
275
0
276
0
277
2
278
44
279
0
280
0
281
0
282
0
283
0
284
8
285
0
286
0
288
0
289
3
290
0
371
-2
372
-2
  0
ENDTAB
  0
TABLE
  2
BLOCK_RECORD
  5
9
330
0
100
AcDbSymbolTable
 70
2
  0
BLOCK_RECORD
  5
17
330
9
100
AcDbSymbolTableRecord
100
AcDbBlockTableRecord
  2
*Model_Space
340
1A
 70
0
280
1
281
0
  0
BLOCK_RECORD
  5
1B
330
9
100
AcDbSymbolTableRecord
100
AcDbBlockTableRecord
  2
*Paper_Space
340
1E
 70
0
280
1
281
0
  0
ENDTAB
  0
ENDSEC
  0
SECTION
  2
BLOCKS
  0
BLOCK
  5
18
330
17
100
AcDbEntity
  8
0
100
AcDbBlockBegin
  2
*Model_Space
 70
0
 10
0.0
 20
0.0
 30
0.0
  3
*Model_Space
  1

  0
ENDBLK
  5
19
330
17
100
AcDbEntity
  8
0
100
AcDbBlockEnd
  0
BLOCK
  5
1C
330
1B
100
AcDbEntity
  8
0
100
AcDbBlockBegin
  2
*Paper_Space
 70
0
 10
0.0
 20
0.0
 30
0.0
  3
*Paper_Space
  1

  0
ENDBLK
  5
1D
330
1B
100
AcDbEntity
  8
0
100
AcDbBlockEnd
  0
ENDSEC
  0
SECTION
  2
ENTITIES
  0
TEXT
  5
30
330
17
100
AcDbEntity
  8
ROOM_NAMES
100
AcDbText
 10
87202.46941551138
 20
35380.21791328143
 30
0.0
 40
250.0
  1
\pxqc;{\fArial|b0|i0|c0|p34;\H1.6x;0.18\P\H0.625x;Boardroom}
100
AcDbText
  0
TEXT
  5
31
330
17
100
AcDbEntity
  8
ROOM_NAMES
100
AcDbText
 10
92448.44959586908
 20
35380.21791328143
 30
0.0
 40
250.0
  1
\pxqc;{\fArial|b0|i0|c0|p34;\H1.6x;0.19\H0.625x;\PStore}
100
AcDbText
  0
TEXT
  5
32
330
17
100
AcDbEntity
  8
ROOM_NAMES
100
AcDbText
 10
91074.68035526233
 20
29396.25255000931
 30
0.0
 40
250.0
  1
\pxqc;{\fArial|b0|i0|c0|p34;\H1.6x;0.16\P\H0.625x;Kitchen}
100
AcDbText
  0
TEXT
  5
33
330
17
100
AcDbEntity
  8
ROOM_NAMES
100
AcDbText
 10
84467.8144587359
 20
29227.6260968449
 30
0.0
 40
250.0
  1
\pxqc;{\fArial|b0|i0|c0|p34;\H1.6x;0.15\H0.625x;\PFemale WC\P& Showers}
100
AcDbText
  0
TEXT
  5
34
330
17
100
AcDbEntity
  8
ROOM_NAMES
100
AcDbText
 10
92011.33269756092
 20
26554.26088248313
 30
0.0
 40
250.0
  1
\pxqc;{\fArial|b0|i0|c0|p34;0.17\PStore}
100
AcDbText
  0
TEXT
  5
35
330
17
100
AcDbEntity
  8
ROOM_NAMES
100
AcDbText
 10
89420.62070042055
 20
26544.02425585002
 30
0.0
 40
250.0
  1
\pxqc;{\fArial|b0|i0|c0|p34;0.14\PCleaners Store}
100
AcDbText
  0
TEXT
  5
36
330
17
100
AcDbEntity
  8
ROOM_NAMES
100
AcDbText
 10
84900.33343967245
 20
23868.91289034622
 30
0.0
 40
250.0
  1
\pxqc;{\fArial|b0|i0|c0|p34;\H1.6x;0.13\P\H0.625x;College Room}
100
AcDbText
  0
TEXT
  5
37
330
17
100
AcDbEntity
  8
ROOM_NAMES
100
AcDbText
 10
94293.74317664656
 20
24249.12711394805
 30
0.0
 40
250.0
  1
\pxqc;{\fArial|b0|i0|c0|p34;\PReception}
100
AcDbText
  0
TEXT
  5
38
330
17
100
AcDbEntity
  8
ROOM_NAMES
100
AcDbText
 10
96416.87862522065
 20
22623.62352553821
 30
0.0
 40
250.0
  1
\pxqc;{\fArial|b0|i0|c0|p34;\H1.6x;0.09\H0.625x;\PCloaks}
100
AcDbText
  0
TEXT
  5
39
330
17
100
AcDbEntity
  8
ROOM_NAMES
100
AcDbText
 10
93529.57044461615
 20
19832.76834505531
 30
0.0
 40
250.0
  1
\pxqc;{\fArial|b0|i0|c0|p34;\H1.6x;0.11\P\H0.625x;Elec.\PCupd.}
100
AcDbText
  0
TEXT
  5
3A
330
17
100
AcDbEntity
  8
ROOM_NAMES
100
AcDbText
 10
94114.99352350194
 20
16538.59937972601
 30
0.0
 40
250.0
  1
\pxqc;{\fArial|b0|i0|c0|p34;\H1.6x;0.10\H0.625x;\PLAN Room}
100
AcDbText
  0
TEXT
  5
3B
330
17
100
AcDbEntity
  8
ROOM_NAMES
100
AcDbText
 10
99418.88017073125
 20
19825.23530710588
 30
0.0
 40
250.0
  1
\pxqc;{\fArial|b0|i0|c0|p34;\H1.6x;0.07\H0.625x;\PAccessible\PWC}
100
AcDbText
  0
TEXT
  5
3C
330
17
100
AcDbEntity
  8
ROOM_NAMES
100
AcDbText
 10
97096.31610171589
 20
17113.33160598936
 30
0.0
 40
250.0
  1
\pxqc;{\fArial|b0|i0|c0|p34;\H1.6x;0.08\H0.625x;\PMale WC\P& Showers}
100
AcDbText
  0
TEXT
  5
3D
330
17
100
AcDbEntity
  8
ROOM_NAMES
100
AcDbText
 10
101910.7201149258
 20
17893.9128903462
 30
0.0
 40
250.0
  1
\pxqc;{\fArial|b0|i0|c0|p34;\H1.6x;0.06\H0.625x;\POffice}
100
AcDbText
  0
TEXT
  5
3E
330
17
100
AcDbEntity
  8
ROOM_NAMES
100
AcDbText
 10
104810.7201149258
 20
17893.9128903462
 30
0.0
 40
250.0
  1
\pxqc;{\fArial|b0|i0|c0|p34;\H1.6x;0.05\H0.625x;\POffice}
100
AcDbText
  0
TEXT
  5
3F
330
17
100
AcDbEntity
  8
ROOM_NAMES
100
AcDbText
 10
108285.7201149258
 20
17893.91289034615
 30
0.0
 40
250.0
  1
\pxqc;{\fArial|b0|i0|c0|p34;\H1.6x;0.04\H0.625x;\POffice}
100
AcDbText
  0
TEXT
  5
40
330
17
100
AcDbEntity
  8
ROOM_NAMES
100
AcDbText
 10
107792.9052300517
 20
33037.36242177168
 30
0.0
 40
250.0
  1
\pxqc;{\fArial|b0|i0|c0|p34;\H1.6x;0.01\H0.625x;\PMeeting Room}
100
AcDbText
  0
TEXT
  5
41
330
17
100
AcDbEntity
  8
ROOM_NAMES
100
AcDbText
 10
123772.9052300517
 20
24277.36242177156
 30
0.0
 40
250.0
  1
\pxqc;{\fArial|b0|i0|c0|p34;\H1.6x;0.02\H0.625x;\PMeeting Room}
100
AcDbText
  0
TEXT
  5
42
330
17
100
AcDbEntity
  8
ROOM_NAMES
100
AcDbText
 10
103951.0253298237
 20
28043.79939972111
 30
0.0
 40
250.0
  1
\pxqc;{\fArial|b0|i0|c0|p34;\H1.6x;0.03\P\H0.625x;Open Plan Office}
100
AcDbText
  0
TEXT
  5
43
330
17
100
AcDbEntity
  8
ROOM_NAMES
100
AcDbText
 10
95999.83226577085
 20
31058.11032714808
 30
0.0
 40
250.0
  1
\pxqc;{\fArial|b0|i0|c0|p34;Courtyard}
100
AcDbText
  0
TEXT
  5
44
330
17
100
AcDbEntity
  8
ROOM_NAMES
100
AcDbText
 10
94664.4398968722
 20
27575.9413912876
 30
0.0
 40
250.0
  1
\pxqc;{\fArial|b0|i0|c0|p34;Main\PEntrance}
100
AcDbText
  0
TEXT
  5
46
330
17
100
AcDbEntity
  8
BENCH
100
AcDbText
 10
90975.00458560135
 20
31244.56473522724
 30
0.0
 40
100.0
  1
FRG./\PFRZ.
100
AcDbText
  0
TEXT
  5
47
330
17
100
AcDbEntity
  8
BENCH
100
AcDbText
 10
112602.5045856013
 20
24344.56473522724
 30
0.0
 40
100.0
  1
FRG.
100
AcDbText
  0
TEXT
  5
48
330
17
100
AcDbEntity
  8
ROOM_NAMES
100
AcDbText
 10
116477.3112470836
 20
20683.42490368349
 30
0.0
 40
250.0
  1
\pxqc;{\fArial|b0|i0|c0|p34;\H1.6x;0.03\P\H0.625x;Open Plan Office}
100
AcDbText
  0
TEXT
  5
49
330
17
100
AcDbEntity
  8
ROOM_NAMES
100
AcDbText
 10
90692.20748867872
 20
24060.13833464098
 30
0.0
 40
250.0
  1
\pxqc;{\fArial|b0|i0|c0|p34;\H1.6x;0.12\P\H0.625x;Snug}
100
AcDbText
  0
TEXT
  5
4B
330
17
100
AcDbEntity
  8
PRSNAMES
100
AcDbText
 10
94261.31966166136
 20
24293.40091087214
 30
0.0
 40
250.0
  1
\pxqc;{\fArial|b0|i0|c0|p34;\H1.6x;Z01}
100
AcDbText
  0
TEXT
  5
4C
330
17
100
AcDbEntity
  8
PRSNAMES
100
AcDbText
 10
89862.67811854661
 20
20982.48865184173
 30
0.0
 40
250.0
  1
\pxqc;{\fArial|b0|i0|c0|p34;\H1.6x;Z02}
100
AcDbText
  0
TEXT
  5
4D
330
17
100
AcDbEntity
  8
ROOM_NAMES
100
AcDbText
 10
90892.07461247552
 20
12621.14716214742
 30
0.0
 40
250.0
  1
\pxqc;{\fArial|b0|i0|c0|p34;\H1.6x;0.30\P\H0.625x;Plant Room}
100
AcDbText
  0
TEXT
  5
4F
330
17
100
AcDbEntity
  8
4THFL
100
AcDbText
 10
90225.16753800857
 20
11573.94610892102
 30
0.0
 40
250.0
  1
\pxqc;{\fArial|b0|i0|c0|p34;*Approx size & location}
100
AcDbText
  0
TEXT
  5
51
330
17
100
AcDbEntity
  8
FALARM
100
AcDbText
 10
282153.5570322825
 20
41406.07163135697
 30
0.0
 40
112.5
  1
HEAT DETECTOR AND SOUNDER BASE
100
AcDbText
  0
TEXT
  5
52
330
17
100
AcDbEntity
  8
FALARM
100
AcDbText
 10
282153.5570322825
 20
40906.07163135697
 30
0.0
 40
112.5
  1
FIRE ALARM PANEL
100
AcDbText
  0
TEXT
  5
53
330
17
100
AcDbEntity
  8
FALARM
100
AcDbText
 10
282153.5570322825
 20
39906.07163135697
 30
0.0
 40
112.5
  1
INTERFACE UNIT
100
AcDbText
  0
TEXT
  5
54
330
17
100
AcDbEntity
  8
FALARM
100
AcDbText
 10
282153.5570322825
 20
42906.07163135695
 30
0.0
 40
112.5
  1
MANUAL CALL POINT
100
AcDbText
  0
TEXT
  5
55
330
17
100
AcDbEntity
  8
FALARM
100
AcDbText
 10
281340.1621373595
 20
43336.08103975214
 30
0.0
 40
200.0
  1
FIRE  ALARM  &  EMERGENCY  LIGHTING  LEGEND
100
AcDbText
  0
TEXT
  5
56
330
17
100
AcDbEntity
  8
FALARM
100
AcDbText
 10
282153.5363618459
 20
40612.32846454363
 30
0.0
 40
112.5
  1
SYMBOL TAG WHERE "X" DENOTES ZONE NUMBER AND\P"Y" DENOTES POSITION OF DEVICE
100
AcDbText
  0
TEXT
  5
57
330
17
100
AcDbEntity
  8
FALARM
100
AcDbText
 10
281417.6551767234
 20
40406.04957605472
 30
0.0
 40
112.5
  1
X/Y
100
AcDbText
  0
TEXT
  5
58
330
17
100
AcDbEntity
  8
FALARM
100
AcDbText
 10
282153.536361846
 20
42112.32846454364
 30
0.0
 40
112.5
  1
COMBINED SMOKE/HEAT DETECTOR AND SOUNDER BASE
100
AcDbText
  0
TEXT
  5
59
330
17
100
AcDbEntity
  8
FALARM
100
AcDbText
 10
282153.55703226
 20
42406.0716314182
 30
0.0
 40
112.4999999775
  1
SMOKE DETECTOR (LOCATED IN CEILING VOID)
100
AcDbText
  0
TEXT
  5
5B
330
17
100
AcDbEntity
  8
GIA
100
AcDbText
 10
329624.1425605196
 20
51928.39313949532
 30
0.0
 40
401.0720291742854
  1
\pxqc;GIA
100
AcDbText
  0
TEXT
  5
5C
330
17
100
AcDbEntity
  8
GIA
100
AcDbText
 10
332747.5693771986
 20
51928.39313949542
 30
0.0
 40
401.0920837784742
  1
\A1;1843.16 m{\H0.7x;\S2^ ;}
100
AcDbText
  0
TEXT
  5
5E
330
17
100
AcDbEntity
  8
WASTE & RECYCLING STATIONS
100
AcDbText
 10
281230.0534566887
 20
43510.59110965364
 30
0.0
 40
257.2562063916069
  1
{\fArial|b0|i0|c0|p34;Waste & Recycling Station Legend}
100
AcDbText
  0
TEXT
  5
5F
330
17
100
AcDbEntity
  8
WASTE & RECYCLING STATIONS
100
AcDbText
 10
283611.3380095923
 20
42748.1534374717
 30
0.0
 40
245.0059108491495
  1
{\fArial|b0|i0|c0|p34;Waste & Recycling Station (Six Units):\PEssential Location}
100
AcDbText
  0
TEXT
  5
60
330
17
100
AcDbEntity
  8
WASTE & RECYCLING STATIONS
100
AcDbText
 10
283611.3380095923
 20
41250.40075650125
 30
0.0
 40
245.0059108491495
  1
{\fArial|b0|i0|c0|p34;Waste & Recycling Station (Six Units):\PPreferable Location}
100
AcDbText
  0
TEXT
  5
61
330
17
100
AcDbEntity
  8
WASTE & RECYCLING STATIONS
100
AcDbText
 10
283611.3380095923
 20
39752.6480755308
 30
0.0
 40
245.0059108491495
  1
{\fArial|b0|i0|c0|p34;Food Waste Caddy:\PCounter Top Type,\PSmall, 5L}
100
AcDbText
  0
TEXT
  5
62
330
17
100
AcDbEntity
  8
WASTE & RECYCLING STATIONS
100
AcDbText
 10
283611.3380095923
 20
38254.89539456033
 30
0.0
 40
245.0059108491495
  1
{\fArial|b0|i0|c0|p34;Food Waste Caddy:\PFloor Standing Type,\PLarge, 15L}
100
AcDbText
  0
TEXT
  5
64
330
17
100
AcDbEntity
  8
A-ANNO-DIMS
100
AcDbText
 10
197172.8346803538
 20
33276.00657868533
 30
0.0
 40
250.0
  1
1650
100
AcDbText
  0
TEXT
  5
65
330
17
100
AcDbEntity
  8
A-ANNO-DIMS
100
AcDbText
 10
200422.8346803534
 20
33276.00657868533
 30
0.0
 40
250.0
  1
1650
100
AcDbText
  0
TEXT
  5
67
330
17
100
AcDbEntity
  8
BUILDING_ACCESS
100
AcDbText
 10
330365.37434819
 20
52332.83520709773
 30
0.0
 40
367.3936753771544
  1
{\fArial|b0|i0|c0|p0;Legend}
100
AcDbText
  0
TEXT
  5
68
330
17
100
AcDbEntity
  8
BUILDING_ACCESS
100
AcDbText
 10
330769.3566618298
 20
46336.2122859125
 30
0.0
 40
244.9291169181029
  1
{\fArial|b0|i0|c0|p0;Access Route}
100
AcDbText
  0
TEXT
  5
69
330
17
100
AcDbEntity
  8
BUILDING_ACCESS
100
AcDbText
 10
330769.3566618298
 20
42662.27553214172
 30
0.0
 40
244.9291169181029
  1
{\fArial|b0|i0|c0|p0;Exit Route}
100
AcDbText
  0
TEXT
  5
6A
330
17
100
AcDbEntity
  8
BUILDING_ACCESS
100
AcDbText
 10
330769.3566618297
 20
50010.14903968378
 30
0.0
 40
244.9291169181029
  1
{\fArial|b0|i0|c0|p0;Unisex Toilet}
100
AcDbText
  0
TEXT
  5
6B
330
17
100
AcDbEntity
  8
BUILDING_ACCESS
100
AcDbText
 10
330769.3566618297
 20
51417.74791847197
 30
0.0
 40
244.9291169181029
  1
{\fArial|b0|i0|c0|p0;Hand Sanitizer Dispenser}
100
AcDbText
  0
TEXT
  5
6C
330
17
100
AcDbEntity
  8
BUILDING_ACCESS
100
AcDbText
 10
330769.3566618297
 20
47560.85787050291
 30
0.0
 40
244.9291169181029
  1
{\fArial|b0|i0|c0|p0;'Up' Only Stairs}
100
AcDbText
  0
TEXT
  5
6D
330
17
100
AcDbEntity
  8
BUILDING_ACCESS
100
AcDbText
 10
330769.3566618297
 20
43886.92111673169
 30
0.0
 40
244.9291169181029
  1
{\fArial|b0|i0|c0|p0;'Down' Only Stairs}
100
AcDbText
  0
TEXT
  5
6E
330
17
100
AcDbEntity
  8
BUILDING_ACCESS
100
AcDbText
 10
330769.3566618297
 20
48785.50345509335
 30
0.0
 40
244.9291169181029
  1
{\fArial|b0|i0|c0|p0;Building Entrance}
100
AcDbText
  0
TEXT
  5
6F
330
17
100
AcDbEntity
  8
BUILDING_ACCESS
100
AcDbText
 10
330769.3566618297
 20
45111.56670132207
 30
0.0
 40
244.9291169181029
  1
{\fArial|b0|i0|c0|p0;Building Exit}
100
AcDbText
  0
TEXT
  5
70
330
17
100
AcDbEntity
  8
BUILDING_ACCESS
100
AcDbText
 10
330769.3566618298
 20
41437.62994755129
 30
0.0
 40
244.9291169181029
  1
{\fArial|b0|i0|c0|p34;Two Way Route}
100
AcDbText
  0
TEXT
  5
72
330
17
100
AcDbEntity
  8
A-AREA-IDEN
100
AcDbText
 10
157519.9073060532
 20
11761.09479029452
 30
0.0
 40
199.9999999999998
  1
Office
100
AcDbText
  0
TEXT
  5
73
330
17
100
AcDbEntity
  8
A-AREA-IDEN
100
AcDbText
 10
157683.836945754
 20
12050.08716799798
 30
0.0
 40
199.9999999999998
  1
4.60
100
AcDbText
  0
TEXT
  5
74
330
17
100
AcDbEntity
  8
A-AREA-IDEN
100
AcDbText
 10
160246.4388546814
 20
11761.09479029452
 30
0.0
 40
199.9999999999998
  1
Office
100
AcDbText
  0
TEXT
  5
75
330
17
100
AcDbEntity
  8
A-AREA-IDEN
100
AcDbText
 10
160410.3684943823
 20
12050.08716799798
 30
0.0
 40
199.9999999999998
  1
4.61
100
AcDbText
  0
TEXT
  5
76
330
17
100
AcDbEntity
  8
A-AREA-IDEN
100
AcDbText
 10
162906.8726687975
 20
11909.81469294696
 30
0.0
 40
199.9999999999998
  1
Office
100
AcDbText
  0
TEXT
  5
77
330
17
100
AcDbEntity
  8
A-AREA-IDEN
100
AcDbText
 10
163070.8023084984
 20
12198.80707065042
 30
0.0
 40
199.9999999999998
  1
4.62
100
AcDbText
  0
TEXT
  5
78
330
17
100
AcDbEntity
  8
A-AREA-IDEN
100
AcDbText
 10
165534.2576156575
 20
11761.09479029452
 30
0.0
 40
199.9999999999998
  1
Office
100
AcDbText
  0
TEXT
  5
79
330
17
100
AcDbEntity
  8
A-AREA-IDEN
100
AcDbText
 10
165698.1872553584
 20
12050.08716799798
 30
0.0
 40
199.9999999999998
  1
4.63
100
AcDbText
  0
TEXT
  5
7A
330
17
100
AcDbEntity
  8
A-AREA-IDEN
100
AcDbText
 10
168090.5608747793
 20
12689.72544760822
 30
0.0
 40
199.9999999999998
  1
4P Tut Niche
100
AcDbText
  0
TEXT
  5
7B
330
17
100
AcDbEntity
  8
A-AREA-IDEN
100
AcDbText
 10
168623.0608747793
 20
12978.71782531169
 30
0.0
 40
199.9999999999998
  1
4Z27
100
AcDbText
  0
TEXT
  5
7C
330
17
100
AcDbEntity
  8
A-AREA-IDEN
100
AcDbText
 10
170871.6496775176
 20
11761.09479029452
 30
0.0
 40
199.9999999999998
  1
Office
100
AcDbText
  0
TEXT
  5
7D
330
17
100
AcDbEntity
  8
A-AREA-IDEN
100
AcDbText
 10
171035.5793172186
 20
12050.08716799798
 30
0.0
 40
199.9999999999998
  1
4.64
100
AcDbText
  0
TEXT
  5
7E
330
17
100
AcDbEntity
  8
A-AREA-IDEN
100
AcDbText
 10
173581.6567925178
 20
11761.09479029452
 30
0.0
 40
199.9999999999998
  1
Office
100
AcDbText
  0
TEXT
  5
7F
330
17
100
AcDbEntity
  8
A-AREA-IDEN
100
AcDbText
 10
173745.5864322187
 20
12050.08716799798
 30
0.0
 40
199.9999999999998
  1
4.66
100
AcDbText
  0
TEXT
  5
80
330
17
100
AcDbEntity
  8
A-AREA-IDEN
100
AcDbText
 10
176258.615040262
 20
11761.09479029452
 30
0.0
 40
199.9999999999998
  1
Office
100
AcDbText
  0
TEXT
  5
81
330
17
100
AcDbEntity
  8
A-AREA-IDEN
100
AcDbText
 10
176422.5446799628
 20
12050.08716799798
 30
0.0
 40
199.9999999999998
  1
4.68
100
AcDbText
  0
TEXT
  5
82
330
17
100
AcDbEntity
  8
A-AREA-IDEN
100
AcDbText
 10
179121.3412437762
 20
11761.09479029452
 30
0.0
 40
199.9999999999998
  1
2P Office
100
AcDbText
  0
TEXT
  5
83
330
17
100
AcDbEntity
  8
A-AREA-IDEN
100
AcDbText
 10
179479.5649011521
 20
12050.08716799798
 30
0.0
 40
199.9999999999998
  1
4.69
100
AcDbText
  0
TEXT
  5
84
330
17
100
AcDbEntity
  8
A-AREA-IDEN
100
AcDbText
 10
182763.5895773348
 20
11876.07324937364
 30
0.0
 40
199.9999999999998
  1
6P Prof Serv- IT
100
AcDbText
  0
TEXT
  5
85
330
17
100
AcDbEntity
  8
A-AREA-IDEN
100
AcDbText
 10
183479.7823033715
 20
12165.06562707711
 30
0.0
 40
199.9999999999998
  1
4.70
100
AcDbText
  0
TEXT
  5
86
330
17
100
AcDbEntity
  8
A-AREA-IDEN
100
AcDbText
 10
193818.3080931957
 20
9684.430962558035
 30
0.0
 40
199.9999999999998
  1
7P PHD Research
100
AcDbText
  0
TEXT
  5
87
330
17
100
AcDbEntity
  8
A-AREA-IDEN
100
AcDbText
 10
194727.2244766084
 20
9973.4233402615
 30
0.0
 40
199.9999999999998
  1
4.01
100
AcDbText
  0
TEXT
  5
88
330
17
100
AcDbEntity
  8
A-AREA-IDEN
100
AcDbText
 10
201120.5810169912
 20
9684.430962558035
 30
0.0
 40
199.9999999999998
  1
8P PHD Research
100
AcDbText
  0
TEXT
  5
89
330
17
100
AcDbEntity
  8
A-AREA-IDEN
100
AcDbText
 10
202018.8923698124
 20
9973.4233402615
 30
0.0
 40
199.9999999999998
  1
4.02
100
AcDbText
  0
TEXT
  5
8A
330
17
100
AcDbEntity
  8
A-AREA-IDEN
100
AcDbText
 10
207193.8505236865
 20
11691.5853151323
 30
0.0
 40
199.9999999999998
  1
Office
100
AcDbText
  0
TEXT
  5
8B
330
17
100
AcDbEntity
  8
A-AREA-IDEN
100
AcDbText
 10
207357.7801633873
 20
11980.57769283577
 30
0.0
 40
199.9999999999998
  1
4.03
100
AcDbText
  0
TEXT
  5
8C
330
17
100
AcDbEntity
  8
A-AREA-IDEN
100
AcDbText
 10
209877.0837805641
 20
11691.5853151323
 30
0.0
 40
199.9999999999998
  1
Office
100
AcDbText
  0
TEXT
  5
8D
330
17
100
AcDbEntity
  8
A-AREA-IDEN
100
AcDbText
 10
210041.0134202649
 20
11980.57769283577
 30
0.0
 40
199.9999999999998
  1
4.05
100
AcDbText
  0
TEXT
  5
8E
330
17
100
AcDbEntity
  8
A-AREA-IDEN
100
AcDbText
 10
212613.4302739215
 20
11691.5853151323
 30
0.0
 40
199.9999999999998
  1
Office
100
AcDbText
  0
TEXT
  5
8F
330
17
100
AcDbEntity
  8
A-AREA-IDEN
100
AcDbText
 10
212777.3599136223
 20
11980.57769283577
 30
0.0
 40
199.9999999999998
  1
4.06
100
AcDbText
  0
TEXT
  5
90
330
17
100
AcDbEntity
  8
A-AREA-IDEN
100
AcDbText
 10
215333.8198450521
 20
11691.5853151323
 30
0.0
 40
199.9999999999998
  1
Office
100
AcDbText
  0
TEXT
  5
91
330
17
100
AcDbEntity
  8
A-AREA-IDEN
100
AcDbText
 10
215497.7494847529
 20
11980.57769283577
 30
0.0
 40
199.9999999999998
  1
4.08
100
AcDbText
  0
TEXT
  5
92
330
17
100
AcDbEntity
  8
A-AREA-IDEN
100
AcDbText
 10
217978.142987914
 20
11691.5853151323
 30
0.0
 40
199.9999999999998
  1
Office
100
AcDbText
  0
TEXT
  5
93
330
17
100
AcDbEntity
  8
A-AREA-IDEN
100
AcDbText
 10
218142.0726276149
 20
11980.57769283577
 30
0.0
 40
199.9999999999998
  1
4.09
100
AcDbText
  0
TEXT
  5
94
330
17
100
AcDbEntity
  8
A-AREA-IDEN
100
AcDbText
 10
221221.8128717438
 20
11529.52931518791
 30
0.0
 40
199.9999999999998
  1
Office
100
AcDbText
  0
TEXT
  5
95
330
17
100
AcDbEntity
  8
A-AREA-IDEN
100
AcDbText
 10
221385.7425114447
 20
11818.52169289138
 30
0.0
 40
199.9999999999998
  1
4.10
100
AcDbText
  0
TEXT
  5
96
330
17
100
AcDbEntity
  8
A-AREA-IDEN
100
AcDbText
 10
223541.315794235
 20
12355.97440090431
 30
0.0
 40
199.9999999999998
  1
4P Tut Niche
100
AcDbText
  0
TEXT
  5
97
330
17
100
AcDbEntity
  8
A-AREA-IDEN
100
AcDbText
 10
224073.8157942351
 20
12644.96677860778
 30
0.0
 40
199.9999999999998
  1
4Z05
100
AcDbText
  0
TEXT
  5
98
330
17
100
AcDbEntity
  8
A-AREA-IDEN
100
AcDbText
 10
226040.775334796
 20
11660.2139744764
 30
0.0
 40
199.9999999999998
  1
Office
100
AcDbText
  0
TEXT
  5
99
330
17
100
AcDbEntity
  8
A-AREA-IDEN
100
AcDbText
 10
226204.7049744969
 20
11949.20635217986
 30
0.0
 40
199.9999999999998
  1
4.12
100
AcDbText
  0
TEXT
  5
9A
330
17
100
AcDbEntity
  8
A-AREA-IDEN
100
AcDbText
 10
228748.7943158629
 20
11660.2139744764
 30
0.0
 40
199.9999999999998
  1
Office
100
AcDbText
  0
TEXT
  5
9B
330
17
100
AcDbEntity
  8
A-AREA-IDEN
100
AcDbText
 10
228912.7239555637
 20
11949.20635217986
 30
0.0
 40
199.9999999999998
  1
4.13
100
AcDbText
  0
TEXT
  5
9C
330
17
100
AcDbEntity
  8
A-AREA-IDEN
100
AcDbText
 10
227522.3557693476
 20
16798.20444886284
 30
0.0
 40
199.9999999999998
  1
Office
100
AcDbText
  0
TEXT
  5
9D
330
17
100
AcDbEntity
  8
A-AREA-IDEN
100
AcDbText
 10
227686.2854090485
 20
17087.19682656631
 30
0.0
 40
199.9999999999998
  1
4.14
100
AcDbText
  0
TEXT
  5
9E
330
17
100
AcDbEntity
  8
A-AREA-IDEN
100
AcDbText
 10
227819.9969194248
 20
19532.90910386566
 30
0.0
 40
199.9999999999998
  1
Office
100
AcDbText
  0
TEXT
  5
9F
330
17
100
AcDbEntity
  8
A-AREA-IDEN
100
AcDbText
 10
227983.9265591256
 20
19821.90148156912
 30
0.0
 40
199.9999999999998
  1
4.15
100
AcDbText
  0
TEXT
  5
A0
330
17
100
AcDbEntity
  8
A-AREA-IDEN
100
AcDbText
 10
227528.2531186838
 20
22111.74150188611
 30
0.0
 40
199.9999999999998
  1
Office
100
AcDbText
  0
TEXT
  5
A1
330
17
100
AcDbEntity
  8
A-AREA-IDEN
100
AcDbText
 10
227692.1827583848
 20
22400.73387958958
 30
0.0
 40
199.9999999999998
  1
4.18
100
AcDbText
  0
TEXT
  5
A2
330
17
100
AcDbEntity
  8
A-AREA-IDEN
100
AcDbText
 10
227739.9969194247
 20
24943.31796635018
 30
0.0
 40
199.9999999999998
  1
Office
100
AcDbText
  0
TEXT
  5
A3
330
17
100
AcDbEntity
  8
A-AREA-IDEN
100
AcDbText
 10
227903.9265591256
 20
25232.31034405365
 30
0.0
 40
199.9999999999998
  1
4.19
100
AcDbText
  0
TEXT
  5
A4
330
17
100
AcDbEntity
  8
A-AREA-IDEN
100
AcDbText
 10
227944.7875843569
 20
26388.30582567742
 30
0.0
 40
199.9999999999998
  1
4P Tut Niche
100
AcDbText
  0
TEXT
  5
A5
330
17
100
AcDbEntity
  8
A-AREA-IDEN
100
AcDbText
 10
228477.2875843569
 20
26677.29820338088
 30
0.0
 40
199.9999999999998
  1
4Z07
100
AcDbText
  0
TEXT
  5
A6
330
17
100
AcDbEntity
  8
A-AREA-IDEN
100
AcDbText
 10
219851.4213046226
 20
17874.56227647265
 30
0.0
 40
199.9999999999998
  1
6P Research
100
AcDbText
  0
TEXT
  5
A7
330
17
100
AcDbEntity
  8
A-AREA-IDEN
100
AcDbText
 10
220435.1140306593
 20
18163.55465417612
 30
0.0
 40
199.9999999999998
  1
4.11
100
AcDbText
  0
TEXT
  5
A8
330
17
100
AcDbEntity
  8
A-AREA-IDEN
100
AcDbText
 10
218284.4140332128
 20
22551.54994941126
 30
0.0
 40
199.9999999999998
  1
ICT LAN
100
AcDbText
  0
TEXT
  5
A9
330
17
100
AcDbEntity
  8
A-AREA-IDEN
100
AcDbText
 10
218543.3259978626
 20
22840.54232711472
 30
0.0
 40
199.9999999999998
  1
4.24
100
AcDbText
  0
TEXT
  5
AA
330
17
100
AcDbEntity
  8
A-AREA-IDEN
100
AcDbText
 10
222329.7161069375
 20
21692.27940075264
 30
0.0
 40
199.9999999999998
  1
DB Room
100
AcDbText
  0
TEXT
  5
AB
330
17
100
AcDbEntity
  8
A-AREA-IDEN
100
AcDbText
 10
222707.4832721312
 20
21981.27177845611
 30
0.0
 40
199.9999999999998
  1
4.16
100
AcDbText
  0
TEXT
  5
AC
330
17
100
AcDbEntity
  8
A-AREA-IDEN
100
AcDbText
 10
218166.1878540971
 20
25311.13036529562
 30
0.0
 40
199.9999999999998
  1
9P Tut Niche
100
AcDbText
  0
TEXT
  5
AD
330
17
100
AcDbEntity
  8
A-AREA-IDEN
100
AcDbText
 10
218705.2140267687
 20
25600.12274299909
 30
0.0
 40
199.9999999999998
  1
4Z09
100
AcDbText
  0
TEXT
  5
AE
330
17
100
AcDbEntity
  8
A-AREA-IDEN
100
AcDbText
 10
228599.4127700989
 20
31305.59054139319
 30
0.0
 40
199.9999999999998
  1
Office
100
AcDbText
  0
TEXT
  5
AF
330
17
100
AcDbEntity
  8
A-AREA-IDEN
100
AcDbText
 10
228763.3424097998
 20
31594.58291909664
 30
0.0
 40
199.9999999999998
  1
4.20
100
AcDbText
  0
TEXT
  5
B0
330
17
100
AcDbEntity
  8
A-AREA-IDEN
100
AcDbText
 10
225772.8601220414
 20
31305.59054139319
 30
0.0
 40
199.9999999999998
  1
Office
100
AcDbText
  0
TEXT
  5
B1
330
17
100
AcDbEntity
  8
A-AREA-IDEN
100
AcDbText
 10
225936.7897617422
 20
31594.58291909664
 30
0.0
 40
199.9999999999998
  1
4.21
100
AcDbText
  0
TEXT
  5
B2
330
17
100
AcDbEntity
  8
A-AREA-IDEN
100
AcDbText
 10
223184.6083119608
 20
31305.5905413932
 30
0.0
 40
199.9999999999998
  1
Office
100
AcDbText
  0
TEXT
  5
B3
330
17
100
AcDbEntity
  8
A-AREA-IDEN
100
AcDbText
 10
223348.5379516617
 20
31594.58291909666
 30
0.0
 40
199.9999999999998
  1
4.22
100
AcDbText
  0
TEXT
  5
B4
330
17
100
AcDbEntity
  8
A-AREA-IDEN
100
AcDbText
 10
221502.3683576251
 20
31051.36052375421
 30
0.0
 40
199.9999999999998
  1
Office
100
AcDbText
  0
TEXT
  5
B5
330
17
100
AcDbEntity
  8
A-AREA-IDEN
100
AcDbText
 10
221666.297997326
 20
31340.35290145768
 30
0.0
 40
199.9999999999998
  1
4.23
100
AcDbText
  0
TEXT
  5
B6
330
17
100
AcDbEntity
  8
A-AREA-IDEN
100
AcDbText
 10
202424.8706159035
 20
24506.96013874036
 30
0.0
 40
199.9999999999998
  1
Cyber Security
100
AcDbText
  0
TEXT
  5
B7
330
17
100
AcDbEntity
  8
A-AREA-IDEN
100
AcDbText
 10
203156.8923698124
 20
24795.95251644383
 30
0.0
 40
199.9999999999998
  1
4.07
100
AcDbText
  0
TEXT
  5
B8
330
17
100
AcDbEntity
  8
A-AREA-IDEN
100
AcDbText
 10
194755.9519177621
 20
25246.3104047233
 30
0.0
 40
199.9999999999998
  1
10P Collab Sp
100
AcDbText
  0
TEXT
  5
B9
330
17
100
AcDbEntity
  8
A-AREA-IDEN
100
AcDbText
 10
195426.9468191897
 20
25535.30278242678
 30
0.0
 40
199.9999999999998
  1
4Z01
100
AcDbText
  0
TEXT
  5
BA
330
17
100
AcDbEntity
  8
A-AREA-IDEN
100
AcDbText
 10
158864.456888233
 20
15619.93962763816
 30
0.0
 40
199.9999999999998
  1
Office
100
AcDbText
  0
TEXT
  5
BB
330
17
100
AcDbEntity
  8
A-AREA-IDEN
100
AcDbText
 10
159028.3865279339
 20
15908.93200534162
 30
0.0
 40
199.9999999999998
  1
4.59
100
AcDbText
  0
TEXT
  5
BC
330
17
100
AcDbEntity
  8
A-AREA-IDEN
100
AcDbText
 10
159188.4388546814
 20
18272.703393816
 30
0.0
 40
199.9999999999998
  1
Office
100
AcDbText
  0
TEXT
  5
BD
330
17
100
AcDbEntity
  8
A-AREA-IDEN
100
AcDbText
 10
159352.3684943823
 20
18561.69577151946
 30
0.0
 40
199.9999999999998
  1
4.58
100
AcDbText
  0
TEXT
  5
BE
330
17
100
AcDbEntity
  8
A-AREA-IDEN
100
AcDbText
 10
158966.6265062952
 20
21052.45814028858
 30
0.0
 40
199.9999999999998
  1
Office
100
AcDbText
  0
TEXT
  5
BF
330
17
100
AcDbEntity
  8
A-AREA-IDEN
100
AcDbText
 10
159130.5561459961
 20
21341.45051799205
 30
0.0
 40
199.9999999999998
  1
4.56
100
AcDbText
  0
TEXT
  5
C0
330
17
100
AcDbEntity
  8
A-AREA-IDEN
100
AcDbText
 10
159152.3154951658
 20
23956.60934109219
 30
0.0
 40
199.9999999999998
  1
Office
100
AcDbText
  0
TEXT
  5
C1
330
17
100
AcDbEntity
  8
A-AREA-IDEN
100
AcDbText
 10
159316.2451348666
 20
24245.60171879565
 30
0.0
 40
199.9999999999998
  1
4.55
100
AcDbText
  0
TEXT
  5
C2
330
17
100
AcDbEntity
  8
A-AREA-IDEN
100
AcDbText
 10
165156.6478263985
 20
19063.95065479985
 30
0.0
 40
199.9999999999998
  1
Visiting Staff
100
AcDbText
  0
TEXT
  5
C3
330
17
100
AcDbEntity
  8
A-AREA-IDEN
100
AcDbText
 10
165697.6872553584
 20
19352.94303250332
 30
0.0
 40
199.9999999999998
  1
4.57
100
AcDbText
  0
TEXT
  5
C4
330
17
100
AcDbEntity
  8
A-AREA-IDEN
100
AcDbText
 10
164032.1881473798
 20
25709.84627163994
 30
0.0
 40
199.9999999999998
  1
4P Research
100
AcDbText
  0
TEXT
  5
C5
330
17
100
AcDbEntity
  8
A-AREA-IDEN
100
AcDbText
 10
164604.1881473799
 20
25998.83864934341
 30
0.0
 40
199.9999999999998
  1
4.53
100
AcDbText
  0
TEXT
  5
C6
330
17
100
AcDbEntity
  8
A-AREA-IDEN
100
AcDbText
 10
170152.8147618444
 20
25976.04309304121
 30
0.0
 40
199.9999999999998
  1
6P Tut Niche
100
AcDbText
  0
TEXT
  5
C7
330
17
100
AcDbEntity
  8
A-AREA-IDEN
100
AcDbText
 10
170697.0074878812
 20
26265.03547074468
 30
0.0
 40
199.9999999999998
  1
4Z21
100
AcDbText
  0
TEXT
  5
C8
330
17
100
AcDbEntity
  8
A-AREA-IDEN
100
AcDbText
 10
169744.5827892865
 20
20759.79879548158
 30
0.0
 40
199.9999999999998
  1
I.T Workshop
100
AcDbText
  0
TEXT
  5
C9
330
17
100
AcDbEntity
  8
A-AREA-IDEN
100
AcDbText
 10
170330.9947539364
 20
21048.79117318505
 30
0.0
 40
199.9999999999998
  1
4.47
100
AcDbText
  0
TEXT
  5
CA
330
17
100
AcDbEntity
  8
A-AREA-IDEN
100
AcDbText
 10
170494.0398882587
 20
15600.40572884174
 30
0.0
 40
199.9999999999998
  1
Visiting Staff
100
AcDbText
  0
TEXT
  5
CB
330
17
100
AcDbEntity
  8
A-AREA-IDEN
100
AcDbText
 10
171035.0793172185
 20
15889.3981065452
 30
0.0
 40
199.9999999999998
  1
4.65
100
AcDbText
  0
TEXT
  5
CC
330
17
100
AcDbEntity
  8
A-AREA-IDEN
100
AcDbText
 10
178360.610662529
 20
16746.07983588213
 30
0.0
 40
199.9999999999998
  1
I.T. Store
100
AcDbText
  0
TEXT
  5
CD
330
17
100
AcDbEntity
  8
A-AREA-IDEN
100
AcDbText
 10
178652.5226271789
 20
17035.07221358559
 30
0.0
 40
199.9999999999998
  1
4.67
100
AcDbText
  0
TEXT
  5
CE
330
17
100
AcDbEntity
  8
A-AREA-IDEN
100
AcDbText
 10
175426.0719616726
 20
25837.05679266006
 30
0.0
 40
199.9999999999998
  1
Server Rm
100
AcDbText
  0
TEXT
  5
CF
330
17
100
AcDbEntity
  8
A-AREA-IDEN
100
AcDbText
 10
175836.1729134061
 20
26126.04917036352
 30
0.0
 40
199.9999999999998
  1
4.44
100
AcDbText
  0
TEXT
  5
D0
330
17
100
AcDbEntity
  8
A-AREA-IDEN
100
AcDbText
 10
178616.5299193958
 20
21899.18790989202
 30
0.0
 40
199.9999999999998
  1
Financial Lab
100
AcDbText
  0
TEXT
  5
D1
330
17
100
AcDbEntity
  8
A-AREA-IDEN
100
AcDbText
 10
179271.7970845896
 20
22188.18028759549
 30
0.0
 40
199.9999999999998
  1
4.38
100
AcDbText
  0
TEXT
  5
D2
330
17
100
AcDbEntity
  8
A-AREA-IDEN
100
AcDbText
 10
158184.0021586955
 20
31291.36371595135
 30
0.0
 40
199.9999999999998
  1
Office
100
AcDbText
  0
TEXT
  5
D3
330
17
100
AcDbEntity
  8
A-AREA-IDEN
100
AcDbText
 10
158347.9317983963
 20
31580.35609365481
 30
0.0
 40
199.9999999999998
  1
4.52
100
AcDbText
  0
TEXT
  5
D4
330
17
100
AcDbEntity
  8
A-AREA-IDEN
100
AcDbText
 10
160848.3095521711
 20
31291.36371595135
 30
0.0
 40
199.9999999999998
  1
Office
100
AcDbText
  0
TEXT
  5
D5
330
17
100
AcDbEntity
  8
A-AREA-IDEN
100
AcDbText
 10
161012.239191872
 20
31580.35609365481
 30
0.0
 40
199.9999999999998
  1
4.51
100
AcDbText
  0
TEXT
  5
D6
330
17
100
AcDbEntity
  8
A-AREA-IDEN
100
AcDbText
 10
163559.8564384389
 20
31291.36371595135
 30
0.0
 40
199.9999999999998
  1
Office
100
AcDbText
  0
TEXT
  5
D7
330
17
100
AcDbEntity
  8
A-AREA-IDEN
100
AcDbText
 10
163723.7860781398
 20
31580.35609365481
 30
0.0
 40
199.9999999999998
  1
4.50
100
AcDbText
  0
TEXT
  5
D8
330
17
100
AcDbEntity
  8
A-AREA-IDEN
100
AcDbText
 10
165534.4672371496
 20
31291.36371595135
 30
0.0
 40
199.9999999999998
  1
Office
100
AcDbText
  0
TEXT
  5
D9
330
17
100
AcDbEntity
  8
A-AREA-IDEN
100
AcDbText
 10
165698.3968768505
 20
31580.35609365481
 30
0.0
 40
199.9999999999998
  1
4.49
100
AcDbText
  0
TEXT
  5
DA
330
17
100
AcDbEntity
  8
A-AREA-IDEN
100
AcDbText
 10
158829.1227040957
 20
28549.36275874361
 30
0.0
 40
199.9999999999998
  1
4P Tut Niche
100
AcDbText
  0
TEXT
  5
DB
330
17
100
AcDbEntity
  8
A-AREA-IDEN
100
AcDbText
 10
159361.6227040957
 20
28838.35513644707
 30
0.0
 40
199.9999999999998
  1
4Z24
100
AcDbText
  0
TEXT
  5
DC
330
17
100
AcDbEntity
  8
A-AREA-IDEN
100
AcDbText
 10
185684.9169331441
 20
28861.97924113639
 30
0.0
 40
199.9999999999998
  1
5P Research
100
AcDbText
  0
TEXT
  5
DD
330
17
100
AcDbEntity
  8
A-AREA-IDEN
100
AcDbText
 10
186261.1317529946
 20
29150.97161883985
 30
0.0
 40
199.9999999999998
  1
4.36
100
AcDbText
  0
TEXT
  5
DE
330
17
100
AcDbEntity
  8
A-AREA-IDEN
100
AcDbText
 10
193259.5609603627
 20
29291.57618672473
 30
0.0
 40
199.9999999999998
  1
20 P Seminar
100
AcDbText
  0
TEXT
  5
DF
330
17
100
AcDbEntity
  8
A-AREA-IDEN
100
AcDbText
 10
193859.2846177386
 20
29580.5685644282
 30
0.0
 40
199.9999999999998
  1
4.35
100
AcDbText
  0
TEXT
  5
E0
330
17
100
AcDbEntity
  8
A-AREA-IDEN
100
AcDbText
 10
199806.6156923371
 20
28943.32095788303
 30
0.0
 40
199.9999999999998
  1
8P PHD Research
100
AcDbText
  0
TEXT
  5
E1
330
17
100
AcDbEntity
  8
A-AREA-IDEN
100
AcDbText
 10
200704.9270451583
 20
29232.31333558649
 30
0.0
 40
199.9999999999998
  1
4.34
100
AcDbText
  0
TEXT
  5
E2
330
17
100
AcDbEntity
  8
A-AREA-IDEN
100
AcDbText
 10
182362.3125035613
 20
17677.60148665022
 30
0.0
 40
199.9999999999998
  1
Maker Rm
100
AcDbText
  0
TEXT
  5
E3
330
17
100
AcDbEntity
  8
A-AREA-IDEN
100
AcDbText
 10
182796.9702194008
 20
17966.59386435369
 30
0.0
 40
199.9999999999998
  1
4.71
100
AcDbText
  0
TEXT
  5
E4
330
17
100
AcDbEntity
  8
A-ANNO-DIMS
100
AcDbText
 10
291162.3522954417
 20
-5780.578228639729
 30
0.0
 40
250.0
  1
1600
100
AcDbText
  0
TEXT
  5
E5
330
17
100
AcDbEntity
  8
A-ANNO-DIMS
100
AcDbText
 10
294062.3731830685
 20
-5780.578228639729
 30
0.0
 40
250.0
  1
1000
100
AcDbText
  0
TEXT
  5
E6
330
17
100
AcDbEntity
  8
A-ANNO-DIMS
100
AcDbText
 10
288527.2000506788
 20
-5780.578228639729
 30
0.0
 40
250.0
  1
706
100
AcDbText
  0
TEXT
  5
E7
330
17
100
AcDbEntity
  8
A-ANNO-DIMS
100
AcDbText
 10
275666.2973960939
 20
6242.501807696619
 30
0.0
 40
250.0
  1
1300
100
AcDbText
  0
TEXT
  5
E8
330
17
100
AcDbEntity
  8
A-ANNO-DIMS
100
AcDbText
 10
281917.1429019895
 20
6379.160034050616
 30
0.0
 40
250.0
  1
1600
100
AcDbText
  0
TEXT
  5
E9
330
17
100
AcDbEntity
  8
A-ANNO-DIMS
100
AcDbText
 10
281395.752106451
 20
3104.776855811844
 30
0.0
 40
250.0
  1
1000
100
AcDbText
  0
TEXT
  5
EA
330
17
100
AcDbEntity
  8
A-ANNO-DIMS
100
AcDbText
 10
277836.206049693
 20
2103.274390356415
 30
0.0
 40
250.0
  1
800
100
AcDbText
  0
TEXT
  5
EB
330
17
100
AcDbEntity
  8
A-ANNO-DIMS
100
AcDbText
 10
279236.2060496929
 20
2103.274390356415
 30
0.0
 40
250.0
  1
800
100
AcDbText
  0
TEXT
  5
EC
330
17
100
AcDbEntity
  8
A-ANNO-DIMS
100
AcDbText
 10
280636.206049693
 20
2103.274390356415
 30
0.0
 40
250.0
  1
800
100
AcDbText
  0
TEXT
  5
EE
330
17
100
AcDbEntity
  8
A-DOOR-IDEN
100
AcDbText
 10
217803.9536401635
 20
33787.4537917219
 30
0.0
 40
249.9999999999997
  1
FoF31
100
AcDbText
  0
LWPOLYLINE
  5
F0
330
17
100
AcDbEntity
  8
A-AREA-ROOM
100
AcDbPolyline
 90
4
 70
1
 10
156862.831882105
 20
34245.32665969894
 10
159471.331882105
 20
34245.32665969894
 10
159471.331882105
 20
29859.32665969895
 10
156862.831882105
 20
29859.32665969895
  0
LWPOLYLINE
  5
F1
330
17
100
AcDbEntity
  8
A-AREA-ROOM
100
AcDbPolyline
 90
4
 70
1
 10
159674.6489733553
 20
34146.10618196643
 10
162238.8318821049
 20
34146.10618196643
 10
162238.8318821049
 20
29859.32665969894
 10
159674.6489733553
 20
29859.32665969894
  0
LWPOLYLINE
  5
F2
330
17
100
AcDbEntity
  8
A-AREA-ROOM
100
AcDbPolyline
 90
4
 70
1
 10
162363.8080243468
 20
34221.52463661671
 10
164753.331882105
 20
34221.52463661671
 10
164753.331882105
 20
29859.32665969893
 10
162363.8080243468
 20
29859.32665969893
  0
LWPOLYLINE
  5
F3
330
17
100
AcDbEntity
  8
A-AREA-ROOM
100
AcDbPolyline
 90
4
 70
1
 10
165034.5032253715
 20
34157.66537337583
 10
167491.4352732539
 20
34157.66537337583
 10
167491.4352732539
 20
29900.07782758048
 10
165034.5032253715
 20
29900.07782758048
  0
LWPOLYLINE
  5
F4
330
17
100
AcDbEntity
  8
A-AREA-ROOM
100
AcDbPolyline
 90
4
 70
1
 10
156862.831882105
 20
29757.32665969895
 10
161148.831882105
 20
29757.32665969895
 10
161148.831882105
 20
26057.32665969934
 10
156862.831882105
 20
26057.32665969934
  0
LWPOLYLINE
  5
F5
330
17
100
AcDbEntity
  8
A-AREA-ROOM
100
AcDbPolyline
 90
4
 70
1
 10
156862.831882105
 20
25955.32665969939
 10
161148.831882105
 20
25955.32665969939
 10
161148.831882105
 20
23357.32665969934
 10
156862.831882105
 20
23357.32665969934
  0
LWPOLYLINE
  5
F6
330
17
100
AcDbEntity
  8
A-AREA-ROOM
100
AcDbPolyline
 90
4
 70
1
 10
173754.1408703137
 20
26907.32665969885
 10
167780.831882105
 20
26907.32665969885
 10
167780.831882105
 20
22757.32665969929
 10
173754.1408703137
 20
22757.32665969929
  0
LWPOLYLINE
  5
F7
330
17
100
AcDbEntity
  8
A-AREA-ROOM
100
AcDbPolyline
 90
4
 70
1
 10
167678.831882105
 20
26805.32665969885
 10
162852.831882105
 20
26805.32665969885
 10
162852.831882105
 20
20559.32665969935
 10
167678.831882105
 20
20559.32665969935
  0
LWPOLYLINE
  5
F8
330
17
100
AcDbEntity
  8
A-AREA-ROOM
100
AcDbPolyline
 90
4
 70
1
 10
156895.3886211285
 20
23225.69455432802
 10
161148.831882105
 20
23225.69455432802
 10
161148.831882105
 20
20657.32665969933
 10
156895.3886211285
 20
20657.32665969933
  0
LWPOLYLINE
  5
F9
330
17
100
AcDbEntity
  8
A-AREA-ROOM
100
AcDbPolyline
 90
4
 70
1
 10
156888.1631308729
 20
20484.49438733797
 10
161148.831882105
 20
20484.49438733797
 10
161148.831882105
 20
17957.32665969933
 10
156888.1631308729
 20
17957.32665969933
  0
LWPOLYLINE
  5
FA
330
17
100
AcDbEntity
  8
A-AREA-ROOM
100
AcDbPolyline
 90
4
 70
1
 10
156895.3886211285
 20
17825.694554328
 10
161148.831882105
 20
17825.694554328
 10
161148.831882105
 20
15209.32665954396
 10
156895.3886211285
 20
15209.32665954396
  0
LWPOLYLINE
  5
FB
330
17
100
AcDbEntity
  8
A-AREA-ROOM
100
AcDbPolyline
 90
4
 70
1
 10
167660.1787829093
 20
20444.5353461691
 10
162852.831882105
 20
20444.5353461691
 10
162852.831882105
 20
15209.32665969926
 10
167660.1787829093
 20
15209.32665969926
  0
LWPOLYLINE
  5
FC
330
17
100
AcDbEntity
  8
A-AREA-ROOM
100
AcDbPolyline
 90
4
 70
1
 10
167780.831882105
 20
19357.72462716379
 10
173754.1408703137
 20
19357.72462716379
 10
173754.1408703137
 20
15209.32665969926
 10
167780.831882105
 20
15209.32665969926
  0
LWPOLYLINE
  5
FD
330
17
100
AcDbEntity
  8
A-AREA-ROOM
100
AcDbPolyline
 90
4
 70
1
 10
167780.831882105
 20
22635.32665969929
 10
173754.1408703137
 20
22635.32665969929
 10
173754.1408703137
 20
19529.32665969927
 10
167780.831882105
 20
19529.32665969927
  0
LWPOLYLINE
  5
FE
330
17
100
AcDbEntity
  8
A-AREA-ROOM
100
AcDbPolyline
 90
4
 70
1
 10
173876.1408703137
 20
26805.32665969885
 10
177878.1408703137
 20
26805.32665969885
 10
177878.1408703137
 20
21785.82665969888
 10
173876.1408703137
 20
21785.82665969888
  0
LWPOLYLINE
  5
FF
330
17
100
AcDbEntity
  8
A-AREA-ROOM
100
AcDbPolyline
 90
7
 70
0
 10
173903.6408703137
 20
21656.32665969927
 10
177868.3758534483
 20
21629.32665969925
 10
177895.3758534483
 20
19364.45406880764
 10
180548.831882105
 20
19364.45406880764
 10
180537.4062548245
 20
15261.5127243984
 10
173876.1408703138
 20
15261.5127243984
 10
173903.6408703137
 20
21656.32665969927
  0
LWPOLYLINE
  5
100
330
17
100
AcDbEntity
  8
A-AREA-ROOM
100
AcDbPolyline
 90
4
 70
1
 10
178000.1408703137
 20
26805.32665969885
 10
185698.831882105
 20
26805.32665969885
 10
185698.831882105
 20
19527.32665969923
 10
178000.1408703137
 20
19527.32665969923
  0
LWPOLYLINE
  5
101
330
17
100
AcDbEntity
  8
A-AREA-ROOM
100
AcDbPolyline
 90
4
 70
1
 10
180650.831882105
 20
19405.32665969925
 10
185678.831882105
 20
19405.32665969925
 10
185678.831882105
 20
15208.32665954394
 10
180650.831882105
 20
15208.32665954394
  0
LWPOLYLINE
  5
102
330
17
100
AcDbEntity
  8
A-AREA-ROOM
100
AcDbPolyline
 90
4
 70
1
 10
189273.8318821051
 20
34245.32665969885
 10
183432.8318821051
 20
34245.32665969885
 10
183432.8318821051
 20
28529.32665969889
 10
189273.8318821051
 20
28529.32665969889
  0
LWPOLYLINE
  5
103
330
17
100
AcDbEntity
  8
A-AREA-ROOM
100
AcDbPolyline
 90
4
 70
1
 10
198180.831882105
 20
34245.32665969881
 10
189450.8318822148
 20
34245.32665969881
 10
189450.8318822148
 20
28509.32665969884
 10
198180.831882105
 20
28509.32665969884
  0
LWPOLYLINE
  5
104
330
17
100
AcDbEntity
  8
A-AREA-ROOM
100
AcDbPolyline
 90
4
 70
1
 10
204125.4318820375
 20
34245.3266596988
 10
198250.831882105
 20
34245.3266596988
 10
198250.831882105
 20
28509.32665969881
 10
204125.4318820375
 20
28509.32665969881
  0
LWPOLYLINE
  5
105
330
17
100
AcDbEntity
  8
A-AREA-ROOM
100
AcDbPolyline
 90
4
 70
1
 10
220099.2139055785
 20
34095.32665969874
 10
222510.8318821051
 20
34095.32665969874
 10
222510.8318821051
 20
29859.32665969876
 10
220099.2139055785
 20
29859.32665969876
  0
LWPOLYLINE
  5
106
330
17
100
AcDbEntity
  8
A-AREA-ROOM
100
AcDbPolyline
 90
4
 70
1
 10
222733.2982905497
 20
34149.83458512791
 10
225260.8318821052
 20
34149.83458512791
 10
225260.8318821052
 20
29859.32665969874
 10
222733.2982905497
 20
29859.32665969874
  0
LWPOLYLINE
  5
107
330
17
100
AcDbEntity
  8
A-AREA-ROOM
100
AcDbPolyline
 90
4
 70
1
 10
225330.8318821052
 20
34245.32665969872
 10
227910.8318821052
 20
34245.32665969872
 10
227910.8318821052
 20
29859.32665969873
 10
225330.8318821052
 20
29859.32665969873
  0
LWPOLYLINE
  5
108
330
17
100
AcDbEntity
  8
A-AREA-ROOM
100
AcDbPolyline
 90
4
 70
1
 10
230738.831882105
 20
34245.32665969871
 10
228012.8318821052
 20
34245.32665969871
 10
228012.8318821052
 20
29859.32665969873
 10
230738.831882105
 20
29859.32665969873
  0
LWPOLYLINE
  5
109
330
17
100
AcDbEntity
  8
A-AREA-ROOM
100
AcDbPolyline
 90
4
 70
1
 10
230738.831882105
 20
26025.32665969911
 10
226412.1513960942
 20
26025.32665969911
 10
226412.1513960942
 20
28193.07270669169
 10
230738.831882105
 20
28193.07270669169
  0
LWPOLYLINE
  5
10A
330
17
100
AcDbEntity
  8
A-AREA-ROOM
100
AcDbPolyline
 90
4
 70
1
 10
230535.6684488407
 20
25922.32665970228
 10
226452.8318821051
 20
25922.32665970228
 10
226452.8318821051
 20
23357.32665969909
 10
230535.6684488407
 20
23357.32665969909
  0
LWPOLYLINE
  5
10B
330
17
100
AcDbEntity
  8
A-AREA-ROOM
100
AcDbPolyline
 90
4
 70
1
 10
230738.8318821051
 20
23255.32665969911
 10
226452.8318821051
 20
23255.32665969911
 10
226452.8318821051
 20
20657.3266596991
 10
230738.8318821051
 20
20657.3266596991
  0
LWPOLYLINE
  5
10C
330
17
100
AcDbEntity
  8
A-AREA-ROOM
100
AcDbPolyline
 90
4
 70
1
 10
230720.6703429003
 20
20502.32665969892
 10
226452.8318821051
 20
20502.32665969892
 10
226452.8318821051
 20
17957.32665969909
 10
230720.6703429003
 20
17957.32665969909
  0
LWPOLYLINE
  5
10D
330
17
100
AcDbEntity
  8
A-AREA-ROOM
100
AcDbPolyline
 90
4
 70
1
 10
216881.9586229907
 20
26216.45945732435
 10
224848.831882105
 20
26216.45945732435
 10
224848.831882105
 20
24357.32665969916
 10
216881.9586229907
 20
24357.32665969916
  0
LWPOLYLINE
  5
10E
330
17
100
AcDbEntity
  8
A-AREA-ROOM
100
AcDbPolyline
 90
4
 70
1
 10
221300.8318821051
 20
23213.32665969878
 10
224726.831882105
 20
23213.32665969878
 10
224726.831882105
 20
20807.32665969914
 10
221300.8318821051
 20
20807.32665969914
  0
LWPOLYLINE
  5
10F
330
17
100
AcDbEntity
  8
A-AREA-ROOM
100
AcDbPolyline
 90
7
 70
0
 10
216830.831882105
 20
24235.32665969914
 10
224726.831882105
 20
24235.32665969916
 10
224726.831882105
 20
23366.38786312495
 10
221198.8318821051
 20
23315.32665969878
 10
221198.8318821051
 20
20807.32665969915
 10
216830.831882105
 20
20807.32665969915
 10
216830.831882105
 20
24235.32665969914
  0
LWPOLYLINE
  5
110
330
17
100
AcDbEntity
  8
A-AREA-ROOM
100
AcDbPolyline
 90
4
 70
1
 10
216830.831882105
 20
20685.32665969917
 10
224748.8318821051
 20
20685.32665969917
 10
224748.8318821051
 20
15407.32665969942
 10
216830.831882105
 20
15407.32665969942
  0
LWPOLYLINE
  5
111
330
17
100
AcDbEntity
  8
A-AREA-ROOM
100
AcDbPolyline
 90
4
 70
1
 10
226452.8318821051
 20
17855.32665969909
 10
230738.831882105
 20
17855.32665969909
 10
230738.831882105
 20
15169.32665969907
 10
226452.8318821051
 20
15169.32665969907
  0
LWPOLYLINE
  5
112
330
17
100
AcDbEntity
  8
A-AREA-ROOM
100
AcDbPolyline
 90
4
 70
1
 10
230738.831882105
 20
13505.32665969907
 10
228236.8318821035
 20
13505.32665969907
 10
228236.8318821035
 20
9459.82582138893
 10
230738.831882105
 20
9459.82582138893
  0
LWPOLYLINE
  5
113
330
17
100
AcDbEntity
  8
A-AREA-ROOM
100
AcDbPolyline
 90
4
 70
1
 10
228084.8318821049
 20
13505.32665969907
 10
225486.8318821049
 20
13505.32665969907
 10
225486.8318821049
 20
9369.326659698627
 10
228084.8318821049
 20
9369.326659698627
  0
LWPOLYLINE
  5
114
330
17
100
AcDbEntity
  8
A-AREA-ROOM
100
AcDbPolyline
 90
4
 70
1
 10
225384.831882105
 20
13607.32665969907
 10
222826.831882105
 20
13607.32665969907
 10
222826.831882105
 20
9849.826659698621
 10
225384.831882105
 20
9849.826659698621
  0
LWPOLYLINE
  5
115
330
17
100
AcDbEntity
  8
A-AREA-ROOM
100
AcDbPolyline
 90
4
 70
1
 10
222607.331882105
 20
13505.32665969911
 10
220154.7981753918
 20
13505.32665969911
 10
220154.7981753918
 20
9387.204714659232
 10
222607.331882105
 20
9387.204714659232
  0
LWPOLYLINE
  5
116
330
17
100
AcDbEntity
  8
A-AREA-ROOM
100
AcDbPolyline
 90
4
 70
1
 10
220024.831882105
 20
13505.32665969911
 10
217462.8318821044
 20
13505.32665969911
 10
217462.8318821044
 20
9369.32665969863
 10
220024.831882105
 20
9369.32665969863
  0
LWPOLYLINE
  5
117
330
17
100
AcDbEntity
  8
A-AREA-ROOM
100
AcDbPolyline
 90
4
 70
1
 10
217324.831882105
 20
13505.32665969911
 10
214762.8318821046
 20
13505.32665969911
 10
214762.8318821046
 20
9369.326659697685
 10
217324.831882105
 20
9369.326659697685
  0
LWPOLYLINE
  5
118
330
17
100
AcDbEntity
  8
A-AREA-ROOM
100
AcDbPolyline
 90
4
 70
1
 10
214624.831882105
 20
13505.32665969911
 10
212062.8318821047
 20
13505.32665969911
 10
212062.8318821047
 20
9369.326659697692
 10
214624.831882105
 20
9369.326659697692
  0
LWPOLYLINE
  5
119
330
17
100
AcDbEntity
  8
A-AREA-ROOM
100
AcDbPolyline
 90
4
 70
1
 10
211924.831882105
 20
13505.32665969911
 10
209362.8318821047
 20
13505.32665969911
 10
209362.8318821047
 20
9459.825821389442
 10
211924.831882105
 20
9459.825821389442
  0
LWPOLYLINE
  5
11A
330
17
100
AcDbEntity
  8
A-AREA-ROOM
100
AcDbPolyline
 90
4
 70
1
 10
209224.831882105
 20
13505.32665969911
 10
206602.831882105
 20
13505.32665969911
 10
206602.831882105
 20
9369.326659698683
 10
209224.831882105
 20
9369.326659698683
  0
LWPOLYLINE
  5
11B
330
17
100
AcDbEntity
  8
A-AREA-ROOM
100
AcDbPolyline
 90
4
 70
1
 10
216706.831882105
 20
15209.32665954386
 10
201846.831882105
 20
15209.32665954386
 10
201846.831882105
 20
26242.52665963312
 10
216706.831882105
 20
26242.52665963312
  0
LWPOLYLINE
  5
11C
330
17
100
AcDbEntity
  8
A-AREA-ROOM
100
AcDbPolyline
 90
4
 70
1
 10
206383.331882105
 20
13505.32665969911
 10
197616.1318820375
 20
13505.32665969911
 10
197616.1318820375
 20
9369.326659698712
 10
206383.331882105
 20
9369.326659698712
  0
LWPOLYLINE
  5
11D
330
17
100
AcDbEntity
  8
A-AREA-ROOM
100
AcDbPolyline
 90
4
 70
1
 10
197496.1318820375
 20
13507.32665969918
 10
190055.5318819855
 20
13507.32665969918
 10
190055.5318819855
 20
9369.32665969873
 10
197496.1318820375
 20
9369.32665969873
  0
LWPOLYLINE
  5
11E
330
17
100
AcDbEntity
  8
A-AREA-ROOM
100
AcDbPolyline
 90
4
 70
1
 10
188031.0081016594
 20
23653.8297670018
 10
199568.5820167238
 20
23653.8297670018
 10
199568.5820167238
 20
26832.1297699326
 10
188031.0081016594
 20
26832.1297699326
  0
LWPOLYLINE
  5
11F
330
17
100
AcDbEntity
  8
A-AREA-ROOM
100
AcDbPolyline
 90
4
 70
1
 10
189899.5722577684
 20
13470.41751533498
 10
181652.831882105
 20
13470.41751533498
 10
181652.831882105
 20
9369.326659698749
 10
189899.5722577684
 20
9369.326659698749
  0
LWPOLYLINE
  5
120
330
17
100
AcDbEntity
  8
A-AREA-ROOM
100
AcDbPolyline
 90
4
 70
1
 10
156900.831882105
 20
13505.32665969928
 10
159338.8318821051
 20
13505.32665969928
 10
159338.8318821051
 20
9395.219100116867
 10
156900.831882105
 20
9395.219100116867
  0
LWPOLYLINE
  5
121
330
17
100
AcDbEntity
  8
A-AREA-ROOM
100
AcDbPolyline
 90
4
 70
1
 10
159500.831882105
 20
13505.32665969928
 10
162070.928046972
 20
13505.32665969928
 10
162070.928046972
 20
9407.204714659481
 10
159500.831882105
 20
9407.204714659481
  0
LWPOLYLINE
  5
122
330
17
100
AcDbEntity
  8
A-AREA-ROOM
100
AcDbPolyline
 90
4
 70
1
 10
162200.831882105
 20
13505.32665969928
 10
164770.928046972
 20
13505.32665969928
 10
164770.928046972
 20
9407.204714659474
 10
162200.831882105
 20
9407.204714659474
  0
LWPOLYLINE
  5
123
330
17
100
AcDbEntity
  8
A-AREA-ROOM
100
AcDbPolyline
 90
4
 70
1
 10
164900.831882105
 20
13505.32665969928
 10
167422.928046972
 20
13505.32665969928
 10
167422.928046972
 20
9407.204714659461
 10
164900.831882105
 20
9407.204714659461
  0
LWPOLYLINE
  5
124
330
17
100
AcDbEntity
  8
A-AREA-ROOM
100
AcDbPolyline
 90
4
 70
1
 10
167552.831882105
 20
13607.32665969928
 10
170183.831882105
 20
13607.32665969928
 10
170183.831882105
 20
9864.8266596988
 10
167552.831882105
 20
9864.8266596988
  0
LWPOLYLINE
  5
125
330
17
100
AcDbEntity
  8
A-AREA-ROOM
100
AcDbPolyline
 90
4
 70
1
 10
170300.831882105
 20
13505.32665969928
 10
172870.928046972
 20
13505.32665969928
 10
172870.928046972
 20
9407.204714659449
 10
170300.831882105
 20
9407.204714659449
  0
LWPOLYLINE
  5
126
330
17
100
AcDbEntity
  8
A-AREA-ROOM
100
AcDbPolyline
 90
4
 70
1
 10
173000.831882105
 20
13505.32665969927
 10
175570.928046972
 20
13505.32665969927
 10
175570.928046972
 20
9407.20471465944
 10
173000.831882105
 20
9407.20471465944
  0
LWPOLYLINE
  5
127
330
17
100
AcDbEntity
  8
A-AREA-ROOM
100
AcDbPolyline
 90
4
 70
1
 10
175700.831882105
 20
13505.32665969926
 10
178222.928046972
 20
13505.32665969926
 10
178222.928046972
 20
9407.20471465943
 10
175700.831882105
 20
9407.20471465943
  0
LWPOLYLINE
  5
128
330
17
100
AcDbEntity
  8
A-AREA-ROOM
100
AcDbPolyline
 90
4
 70
1
 10
178352.831882105
 20
13505.32665969925
 10
181550.831882105
 20
13505.32665969925
 10
181550.831882105
 20
9369.326659698749
 10
178352.831882105
 20
9369.326659698749
  0
ENDSEC
  0
SECTION
  2
OBJECTS
  0
DICTIONARY
  5
A
330
0
100
AcDbDictionary
281
1
  3
ACAD_COLOR
350
B
  3
ACAD_GROUP
350
C
  3
ACAD_LAYOUT
350
D
  3
ACAD_MATERIAL
350
E
  3
ACAD_MLEADERSTYLE
350
F
  3
ACAD_MLINESTYLE
350
10
  3
ACAD_PLOTSETTINGS
350
11
  3
ACAD_PLOTSTYLENAME
350
12
  3
ACAD_SCALELIST
350
14
  3
ACAD_TABLESTYLE
350
15
  3
ACAD_VISUALSTYLE
350
16
  3
EZDXF_META
350
2D
  0
DICTIONARY
  5
B
330
A
100
AcDbDictionary
281
1
  0
DICTIONARY
  5
C
330
A
100
AcDbDictionary
281
1
  0
DICTIONARY
  5
D
330
A
100
AcDbDictionary
281
1
  3
Model
350
1A
  3
Layout1
350
1E
  0
DICTIONARY
  5
E
330
A
100
AcDbDictionary
281
1
  3
ByBlock
350
1F
  3
ByLayer
350
20
  3
Global
350
21
  0
DICTIONARY
  5
F
330
A
100
AcDbDictionary
281
1
  3
Standard
350
2C
  0
DICTIONARY
  5
10
330
A
100
AcDbDictionary
281
1
  3
Standard
350
22
  0
DICTIONARY
  5
11
330
A
100
AcDbDictionary
281
1
  0
ACDBDICTIONARYWDFLT
  5
12
330
A
100
AcDbDictionary
281
1
  3
Normal
350
13
100
AcDbDictionaryWithDefault
340
13
  0
ACDBPLACEHOLDER
  5
13
330
12
  0
DICTIONARY
  5
14
330
A
100
AcDbDictionary
281
1
  0
DICTIONARY
  5
15
330
A
100
AcDbDictionary
281
1
  0
DICTIONARY
  5
16
330
A
100
AcDbDictionary
281
1
  0
LAYOUT
  5
1A
330
D
100
AcDbPlotSettings
  1

  4
A3
  6

 40
7.5
 41
20.0
 42
7.5
 43
20.0
 44
420.0
 45
297.0
 46
0.0
 47
0.0
 48
0.0
 49
0.0
140
0.0
141
0.0
142
1.0
143
1.0
 70
1024
 72
1
 73
0
 74
5
  7

 75
16
 76
0
 77
2
 78
300
147
1.0
148
0.0
149
0.0
100
AcDbLayout
  1
Model
 70
1
 71
0
 10
0.0
 20
0.0
 11
420.0
 21
297.0
 12
0.0
 22
0.0
 32
0.0
 14
1e+20
 24
1e+20
 34
1e+20
 15
-1e+20
 25
-1e+20
 35
-1e+20
146
0.0
 13
0.0
 23
0.0
 33
0.0
 16
1.0
 26
0.0
 36
0.0
 17
0.0
 27
1.0
 37
0.0
 76
1
330
17
  0
LAYOUT
  5
1E
330
D
100
AcDbPlotSettings
  1

  4
A3
  6

 40
7.5
 41
20.0
 42
7.5
 43
20.0
 44
420.0
 45
297.0
 46
0.0
 47
0.0
 48
0.0
 49
0.0
140
0.0
141
0.0
142
1.0
143
1.0
 70
0
 72
1
 73
0
 74
5
  7

 75
16
 76
0
 77
2
 78
300
147
1.0
148
0.0
149
0.0
100
AcDbLayout
  1
Layout1
 70
1
 71
1
 10
0.0
 20
0.0
 11
420.0
 21
297.0
 12
0.0
 22
0.0
 32
0.0
 14
1e+20
 24
1e+20
 34
1e+20
 15
-1e+20
 25
-1e+20
 35
-1e+20
146
0.0
 13
0.0
 23
0.0
 33
0.0
 16
1.0
 26
0.0
 36
0.0
 17
0.0
 27
1.0
 37
0.0
 76
1
330
1B
  0
MATERIAL
  5
1F
102
{ACAD_REACTORS
330
E
102
}
330
E
100
AcDbMaterial
  1
ByBlock
  2

 70
0
 40
1.0
 71
1
 41
1.0
 91
-1023410177
 42
1.0
 72
1
  3

 73
1
 74
1
 75
1
 44
0.5
 73
0
 45
1.0
 46
1.0
 77
1
  4

 78
1
 79
1
170
1
 48
1.0
171
1
  6

172
1
173
1
174
1
140
1.0
141
1.0
175
1
  7

176
1
177
1
178
1
143
1.0
179
1
  8

270
1
271
1
272
1
145
1.0
146
1.0
273
1
  9

274
1
275
1
276
1
 42
1.0
 72
1
  3

 73
1
 74
1
 75
1
 94
63
  0
MATERIAL
  5
20
102
{ACAD_REACTORS
330
E
102
}
330
E
100
AcDbMaterial
  1
ByLayer
  2

 70
0
 40
1.0
 71
1
 41
1.0
 91
-1023410177
 42
1.0
 72
1
  3

 73
1
 74
1
 75
1
 44
0.5
 73
0
 45
1.0
 46
1.0
 77
1
  4

 78
1
 79
1
170
1
 48
1.0
171
1
  6

172
1
173
1
174
1
140
1.0
141
1.0
175
1
  7

176
1
177
1
178
1
143
1.0
179
1
  8

270
1
271
1
272
1
145
1.0
146
1.0
273
1
  9

274
1
275
1
276
1
 42
1.0
 72
1
  3

 73
1
 74
1
 75
1
 94
63
  0
MATERIAL
  5
21
102
{ACAD_REACTORS
330
E
102
}
330
E
100
AcDbMaterial
  1
Global
  2

 70
0
 40
1.0
 71
1
 41
1.0
 91
-1023410177
 42
1.0
 72
1
  3

 73
1
 74
1
 75
1
 44
0.5
 73
0
 45
1.0
 46
1.0
 77
1
  4

 78
1
 79
1
170
1
 48
1.0
171
1
  6

172
1
173
1
174
1
140
1.0
141
1.0
175
1
  7

176
1
177
1
178
1
143
1.0
179
1
  8

270
1
271
1
272
1
145
1.0
146
1.0
273
1
  9

274
1
275
1
276
1
 42
1.0
 72
1
  3

 73
1
 74
1
 75
1
 94
63
  0
MLINESTYLE
  5
22
102
{ACAD_REACTORS
330
10
102
}
330
10
100
AcDbMlineStyle
  2
Standard
 70
0
  3

 62
256
 51
90.0
 52
90.0
 71
2
 49
0.5
 62
256
  6
BYLAYER
 49
-0.5
 62
256
  6
BYLAYER
  0
MLEADERSTYLE
  5
2C
102
{ACAD_REACTORS
330
F
102
}
330
F
100
AcDbMLeaderStyle
179
2
170
2
171
1
172
0
 90
2
 40
0.0
 41
0.0
173
1
 91
-1056964608
 92
-2
290
1
 42
2.0
291
1
 43
8.0
  3
Standard
 44
4.0
300

342
29
174
1
175
1
176
0
178
1
 93
-1056964608
 45
4.0
292
0
297
0
 46
4.0
 94
-1056964608
 47
1.0
 49
1.0
140
1.0
294
1
141
0.0
177
0
142
1.0
295
0
296
0
143
3.75
271
0
272
9
273
9
  0
DICTIONARY
  5
2D
330
A
100
AcDbDictionary
280
1
281
1
  3
CREATED_BY_EZDXF
350
2E
  3
WRITTEN_BY_EZDXF
350
12B
  0
DICTIONARYVAR
  5
2E
330
2D
100
DictionaryVariables
280
0
  1
1.4.3 @ 2026-08-20T22:41:25.429626+00:00
  0
DICTIONARYVAR
  5
12B
330
2D
100
DictionaryVariables
280
0
  1
1.4.3 @ 2026-08-20T22:41:25.739689+00:00
  0
ENDSEC
  0
EOF
