  0
SECTION
  2
HEADER
  9
$ACADVER
  1
AC1032
  9
$ACADMAINTVER
 90
4
  9
$DWGCODEPAGE
  3
ANSI_1252
  9
$LASTSAVEDBY
  1
ezdxf
  9
$REQUIREDVERSIONS
160
0
  9
$INSBASE
 10
0.0
 20
0.0
 30
0.0
  9
$EXTMIN
 10
1e+20
 20
1e+20
 30
1e+20
  9
$EXTMAX
 10
-1e+20
 20
-1e+20
 30
-1e+20
  9
$LIMMIN
 10
0.0
 20
0.0
  9
$LIMMAX
 10
420.0
 20
297.0
  9
$ORTHOMODE
 70
0
  9
$REGENMODE
 70
1
  9
$FILLMODE
 70
1
  9
$QTEXTMODE
 70
0
  9
$MIRRTEXT
 70
1
  9
$LTSCALE
 40
1.0
  9
$ATTMODE
 70
1
  9
$TEXTSIZE
 40
2.5
  9
$TRACEWID
 40
1.0
  9
$TEXTSTYLE
  7
Standard
  9
$CLAYER
  8
0
  9
$CELTYPE
  6
ByLayer
  9
$CECOLOR
 62
256
  9
$CELTSCALE
 40
1.0
  9
$DISPSILH
 70
0
  9
$DIMSCALE
 40
1.0
  9
$DIMASZ
 40
2.5
  9
$DIMEXO
 40
0.625
  9
$DIMDLI
 40
3.75
  9
$DIMRND
 40
0.0
  9
$DIMDLE
 40
0.0
  9
$DIMEXE
 40
1.25
  9
$DIMTP
 40
0.0
  9
$DIMTM
 40
0.0
  9
$DIMTXT
 40
2.5
  9
$DIMCEN
 40
2.5
  9
$DIMTSZ
 40
0.0
  9
$DIMTOL
 70
0
  9
$DIMLIM
 70
0
  9
$DIMTIH
 70
0
  9
$DIMTOH
 70
0
  9
$DIMSE1
 70
0
  9
$DIMSE2
 70
0
  9
$DIMTAD
 70
1
  9
$DIMZIN
 70
8
  9
$DIMBLK
  1

  9
$DIMASO
 70
1
  9
$DIMSHO
 70
1
  9
$DIMPOST
  1

  9
$DIMAPOST
  1

  9
$DIMALT
 70
0
  9
$DIMALTD
 70
3
  9
$DIMALTF
 40
0.03937007874
  9
$DIMLFAC
 40
1.0
  9
$DIMTOFL
 70
1
  9
$DIMTVP
 40
0.0
  9
$DIMTIX
 70
0
  9
$DIMSOXD
 70
0
  9
$DIMSAH
 70
0
  9
$DIMBLK1
  1

  9
$DIMBLK2
  1

  9
$DIMSTYLE
  2
ISO-25
  9
$DIMCLRD
 70
0
  9
$DIMCLRE
 70
0
  9
$DIMCLRT
 70
0
  9
$DIMTFAC
 40
1.0
  9
$DIMGAP
 40
0.625
  9
$DIMJUST
 70
0
  9
$DIMSD1
 70
0
  9
$DIMSD2
 70
0
  9
$DIMTOLJ
 70
0
  9
$DIMTZIN
 70
8
  9
$DIMALTZ
 70
0
  9
$DIMALTTZ
 70
0
  9
$DIMUPT
 70
0
  9
$DIMDEC
 70
2
  9
$DIMTDEC
 70
2
  9
$DIMALTU
 70
2
  9
$DIMALTTD
 70
3
  9
$DIMTXSTY
  7
Standard
  9
$DIMAUNIT
 70
0
  9
$DIMADEC
 70
0
  9
$DIMALTRND
 40
0.0
  9
$DIMAZIN
 70
0
  9
$DIMDSEP
 70
44
  9
$DIMATFIT
 70
3
  9
$DIMFRAC
 70
0
  9
$DIMLDRBLK
  1

  9
$DIMLUNIT
 70
2
  9
$DIMLWD
 70
-2
  9
$DIMLWE
 70
-2
  9
$DIMTMOVE
 70
0
  9
$DIMFXL
 40
1.0
  9
$DIMFXLON
 70
0
  9
$DIMJOGANG
 40
0.785398163397
  9
$DIMTFILL
 70
0
  9
$DIMTFILLCLR
 70
0
  9
$DIMARCSYM
 70
0
  9
$DIMLTYPE
  6

  9
$DIMLTEX1
  6

  9
$DIMLTEX2
  6

  9
$DIMTXTDIRECTION
 70
0
  9
$LUNITS
 70
2
  9
$LUPREC
 70
4
  9
$SKETCHINC
 40
1.0
  9
$FILLETRAD
 40
10.0
  9
$AUNITS
 70
0
  9
$AUPREC
 70
2
  9
$MENU
  1
.
  9
$ELEVATION
 40
0.0
  9
$PELEVATION
 40
0.0
  9
$THICKNESS
 40
0.0
  9
$LIMCHECK
 70
0
  9
$CHAMFERA
 40
0.0
  9
$CHAMFERB
 40
0.0
  9
$CHAMFERC
 40
0.0
  9
$CHAMFERD
 40
0.0
  9
$SKPOLY
 70
0
  9
$TDCREATE
 40
2461273.986828704
  9
$TDUCREATE
 40
2458532.153996898
  9
$TDUPDATE
 40
2461273.986828704
  9
$TDUUPDATE
 40
2458532.1544311
  9
$TDINDWG
 40
0.0
  9
$TDUSRTIMER
 40
0.0
  9
$USRTIMER
 70
1
  9
$ANGBASE
 50
0.0
  9
$ANGDIR
 70
0
  9
$PDMODE
 70
0
  9
$PDSIZE
 40
0.0
  9
$PLINEWID
 40
0.0
  9
$SPLFRAME
 70
0
  9
$SPLINETYPE
 70
6
  9
$SPLINESEGS
 70
8
  9
$HANDSEED
  5
101
  9
$SURFTAB1
 70
6
  9
$SURFTAB2
 70
6
  9
$SURFTYPE
 70
6
  9
$SURFU
 70
6
  9
$SURFV
 70
6
  9
$UCSBASE
  2

  9
$UCSNAME
  2

  9
$UCSORG
 10
0.0
 20
0.0
 30
0.0
  9
$UCSXDIR
 10
1.0
 20
0.0
 30
0.0
  9
$UCSYDIR
 10
0.0
 20
1.0
 30
0.0
  9
$UCSORTHOREF
  2

  9
$UCSORTHOVIEW
 70
0
  9
$UCSORGTOP
 10
0.0
 20
0.0
 30
0.0
  9
$UCSORGBOTTOM
 10
0.0
 20
0.0
 30
0.0
  9
$UCSORGLEFT
 10
0.0
 20
0.0
 30
0.0
  9
$UCSORGRIGHT
 10
0.0
 20
0.0
 30
0.0
  9
$UCSORGFRONT
 10
0.0
 20
0.0
 30
0.0
  9
$UCSORGBACK
 10
0.0
 20
0.0
 30
0.0
  9
$PUCSBASE
  2

  9
$PUCSNAME
  2

  9
$PUCSORG
 10
0.0
 20
0.0
 30
0.0
  9
$PUCSXDIR
 10
1.0
 20
0.0
 30
0.0
  9
$PUCSYDIR
 10
0.0
 20
1.0
 30
0.0
  9
$PUCSORTHOREF
  2

  9
$PUCSORTHOVIEW
 70
0
  9
$PUCSORGTOP
 10
0.0
 20
0.0
 30
0.0
  9
$PUCSORGBOTTOM
 10
0.0
 20
0.0
 30
0.0
  9
$PUCSORGLEFT
 10
0.0
 20
0.0
 30
0.0
  9
$PUCSORGRIGHT
 10
0.0
 20
0.0
 30
0.0
  9
$PUCSORGFRONT
 10
0.0
 20
0.0
 30
0.0
  9
$PUCSORGBACK
 10
0.0
 20
0.0
 30
0.0
  9
$USERI1
 70
0
  9
$USERI2
 70
0
  9
$USERI3
 70
0
  9
$USERI4
 70
0
  9
$USERI5
 70
0
  9
$USERR1
 40
0.0
  9
$USERR2
 40
0.0
  9
$USERR3
 40
0.0
  9
$USERR4
 40
0.0
  9
$USERR5
 40
0.0
  9
$WORLDVIEW
 70
1
  9
$SHADEDGE
 70
3
  9
$SHADEDIF
 70
70
  9
$TILEMODE
 70
1
  9
$MAXACTVP
 70
64
  9
$PINSBASE
 10
0.0
 20
0.0
 30
0.0
  9
$PLIMCHECK
 70
0
  9
$PEXTMIN
 10
1e+20
 20
1e+20
 30
1e+20
  9
$PEXTMAX
 10
-1e+20
 20
-1e+20
 30
-1e+20
  9
$PLIMMIN
 10
0.0
 20
0.0
  9
$PLIMMAX
 10
420.0
 20
297.0
  9
$UNITMODE
 70
0
  9
$VISRETAIN
 70
1
  9
$PLINEGEN
 70
0
  9
$PSLTSCALE
 70
1
  9
$TREEDEPTH
 70
3020
  9
$CMLSTYLE
  2
Standard
  9
$CMLJUST
 70
0
  9
$CMLSCALE
 40
20.0
  9
$PROXYGRAPHICS
 70
1
  9
$MEASUREMENT
 70
1
  9
$CELWEIGHT
370
-1
  9
$ENDCAPS
280
0
  9
$JOINSTYLE
280
0
  9
$LWDISPLAY
290
0
  9
$INSUNITS
 70
4
  9
$HYPERLINKBASE
  1

  9
$STYLESHEET
  1

  9
$XEDIT
290
1
  9
$CEPSNTYPE
380
0
  9
$PSTYLEMODE
290
1
  9
$FINGERPRINTGUID
  2
{9014F813-BF1F-46B0-912E-67BCE795C2AE}
  9
$VERSIONGUID
  2
{CE703943-62AC-484F-94FA-39BABBF5AC9C}
  9
$EXTNAMES
290
1
  9
$PSVPSCALE
 40
0.0
  9
$OLESTARTUP
290
0
  9
$SORTENTS
280
127
  9
$INDEXCTL
280
0
  9
$HIDETEXT
280
1
  9
$XCLIPFRAME
280
1
  9
$HALOGAP
280
0
  9
$OBSCOLOR
 70
257
  9
$OBSLTYPE
280
0
  9
$INTERSECTIONDISPLAY
280
0
  9
$INTERSECTIONCOLOR
 70
257
  9
$DIMASSOC
280
2
  9
$PROJECTNAME
  1

  9
$CAMERADISPLAY
290
0
  9
$LENSLENGTH
 40
50.0
  9
$CAMERAHEIGHT
 40
0.0
  9
$STEPSPERSEC
 40
24.0
  9
$STEPSIZE
 40
100.0
  9
$3DDWFPREC
 40
2.0
  9
$PSOLWIDTH
 40
0.005
  9
$PSOLHEIGHT
 40
0.08
  9
$LOFTANG1
 40
1.570796326795
  9
$LOFTANG2
 40
1.570796326795
  9
$LOFTMAG1
 40
0.0
  9
$LOFTMAG2
 40
0.0
  9
$LOFTPARAM
 70
7
  9
$LOFTNORMALS
280
1
  9
$LATITUDE
 40
37.795
  9
$LONGITUDE
 40
-122.394
  9
$NORTHDIRECTION
 40
0.0
  9
$TIMEZONE
 70
-8000
  9
$LIGHTGLYPHDISPLAY
280
1
  9
$TILEMODELIGHTSYNCH
280
1
  9
$CMATERIAL
347
20
  9
$SOLIDHIST
280
0
  9
$SHOWHIST
280
1
  9
$DWFFRAME
280
2
  9
$DGNFRAME
280
2
  9
$REALWORLDSCALE
290
1
  9
$INTERFERECOLOR
 62
256
  9
$CSHADOW
280
0
  9
$SHADOWPLANELOCATION
 40
0.0
  0
ENDSEC
  0
SECTION
  2
CLASSES
  0
CLASS
  1
ACDBDICTIONARYWDFLT
  2
AcDbDictionaryWithDefault
  3
ObjectDBX Classes
 90
0
 91
0
280
0
281
0
  0
CLASS
  1
SUN
  2
AcDbSun
  3
SCENEOE
 90
1153
 91
0
280
0
281
0
  0
CLASS
  1
VISUALSTYLE
  2
AcDbVisualStyle
  3
ObjectDBX Classes
 90
4095
 91
0
280
0
281
0
  0
CLASS
  1
MATERIAL
  2
AcDbMaterial
  3
ObjectDBX Classes
 90
1153
 91
0
280
0
281
0
  0
CLASS
  1
SCALE
  2
AcDbScale
  3
ObjectDBX Classes
 90
1153
 91
0
280
0
281
0
  0
CLASS
  1
TABLESTYLE
  2
AcDbTableStyle
  3
ObjectDBX Classes
 90
4095
 91
0
280
0
281
0
  0
CLASS
  1
MLEADERSTYLE
  2
AcDbMLeaderStyle
  3
ACDB_MLEADERSTYLE_CLASS
 90
4095
 91
0
280
0
281
0
  0
CLASS
  1
DICTIONARYVAR
  2
AcDbDictionaryVar
  3
ObjectDBX Classes
 90
0
 91
0
280
0
281
0
  0
CLASS
  1
CELLSTYLEMAP
  2
AcDbCellStyleMap
  3
ObjectDBX Classes
 90
1152
 91
0
280
0
281
0
  0
CLASS
  1
MENTALRAYRENDERSETTINGS
  2
AcDbMentalRayRenderSettings
  3
SCENEOE
 90
1024
 91
0
280
0
281
0
  0
CLASS
  1
ACDBDETAILVIEWSTYLE
  2
AcDbDetailViewStyle
  3
ObjectDBX Classes
 90
1025
 91
0
280
0
281
0
  0
CLASS
  1
ACDBSECTIONVIEWSTYLE
  2
AcDbSectionViewStyle
  3
ObjectDBX Classes
 90
1025
 91
0
280
0
281
0
  0
CLASS
  1
RASTERVARIABLES
  2
AcDbRasterVariables
  3
ISM
 90
0
 91
0
280
0
281
0
  0
CLASS
  1
LAYOUT
  2
AcDbLayout
  3
ObjectDBX Classes
 90
0
 91
0
280
0
281
0
  0
CLASS
  1
ACDBPLACEHOLDER
  2
AcDbPlaceHolder
  3
ObjectDBX Classes
 90
0
 91
0
280
0
281
0
  0
ENDSEC
  0
SECTION
  2
TABLES
  0
TABLE
  2
VPORT
  5
8
330
0
100
AcDbSymbolTable
 70
1
  0
VPORT
  5
23
330
8
100
AcDbSymbolTableRecord
100
AcDbViewportTableRecord
  2
*Active
 70
0
 10
0.0
 20
0.0
 11
1.0
 21
1.0
 12
0.0
 22
0.0
 13
0.0
 23
0.0
 14
0.5
 24
0.5
 15
0.5
 25
0.5
 16
0.0
 26
0.0
 36
1.0
 17
0.0
 27
0.0
 37
0.0
 40
1000.0
 41
1.34
 42
50.0
 43
0.0
 44
0.0
 50
0.0
 51
0.0
 71
0
 72
1000
 73
1
 74
3
 75
0
 76
0
 77
0
 78
0
281
0
 65
0
146
0.0
  0
ENDTAB
  0
TABLE
  2
LTYPE
  5
2
330
0
100
AcDbSymbolTable
 70
3
  0
LTYPE
  5
24
330
2
100
AcDbSymbolTableRecord
100
AcDbLinetypeTableRecord
  2
ByBlock
 70
0
  3

 72
65
 73
0
 40
0.0
  0
LTYPE
  5
25
330
2
100
AcDbSymbolTableRecord
100
AcDbLinetypeTableRecord
  2
ByLayer
 70
0
  3

 72
65
 73
0
 40
0.0
  0
LTYPE
  5
26
330
2
100
AcDbSymbolTableRecord
100
AcDbLinetypeTableRecord
  2
Continuous
 70
0
  3

 72
65
 73
0
 40
0.0
  0
ENDTAB
  0
TABLE
  2
LAYER
  5
1
330
0
100
AcDbSymbolTable
 70
10
  0
LAYER
  5
27
330
1
100
AcDbSymbolTableRecord
100
AcDbLayerTableRecord
  2
0
 70
0
 62
7
  6
Continuous
370
-3
390
13
347
21
  0
LAYER
  5
28
330
1
100
AcDbSymbolTableRecord
100
AcDbLayerTableRecord
  2
Defpoints
 70
0
 62
7
  6
Continuous
290
0
370
-3
390
13
347
21
  0
LAYER
  5
2F
330
1
100
AcDbSymbolTableRecord
100
AcDbLayerTableRecord
  2
PRSNAMES
 70
0
 62
7
  6
Continuous
370
-3
390
13
347
21
  0
LAYER
  5
32
330
1
100
AcDbSymbolTableRecord
100
AcDbLayerTableRecord
  2
FALARM
 70
0
 62
7
  6
Continuous
370
-3
390
13
347
21
  0
LAYER
  5
3C
330
1
100
AcDbSymbolTableRecord
100
AcDbLayerTableRecord
  2
GIA
 70
0
 62
7
  6
Continuous
370
-3
390
13
347
21
  0
LAYER
  5
3F
330
1
100
AcDbSymbolTableRecord
100
AcDbLayerTableRecord
  2
WASTE & RECYCLING STATIONS
 70
0
 62
7
  6
Continuous
370
-3
390
13
347
21
  0
LAYER
  5
45
330
1
100
AcDbSymbolTableRecord
100
AcDbLayerTableRecord
  2
A-ANNO-DIMS
 70
0
 62
7
  6
Continuous
370
-3
390
13
347
21
  0
LAYER
  5
48
330
1
100
AcDbSymbolTableRecord
100
AcDbLayerTableRecord
  2
BUILDING_ACCESS
 70
0
 62
7
  6
Continuous
370
-3
390
13
347
21
  0
LAYER
  5
53
330
1
100
AcDbSymbolTableRecord
100
AcDbLayerTableRecord
  2
A-AREA-IDEN
 70
0
 62
7
  6
Continuous
370
-3
390
13
347
21
  0
LAYER
  5
C5
330
1
100
AcDbSymbolTableRecord
100
AcDbLayerTableRecord
  2
A-AREA-ROOM
 70
0
 62
7
  6
Continuous
370
-3
390
13
347
21
  0
ENDTAB
  0
TABLE
  2
STYLE
  5
5
330
0
100
AcDbSymbolTable
 70
1
  0
STYLE
  5
29
330
5
100
AcDbSymbolTableRecord
100
AcDbTextStyleTableRecord
  2
Standard
 70
0
 40
0.0
 41
1.0
 50
0.0
 71
0
 42
2.5
  3
txt
  4

  0
ENDTAB
  0
TABLE
  2
VIEW
  5
7
330
0
100
AcDbSymbolTable
 70
0
  0
ENDTAB
  0
TABLE
  2
UCS
  5
6
330
0
100
AcDbSymbolTable
 70
0
  0
ENDTAB
  0
TABLE
  2
APPID
  5
3
330
0
100
AcDbSymbolTable
 70
3
  0
APPID
  5
2A
330
3
100
AcDbSymbolTableRecord
100
AcDbRegAppTableRecord
  2
ACAD
 70
0
  0
APPID
  5
FE
330
3
100
AcDbSymbolTableRecord
100
AcDbRegAppTableRecord
  2
HATCHBACKGROUNDCOLOR
 70
0
  0
APPID
  5
FF
330
3
100
AcDbSymbolTableRecord
100
AcDbRegAppTableRecord
  2
EZDXF
 70
0
  0
ENDTAB
  0
TABLE
  2
DIMSTYLE
  5
4
330
0
100
AcDbSymbolTable
 70
1
100
AcDbDimStyleTable
  0
DIMSTYLE
105
2B
330
4
100
AcDbSymbolTableRecord
100
AcDbDimStyleTableRecord
  2
Standard
 70
0
 40
1.0
 41
2.5
 42
0.625
 43
3.75
 44
1.25
 45
0.0
 46
0.0
 47
0.0
 48
0.0
 49
2.5
140
2.5
141
2.5
142
0.0
143
0.03937007874
144
1.0
145
0.0
146
1.0
147
0.625
148
0.0
 69
0
 70
0
 71
0
 72
0
 73
0
 74
0
 75
0
 76
0
 77
1
 78
8
 79
3
170
0
171
3
172
1
173
0
174
0
175
0
176
0
177
0
178
0
179
2
271
2
272
2
273
2
274
3
275
0
276
0
277
2
278
44
279
0
280
0
281
0
282
0
283
0
284
8
285
0
286
0
288
0
289
3
290
0
371
-2
372
-2
  0
ENDTAB
  0
TABLE
  2
BLOCK_RECORD
  5
9
330
0
100
AcDbSymbolTable
 70
2
  0
BLOCK_RECORD
  5
17
330
9
100
AcDbSymbolTableRecord
100
AcDbBlockTableRecord
  2
*Model_Space
340
1A
 70
0
280
1
281
0
  0
BLOCK_RECORD
  5
1B
330
9
100
AcDbSymbolTableRecord
100
AcDbBlockTableRecord
  2
*Paper_Space
340
1E
 70
0
280
1
281
0
  0
ENDTAB
  0
ENDSEC
  0
SECTION
  2
BLOCKS
  0
BLOCK
  5
18
330
17
100
AcDbEntity
  8
0
100
AcDbBlockBegin
  2
*Model_Space
 70
0
 10
0.0
 20
0.0
 30
0.0
  3
*Model_Space
  1

  0
ENDBLK
  5
19
330
17
100
AcDbEntity
  8
0
100
AcDbBlockEnd
  0
BLOCK
  5
1C
330
1B
100
AcDbEntity
  8
0
100
AcDbBlockBegin
  2
*Paper_Space
 70
0
 10
0.0
 20
0.0
 30
0.0
  3
*Paper_Space
  1

  0
ENDBLK
  5
1D
330
1B
100
AcDbEntity
  8
0
100
AcDbBlockEnd
  0
ENDSEC
  0
SECTION
  2
ENTITIES
  0
TEXT
  5
30
330
17
100
AcDbEntity
  8
PRSNAMES
100
AcDbText
 10
94261.31966166137
 20
24293.40091087214
 30
0.0
 40
250.0
  1
\pxqc;{\fArial|b0|i0|c0|p34;\H1.6x;Z01}
100
AcDbText
  0
TEXT
  5
31
330
17
100
AcDbEntity
  8
PRSNAMES
100
AcDbText
 10
89862.67811854662
 20
20982.48865184173
 30
0.0
 40
250.0
  1
\pxqc;{\fArial|b0|i0|c0|p34;\H1.6x;Z02}
100
AcDbText
  0
TEXT
  5
33
330
17
100
AcDbEntity
  8
FALARM
100
AcDbText
 10
282153.5570322826
 20
41406.07163135697
 30
0.0
 40
112.5
  1
HEAT DETECTOR AND SOUNDER BASE
100
AcDbText
  0
TEXT
  5
34
330
17
100
AcDbEntity
  8
FALARM
100
AcDbText
 10
282153.5570322826
 20
40906.07163135696
 30
0.0
 40
112.5
  1
FIRE ALARM PANEL
100
AcDbText
  0
TEXT
  5
35
330
17
100
AcDbEntity
  8
FALARM
100
AcDbText
 10
282153.5570322826
 20
39906.07163135697
 30
0.0
 40
112.5
  1
INTERFACE UNIT
100
AcDbText
  0
TEXT
  5
36
330
17
100
AcDbEntity
  8
FALARM
100
AcDbText
 10
282153.5570322826
 20
42906.07163135694
 30
0.0
 40
112.5
  1
MANUAL CALL POINT
100
AcDbText
  0
TEXT
  5
37
330
17
100
AcDbEntity
  8
FALARM
100
AcDbText
 10
281340.1621373595
 20
43336.08103975214
 30
0.0
 40
200.0
  1
FIRE  ALARM  &  EMERGENCY  LIGHTING  LEGEND
100
AcDbText
  0
TEXT
  5
38
330
17
100
AcDbEntity
  8
FALARM
100
AcDbText
 10
282153.5363618459
 20
40612.32846454363
 30
0.0
 40
112.5
  1
SYMBOL TAG WHERE "X" DENOTES ZONE NUMBER AND\P"Y" DENOTES POSITION OF DEVICE
100
AcDbText
  0
TEXT
  5
39
330
17
100
AcDbEntity
  8
FALARM
100
AcDbText
 10
281417.6551767234
 20
40406.04957605472
 30
0.0
 40
112.5
  1
X/Y
100
AcDbText
  0
TEXT
  5
3A
330
17
100
AcDbEntity
  8
FALARM
100
AcDbText
 10
282153.536361846
 20
42112.32846454364
 30
0.0
 40
112.5
  1
COMBINED SMOKE/HEAT DETECTOR AND SOUNDER BASE
100
AcDbText
  0
TEXT
  5
3B
330
17
100
AcDbEntity
  8
FALARM
100
AcDbText
 10
282153.55703226
 20
42406.07163141819
 30
0.0
 40
112.4999999775
  1
SMOKE DETECTOR (LOCATED IN CEILING VOID)
100
AcDbText
  0
TEXT
  5
3D
330
17
100
AcDbEntity
  8
GIA
100
AcDbText
 10
329624.1425605197
 20
51928.39313949532
 30
0.0
 40
401.0720291742853
  1
\pxqc;GIA
100
AcDbText
  0
TEXT
  5
3E
330
17
100
AcDbEntity
  8
GIA
100
AcDbText
 10
332747.5693771986
 20
51928.39313949542
 30
0.0
 40
401.0920837784742
  1
\A1;1843.20 m{\H0.7x;\S2^ ;}
100
AcDbText
  0
TEXT
  5
40
330
17
100
AcDbEntity
  8
WASTE & RECYCLING STATIONS
100
AcDbText
 10
281230.0534566887
 20
43510.59110965364
 30
0.0
 40
257.2562063916069
  1
{\fArial|b0|i0|c0|p34;Waste & Recycling Station Legend}
100
AcDbText
  0
TEXT
  5
41
330
17
100
AcDbEntity
  8
WASTE & RECYCLING STATIONS
100
AcDbText
 10
283611.3380095924
 20
42748.1534374717
 30
0.0
 40
245.0059108491495
  1
{\fArial|b0|i0|c0|p34;Waste & Recycling Station (Six Units):\PEssential Location}
100
AcDbText
  0
TEXT
  5
42
330
17
100
AcDbEntity
  8
WASTE & RECYCLING STATIONS
100
AcDbText
 10
283611.3380095924
 20
41250.40075650125
 30
0.0
 40
245.0059108491495
  1
{\fArial|b0|i0|c0|p34;Waste & Recycling Station (Six Units):\PPreferable Location}
100
AcDbText
  0
TEXT
  5
43
330
17
100
AcDbEntity
  8
WASTE & RECYCLING STATIONS
100
AcDbText
 10
283611.3380095924
 20
39752.6480755308
 30
0.0
 40
245.0059108491495
  1
{\fArial|b0|i0|c0|p34;Food Waste Caddy:\PCounter Top Type,\PSmall, 5L}
100
AcDbText
  0
TEXT
  5
44
330
17
100
AcDbEntity
  8
WASTE & RECYCLING STATIONS
100
AcDbText
 10
283611.3380095924
 20
38254.89539456034
 30
0.0
 40
245.0059108491495
  1
{\fArial|b0|i0|c0|p34;Food Waste Caddy:\PFloor Standing Type,\PLarge, 15L}
100
AcDbText
  0
TEXT
  5
46
330
17
100
AcDbEntity
  8
A-ANNO-DIMS
100
AcDbText
 10
197172.8346803538
 20
33276.00657868533
 30
0.0
 40
250.0
  1
1650
100
AcDbText
  0
TEXT
  5
47
330
17
100
AcDbEntity
  8
A-ANNO-DIMS
100
AcDbText
 10
200422.8346803534
 20
33276.00657868533
 30
0.0
 40
250.0
  1
1650
100
AcDbText
  0
TEXT
  5
49
330
17
100
AcDbEntity
  8
BUILDING_ACCESS
100
AcDbText
 10
330365.37434819
 20
52332.83520709774
 30
0.0
 40
367.3936753771544
  1
{\fArial|b0|i0|c0|p0;Legend}
100
AcDbText
  0
TEXT
  5
4A
330
17
100
AcDbEntity
  8
BUILDING_ACCESS
100
AcDbText
 10
330769.3566618298
 20
46336.2122859125
 30
0.0
 40
244.9291169181029
  1
{\fArial|b0|i0|c0|p0;Access Route}
100
AcDbText
  0
TEXT
  5
4B
330
17
100
AcDbEntity
  8
BUILDING_ACCESS
100
AcDbText
 10
330769.3566618298
 20
42662.27553214172
 30
0.0
 40
244.9291169181029
  1
{\fArial|b0|i0|c0|p0;Exit Route}
100
AcDbText
  0
TEXT
  5
4C
330
17
100
AcDbEntity
  8
BUILDING_ACCESS
100
AcDbText
 10
330769.3566618297
 20
50010.14903968378
 30
0.0
 40
244.9291169181029
  1
{\fArial|b0|i0|c0|p0;Unisex Toilet}
100
AcDbText
  0
TEXT
  5
4D
330
17
100
AcDbEntity
  8
BUILDING_ACCESS
100
AcDbText
 10
330769.3566618297
 20
51417.74791847197
 30
0.0
 40
244.9291169181029
  1
{\fArial|b0|i0|c0|p0;Hand Sanitizer Dispenser}
100
AcDbText
  0
TEXT
  5
4E
330
17
100
AcDbEntity
  8
BUILDING_ACCESS
100
AcDbText
 10
330769.3566618297
 20
47560.85787050291
 30
0.0
 40
244.9291169181029
  1
{\fArial|b0|i0|c0|p0;'Up' Only Stairs}
100
AcDbText
  0
TEXT
  5
4F
330
17
100
AcDbEntity
  8
BUILDING_ACCESS
100
AcDbText
 10
330769.3566618297
 20
43886.92111673169
 30
0.0
 40
244.9291169181029
  1
{\fArial|b0|i0|c0|p0;'Down' Only Stairs}
100
AcDbText
  0
TEXT
  5
50
330
17
100
AcDbEntity
  8
BUILDING_ACCESS
100
AcDbText
 10
330769.3566618297
 20
48785.50345509335
 30
0.0
 40
244.9291169181029
  1
{\fArial|b0|i0|c0|p0;Building Entrance}
100
AcDbText
  0
TEXT
  5
51
330
17
100
AcDbEntity
  8
BUILDING_ACCESS
100
AcDbText
 10
330769.3566618297
 20
45111.56670132207
 30
0.0
 40
244.9291169181029
  1
{\fArial|b0|i0|c0|p0;Building Exit}
100
AcDbText
  0
TEXT
  5
52
330
17
100
AcDbEntity
  8
BUILDING_ACCESS
100
AcDbText
 10
330769.3566618298
 20
41437.62994755128
 30
0.0
 40
244.9291169181029
  1
{\fArial|b0|i0|c0|p34;Two Way Route}
100
AcDbText
  0
TEXT
  5
54
330
17
100
AcDbEntity
  8
A-AREA-IDEN
100
AcDbText
 10
157246.0887567848
 20
31343.69942652527
 30
0.0
 40
199.9999999999998
  1
Office
100
AcDbText
  0
TEXT
  5
55
330
17
100
AcDbEntity
  8
A-AREA-IDEN
100
AcDbText
 10
157407.2991578725
 20
31632.69180422872
 30
0.0
 40
199.9999999999998
  1
3.54
100
AcDbText
  0
TEXT
  5
56
330
17
100
AcDbEntity
  8
A-AREA-IDEN
100
AcDbText
 10
161069.5893795866
 20
31343.69942652527
 30
0.0
 40
199.9999999999998
  1
Office
100
AcDbText
  0
TEXT
  5
57
330
17
100
AcDbEntity
  8
A-AREA-IDEN
100
AcDbText
 10
161230.7997806742
 20
31632.69180422872
 30
0.0
 40
199.9999999999998
  1
3.53
100
AcDbText
  0
TEXT
  5
58
330
17
100
AcDbEntity
  8
A-AREA-IDEN
100
AcDbText
 10
163599.847144676
 20
31343.69942652527
 30
0.0
 40
199.9999999999998
  1
Office
100
AcDbText
  0
TEXT
  5
59
330
17
100
AcDbEntity
  8
A-AREA-IDEN
100
AcDbText
 10
163761.0575457637
 20
31632.69180422872
 30
0.0
 40
199.9999999999998
  1
3.52
100
AcDbText
  0
TEXT
  5
5A
330
17
100
AcDbEntity
  8
A-AREA-IDEN
100
AcDbText
 10
165399.1415554061
 20
31343.69942652527
 30
0.0
 40
199.9999999999998
  1
Office
100
AcDbText
  0
TEXT
  5
5B
330
17
100
AcDbEntity
  8
A-AREA-IDEN
100
AcDbText
 10
165560.3519564939
 20
31632.69180422872
 30
0.0
 40
199.9999999999998
  1
3.51
100
AcDbText
  0
TEXT
  5
5C
330
17
100
AcDbEntity
  8
A-AREA-IDEN
100
AcDbText
 10
158126.6598792173
 20
26397.06193382147
 30
0.0
 40
199.9999999999998
  1
4P Tut Niche
100
AcDbText
  0
TEXT
  5
5D
330
17
100
AcDbEntity
  8
A-AREA-IDEN
100
AcDbText
 10
158656.4406406041
 20
26686.05431152494
 30
0.0
 40
199.9999999999998
  1
3Z21
100
AcDbText
  0
TEXT
  5
5E
330
17
100
AcDbEntity
  8
A-AREA-IDEN
100
AcDbText
 10
163929.1340795718
 20
27906.45811315142
 30
0.0
 40
199.9999999999998
  1
2P Soft Seating
100
AcDbText
  0
TEXT
  5
5F
330
17
100
AcDbEntity
  8
A-AREA-IDEN
100
AcDbText
 10
164632.1384983345
 20
28195.45049085487
 30
0.0
 40
199.9999999999998
  1
3Z20
100
AcDbText
  0
TEXT
  5
60
330
17
100
AcDbEntity
  8
A-AREA-IDEN
100
AcDbText
 10
164290.0905717539
 20
25271.0807903107
 30
0.0
 40
199.9999999999998
  1
DB Room
100
AcDbText
  0
TEXT
  5
61
330
17
100
AcDbEntity
  8
A-AREA-IDEN
100
AcDbText
 10
164665.1384983345
 20
25560.07316801417
 30
0.0
 40
199.9999999999998
  1
3.50
100
AcDbText
  0
TEXT
  5
62
330
17
100
AcDbEntity
  8
A-AREA-IDEN
100
AcDbText
 10
164269.9457722978
 20
22497.16857376824
 30
0.0
 40
199.9999999999998
  1
ICT LAN
100
AcDbText
  0
TEXT
  5
63
330
17
100
AcDbEntity
  8
A-AREA-IDEN
100
AcDbText
 10
164526.1384983345
 20
22786.16095147171
 30
0.0
 40
199.9999999999998
  1
3.57
100
AcDbText
  0
TEXT
  5
64
330
17
100
AcDbEntity
  8
A-AREA-IDEN
100
AcDbText
 10
167138.78965704
 20
22815.79362566839
 30
0.0
 40
199.9999999999998
  1
8P PHD Research
100
AcDbText
  0
TEXT
  5
65
330
17
100
AcDbEntity
  8
A-AREA-IDEN
100
AcDbText
 10
168034.381771248
 20
23104.78600337185
 30
0.0
 40
199.9999999999998
  1
3.48
100
AcDbText
  0
TEXT
  5
66
330
17
100
AcDbEntity
  8
A-AREA-IDEN
100
AcDbText
 10
173258.8386690253
 20
25271.0807903107
 30
0.0
 40
199.9999999999998
  1
8P PHD Research
100
AcDbText
  0
TEXT
  5
67
330
17
100
AcDbEntity
  8
A-AREA-IDEN
100
AcDbText
 10
174154.4307832333
 20
25560.07316801417
 30
0.0
 40
199.9999999999998
  1
3.46
100
AcDbText
  0
TEXT
  5
68
330
17
100
AcDbEntity
  8
A-AREA-IDEN
100
AcDbText
 10
182332.9725070631
 20
25271.0807903107
 30
0.0
 40
199.9999999999998
  1
48P Seminar Room
100
AcDbText
  0
TEXT
  5
69
330
17
100
AcDbEntity
  8
A-AREA-IDEN
100
AcDbText
 10
182889.2532684499
 20
25560.07316801417
 30
0.0
 40
199.9999999999998
  1
3.38
100
AcDbText
  0
TEXT
  5
6A
330
17
100
AcDbEntity
  8
A-AREA-IDEN
100
AcDbText
 10
170595.3109612825
 20
15630.40574144476
 30
0.0
 40
199.9999999999998
  1
Project Rm - 2
100
AcDbText
  0
TEXT
  5
6B
330
17
100
AcDbEntity
  8
A-AREA-IDEN
100
AcDbText
 10
171281.2229259324
 20
15919.39811914822
 30
0.0
 40
199.9999999999998
  1
3.65
100
AcDbText
  0
TEXT
  5
6C
330
17
100
AcDbEntity
  8
A-AREA-IDEN
100
AcDbText
 10
165105.4586954679
 20
18178.44987503328
 30
0.0
 40
199.9999999999998
  1
12P Tut Niche
100
AcDbText
  0
TEXT
  5
6D
330
17
100
AcDbEntity
  8
A-AREA-IDEN
100
AcDbText
 10
165747.2343582823
 20
18467.44225273674
 30
0.0
 40
199.9999999999998
  1
3Z23
100
AcDbText
  0
TEXT
  5
6E
330
17
100
AcDbEntity
  8
A-AREA-IDEN
100
AcDbText
 10
159120.8022149443
 20
23892.15145327819
 30
0.0
 40
199.9999999999998
  1
Office
100
AcDbText
  0
TEXT
  5
6F
330
17
100
AcDbEntity
  8
A-AREA-IDEN
100
AcDbText
 10
159282.0126160319
 20
24181.14383098166
 30
0.0
 40
199.9999999999998
  1
3.56
100
AcDbText
  0
TEXT
  5
70
330
17
100
AcDbEntity
  8
A-AREA-IDEN
100
AcDbText
 10
159120.8022149443
 20
21420.81074615843
 30
0.0
 40
199.9999999999998
  1
Office
100
AcDbText
  0
TEXT
  5
71
330
17
100
AcDbEntity
  8
A-AREA-IDEN
100
AcDbText
 10
159282.0126160319
 20
21709.8031238619
 30
0.0
 40
199.9999999999998
  1
3.58
100
AcDbText
  0
TEXT
  5
72
330
17
100
AcDbEntity
  8
A-AREA-IDEN
100
AcDbText
 10
159120.8022149443
 20
18486.24144984875
 30
0.0
 40
199.9999999999998
  1
Office
100
AcDbText
  0
TEXT
  5
73
330
17
100
AcDbEntity
  8
A-AREA-IDEN
100
AcDbText
 10
159282.0126160319
 20
18775.23382755222
 30
0.0
 40
199.9999999999998
  1
3.59
100
AcDbText
  0
TEXT
  5
74
330
17
100
AcDbEntity
  8
A-AREA-IDEN
100
AcDbText
 10
159120.8022149443
 20
15731.07188341806
 30
0.0
 40
199.9999999999998
  1
Office
100
AcDbText
  0
TEXT
  5
75
330
17
100
AcDbEntity
  8
A-AREA-IDEN
100
AcDbText
 10
159282.0126160319
 20
16020.06426112153
 30
0.0
 40
199.9999999999998
  1
3.60
100
AcDbText
  0
TEXT
  5
76
330
17
100
AcDbEntity
  8
A-AREA-IDEN
100
AcDbText
 10
157050.8022149442
 20
11457.74765793371
 30
0.0
 40
199.9999999999998
  1
Office
100
AcDbText
  0
TEXT
  5
77
330
17
100
AcDbEntity
  8
A-AREA-IDEN
100
AcDbText
 10
157212.0126160319
 20
11746.74003563717
 30
0.0
 40
199.9999999999998
  1
3.61
100
AcDbText
  0
TEXT
  5
78
330
17
100
AcDbEntity
  8
A-AREA-IDEN
100
AcDbText
 10
160001.4184272077
 20
12781.77247047201
 30
0.0
 40
199.9999999999998
  1
4P Tut Niche
100
AcDbText
  0
TEXT
  5
79
330
17
100
AcDbEntity
  8
A-AREA-IDEN
100
AcDbText
 10
160531.1991885945
 20
13070.76484817548
 30
0.0
 40
199.9999999999998
  1
3Z26
100
AcDbText
  0
TEXT
  5
7A
330
17
100
AcDbEntity
  8
A-AREA-IDEN
100
AcDbText
 10
162737.6852395344
 20
11457.74765793371
 30
0.0
 40
199.9999999999998
  1
Office
100
AcDbText
  0
TEXT
  5
7B
330
17
100
AcDbEntity
  8
A-AREA-IDEN
100
AcDbText
 10
162898.8956406221
 20
11746.74003563717
 30
0.0
 40
199.9999999999998
  1
3.62
100
AcDbText
  0
TEXT
  5
7C
330
17
100
AcDbEntity
  8
A-AREA-IDEN
100
AcDbText
 10
165539.4280972468
 20
11457.74765793371
 30
0.0
 40
199.9999999999998
  1
Office
100
AcDbText
  0
TEXT
  5
7D
330
17
100
AcDbEntity
  8
A-AREA-IDEN
100
AcDbText
 10
165700.6384983345
 20
11746.74003563717
 30
0.0
 40
199.9999999999998
  1
3.63
100
AcDbText
  0
TEXT
  5
7E
330
17
100
AcDbEntity
  8
A-AREA-IDEN
100
AcDbText
 10
168210.5390721722
 20
11457.74765793371
 30
0.0
 40
199.9999999999998
  1
Office
100
AcDbText
  0
TEXT
  5
7F
330
17
100
AcDbEntity
  8
A-AREA-IDEN
100
AcDbText
 10
168371.7494732599
 20
11746.74003563717
 30
0.0
 40
199.9999999999998
  1
3.64
100
AcDbText
  0
TEXT
  5
80
330
17
100
AcDbEntity
  8
A-AREA-IDEN
100
AcDbText
 10
171289.5835867028
 20
11457.74765793371
 30
0.0
 40
199.9999999999998
  1
Office
100
AcDbText
  0
TEXT
  5
81
330
17
100
AcDbEntity
  8
A-AREA-IDEN
100
AcDbText
 10
171450.7939877905
 20
11746.74003563717
 30
0.0
 40
199.9999999999998
  1
3.66
100
AcDbText
  0
TEXT
  5
82
330
17
100
AcDbEntity
  8
A-AREA-IDEN
100
AcDbText
 10
173514.709053804
 20
11720.14475949856
 30
0.0
 40
199.9999999999998
  1
Office
100
AcDbText
  0
TEXT
  5
83
330
17
100
AcDbEntity
  8
A-AREA-IDEN
100
AcDbText
 10
173675.9194548918
 20
12009.13713720203
 30
0.0
 40
199.9999999999998
  1
3.67
100
AcDbText
  0
TEXT
  5
84
330
17
100
AcDbEntity
  8
A-AREA-IDEN
100
AcDbText
 10
176738.4448730291
 20
11457.74765793371
 30
0.0
 40
199.9999999999998
  1
Office
100
AcDbText
  0
TEXT
  5
85
330
17
100
AcDbEntity
  8
A-AREA-IDEN
100
AcDbText
 10
176899.6552741168
 20
11746.74003563717
 30
0.0
 40
199.9999999999998
  1
3.69
100
AcDbText
  0
TEXT
  5
86
330
17
100
AcDbEntity
  8
A-AREA-IDEN
100
AcDbText
 10
178897.3713741468
 20
11457.74765793371
 30
0.0
 40
199.9999999999998
  1
Office
100
AcDbText
  0
TEXT
  5
87
330
17
100
AcDbEntity
  8
A-AREA-IDEN
100
AcDbText
 10
179058.5817752345
 20
11746.74003563717
 30
0.0
 40
199.9999999999998
  1
3.70
100
AcDbText
  0
TEXT
  5
88
330
17
100
AcDbEntity
  8
A-AREA-IDEN
100
AcDbText
 10
182383.2190319141
 20
12857.7260192475
 30
0.0
 40
199.9999999999998
  1
7P PHD Research
100
AcDbText
  0
TEXT
  5
89
330
17
100
AcDbEntity
  8
A-AREA-IDEN
100
AcDbText
 10
183289.4161767135
 20
13146.71839695096
 30
0.0
 40
199.9999999999998
  1
3.71
100
AcDbText
  0
TEXT
  5
8A
330
17
100
AcDbEntity
  8
A-AREA-IDEN
100
AcDbText
 10
192535.4264094394
 20
9667.137098209438
 30
0.0
 40
199.9999999999998
  1
16-20P Meeting
100
AcDbText
  0
TEXT
  5
8B
330
17
100
AcDbEntity
  8
A-AREA-IDEN
100
AcDbText
 10
193355.7020722538
 20
9956.129475912907
 30
0.0
 40
199.9999999999998
  1
3.01
100
AcDbText
  0
TEXT
  5
8C
330
17
100
AcDbEntity
  8
A-AREA-IDEN
100
AcDbText
 10
200742.4064353519
 20
9707.137098209445
 30
0.0
 40
199.9999999999998
  1
6P PHD Research
100
AcDbText
  0
TEXT
  5
8D
330
17
100
AcDbEntity
  8
A-AREA-IDEN
100
AcDbText
 10
201647.3799227754
 20
9996.129475912909
 30
0.0
 40
199.9999999999998
  1
3.03
100
AcDbText
  0
TEXT
  5
8E
330
17
100
AcDbEntity
  8
A-AREA-IDEN
100
AcDbText
 10
205733.3245959425
 20
11495.23295815725
 30
0.0
 40
199.9999999999998
  1
Office
100
AcDbText
  0
TEXT
  5
8F
330
17
100
AcDbEntity
  8
A-AREA-IDEN
100
AcDbText
 10
205894.5349970301
 20
11784.22533586072
 30
0.0
 40
199.9999999999998
  1
3.04
100
AcDbText
  0
TEXT
  5
90
330
17
100
AcDbEntity
  8
A-AREA-IDEN
100
AcDbText
 10
208713.4059637144
 20
11495.23295815725
 30
0.0
 40
199.9999999999998
  1
Office
100
AcDbText
  0
TEXT
  5
91
330
17
100
AcDbEntity
  8
A-AREA-IDEN
100
AcDbText
 10
208874.6163648021
 20
11784.22533586072
 30
0.0
 40
199.9999999999998
  1
3.05
100
AcDbText
  0
TEXT
  5
92
330
17
100
AcDbEntity
  8
A-AREA-IDEN
100
AcDbText
 10
211168.6931283568
 20
11495.23295815725
 30
0.0
 40
199.9999999999998
  1
Office
100
AcDbText
  0
TEXT
  5
93
330
17
100
AcDbEntity
  8
A-AREA-IDEN
100
AcDbText
 10
211329.9035294445
 20
11784.22533586072
 30
0.0
 40
199.9999999999998
  1
3.06
100
AcDbText
  0
TEXT
  5
94
330
17
100
AcDbEntity
  8
A-AREA-IDEN
100
AcDbText
 10
213961.5140992721
 20
12811.24906256803
 30
0.0
 40
199.9999999999998
  1
4P Tut Niche
100
AcDbText
  0
TEXT
  5
95
330
17
100
AcDbEntity
  8
A-AREA-IDEN
100
AcDbText
 10
214491.294860659
 20
13100.24144027149
 30
0.0
 40
199.9999999999998
  1
3Z04
100
AcDbText
  0
TEXT
  5
96
330
17
100
AcDbEntity
  8
A-AREA-IDEN
100
AcDbText
 10
217372.5103153538
 20
11495.23295815725
 30
0.0
 40
199.9999999999998
  1
Office
100
AcDbText
  0
TEXT
  5
97
330
17
100
AcDbEntity
  8
A-AREA-IDEN
100
AcDbText
 10
217533.7207164415
 20
11784.22533586072
 30
0.0
 40
199.9999999999998
  1
3.08
100
AcDbText
  0
TEXT
  5
98
330
17
100
AcDbEntity
  8
A-AREA-IDEN
100
AcDbText
 10
220052.7092813373
 20
11495.23295815725
 30
0.0
 40
199.9999999999998
  1
Office
100
AcDbText
  0
TEXT
  5
99
330
17
100
AcDbEntity
  8
A-AREA-IDEN
100
AcDbText
 10
220213.919682425
 20
11784.22533586072
 30
0.0
 40
199.9999999999998
  1
3.09
100
AcDbText
  0
TEXT
  5
9A
330
17
100
AcDbEntity
  8
A-AREA-IDEN
100
AcDbText
 10
224972.9173627747
 20
12387.69904262264
 30
0.0
 40
199.9999999999998
  1
6P Finance
100
AcDbText
  0
TEXT
  5
9B
330
17
100
AcDbEntity
  8
A-AREA-IDEN
100
AcDbText
 10
225461.3908501982
 20
12676.6914203261
 30
0.0
 40
199.9999999999998
  1
3.11
100
AcDbText
  0
TEXT
  5
9C
330
17
100
AcDbEntity
  8
A-AREA-IDEN
100
AcDbText
 10
213552.119526536
 20
16454.00846653852
 30
0.0
 40
199.9999999999998
  1
Visiting Staff
100
AcDbText
  0
TEXT
  5
9D
330
17
100
AcDbEntity
  8
A-AREA-IDEN
100
AcDbText
 10
214090.4397168826
 20
16743.00084424198
 30
0.0
 40
199.9999999999998
  1
3.07
100
AcDbText
  0
TEXT
  5
9E
330
17
100
AcDbEntity
  8
A-AREA-IDEN
100
AcDbText
 10
212336.4650522181
 20
25317.40427024336
 30
0.0
 40
199.9999999999998
  1
Magic Room
100
AcDbText
  0
TEXT
  5
9F
330
17
100
AcDbEntity
  8
A-AREA-IDEN
100
AcDbText
 10
212963.4035294445
 20
25606.39664794683
 30
0.0
 40
199.9999999999998
  1
3.27
100
AcDbText
  0
TEXT
  5
A0
330
17
100
AcDbEntity
  8
A-AREA-IDEN
100
AcDbText
 10
216411.1174487683
 20
23061.14454534112
 30
0.0
 40
199.9999999999998
  1
6P PHD Research
100
AcDbText
  0
TEXT
  5
A1
330
17
100
AcDbEntity
  8
A-AREA-IDEN
100
AcDbText
 10
217316.0909361917
 20
23350.13692304458
 30
0.0
 40
199.9999999999998
  1
3.26
100
AcDbText
  0
TEXT
  5
A2
330
17
100
AcDbEntity
  8
A-AREA-IDEN
100
AcDbText
 10
218539.4005260948
 20
16274.6087366595
 30
0.0
 40
199.9999999999998
  1
Visiting Staff
100
AcDbText
  0
TEXT
  5
A3
330
17
100
AcDbEntity
  8
A-AREA-IDEN
100
AcDbText
 10
219077.7207164415
 20
16563.60111436297
 30
0.0
 40
199.9999999999998
  1
3.10
100
AcDbText
  0
TEXT
  5
A4
330
17
100
AcDbEntity
  8
A-AREA-IDEN
100
AcDbText
 10
222371.7341617597
 20
15565.30335587591
 30
0.0
 40
199.9999999999998
  1
2P Research
100
AcDbText
  0
TEXT
  5
A5
330
17
100
AcDbEntity
  8
A-AREA-IDEN
100
AcDbText
 10
222942.2385805224
 20
15854.29573357937
 30
0.0
 40
199.9999999999998
  1
3.12
100
AcDbText
  0
TEXT
  5
A6
330
17
100
AcDbEntity
  8
A-AREA-IDEN
100
AcDbText
 10
227327.8859528607
 20
16709.87095099824
 30
0.0
 40
199.9999999999998
  1
Office
100
AcDbText
  0
TEXT
  5
A7
330
17
100
AcDbEntity
  8
A-AREA-IDEN
100
AcDbText
 10
227489.0963539483
 20
16998.8633287017
 30
0.0
 40
199.9999999999998
  1
3.13
100
AcDbText
  0
TEXT
  5
A8
330
17
100
AcDbEntity
  8
A-AREA-IDEN
100
AcDbText
 10
228185.9124654372
 20
20085.41513439441
 30
0.0
 40
199.9999999999998
  1
Exec PA
100
AcDbText
  0
TEXT
  5
A9
330
17
100
AcDbEntity
  8
A-AREA-IDEN
100
AcDbText
 10
228475.0963539484
 20
20374.40751209787
 30
0.0
 40
199.9999999999998
  1
3.14
100
AcDbText
  0
TEXT
  5
AA
330
17
100
AcDbEntity
  8
A-AREA-IDEN
100
AcDbText
 10
227755.9384772761
 20
23329.871949925
 30
0.0
 40
199.9999999999998
  1
Office
100
AcDbText
  0
TEXT
  5
AB
330
17
100
AcDbEntity
  8
A-AREA-IDEN
100
AcDbText
 10
227917.1488783639
 20
23618.86432762846
 30
0.0
 40
199.9999999999998
  1
3.16
100
AcDbText
  0
TEXT
  5
AC
330
17
100
AcDbEntity
  8
A-AREA-IDEN
100
AcDbText
 10
228708.0797876975
 20
26007.788808712
 30
0.0
 40
199.9999999999998
  1
5P Tut Niche
100
AcDbText
  0
TEXT
  5
AD
330
17
100
AcDbEntity
  8
A-AREA-IDEN
100
AcDbText
 10
229242.0753689347
 20
26296.78118641548
 30
0.0
 40
199.9999999999998
  1
3Z06
100
AcDbText
  0
TEXT
  5
AE
330
17
100
AcDbEntity
  8
A-AREA-IDEN
100
AcDbText
 10
222352.1020895664
 20
27440.16154038324
 30
0.0
 40
199.9999999999998
  1
6P Tut Niche
100
AcDbText
  0
TEXT
  5
AF
330
17
100
AcDbEntity
  8
A-AREA-IDEN
100
AcDbText
 10
222893.5755769899
 20
27729.1539180867
 30
0.0
 40
199.9999999999998
  1
3Z08
100
AcDbText
  0
TEXT
  5
B0
330
17
100
AcDbEntity
  8
A-AREA-IDEN
100
AcDbText
 10
228356.2548338708
 20
31175.01557551929
 30
0.0
 40
199.9999999999998
  1
Office
100
AcDbText
  0
TEXT
  5
B1
330
17
100
AcDbEntity
  8
A-AREA-IDEN
100
AcDbText
 10
228517.4652349585
 20
31464.00795322275
 30
0.0
 40
199.9999999999998
  1
3.17
100
AcDbText
  0
TEXT
  5
B2
330
17
100
AcDbEntity
  8
A-AREA-IDEN
100
AcDbText
 10
225544.3057640869
 20
31175.01557551929
 30
0.0
 40
199.9999999999998
  1
Office
100
AcDbText
  0
TEXT
  5
B3
330
17
100
AcDbEntity
  8
A-AREA-IDEN
100
AcDbText
 10
225705.5161651747
 20
31464.00795322275
 30
0.0
 40
199.9999999999998
  1
3.18
100
AcDbText
  0
TEXT
  5
B4
330
17
100
AcDbEntity
  8
A-AREA-IDEN
100
AcDbText
 10
223120.0554526861
 20
31175.01557551929
 30
0.0
 40
199.9999999999998
  1
Office
100
AcDbText
  0
TEXT
  5
B5
330
17
100
AcDbEntity
  8
A-AREA-IDEN
100
AcDbText
 10
223281.2658537738
 20
31464.00795322275
 30
0.0
 40
199.9999999999998
  1
3.20
100
AcDbText
  0
TEXT
  5
B6
330
17
100
AcDbEntity
  8
A-AREA-IDEN
100
AcDbText
 10
221308.4668388261
 20
31175.01557551929
 30
0.0
 40
199.9999999999998
  1
Office
100
AcDbText
  0
TEXT
  5
B7
330
17
100
AcDbEntity
  8
A-AREA-IDEN
100
AcDbText
 10
221469.6772399138
 20
31464.00795322275
 30
0.0
 40
199.9999999999998
  1
3.22
100
AcDbText
  0
TEXT
  5
B8
330
17
100
AcDbEntity
  8
A-AREA-IDEN
100
AcDbText
 10
185199.2345895743
 20
28897.75910435215
 30
0.0
 40
199.9999999999998
  1
5P Research
100
AcDbText
  0
TEXT
  5
B9
330
17
100
AcDbEntity
  8
A-AREA-IDEN
100
AcDbText
 10
185772.7301708115
 20
29186.75148205561
 30
0.0
 40
199.9999999999998
  1
3.37
100
AcDbText
  0
TEXT
  5
BA
330
17
100
AcDbEntity
  8
A-AREA-IDEN
100
AcDbText
 10
196525.6167778813
 20
28897.75910435215
 30
0.0
 40
199.9999999999998
  1
Staff Room
100
AcDbText
  0
TEXT
  5
BB
330
17
100
AcDbEntity
  8
A-AREA-IDEN
100
AcDbText
 10
196995.4984910016
 20
29186.75148205561
 30
0.0
 40
199.9999999999998
  1
3.36
100
AcDbText
  0
TEXT
  5
BC
330
17
100
AcDbEntity
  8
A-AREA-IDEN
100
AcDbText
 10
196200.7776552042
 20
24301.04644263356
 30
0.0
 40
199.9999999999998
  1
10P Collab Sp
100
AcDbText
  0
TEXT
  5
BD
330
17
100
AcDbEntity
  8
A-AREA-IDEN
100
AcDbText
 10
196869.0533180186
 20
24590.03882033702
 30
0.0
 40
199.9999999999998
  1
3Z01
100
AcDbText
  0
TEXT
  5
BE
330
17
100
AcDbEntity
  8
A-AREA-IDEN
100
AcDbText
 10
207809.6428773786
 20
25018.03053121502
 30
0.0
 40
199.9999999999998
  1
64P Seminar
100
AcDbText
  0
TEXT
  5
BF
330
17
100
AcDbEntity
  8
A-AREA-IDEN
100
AcDbText
 10
207802.9807427763
 20
24684.69719788169
 30
0.0
 40
199.9999999999998
  1
Room
100
AcDbText
  0
TEXT
  5
C0
330
17
100
AcDbEntity
  8
A-AREA-IDEN
100
AcDbText
 10
208377.6163648021
 20
25307.02290891849
 30
0.0
 40
199.9999999999998
  1
3.02
100
AcDbText
  0
TEXT
  5
C1
330
17
100
AcDbEntity
  8
A-AREA-IDEN
100
AcDbText
 10
173114.039026295
 20
16341.90988598509
 30
0.0
 40
199.9999999999998
  1
8P PHD Research
100
AcDbText
  0
TEXT
  5
C2
330
17
100
AcDbEntity
  8
A-AREA-IDEN
100
AcDbText
 10
174009.631140503
 20
16630.90226368856
 30
0.0
 40
199.9999999999998
  1
3.68
100
AcDbText
  0
TEXT
  5
C3
330
17
100
AcDbEntity
  8
A-AREA-IDEN
100
AcDbText
 10
222104.1464663144
 20
20500.6031382413
 30
0.0
 40
199.9999999999998
  1
8-12 Exec Meeting
100
AcDbText
  0
TEXT
  5
C4
330
17
100
AcDbEntity
  8
A-AREA-IDEN
100
AcDbText
 10
223102.2385805224
 20
20789.59551594476
 30
0.0
 40
199.9999999999998
  1
3.15
100
AcDbText
  0
LWPOLYLINE
  5
C6
330
17
100
AcDbEntity
  8
A-AREA-ROOM
100
AcDbPolyline
 90
4
 70
1
 10
221662.3318821049
 20
13505.61176182792
 10
230738.831882105
 20
13505.61176182792
 10
230738.831882105
 20
9369.611761827444
 10
221662.3318821049
 20
9369.611761827444
  0
LWPOLYLINE
  5
C7
330
17
100
AcDbEntity
  8
A-AREA-ROOM
100
AcDbPolyline
 90
4
 70
1
 10
218815.8318821049
 20
13505.61176182793
 10
221374.8020571392
 20
13505.61176182793
 10
221374.8020571392
 20
9313.07486068143
 10
218815.8318821049
 20
9313.07486068143
  0
LWPOLYLINE
  5
C8
330
17
100
AcDbEntity
  8
A-AREA-ROOM
100
AcDbPolyline
 90
4
 70
1
 10
216091.831882105
 20
13505.61176182793
 10
218627.2132571076
 20
13505.61176182793
 10
218627.2132571076
 20
9366.07219218777
 10
216091.831882105
 20
9366.07219218777
  0
LWPOLYLINE
  5
C9
330
17
100
AcDbEntity
  8
A-AREA-ROOM
100
AcDbPolyline
 90
4
 70
1
 10
213391.8318821049
 20
13607.61176182792
 10
215989.8318821049
 20
13607.61176182792
 10
215989.8318821049
 20
9865.111761827458
 10
213391.8318821049
 20
9865.111761827458
  0
LWPOLYLINE
  5
CA
330
17
100
AcDbEntity
  8
A-AREA-ROOM
100
AcDbPolyline
 90
4
 70
1
 10
210691.8318821049
 20
13505.61176182793
 10
213269.5540126285
 20
13505.61176182793
 10
213269.5540126285
 20
9384.492952619483
 10
210691.8318821049
 20
9384.492952619483
  0
LWPOLYLINE
  5
CB
330
17
100
AcDbEntity
  8
A-AREA-ROOM
100
AcDbPolyline
 90
4
 70
1
 10
207991.8318821049
 20
13505.61176182793
 10
210589.8318821049
 20
13505.61176182793
 10
210589.8318821049
 20
9369.611761827504
 10
207991.8318821049
 20
9369.611761827504
  0
LWPOLYLINE
  5
CC
330
17
100
AcDbEntity
  8
A-AREA-ROOM
100
AcDbPolyline
 90
4
 70
1
 10
198965.8318821049
 20
13492.75145702514
 10
205189.8318821049
 20
13492.75145702514
 10
205189.8318821049
 20
9369.611761827531
 10
198965.8318821049
 20
9369.611761827531
  0
LWPOLYLINE
  5
CD
330
17
100
AcDbEntity
  8
A-AREA-ROOM
100
AcDbPolyline
 90
4
 70
1
 10
205291.8318821049
 20
13505.61176182793
 10
207869.6897017458
 20
13505.61176182793
 10
207869.6897017458
 20
9384.492952619505
 10
205291.8318821049
 20
9384.492952619505
  0
LWPOLYLINE
  5
CE
330
17
100
AcDbEntity
  8
A-AREA-ROOM
100
AcDbPolyline
 90
4
 70
1
 10
188800.8318821048
 20
13505.61176182798
 10
198880.8318821049
 20
13505.61176182798
 10
198880.8318821049
 20
9369.611761827548
 10
188800.8318821048
 20
9369.611761827548
  0
LWPOLYLINE
  5
CF
330
17
100
AcDbEntity
  8
A-AREA-ROOM
100
AcDbPolyline
 90
4
 70
1
 10
181100.831882105
 20
13505.61176182809
 10
188698.8318821049
 20
13505.61176182809
 10
188698.8318821049
 20
9369.611761827577
 10
181100.831882105
 20
9369.611761827577
  0
LWPOLYLINE
  5
D0
330
17
100
AcDbEntity
  8
A-AREA-ROOM
100
AcDbPolyline
 90
4
 70
1
 10
178352.831882105
 20
13505.6117618281
 10
180998.831882105
 20
13505.6117618281
 10
180998.831882105
 20
9369.611761827591
 10
178352.831882105
 20
9369.611761827591
  0
LWPOLYLINE
  5
D1
330
17
100
AcDbEntity
  8
A-AREA-ROOM
100
AcDbPolyline
 90
4
 70
1
 10
173000.831882105
 20
13505.6117618281
 10
175567.8705331433
 20
13505.6117618281
 10
175567.8705331433
 20
9389.203707105473
 10
173000.831882105
 20
9389.203707105473
  0
LWPOLYLINE
  5
D2
330
17
100
AcDbEntity
  8
A-AREA-ROOM
100
AcDbPolyline
 90
4
 70
1
 10
170276.831882105
 20
13505.6117618281
 10
172834.8318821051
 20
13505.6117618281
 10
172834.8318821051
 20
9384.709528152802
 10
170276.831882105
 20
9384.709528152802
  0
LWPOLYLINE
  5
D3
330
17
100
AcDbEntity
  8
A-AREA-ROOM
100
AcDbPolyline
 90
4
 70
1
 10
167576.831882105
 20
13505.6117618281
 10
170114.831882105
 20
13505.6117618281
 10
170114.831882105
 20
9384.70952815269
 10
167576.831882105
 20
9384.70952815269
  0
LWPOLYLINE
  5
D4
330
17
100
AcDbEntity
  8
A-AREA-ROOM
100
AcDbPolyline
 90
4
 70
1
 10
164876.831882105
 20
13505.6117618281
 10
167461.0343136397
 20
13505.6117618281
 10
167461.0343136397
 20
9386.12361172428
 10
164876.831882105
 20
9386.12361172428
  0
LWPOLYLINE
  5
D5
330
17
100
AcDbEntity
  8
A-AREA-ROOM
100
AcDbPolyline
 90
4
 70
1
 10
162152.831882105
 20
13505.61176182814
 10
164750.9480883621
 20
13505.61176182814
 10
164750.9480883621
 20
9386.123611724295
 10
162152.831882105
 20
9386.123611724295
  0
LWPOLYLINE
  5
D6
330
17
100
AcDbEntity
  8
A-AREA-ROOM
100
AcDbPolyline
 90
4
 70
1
 10
175700.831882105
 20
13505.6117618281
 10
178198.8318821051
 20
13505.6117618281
 10
178198.8318821051
 20
9384.709528152787
 10
175700.831882105
 20
9384.709528152787
  0
LWPOLYLINE
  5
D7
330
17
100
AcDbEntity
  8
A-AREA-ROOM
100
AcDbPolyline
 90
4
 70
1
 10
159491.831882105
 20
13607.61176182816
 10
162050.831882105
 20
13607.61176182816
 10
162050.831882105
 20
9865.111761833396
 10
159491.831882105
 20
9865.111761833396
  0
LWPOLYLINE
  5
D8
330
17
100
AcDbEntity
  8
A-AREA-ROOM
100
AcDbPolyline
 90
4
 70
1
 10
156862.8318821048
 20
13505.61176182816
 10
159314.8318821049
 20
13505.61176182816
 10
159314.8318821049
 20
9444.709528152867
 10
156862.8318821048
 20
9444.709528152867
  0
LWPOLYLINE
  5
D9
330
17
100
AcDbEntity
  8
A-AREA-ROOM
100
AcDbPolyline
 90
4
 70
1
 10
156876.6404150935
 20
25944.35925854726
 10
161148.831882105
 20
25944.35925854726
 10
161148.831882105
 20
23357.61176182818
 10
156876.6404150935
 20
23357.61176182818
  0
LWPOLYLINE
  5
DA
330
17
100
AcDbEntity
  8
A-AREA-ROOM
100
AcDbPolyline
 90
4
 70
1
 10
156876.6404150935
 20
23238.4747173398
 10
161148.831882105
 20
23238.4747173398
 10
161148.831882105
 20
20657.61176182818
 10
156876.6404150935
 20
20657.61176182818
  0
LWPOLYLINE
  5
DB
330
17
100
AcDbEntity
  8
A-AREA-ROOM
100
AcDbPolyline
 90
4
 70
1
 10
156939.2478843694
 20
20487.56655672522
 10
161148.831882105
 20
20487.56655672522
 10
161148.831882105
 20
17957.61176182818
 10
156939.2478843694
 20
17957.61176182818
  0
LWPOLYLINE
  5
DC
330
17
100
AcDbEntity
  8
A-AREA-ROOM
100
AcDbPolyline
 90
4
 70
1
 10
156884.6936428947
 20
17834.75886272615
 10
161148.831882105
 20
17834.75886272615
 10
161148.831882105
 20
15209.61176167281
 10
156884.6936428947
 20
15209.61176167281
  0
LWPOLYLINE
  5
DD
330
17
100
AcDbEntity
  8
A-AREA-ROOM
100
AcDbPolyline
 90
4
 70
1
 10
162752.831882105
 20
20990.61176182773
 10
169283.831882105
 20
20990.61176182773
 10
169283.831882105
 20
15208.61176151783
 10
162752.831882105
 20
15208.61176151783
  0
LWPOLYLINE
  5
DE
330
17
100
AcDbEntity
  8
A-AREA-ROOM
100
AcDbPolyline
 90
4
 70
1
 10
169394.0670469053
 20
20943.08675741836
 10
172483.831882105
 20
20943.08675741836
 10
172483.831882105
 20
15207.61176182791
 10
169394.0670469053
 20
15207.61176182791
  0
LWPOLYLINE
  5
DF
330
17
100
AcDbEntity
  8
A-AREA-ROOM
100
AcDbPolyline
 90
4
 70
1
 10
166348.831882105
 20
24131.61176182758
 10
162874.831882105
 20
24131.61176182758
 10
162874.831882105
 20
21247.11176182778
 10
166348.831882105
 20
21247.11176182778
  0
LWPOLYLINE
  5
E0
330
17
100
AcDbEntity
  8
A-AREA-ROOM
100
AcDbPolyline
 90
4
 70
1
 10
172683.831882105
 20
26307.61176182802
 10
166470.831882105
 20
26307.61176182802
 10
166470.831882105
 20
21107.61176182778
 10
172683.831882105
 20
21107.61176182778
  0
LWPOLYLINE
  5
E1
330
17
100
AcDbEntity
  8
A-AREA-ROOM
100
AcDbPolyline
 90
4
 70
1
 10
178998.831882105
 20
15208.61176182785
 10
172635.831882105
 20
15208.61176182785
 10
172635.831882105
 20
21005.61176182775
 10
178998.831882105
 20
21005.61176182775
  0
LWPOLYLINE
  5
E2
330
17
100
AcDbEntity
  8
A-AREA-ROOM
100
AcDbPolyline
 90
4
 70
1
 10
178998.831882105
 20
26307.61176182797
 10
172785.831882105
 20
26307.61176182797
 10
172785.831882105
 20
21107.61176182776
 10
178998.831882105
 20
21107.61176182776
  0
LWPOLYLINE
  5
E3
330
17
100
AcDbEntity
  8
A-AREA-ROOM
100
AcDbPolyline
 90
4
 70
1
 10
179120.831882105
 20
26806.61176182792
 10
187539.9033414139
 20
26806.61176182792
 10
187539.9033414139
 20
15231.61176182789
 10
179120.831882105
 20
15231.61176182789
  0
LWPOLYLINE
  5
E4
330
17
100
AcDbEntity
  8
A-AREA-ROOM
100
AcDbPolyline
 90
4
 70
1
 10
156862.8318821049
 20
34245.61176081351
 10
159614.7363761159
 20
34245.61176081351
 10
159614.7363761159
 20
29907.61176182774
 10
156862.8318821049
 20
29907.61176182774
  0
LWPOLYLINE
  5
E5
330
17
100
AcDbEntity
  8
A-AREA-ROOM
100
AcDbPolyline
 90
4
 70
1
 10
159785.6408701263
 20
34161.19197969536
 10
162269.7841185513
 20
34161.19197969536
 10
162269.7841185513
 20
29907.61176182772
 10
159785.6408701263
 20
29907.61176182772
  0
LWPOLYLINE
  5
E6
330
17
100
AcDbEntity
  8
A-AREA-ROOM
100
AcDbPolyline
 90
4
 70
1
 10
162393.0102889994
 20
34231.03949607024
 10
164893.6944472202
 20
34231.03949607024
 10
164893.6944472202
 20
29907.61176182772
 10
162393.0102889994
 20
29907.61176182772
  0
LWPOLYLINE
  5
E7
330
17
100
AcDbEntity
  8
A-AREA-ROOM
100
AcDbPolyline
 90
4
 70
1
 10
165065.0340257547
 20
34221.19197969542
 10
167485.552808204
 20
34221.19197969542
 10
167485.552808204
 20
29924.9259106013
 10
165065.0340257547
 20
29924.9259106013
  0
LWPOLYLINE
  5
E8
330
17
100
AcDbEntity
  8
A-AREA-ROOM
100
AcDbPolyline
 90
4
 70
1
 10
162750.831882105
 20
26937.20094688897
 10
166231.331882105
 20
26937.20094688897
 10
166231.331882105
 20
28648.02379546233
 10
162750.831882105
 20
28648.02379546233
  0
LWPOLYLINE
  5
E9
330
17
100
AcDbEntity
  8
A-AREA-ROOM
100
AcDbPolyline
 90
4
 70
1
 10
156862.8318821049
 20
26025.6117618282
 10
161247.002026549
 20
26025.6117618282
 10
161247.002026549
 20
28817.24053939409
 10
156862.8318821049
 20
28817.24053939409
  0
LWPOLYLINE
  5
EA
330
17
100
AcDbEntity
  8
A-AREA-ROOM
100
AcDbPolyline
 90
4
 70
1
 10
183432.831882106
 20
34245.61176146475
 10
189249.831882105
 20
34245.61176146475
 10
189249.831882105
 20
28508.6117618277
 10
183432.831882106
 20
28508.6117618277
  0
LWPOLYLINE
  5
EB
330
17
100
AcDbEntity
  8
A-AREA-ROOM
100
AcDbPolyline
 90
4
 70
1
 10
189319.831882105
 20
34245.61176146474
 10
204097.831882105
 20
34245.61176146474
 10
204097.831882105
 20
28509.6117618276
 10
189319.831882105
 20
28509.6117618276
  0
LWPOLYLINE
  5
EC
330
17
100
AcDbEntity
  8
A-AREA-ROOM
100
AcDbPolyline
 90
4
 70
1
 10
220123.1933433134
 20
29916.71330834194
 10
222526.1361483932
 20
29916.71330834194
 10
222526.1361483932
 20
34199.4901274778
 10
220123.1933433134
 20
34199.4901274778
  0
LWPOLYLINE
  5
ED
330
17
100
AcDbEntity
  8
A-AREA-ROOM
100
AcDbPolyline
 90
4
 70
1
 10
222769.9487288452
 20
34190.69197969527
 10
225211.8796455653
 20
34190.69197969527
 10
225211.8796455653
 20
29907.61176182768
 10
222769.9487288452
 20
29907.61176182768
  0
LWPOLYLINE
  5
EE
330
17
100
AcDbEntity
  8
A-AREA-ROOM
100
AcDbPolyline
 90
4
 70
1
 10
225299.8796455653
 20
34190.69197969527
 10
227866.9273880007
 20
34190.69197969527
 10
227866.9273880007
 20
29907.61176182767
 10
225299.8796455653
 20
29907.61176182767
  0
LWPOLYLINE
  5
EF
330
17
100
AcDbEntity
  8
A-AREA-ROOM
100
AcDbPolyline
 90
4
 70
1
 10
227998.37168668
 20
34160.69197969527
 10
230738.831882105
 20
34160.69197969527
 10
230738.831882105
 20
29907.61176182767
 10
227998.37168668
 20
29907.61176182767
  0
LWPOLYLINE
  5
F0
330
17
100
AcDbEntity
  8
A-AREA-ROOM
100
AcDbPolyline
 90
4
 70
1
 10
215605.8318821049
 20
26807.61176182734
 10
219708.831882105
 20
26807.61176182734
 10
219708.831882105
 20
20199.61176182798
 10
215605.8318821049
 20
20199.61176182798
  0
LWPOLYLINE
  5
F1
330
17
100
AcDbEntity
  8
A-AREA-ROOM
100
AcDbPolyline
 90
4
 70
1
 10
210740.831882105
 20
26806.61176182741
 10
215433.8318821049
 20
26806.61176182741
 10
215433.8318821049
 20
20199.61176182799
 10
210740.831882105
 20
20199.61176182799
  0
LWPOLYLINE
  5
F2
330
17
100
AcDbEntity
  8
A-AREA-ROOM
100
AcDbPolyline
 90
4
 70
1
 10
219830.831882105
 20
23347.61176182766
 10
224720.4474263967
 20
23347.61176182766
 10
224720.4474263967
 20
28325.03639958834
 10
219830.831882105
 20
28325.03639958834
  0
LWPOLYLINE
  5
F3
330
17
100
AcDbEntity
  8
A-AREA-ROOM
100
AcDbPolyline
 90
4
 70
1
 10
226472.8318821051
 20
25663.6117622526
 10
230713.0861185274
 20
25663.6117622526
 10
230713.0861185274
 20
29609.92007976173
 10
226472.8318821051
 20
29609.92007976173
  0
LWPOLYLINE
  5
F4
330
17
100
AcDbEntity
  8
A-AREA-ROOM
100
AcDbPolyline
 90
4
 70
1
 10
226542.1609893087
 20
25351.25792396264
 10
230626.1297144462
 20
25351.25792396264
 10
230626.1297144462
 20
22958.31434867767
 10
226542.1609893087
 20
22958.31434867767
  0
LWPOLYLINE
  5
F5
330
17
100
AcDbEntity
  8
A-AREA-ROOM
100
AcDbPolyline
 90
4
 70
1
 10
219830.831882105
 20
23225.61176182765
 10
224748.8318821051
 20
23225.61176182765
 10
224748.8318821051
 20
20199.61176182796
 10
219830.831882105
 20
20199.61176182796
  0
LWPOLYLINE
  5
F6
330
17
100
AcDbEntity
  8
A-AREA-ROOM
100
AcDbPolyline
 90
4
 70
1
 10
216473.8318821049
 20
15207.61176182826
 10
210811.8795915217
 20
15207.61176182826
 10
210811.8795915217
 20
19962.85657426866
 10
216473.8318821049
 20
19962.85657426866
  0
LWPOLYLINE
  5
F7
330
17
100
AcDbEntity
  8
A-AREA-ROOM
100
AcDbPolyline
 90
4
 70
1
 10
216625.831882105
 20
20077.61176182798
 10
221838.831882105
 20
20077.61176182798
 10
221838.831882105
 20
15207.61176182826
 10
216625.831882105
 20
15207.61176182826
  0
LWPOLYLINE
  5
F8
330
17
100
AcDbEntity
  8
A-AREA-ROOM
100
AcDbPolyline
 90
4
 70
1
 10
221940.831882105
 20
20077.61176182797
 10
224748.831882105
 20
20077.61176182797
 10
224748.831882105
 20
15209.61176182797
 10
221940.831882105
 20
15209.61176182797
  0
LWPOLYLINE
  5
F9
330
17
100
AcDbEntity
  8
A-AREA-ROOM
100
AcDbPolyline
 90
4
 70
1
 10
210550.831882105
 20
26307.61176182784
 10
200078.8318820375
 20
26307.61176182784
 10
200078.8318820375
 20
16107.61176182806
 10
210550.831882105
 20
16107.61176182806
  0
LWPOLYLINE
  5
FA
330
17
100
AcDbEntity
  8
A-AREA-ROOM
100
AcDbPolyline
 90
4
 70
1
 10
226452.8318821051
 20
22796.61176225267
 10
230738.831882105
 20
22796.61176225267
 10
230738.831882105
 20
18007.61176182795
 10
226452.8318821051
 20
18007.61176182795
  0
LWPOLYLINE
  5
FB
330
17
100
AcDbEntity
  8
A-AREA-ROOM
100
AcDbPolyline
 90
4
 70
1
 10
230664.5870696643
 20
17848.15672134031
 10
226472.8318821051
 20
17848.15672134031
 10
226472.8318821051
 20
15230.6117618279
 10
230664.5870696643
 20
15230.6117618279
  0
LWPOLYLINE
  5
FC
330
17
100
AcDbEntity
  8
A-AREA-ROOM
100
AcDbPolyline
 90
4
 70
1
 10
199444.831882105
 20
23575.11176176198
 10
188117.831881918
 20
23575.11176176198
 10
188117.831881918
 20
27247.61176182793
 10
199444.831882105
 20
27247.61176182793
  0
LWPOLYLINE
  5
FD
330
17
100
AcDbEntity
  8
A-AREA-ROOM
100
AcDbPolyline
 90
4
 70
1
 10
162872.831882105
 20
26785.61176182778
 10
166348.831882105
 20
26785.61176182778
 10
166348.831882105
 20
24233.61176182758
 10
162872.831882105
 20
24233.61176182758
  0
ENDSEC
  0
SECTION
  2
OBJECTS
  0
DICTIONARY
  5
A
330
0
100
AcDbDictionary
281
1
  3
ACAD_COLOR
350
B
  3
ACAD_GROUP
350
C
  3
ACAD_LAYOUT
350
D
  3
ACAD_MATERIAL
350
E
  3
ACAD_MLEADERSTYLE
350
F
  3
ACAD_MLINESTYLE
350
10
  3
ACAD_PLOTSETTINGS
350
11
  3
ACAD_PLOTSTYLENAME
350
12
  3
ACAD_SCALELIST
350
14
  3
ACAD_TABLESTYLE
350
15
  3
ACAD_VISUALSTYLE
350
16
  3
EZDXF_META
350
2D
  0
DICTIONARY
  5
B
330
A
100
AcDbDictionary
281
1
  0
DICTIONARY
  5
C
330
A
100
AcDbDictionary
281
1
  0
DICTIONARY
  5
D
330
A
100
AcDbDictionary
281
1
  3
Model
350
1A
  3
Layout1
350
1E
  0
DICTIONARY
  5
E
330
A
100
AcDbDictionary
281
1
  3
ByBlock
350
1F
  3
ByLayer
350
20
  3
Global
350
21
  0
DICTIONARY
  5
F
330
A
100
AcDbDictionary
281
1
  3
Standard
350
2C
  0
DICTIONARY
  5
10
330
A
100
AcDbDictionary
281
1
  3
Standard
350
22
  0
DICTIONARY
  5
11
330
A
100
AcDbDictionary
281
1
  0
ACDBDICTIONARYWDFLT
  5
12
330
A
100
AcDbDictionary
281
1
  3
Normal
350
13
100
AcDbDictionaryWithDefault
340
13
  0
ACDBPLACEHOLDER
  5
13
330
12
  0
DICTIONARY
  5
14
330
A
100
AcDbDictionary
281
1
  0
DICTIONARY
  5
15
330
A
100
AcDbDictionary
281
1
  0
DICTIONARY
  5
16
330
A
100
AcDbDictionary
281
1
  0
LAYOUT
  5
1A
330
D
100
AcDbPlotSettings
  1

  4
A3
  6

 40
7.5
 41
20.0
 42
7.5
 43
20.0
 44
420.0
 45
297.0
 46
0.0
 47
0.0
 48
0.0
 49
0.0
140
0.0
141
0.0
142
1.0
143
1.0
 70
1024
 72
1
 73
0
 74
5
  7

 75
16
 76
0
 77
2
 78
300
147
1.0
148
0.0
149
0.0
100
AcDbLayout
  1
Model
 70
1
 71
0
 10
0.0
 20
0.0
 11
420.0
 21
297.0
 12
0.0
 22
0.0
 32
0.0
 14
1e+20
 24
1e+20
 34
1e+20
 15
-1e+20
 25
-1e+20
 35
-1e+20
146
0.0
 13
0.0
 23
0.0
 33
0.0
 16
1.0
 26
0.0
 36
0.0
 17
0.0
 27
1.0
 37
0.0
 76
1
330
17
  0
LAYOUT
  5
1E
330
D
100
AcDbPlotSettings
  1

  4
A3
  6

 40
7.5
 41
20.0
 42
7.5
 43
20.0
 44
420.0
 45
297.0
 46
0.0
 47
0.0
 48
0.0
 49
0.0
140
0.0
141
0.0
142
1.0
143
1.0
 70
0
 72
1
 73
0
 74
5
  7

 75
16
 76
0
 77
2
 78
300
147
1.0
148
0.0
149
0.0
100
AcDbLayout
  1
Layout1
 70
1
 71
1
 10
0.0
 20
0.0
 11
420.0
 21
297.0
 12
0.0
 22
0.0
 32
0.0
 14
1e+20
 24
1e+20
 34
1e+20
 15
-1e+20
 25
-1e+20
 35
-1e+20
146
0.0
 13
0.0
 23
0.0
 33
0.0
 16
1.0
 26
0.0
 36
0.0
 17
0.0
 27
1.0
 37
0.0
 76
1
330
1B
  0
MATERIAL
  5
1F
102
{ACAD_REACTORS
330
E
102
}
330
E
100
AcDbMaterial
  1
ByBlock
  2

 70
0
 40
1.0
 71
1
 41
1.0
 91
-1023410177
 42
1.0
 72
1
  3

 73
1
 74
1
 75
1
 44
0.5
 73
0
 45
1.0
 46
1.0
 77
1
  4

 78
1
 79
1
170
1
 48
1.0
171
1
  6

172
1
173
1
174
1
140
1.0
141
1.0
175
1
  7

176
1
177
1
178
1
143
1.0
179
1
  8

270
1
271
1
272
1
145
1.0
146
1.0
273
1
  9

274
1
275
1
276
1
 42
1.0
 72
1
  3

 73
1
 74
1
 75
1
 94
63
  0
MATERIAL
  5
20
102
{ACAD_REACTORS
330
E
102
}
330
E
100
AcDbMaterial
  1
ByLayer
  2

 70
0
 40
1.0
 71
1
 41
1.0
 91
-1023410177
 42
1.0
 72
1
  3

 73
1
 74
1
 75
1
 44
0.5
 73
0
 45
1.0
 46
1.0
 77
1
  4

 78
1
 79
1
170
1
 48
1.0
171
1
  6

172
1
173
1
174
1
140
1.0
141
1.0
175
1
  7

176
1
177
1
178
1
143
1.0
179
1
  8

270
1
271
1
272
1
145
1.0
146
1.0
273
1
  9

274
1
275
1
276
1
 42
1.0
 72
1
  3

 73
1
 74
1
 75
1
 94
63
  0
MATERIAL
  5
21
102
{ACAD_REACTORS
330
E
102
}
330
E
100
AcDbMaterial
  1
Global
  2

 70
0
 40
1.0
 71
1
 41
1.0
 91
-1023410177
 42
1.0
 72
1
  3

 73
1
 74
1
 75
1
 44
0.5
 73
0
 45
1.0
 46
1.0
 77
1
  4

 78
1
 79
1
170
1
 48
1.0
171
1
  6

172
1
173
1
174
1
140
1.0
141
1.0
175
1
  7

176
1
177
1
178
1
143
1.0
179
1
  8

270
1
271
1
272
1
145
1.0
146
1.0
273
1
  9

274
1
275
1
276
1
 42
1.0
 72
1
  3

 73
1
 74
1
 75
1
 94
63
  0
MLINESTYLE
  5
22
102
{ACAD_REACTORS
330
10
102
}
330
10
100
AcDbMlineStyle
  2
Standard
 70
0
  3

 62
256
 51
90.0
 52
90.0
 71
2
 49
0.5
 62
256
  6
BYLAYER
 49
-0.5
 62
256
  6
BYLAYER
  0
MLEADERSTYLE
  5
2C
102
{ACAD_REACTORS
330
F
102
}
330
F
100
AcDbMLeaderStyle
179
2
170
2
171
1
172
0
 90
2
 40
0.0
 41
0.0
173
1
 91
-1056964608
 92
-2
290
1
 42
2.0
291
1
 43
8.0
  3
Standard
 44
4.0
300

342
29
174
1
175
1
176
0
178
1
 93
-1056964608
 45
4.0
292
0
297
0
 46
4.0
 94
-1056964608
 47
1.0
 49
1.0
140
1.0
294
1
141
0.0
177
0
142
1.0
295
0
296
0
143
3.75
271
0
272
9
273
9
  0
DICTIONARY
  5
2D
330
A
100
AcDbDictionary
280
1
281
1
  3
CREATED_BY_EZDXF
350
2E
  3
WRITTEN_BY_EZDXF
350
100
  0
DICTIONARYVAR
  5
2E
330
2D
100
DictionaryVariables
280
0
  1
1.4.3 @ 2026-08-20T22:41:02.580014+00:00
  0
DICTIONARYVAR
  5
100
330
2D
100
DictionaryVariables
280
0
  1
1.4.3 @ 2026-08-20T22:41:02.915945+00:00
  0
ENDSEC
  0
EOF
